<svg width="24" height="24" viewBox="0 0 24 24" fill="none" xmlns="http://www.w3.org/2000/svg">
	<path d="M0 5C0 2.23858 2.23858 0 5 0H19C21.7614 0 24 2.23858 24 5V19C24 21.7614 21.7614 24 19 24H5C2.23858 24 0 21.7614 0 19V5Z" fill="white" fill-opacity="0.1"/>
	<path fill-rule="evenodd" clip-rule="evenodd" d="M11.1885 4.76628L6.0508 19.2742C5.77218 20.061 6.6994 20.7265 7.37789 20.2266L11.4845 17.2015C11.79 16.9765 12.21 16.9765 12.5155 17.2015L16.6221 20.2266C17.3006 20.7265 18.2278 20.061 17.9492 19.2742L12.8115 4.76628C12.544 4.01069 11.456 4.01069 11.1885 4.76628Z" fill="#393A4D"/>
</svg>
