<svg width="32" height="32" viewBox="0 0 32 32" fill="none" xmlns="http://www.w3.org/2000/svg">
	<path fill-rule="evenodd" clip-rule="evenodd" d="M6 0C2.68629 0 0 2.68629 0 6V26C0 29.3137 2.68629 32 6 32H26C29.3137 32 32 29.3137 32 26V6C32 2.68629 29.3137 0 26 0H6ZM8.5635 24.0933L14.9856 5.95837C15.32 5.01388 16.68 5.01388 17.0144 5.95837L23.4365 24.0933C23.7848 25.0768 22.6258 25.9086 21.7776 25.2838L16.6444 21.5024C16.2625 21.2211 15.7375 21.2211 15.3556 21.5024L10.2224 25.2838C9.37425 25.9086 8.21522 25.0768 8.5635 24.0933Z" fill="#333333"/>
</svg>
