<svg width="81" height="80" viewBox="0 0 81 80" fill="none" xmlns="http://www.w3.org/2000/svg">
	<path fill-rule="evenodd" clip-rule="evenodd" d="M15.0107 0.00109863C6.72647 0.00109863 0.0107422 6.71683 0.0107422 15.0011V65.0011C0.0107422 73.2854 6.72647 80.0011 15.0107 80.0011H65.0107C73.295 80.0011 80.0107 73.2854 80.0107 65.0011V15.0011C80.0107 6.71683 73.295 0.00109863 65.0107 0.00109863H15.0107ZM21.4174 60.2333L37.4726 14.896C38.3088 12.5348 41.7086 12.5348 42.5448 14.896L58.5999 60.2333C59.4706 62.6921 56.5731 64.7716 54.4528 63.2096L41.6197 53.7561C40.665 53.0528 39.3523 53.0528 38.3976 53.7561L25.5646 63.2096C23.4443 64.7716 20.5467 62.6921 21.4174 60.2333Z" fill="#333333"/>
</svg>
