<svg width="76" height="76" viewBox="0 0 76 76" fill="none" xmlns="http://www.w3.org/2000/svg">
	<path fill-rule="evenodd" clip-rule="evenodd" d="M51.2939 7.60001H24.7061C12.1813 7.60001 7.59998 12.1813 7.59998 24.7059V51.2945C7.59998 63.8187 12.1813 68.4 24.7057 68.4H51.2856C63.8105 68.4 68.4 63.8187 68.4 51.2945V24.7059C68.4 12.1813 63.8187 7.60001 51.2939 7.60001Z" fill="#CF102D"/>
	<path d="M34.1257 42.8617H36.5642L35.341 40.0171L34.1257 42.8617ZM33.5256 44.2946L32.8022 45.9497H31.1557L34.6573 38.0054H36.0805L39.5683 45.9497H37.8772L37.1636 44.2946H33.5256ZM60.0235 45.9445H61.6149V38.0057H60.0235V45.9445ZM53.689 42.5335H56.6223V41.0863H53.689V39.4593H57.9473V38.0102H52.0979V45.9494H58.1009V44.5014H53.689V42.5335ZM47.3653 43.4716L45.5608 38.005H44.2443L42.4398 43.4716L40.6835 38.0087H38.967L41.7377 45.9542H43.0729L44.8804 40.7353L46.6873 45.9542H48.034L50.7976 38.0087H49.1257L47.3653 43.4716ZM28.7255 42.5556C28.7255 43.8477 28.0842 44.5385 26.9187 44.5385C25.7473 44.5385 25.1018 43.8282 25.1018 42.5002V38.0099H23.4887V42.5556C23.4887 44.791 24.7313 46.0734 26.897 46.0734C29.0841 46.0734 30.3379 44.767 30.3379 42.4893V38.0054H28.7255V42.5556ZM19.6405 38.0054H21.2529V45.9546H19.6405V42.7264H15.9988V45.9546H14.3857V38.0054H15.9988V41.2122H19.6405V38.0054Z" fill="white"/>
	<path d="M38.0001 27.8844C32.4197 27.8844 27.8796 23.3443 27.8796 17.7638H29.3096C29.3096 22.5557 33.2083 26.4544 38.0001 26.4544C42.7923 26.4544 46.6906 22.5557 46.6906 17.7638H48.1206C48.1206 23.3443 43.5805 27.8844 38.0001 27.8844Z" fill="white"/>
</svg>
