<svg width="76" height="76" viewBox="0 0 76 76" fill="none" xmlns="http://www.w3.org/2000/svg">
	<g clip-path="url(#clip0_1_13146)">
		<path d="M34.9641 20.6097C35.1708 20.5322 35.455 20.5063 35.6358 20.6097C35.6875 20.6355 35.7391 20.6872 35.7133 20.7388V20.7905H35.7391C35.6875 20.9455 35.4291 20.9197 35.3 20.9713C35.1708 21.023 35.0675 21.1522 34.9383 21.1522C34.8091 21.1522 34.6025 21.1005 34.5766 20.9713C34.5508 20.7905 34.8091 20.6097 34.9641 20.6097ZM37.5991 20.9713C37.47 20.9197 37.2116 20.9455 37.1858 20.7905V20.7388C37.16 20.6872 37.2116 20.6355 37.2375 20.6097C37.4612 20.5192 37.7113 20.5192 37.935 20.6097C38.09 20.6097 38.3483 20.7905 38.3225 20.9713C38.2966 21.1005 38.09 21.1263 37.9608 21.1263C37.8316 21.1263 37.7283 21.023 37.5991 20.9713ZM33.0525 24.7172C33.8275 25.2338 34.835 25.9313 36.1008 25.9313C37.3666 25.9313 38.865 25.2338 39.7691 24.7172C40.26 24.3813 40.9316 23.8647 41.4483 23.503C41.8616 23.1672 41.8358 22.8313 42.1975 22.8313C42.5333 22.8572 42.275 23.1672 41.81 23.6838C41.3191 24.0197 40.5958 24.5363 40.0016 24.898C38.865 25.4147 37.5216 26.2672 36.1008 26.2672C34.7058 26.2672 33.5691 25.5697 32.7683 25.053C32.355 24.7172 32.045 24.3813 31.7866 24.2005C31.3733 23.8647 31.425 23.348 31.6058 23.348C31.89 23.3738 31.9416 23.6838 32.1225 23.8647C32.3808 24.0197 32.6908 24.3813 33.0525 24.7172Z" fill="#F9C105"/>
		<path d="M38.3224 20.9715C38.2966 21.1007 38.0899 21.1265 37.9608 21.1265C37.8316 21.1265 37.7283 21.0232 37.5991 20.9715C37.4699 20.9199 37.2116 20.9457 37.1858 20.7907V20.739C37.1599 20.6874 37.2116 20.6357 37.2374 20.6099C37.4611 20.5194 37.7112 20.5194 37.9349 20.6099C38.0899 20.6099 38.3483 20.7907 38.3224 20.9715Z" fill="black"/>
		<path d="M49.9471 34.5339V36.9106H48.5263C49.8163 39.2625 50.7397 41.7975 51.2646 44.4281C51.6521 44.4023 52.1171 44.4798 52.608 44.5831C52.8146 44.0406 52.9438 43.4981 53.0213 42.9556C53.5121 39.3648 51.2388 35.8514 49.9471 34.5339ZM49.9471 34.5339V36.9106H48.5263C49.8163 39.2625 50.7397 41.7975 51.2646 44.4281C51.6521 44.4023 52.1171 44.4798 52.608 44.5831C52.8146 44.0406 52.9438 43.4981 53.0213 42.9556C53.5121 39.3648 51.2388 35.8514 49.9471 34.5339ZM61.9596 55.1231V54.8906L61.9338 54.8648C61.4946 54.3481 61.288 53.4956 61.0555 52.4881C60.8488 51.4548 60.5905 50.4473 59.7638 49.7756C59.6088 49.6464 59.4538 49.6206 59.273 49.4398C59.1257 49.342 58.9576 49.2801 58.7821 49.2589C59.5055 47.1406 59.583 44.9964 59.2213 42.9556C59.0405 41.8448 58.7305 40.7598 58.3171 39.7264C56.9221 36.0839 54.4938 32.9064 52.6338 30.7364C51.678 29.5223 50.6963 28.3081 49.9471 27.0164C49.0946 25.5439 48.5263 23.9681 48.5521 22.0306C48.6038 18.4398 48.8363 12.8339 46.3046 9.34645C44.9613 7.46061 42.7655 6.16895 39.3038 6.16895C38.8905 6.16895 38.4771 6.19478 38.038 6.22061C34.7571 6.47895 32.7163 7.66728 31.4505 9.34645C28.4796 13.2731 29.8746 19.7831 29.7713 22.4956C29.5646 25.3114 28.9963 27.5331 27.033 30.2973C26.2321 31.2273 25.3021 32.3639 24.398 33.6556C22.6671 36.0839 20.9363 38.9773 19.9288 41.9739C19.283 43.9114 18.9213 45.9006 19.1021 47.8123L19.1796 48.4064C19.0763 48.4839 18.973 48.5873 18.8955 48.7423C18.198 49.4398 17.7071 50.2923 17.1646 50.9123C16.6221 51.4289 15.8988 51.6098 15.0721 51.9456C14.2455 52.3073 13.3413 52.6431 12.8246 53.7023C12.5663 54.1931 12.463 54.7356 12.463 55.2523C12.463 55.7689 12.5405 56.3114 12.618 56.6473C12.773 57.6806 12.928 58.5331 12.7213 59.1531C12.0755 60.9098 11.998 62.1239 12.4371 63.0023C12.9021 63.8548 13.8321 64.1906 14.8913 64.5523C17.0096 65.0689 19.8771 64.8881 22.1505 66.1023C24.553 67.2906 27.033 67.8331 28.9705 67.3164C30.3655 67.0064 31.528 66.1023 32.148 64.8623C32.2771 64.8623 32.3805 64.8623 32.5096 64.8364C33.9563 64.7589 35.558 64.1648 38.038 64.0098C38.7355 63.9581 39.4846 64.0356 40.3113 64.1389C41.6288 64.3456 43.1271 64.6298 44.7805 64.5264C44.8321 64.8623 44.9355 65.0173 45.0646 65.3789H45.0905C46.098 67.3939 47.9838 68.2981 49.9988 68.1431C52.0138 67.9881 54.158 66.7739 55.9146 64.7848C57.5421 62.7956 60.3063 61.9689 62.1146 60.8839C63.0188 60.3931 63.768 59.6956 63.8196 58.6881C63.8713 57.6548 63.303 56.5956 61.9596 55.1231ZM41.8613 18.1556C41.758 17.8198 41.603 17.6389 41.3963 17.3031C41.1638 17.1223 40.9571 16.9414 40.6988 16.9414H40.6471C40.4146 16.9414 40.1821 17.0189 39.9755 17.3031C39.7171 17.5356 39.5363 17.8198 39.433 18.1556C39.3038 18.4914 39.2263 18.8273 39.2005 19.1889V19.2406C39.2005 19.4731 39.2263 19.7056 39.2521 19.9381C38.7355 19.7573 38.1155 19.5764 37.6763 19.3956C37.6505 19.2406 37.6246 19.0598 37.6246 18.9048V18.8531C37.5988 18.1556 37.728 17.4839 38.0121 16.8639C38.2188 16.2956 38.6063 15.8048 39.123 15.4689C39.588 15.1331 40.1305 14.9523 40.673 14.9523H40.7246C41.2671 14.9523 41.758 15.1331 42.2488 15.4689C42.7396 15.8306 43.1013 16.3214 43.3855 16.8639C43.6696 17.5098 43.7988 18.0264 43.8246 18.7239C43.8246 18.6723 43.8505 18.6206 43.8505 18.5689V18.8273C43.8246 18.8273 43.8246 18.8014 43.8246 18.7756C43.8246 19.3698 43.6696 19.9898 43.4371 20.5581C43.308 20.8681 43.1271 21.1781 42.8688 21.4106C42.7913 21.3589 42.7138 21.3331 42.6363 21.3073C42.378 21.1781 42.1196 21.1264 41.8871 20.9714C41.7073 20.8843 41.5159 20.8234 41.3188 20.7906C41.448 20.6356 41.7063 20.4548 41.8096 20.2739C41.9388 19.9381 42.0163 19.6023 42.0421 19.2406V19.1889C42.0421 18.8531 41.9905 18.4914 41.8613 18.1556ZM31.1146 17.0189C31.2438 16.5023 31.5021 16.0373 31.8638 15.6239C32.1996 15.2881 32.5355 15.1073 32.9488 15.1073H33.0263C33.4087 15.1128 33.7795 15.2394 34.0855 15.4689C34.473 15.8048 34.783 16.2181 34.9896 16.6573C35.2221 17.1739 35.3513 17.6906 35.3771 18.3881C35.403 18.5689 35.403 18.6981 35.403 18.8273C35.403 18.9306 35.403 19.0081 35.3771 19.0856V19.2923C35.3109 19.3186 35.2414 19.336 35.1705 19.3439C34.7571 19.4989 34.4471 19.7056 34.1371 19.8606C34.163 19.6539 34.163 19.4214 34.1371 19.1889V19.1373C34.1113 18.8014 34.0338 18.6206 33.9305 18.2848C33.8443 18.0194 33.6934 17.7797 33.4913 17.5873C33.424 17.5299 33.3459 17.4867 33.2616 17.4601C33.1773 17.4334 33.0885 17.424 33.0005 17.4323H32.9488C32.768 17.4323 32.613 17.5356 32.4838 17.7681C32.303 17.9748 32.1996 18.2073 32.148 18.4656C32.0963 18.7498 32.0705 19.0339 32.0963 19.3181V19.3698C32.1221 19.7056 32.1996 19.8864 32.303 20.2223C32.4321 20.5581 32.5613 20.7389 32.7421 20.9198C32.768 20.9456 32.7938 20.9714 32.8196 20.9714C32.6388 21.1264 32.5355 21.1523 32.3805 21.3331C32.2742 21.4185 32.1509 21.4801 32.0188 21.5139C31.7605 21.1781 31.528 20.8423 31.3213 20.4548C31.063 19.9123 30.9338 19.3439 30.908 18.7498C30.8563 18.1556 30.9338 17.5614 31.1146 17.0189ZM31.3988 22.4698C31.9671 22.1081 32.3805 21.7464 32.6646 21.5914C32.923 21.4106 33.0263 21.3331 33.1038 21.2556H33.1296C33.5688 20.7131 34.2663 20.0414 35.2996 19.6798C35.6613 19.6023 36.0746 19.5248 36.5396 19.5248C37.3921 19.5248 38.4513 19.6798 39.6913 20.5581C40.4663 21.0748 41.0605 21.2556 42.4555 21.7723C43.1271 22.1081 43.5146 22.4439 43.7213 22.8056V22.4439C43.9021 22.8314 43.9021 23.2706 43.7471 23.6581C43.4371 24.4848 42.4038 25.3373 40.983 25.8539C40.2596 26.1898 39.6655 26.7064 38.9421 27.0423C38.2188 27.4039 37.418 27.8173 36.3071 27.7398C35.9108 27.7726 35.5123 27.7106 35.1446 27.5589C34.8346 27.4039 34.5505 27.2489 34.2921 27.0681C33.7755 26.7064 33.3363 26.1898 32.6905 25.8539C31.6313 25.2081 31.063 24.5106 30.8821 24.0198C30.7013 23.3223 30.8821 22.8056 31.3988 22.4698ZM31.8121 62.9248C31.6571 64.8364 30.5463 65.8698 28.8671 66.2573C27.1621 66.5931 24.8888 66.2573 22.5896 65.0689C20.0838 63.6739 17.0613 63.8548 15.1496 63.4931C14.168 63.3381 13.548 62.9764 13.238 62.4598C12.9538 61.9431 12.9538 60.9098 13.5738 59.2823C13.8838 58.4039 13.6513 57.3189 13.4963 56.3889C13.3671 55.3556 13.2896 54.5548 13.6255 53.9606C14.0388 53.0823 14.6588 52.9273 15.408 52.5656C16.183 52.2298 17.0871 52.0489 17.8105 51.3773V51.3514C18.4821 50.6539 18.973 49.8014 19.5671 49.1814C20.058 48.6648 20.5488 48.3289 21.298 48.3289H21.3238C21.453 48.3289 21.5821 48.3289 21.7371 48.3548C22.7188 48.5098 23.5713 49.2331 24.398 50.2923L26.7746 54.6064H26.8005C27.4205 55.9756 28.7638 57.3706 29.9005 58.8431C31.0371 60.3931 31.9155 61.7623 31.8121 62.8989V62.9248ZM40.3113 61.2714C37.7538 61.8656 35.0413 61.6848 32.5096 60.2898C32.1996 60.1348 31.8896 59.9539 31.6055 59.7473C31.3213 59.2564 30.9596 58.7914 30.5463 58.3781C30.3562 58.0544 30.1114 57.7659 29.823 57.5256C30.3138 57.5256 30.7271 57.4481 31.063 57.3448C31.4246 57.1639 31.7346 56.8539 31.8638 56.4923C32.148 55.7948 31.8638 54.6839 30.9596 53.4698C30.0555 52.2814 28.5313 50.9123 26.3096 49.5431C25.4571 49.0006 24.8113 48.4323 24.3205 47.8123C23.8296 47.2181 23.4938 46.5981 23.2871 45.9523C22.8738 44.5573 22.9255 43.1364 23.2613 41.6898C23.6488 39.9848 24.4238 38.3314 25.173 36.9106C25.6896 36.0064 26.1805 35.2056 26.5938 34.5598C26.8521 34.3789 26.6713 34.8698 25.5863 36.9106L25.5088 37.0656C24.4755 39.0031 22.538 43.5239 25.1988 47.0373C25.3021 44.4798 25.8705 41.9481 26.878 39.5973C27.2138 38.8223 27.653 37.9181 28.118 36.9106C29.6421 33.6814 31.5021 29.4964 31.683 25.9831C31.8121 26.0864 32.2513 26.3448 32.4321 26.4998C33.0005 26.8614 33.4396 27.3781 33.9821 27.7139C34.5246 28.2306 35.2221 28.5664 36.2813 28.5664C36.3846 28.5923 36.4621 28.5923 36.5655 28.5923C37.6246 28.5923 38.4771 28.2564 39.1746 27.8948C39.9238 27.5589 40.518 27.0423 41.0863 26.8614H41.1121C42.3263 26.5256 43.2821 25.8281 43.8505 25.0531C44.7805 28.7214 46.9763 34.0431 48.3713 36.6264C49.7427 39.0574 50.7193 41.6908 51.2646 44.4281C51.6521 44.4023 52.1171 44.4798 52.608 44.5831C52.8146 44.0406 52.9438 43.4981 53.0213 42.9556C53.5121 39.3648 51.2388 35.8514 49.9471 34.5339C49.8696 34.4823 49.7921 34.4048 49.7405 34.3531C49.1721 33.8364 49.1463 33.4748 49.4305 33.4748C49.6113 33.6298 49.7663 33.7848 49.9471 33.9656C51.3938 35.4639 53.073 37.8664 53.7188 40.6048C53.9255 41.3539 54.0288 42.1548 54.0288 42.9556C54.0288 43.6014 53.9513 44.2731 53.7963 44.9189C53.9513 44.9964 54.1321 45.0739 54.313 45.0998C57.0255 46.4689 58.0071 47.5023 57.5421 49.0523V48.9489H57.0255C57.413 47.7348 56.5605 46.8048 54.2355 45.7973C51.8588 44.7639 49.9471 44.9189 49.6113 46.9856C49.5855 47.0889 49.5855 47.1664 49.5596 47.3473C49.3788 47.3989 49.198 47.4764 49.0171 47.5023C47.9063 48.1998 47.2863 49.2331 46.9505 50.5764C46.6146 51.9456 46.5113 53.5473 46.408 55.4073C46.3563 56.2598 45.9688 57.5773 45.5813 58.8948C44.0055 60.0056 42.223 60.8581 40.3113 61.2714ZM61.753 59.9539C60.1255 60.9873 57.2063 61.7881 55.3463 64.0098C53.7188 65.9214 51.7555 66.9548 50.0246 67.0839C48.2938 67.2131 46.7955 66.5673 45.9171 64.7589H45.8913C45.3488 63.7256 45.5813 62.0981 46.0463 60.3931C46.5113 58.6623 47.1571 56.9056 47.2605 55.4848C47.338 53.6506 47.4413 52.0489 47.7513 50.8089C48.0871 49.5948 48.578 48.7423 49.4305 48.2514L49.5596 48.1998C49.6371 49.7498 50.438 51.4031 51.8588 51.7648C53.383 52.1006 55.6046 50.8864 56.5346 49.7756L57.0771 49.7498C57.9038 49.7239 58.6013 49.7756 59.2988 50.4473C59.8413 50.9639 60.0996 51.8164 60.3321 52.7206C60.5646 53.7539 60.7455 54.7356 61.3913 55.4589C62.683 56.8281 63.0963 57.8098 63.0705 58.4039C63.0188 59.1014 62.5796 59.4373 61.753 59.9539ZM49.9471 34.5339V36.9106H48.5263C49.8163 39.2625 50.7397 41.7975 51.2646 44.4281C51.6521 44.4023 52.1171 44.4798 52.608 44.5831C52.8146 44.0406 52.9438 43.4981 53.0213 42.9556C53.5121 39.3648 51.2388 35.8514 49.9471 34.5339Z" fill="black"/>
		<path d="M43.7213 22.4439V22.8056C43.5147 22.4439 43.1272 22.1081 42.4555 21.7723C41.0605 21.2556 40.4663 21.0748 39.6913 20.5581C38.4513 19.6798 37.3922 19.5248 36.5397 19.5248C36.0747 19.5248 35.6613 19.6023 35.2997 19.6798C34.2663 20.0414 33.5688 20.7131 33.1297 21.2556H33.1038C33.0263 21.3331 32.923 21.4106 32.6647 21.5914C32.3805 21.7464 31.9672 22.1081 31.3988 22.4698C30.8822 22.8056 30.7013 23.3223 30.8822 24.0198C31.063 24.5106 31.6313 25.2081 32.6905 25.8539C33.3363 26.1898 33.7755 26.7064 34.2922 27.0681C34.5505 27.2489 34.8347 27.4039 35.1447 27.5589C35.5063 27.7139 35.8938 27.7656 36.3072 27.7398C37.418 27.8173 38.2188 27.4039 38.9422 27.0423C39.6655 26.7064 40.2597 26.1898 40.983 25.8539C42.4038 25.3373 43.4372 24.4848 43.7472 23.6581C43.9022 23.2706 43.9022 22.8314 43.7213 22.4439ZM37.1855 20.7389C37.1597 20.6873 37.2113 20.6356 37.2372 20.6098C37.4609 20.5193 37.711 20.5193 37.9347 20.6098C38.0897 20.6098 38.348 20.7906 38.3222 20.9714C38.2963 21.1006 38.0897 21.1264 37.9605 21.1264C37.8313 21.1264 37.728 21.0231 37.5988 20.9714C37.4697 20.9198 37.2113 20.9456 37.1855 20.7906V20.7389ZM34.9638 20.6098C35.1705 20.5323 35.4547 20.5064 35.6355 20.6098C35.6872 20.6356 35.7388 20.6873 35.713 20.7389V20.7906H35.7388C35.6872 20.9456 35.4288 20.9198 35.2997 20.9714C35.1705 21.0231 35.0672 21.1523 34.938 21.1523C34.8088 21.1523 34.6022 21.1006 34.5763 20.9714C34.5505 20.7906 34.8088 20.6098 34.9638 20.6098ZM41.8097 23.6839C41.3188 24.0198 40.5955 24.5364 40.0013 24.8981C38.8647 25.4148 37.5213 26.2673 36.1005 26.2673C34.7055 26.2673 33.5688 25.5698 32.768 25.0531C32.3547 24.7173 32.0447 24.3814 31.7863 24.2006C31.373 23.8648 31.4247 23.3481 31.6055 23.3481C31.8897 23.3739 31.9413 23.6839 32.1222 23.8648C32.3805 24.0198 32.6905 24.3814 33.0522 24.7173C33.8272 25.2339 34.8347 25.9314 36.1005 25.9314C37.3663 25.9314 38.8647 25.2339 39.7688 24.7173C40.2597 24.3814 40.9313 23.8648 41.448 23.5031C41.8613 23.1673 41.8355 22.8314 42.1972 22.8314C42.533 22.8573 42.2747 23.1673 41.8097 23.6839ZM63.0705 58.4039C63.0188 59.1014 62.5797 59.4373 61.753 59.9539C60.1255 60.9873 57.2063 61.7881 55.3463 64.0098C53.7188 65.9214 51.7555 66.9548 50.0247 67.0839C48.2938 67.2131 46.7955 66.5673 45.9172 64.7589H45.8913C45.3488 63.7256 45.5813 62.0981 46.0463 60.3931C46.5113 58.6623 47.1572 56.9056 47.2605 55.4848C47.338 53.6506 47.4413 52.0489 47.7513 50.8089C48.0872 49.5948 48.578 48.7423 49.4305 48.2514L49.5597 48.1998C49.6372 49.7498 50.438 51.4031 51.8588 51.7648C53.383 52.1006 55.6047 50.8864 56.5347 49.7756L57.0772 49.7498C57.9038 49.7239 58.6013 49.7756 59.2988 50.4473C59.8413 50.9639 60.0997 51.8164 60.3322 52.7206C60.5647 53.7539 60.7455 54.7356 61.3913 55.4589C62.683 56.8281 63.0963 57.8098 63.0705 58.4039ZM31.8122 62.8989V62.9248C31.6572 64.8364 30.5463 65.8698 28.8672 66.2573C27.1622 66.5931 24.8888 66.2573 22.5897 65.0689C20.0838 63.6739 17.0613 63.8548 15.1497 63.4931C14.168 63.3381 13.548 62.9764 13.238 62.4598C12.9538 61.9431 12.9538 60.9098 13.5738 59.2823C13.8838 58.4039 13.6513 57.3189 13.4963 56.3889C13.3672 55.3556 13.2897 54.5548 13.6255 53.9606C14.0388 53.0823 14.6588 52.9273 15.408 52.5656C16.183 52.2298 17.0872 52.0489 17.8105 51.3773V51.3514C18.4822 50.6539 18.973 49.8014 19.5672 49.1814C20.058 48.6648 20.5488 48.3289 21.298 48.3289H21.3238C21.453 48.3289 21.5822 48.3289 21.7372 48.3548C22.7188 48.5098 23.5713 49.2331 24.398 50.2923L26.7747 54.6064H26.8005C27.4205 55.9756 28.7638 57.3706 29.9005 58.8431C31.0372 60.3931 31.9155 61.7623 31.8122 62.8989Z" fill="#F9C105"/>
		<path d="M35.7391 20.7905C35.6875 20.9455 35.4291 20.9197 35.3 20.9713C35.1708 21.023 35.0675 21.1522 34.9383 21.1522C34.8091 21.1522 34.6025 21.1005 34.5766 20.9713C34.5508 20.7905 34.8091 20.6097 34.9641 20.6097C35.1708 20.5322 35.455 20.5063 35.6358 20.6097C35.6875 20.6355 35.7391 20.6872 35.7133 20.7388V20.7905H35.7391ZM41.81 23.6838C41.3191 24.0197 40.5958 24.5363 40.0016 24.898C38.865 25.4147 37.5216 26.2672 36.1008 26.2672C34.7058 26.2672 33.5691 25.5697 32.7683 25.053C32.355 24.7172 32.045 24.3813 31.7866 24.2005C31.3733 23.8647 31.425 23.348 31.6058 23.348C31.89 23.3738 31.9416 23.6838 32.1225 23.8647C32.3808 24.0197 32.6908 24.3813 33.0525 24.7172C33.8275 25.2338 34.835 25.9313 36.1008 25.9313C37.3666 25.9313 38.865 25.2338 39.7691 24.7172C40.26 24.3813 40.9316 23.8647 41.4483 23.503C41.8616 23.1672 41.8358 22.8313 42.1975 22.8313C42.5333 22.8572 42.275 23.1672 41.81 23.6838Z" fill="black"/>
	</g>
	<defs>
		<clipPath id="clip0_1_13146">
			<rect width="62" height="62" fill="white" transform="translate(6.98633 6.16895)"/>
		</clipPath>
	</defs>
</svg>
