<svg width="81" height="80" viewBox="0 0 81 80" fill="none" xmlns="http://www.w3.org/2000/svg">
	<path opacity="0.9" d="M57.0851 40.1518C57.0851 35.4446 59.2553 32.0095 63.4681 29.3379C61.0426 25.9029 57.4681 24.1217 52.7447 23.7401C48.1489 23.3584 43.1702 26.2845 41.383 26.2845C39.4681 26.2845 35.1277 23.8673 31.6809 23.8673C24.5319 23.9945 17 29.4651 17 40.7879C17 44.0957 17.5106 47.5307 18.7872 51.093C20.4468 55.8002 26.3191 67.2503 32.4468 66.9958C35.6383 66.9958 37.9362 64.7058 42.1489 64.7058C46.234 64.7058 48.2766 66.9958 51.8511 66.9958C58.1064 66.9958 63.4681 56.5636 65 51.8563C56.7021 47.9124 57.0851 40.4063 57.0851 40.1518ZM49.9362 19.2873C53.383 15.2161 53 11.3995 53 10C49.9362 10.2544 46.3617 12.1628 44.3191 14.4528C42.0213 16.9973 40.7447 20.1778 41 23.6128C44.3191 23.8673 47.383 22.2134 49.9362 19.2873Z" fill="#333333"/>
</svg>
