<svg width="26" height="26" viewBox="0 0 26 26" fill="none" xmlns="http://www.w3.org/2000/svg">
	<g opacity="0.8">
		<path d="M13.0395 14.9278C12.5885 14.9278 12.1262 14.703 11.6865 14.2533L1.84365 4.58462C2.20444 4.19112 2.88092 4 3.85055 4H21.9352C23.0289 4 23.7843 4.21361 24.1789 4.64083L14.4037 14.2533C13.9527 14.7142 13.5017 14.9278 13.0395 14.9278ZM1.06569 21.3811C0.862747 21.0663 0.75 20.5041 0.75 19.7059V7.28284C0.75 6.51834 0.840198 5.9787 1.02059 5.67515L9.08203 13.5675L1.06569 21.3811ZM24.9681 21.3249L17.0082 13.5675L25.002 5.7426C25.1711 6.03491 25.25 6.55207 25.25 7.28284V19.7059C25.25 20.4817 25.1598 21.0213 24.9681 21.3249ZM4.07605 23C3.03877 23 2.31719 22.8089 1.92257 22.4379L10.0404 14.5006L10.8522 15.2988C11.5625 15.9846 12.2728 16.3107 13.0395 16.3107C13.8061 16.3107 14.5277 15.9846 15.238 15.2988L16.0385 14.5006L24.1451 22.4266C23.7843 22.7976 23.1191 23 22.1494 23H4.07605Z" fill="#009FE6"/>
	</g>
</svg>
