<svg width="24" height="24" viewBox="0 0 24 24" fill="none" xmlns="http://www.w3.org/2000/svg">
	<g clip-path="url(#clip0_1_13194)">
		<path d="M12 24C18.6274 24 24 18.6274 24 12C24 5.37258 18.6274 0 12 0C5.37258 0 0 5.37258 0 12C0 18.6274 5.37258 24 12 24Z" fill="url(#paint0_linear_1_13194)"/>
		<path d="M8.12292 12.8772L9.54663 16.8178C9.54663 16.8178 9.72463 17.1865 9.91523 17.1865C10.1058 17.1865 12.9407 14.2373 12.9407 14.2373L16.0932 8.14832L8.17373 11.86L8.12292 12.8772Z" fill="#C8DAEA"/>
		<path d="M10.0106 13.8878L9.73733 16.7924C9.73733 16.7924 9.62293 17.6824 10.5127 16.7924C11.4025 15.9024 12.2542 15.2161 12.2542 15.2161" fill="#A9C6D8"/>
		<path d="M8.1492 13.0178L5.2206 12.0636C5.2206 12.0636 4.8706 11.9216 4.9833 11.5996C5.0065 11.5332 5.0533 11.4767 5.1933 11.3796C5.8422 10.9273 17.2039 6.84359 17.2039 6.84359C17.2039 6.84359 17.5247 6.73549 17.7139 6.80739C17.7607 6.82188 17.8028 6.84854 17.8359 6.88465C17.8691 6.92076 17.892 6.96501 17.9024 7.01289C17.9228 7.09746 17.9314 7.18446 17.9278 7.27139C17.9269 7.34659 17.9178 7.41629 17.9109 7.52559C17.8417 8.64209 15.7709 16.9749 15.7709 16.9749C15.7709 16.9749 15.647 17.4625 15.2031 17.4792C15.094 17.4827 14.9853 17.4642 14.8835 17.4249C14.7817 17.3855 14.6889 17.326 14.6106 17.25C13.7395 16.5007 10.7287 14.4773 10.0634 14.0323C10.0484 14.0221 10.0358 14.0087 10.0263 13.9932C10.0169 13.9777 10.0109 13.9603 10.0088 13.9423C9.9995 13.8954 10.0505 13.8373 10.0505 13.8373C10.0505 13.8373 15.2931 9.17729 15.4326 8.68809C15.4434 8.65019 15.4026 8.63149 15.3478 8.64809C14.9996 8.77619 8.9634 12.5881 8.2972 13.0088C8.24924 13.0233 8.19856 13.0264 8.1492 13.0178Z" fill="white"/>
	</g>
	<defs>
		<linearGradient id="paint0_linear_1_13194" x1="12" y1="24" x2="12" y2="0" gradientUnits="userSpaceOnUse">
			<stop stop-color="#1D93D2"/>
			<stop offset="1" stop-color="#38B0E3"/>
		</linearGradient>
		<clipPath id="clip0_1_13194">
			<rect width="24" height="24" fill="white"/>
		</clipPath>
	</defs>
</svg>
