<svg width="24" height="24" viewBox="0 0 24 24" fill="none" xmlns="http://www.w3.org/2000/svg">
	<g clip-path="url(#clip0_1_13185)">
		<path d="M24 0H0V24H24V0Z" fill="url(#paint0_linear_1_13185)"/>
		<path d="M5.09387 18.9136L6.0612 15.478C5.43915 14.4212 5.11164 13.2188 5.11164 11.9837C5.11164 8.18049 8.20573 5.0864 12.0089 5.0864C15.8121 5.0864 18.9061 8.18049 18.9061 11.9837C18.9061 15.7868 15.8121 18.8809 12.0089 18.8809C10.8239 18.8809 9.66347 18.5776 8.63695 18.0016L5.09387 18.9136ZM8.81808 16.7468L9.0292 16.8757C9.92421 17.4221 10.9546 17.7109 12.0089 17.7109C15.1669 17.7109 17.7361 15.1417 17.7361 11.9837C17.7361 8.82564 15.1669 6.2564 12.0089 6.2564C8.85088 6.2564 6.28164 8.82564 6.28164 11.9837C6.28164 13.084 6.59438 14.1526 7.18597 15.0738L7.32815 15.2952L6.77109 17.2737L8.81808 16.7468Z" fill="white"/>
		<path d="M10.0714 8.77347L9.62383 8.74907C9.48326 8.7414 9.34537 8.78837 9.23912 8.88068C9.02214 9.06909 8.67522 9.43335 8.56866 9.90803C8.40976 10.6158 8.65533 11.4825 9.2909 12.3491C9.92647 13.2158 11.1109 14.6025 13.2053 15.1947C13.8803 15.3855 14.4112 15.2569 14.8208 14.9949C15.1453 14.7873 15.3689 14.4542 15.4495 14.0777L15.521 13.7439C15.5437 13.6378 15.4898 13.5302 15.3913 13.4848L13.8787 12.7876C13.7805 12.7423 13.6641 12.7709 13.598 12.8565L13.0042 13.6263C12.9594 13.6844 12.8826 13.7075 12.8133 13.6831C12.4066 13.5402 11.0445 12.9698 10.2971 11.53C10.2646 11.4676 10.2727 11.3918 10.3187 11.3385L10.8862 10.682C10.9442 10.615 10.9588 10.5208 10.924 10.4393L10.272 8.91391C10.2373 8.8327 10.1595 8.77828 10.0714 8.77347Z" fill="white"/>
	</g>
	<defs>
		<linearGradient id="paint0_linear_1_13185" x1="12" y1="0" x2="12" y2="35.5" gradientUnits="userSpaceOnUse">
			<stop stop-color="#4CDE6A"/>
			<stop offset="1" stop-color="#29A955"/>
		</linearGradient>
		<clipPath id="clip0_1_13185">
			<rect width="24" height="24" rx="12" fill="white"/>
		</clipPath>
	</defs>
</svg>
