<svg width="256" height="275" viewBox="0 0 256 275" fill="none" xmlns="http://www.w3.org/2000/svg">
	<path d="M58 29.5833C58 13.7972 70.7972 1 86.5833 1H169.417C185.203 1 198 13.7972 198 29.5833V112.417C198 128.203 185.203 141 169.417 141H86.5833C70.7972 141 58 128.203 58 112.417V29.5833Z" fill="white" stroke="#F0F0F0" stroke-width="2"/>
	<path fill-rule="evenodd" clip-rule="evenodd" d="M123.659 27.1464L93.8089 112.965C92.1901 117.619 97.5773 121.555 101.519 118.599L125.379 100.704C127.154 99.3729 129.594 99.3729 131.369 100.704L155.228 118.599C159.171 121.555 164.558 117.619 162.939 112.965L133.089 27.1464C131.534 22.6769 125.213 22.6769 123.659 27.1464Z" fill="url(#paint0_linear_26_13956)"/>
	<path d="M34.4967 217.276C34.7563 217.276 35.016 217.33 35.2756 217.437C35.5352 217.523 35.784 217.684 36.022 217.92L40.3706 222.458C38.4667 224.926 36.0761 226.793 33.1986 228.059C30.3428 229.303 26.957 229.926 23.0411 229.926C19.4497 229.926 16.2261 229.325 13.3703 228.123C10.5362 226.9 8.12388 225.226 6.13347 223.102C4.1647 220.956 2.65027 218.424 1.59016 215.506C0.530053 212.566 0 209.38 0 205.947C0 202.449 0.573323 199.241 1.71997 196.323C2.86661 193.383 4.47841 190.851 6.55535 188.727C8.6323 186.603 11.1203 184.95 14.0194 183.77C16.9184 182.59 20.1096 182 23.5928 182C25.3668 182 27.0327 182.161 28.5904 182.483C30.1698 182.783 31.6409 183.212 33.0039 183.77C34.3669 184.307 35.6217 184.961 36.7684 185.734C37.915 186.506 38.9319 187.343 39.8189 188.244L36.1193 193.169C35.8814 193.469 35.6001 193.748 35.2756 194.006C34.9511 194.242 34.4967 194.36 33.9126 194.36C33.5232 194.36 33.1554 194.274 32.8092 194.102C32.4631 193.93 32.0953 193.727 31.7058 193.491C31.3164 193.233 30.8837 192.965 30.4077 192.686C29.9534 192.385 29.4017 192.117 28.7527 191.881C28.1253 191.624 27.3789 191.409 26.5135 191.238C25.6697 191.066 24.6745 190.98 23.5279 190.98C21.7105 190.98 20.0447 191.313 18.5302 191.978C17.0374 192.643 15.7393 193.619 14.636 194.907C13.5542 196.173 12.7105 197.739 12.1047 199.606C11.5205 201.451 11.2285 203.565 11.2285 205.947C11.2285 208.35 11.553 210.485 12.202 212.352C12.8727 214.219 13.7706 215.796 14.8956 217.083C16.0422 218.349 17.3728 219.315 18.8872 219.98C20.4016 220.645 22.0243 220.978 23.755 220.978C24.7502 220.978 25.6589 220.935 26.481 220.849C27.3031 220.742 28.0712 220.581 28.7851 220.366C29.4991 220.13 30.1698 219.83 30.7972 219.465C31.4246 219.079 32.0628 218.596 32.7119 218.017C32.9715 217.802 33.2527 217.63 33.5556 217.502C33.8585 217.351 34.1722 217.276 34.4967 217.276Z" fill="white"/>
	<path d="M58.1564 195.518C60.7093 195.518 63.0351 195.915 65.1337 196.709C67.2322 197.503 69.0279 198.64 70.5207 200.121C72.0352 201.602 73.2035 203.404 74.0256 205.528C74.8693 207.631 75.2912 210.002 75.2912 212.642C75.2912 215.302 74.8693 217.706 74.0256 219.851C73.2035 221.976 72.0352 223.789 70.5207 225.291C69.0279 226.771 67.2322 227.919 65.1337 228.735C63.0351 229.529 60.7093 229.926 58.1564 229.926C55.5819 229.926 53.2345 229.529 51.1143 228.735C49.0157 227.919 47.1984 226.771 45.6623 225.291C44.1479 223.789 42.9688 221.976 42.125 219.851C41.3029 217.706 40.8918 215.302 40.8918 212.642C40.8918 210.002 41.3029 207.631 42.125 205.528C42.9688 203.404 44.1479 201.602 45.6623 200.121C47.1984 198.64 49.0157 197.503 51.1143 196.709C53.2345 195.915 55.5819 195.518 58.1564 195.518ZM58.1564 222.523C60.4714 222.523 62.1697 221.718 63.2514 220.109C64.3548 218.478 64.9065 216.01 64.9065 212.706C64.9065 209.401 64.3548 206.945 63.2514 205.335C62.1697 203.726 60.4714 202.921 58.1564 202.921C55.7766 202.921 54.035 203.726 52.9316 205.335C51.8283 206.945 51.2766 209.401 51.2766 212.706C51.2766 216.01 51.8283 218.478 52.9316 220.109C54.035 221.718 55.7766 222.523 58.1564 222.523Z" fill="white"/>
	<path d="M79.7083 229.411V196.033H85.9391C87.1939 196.033 88.016 196.591 88.4055 197.707L88.9572 199.509C89.5197 198.93 90.1038 198.404 90.7096 197.932C91.3154 197.439 91.9644 197.02 92.6567 196.677C93.3707 196.312 94.1279 196.033 94.9284 195.84C95.7505 195.626 96.6483 195.518 97.6219 195.518C99.6556 195.518 101.332 196.044 102.652 197.095C103.993 198.125 105.01 199.509 105.703 201.248C106.265 200.218 106.947 199.338 107.747 198.608C108.569 197.879 109.445 197.289 110.376 196.838C111.328 196.387 112.323 196.055 113.361 195.84C114.421 195.626 115.471 195.518 116.509 195.518C118.435 195.518 120.144 195.808 121.637 196.387C123.129 196.945 124.373 197.771 125.369 198.866C126.385 199.939 127.153 201.269 127.673 202.857C128.192 204.423 128.452 206.204 128.452 208.2V229.411H118.391V208.2C118.391 204.745 116.899 203.018 113.913 203.018C112.55 203.018 111.414 203.468 110.505 204.37C109.618 205.249 109.175 206.526 109.175 208.2V229.411H99.1147V208.2C99.1147 206.29 98.7361 204.949 97.9789 204.176C97.2217 203.404 96.1075 203.018 94.6363 203.018C93.7276 203.018 92.8623 203.222 92.0401 203.629C91.2396 204.037 90.4824 204.584 89.7685 205.271V229.411H79.7083Z" fill="white"/>
	<path d="M144.326 220.334C145.083 221.149 145.906 221.729 146.793 222.072C147.68 222.415 148.61 222.587 149.584 222.587C150.514 222.587 151.368 222.405 152.147 222.04C152.926 221.675 153.597 221.096 154.159 220.302C154.743 219.486 155.198 218.435 155.522 217.148C155.847 215.86 156.009 214.294 156.009 212.448C156.009 210.689 155.879 209.208 155.62 208.007C155.36 206.805 154.992 205.839 154.516 205.11C154.062 204.359 153.51 203.822 152.861 203.501C152.212 203.179 151.487 203.018 150.687 203.018C149.216 203.018 148.004 203.286 147.052 203.822C146.1 204.359 145.192 205.142 144.326 206.172V220.334ZM143.71 200.153C145.029 198.758 146.522 197.621 148.188 196.741C149.876 195.84 151.877 195.39 154.192 195.39C155.944 195.39 157.567 195.776 159.06 196.548C160.552 197.321 161.84 198.437 162.921 199.896C164.003 201.355 164.847 203.147 165.453 205.271C166.08 207.374 166.394 209.766 166.394 212.448C166.394 214.959 166.037 217.276 165.323 219.401C164.631 221.525 163.646 223.37 162.37 224.937C161.115 226.503 159.6 227.726 157.826 228.606C156.074 229.486 154.127 229.926 151.985 229.926C150.233 229.926 148.761 229.679 147.571 229.185C146.382 228.692 145.3 228.027 144.326 227.19V240H134.266V196.033H140.497C141.752 196.033 142.574 196.591 142.963 197.707L143.71 200.153Z" fill="white"/>
	<path d="M188.312 215.828C186.3 215.914 184.645 216.085 183.347 216.343C182.048 216.6 181.021 216.922 180.264 217.309C179.506 217.695 178.976 218.135 178.673 218.628C178.392 219.122 178.252 219.658 178.252 220.238C178.252 221.375 178.565 222.179 179.193 222.652C179.82 223.102 180.74 223.327 181.951 223.327C183.249 223.327 184.385 223.102 185.359 222.652C186.332 222.201 187.316 221.471 188.312 220.463V215.828ZM170.203 200.668C172.237 198.887 174.487 197.568 176.953 196.709C179.441 195.829 182.103 195.39 184.937 195.39C186.97 195.39 188.799 195.722 190.421 196.387C192.065 197.031 193.45 197.943 194.575 199.123C195.722 200.282 196.598 201.666 197.204 203.275C197.809 204.885 198.112 206.644 198.112 208.554V229.411H193.504C192.552 229.411 191.827 229.282 191.33 229.024C190.854 228.767 190.454 228.23 190.129 227.415L189.415 225.58C188.571 226.289 187.76 226.911 186.981 227.447C186.202 227.984 185.391 228.445 184.547 228.831C183.725 229.196 182.838 229.464 181.886 229.636C180.956 229.829 179.917 229.926 178.771 229.926C177.235 229.926 175.839 229.733 174.584 229.346C173.33 228.939 172.259 228.349 171.372 227.576C170.506 226.804 169.836 225.849 169.36 224.711C168.884 223.553 168.646 222.222 168.646 220.72C168.646 219.519 168.949 218.306 169.554 217.083C170.16 215.839 171.209 214.712 172.702 213.704C174.195 212.674 176.207 211.815 178.738 211.129C181.27 210.442 184.461 210.056 188.312 209.97V208.554C188.312 206.601 187.901 205.196 187.079 204.337C186.278 203.458 185.131 203.018 183.639 203.018C182.449 203.018 181.475 203.147 180.718 203.404C179.961 203.661 179.279 203.951 178.673 204.273C178.089 204.595 177.516 204.885 176.953 205.142C176.391 205.4 175.72 205.528 174.941 205.528C174.249 205.528 173.665 205.357 173.189 205.013C172.713 204.67 172.324 204.262 172.021 203.79L170.203 200.668Z" fill="white"/>
	<path d="M225.28 203.34C225.02 203.747 224.739 204.037 224.436 204.209C224.155 204.38 223.787 204.466 223.333 204.466C222.857 204.466 222.381 204.37 221.905 204.176C221.429 203.962 220.91 203.737 220.347 203.501C219.806 203.265 219.19 203.05 218.497 202.857C217.805 202.642 217.015 202.535 216.128 202.535C214.852 202.535 213.868 202.782 213.175 203.275C212.505 203.747 212.169 204.413 212.169 205.271C212.169 205.893 212.386 206.408 212.818 206.816C213.273 207.223 213.868 207.588 214.603 207.91C215.339 208.211 216.172 208.5 217.102 208.779C218.032 209.058 218.984 209.369 219.958 209.713C220.931 210.056 221.883 210.464 222.814 210.936C223.744 211.386 224.577 211.955 225.312 212.642C226.048 213.307 226.632 214.122 227.065 215.088C227.519 216.053 227.746 217.212 227.746 218.564C227.746 220.216 227.443 221.74 226.838 223.134C226.232 224.529 225.323 225.731 224.112 226.739C222.922 227.748 221.44 228.531 219.666 229.089C217.913 229.647 215.89 229.926 213.597 229.926C212.45 229.926 211.304 229.818 210.157 229.604C209.01 229.389 207.896 229.1 206.815 228.735C205.754 228.37 204.77 227.941 203.861 227.447C202.953 226.932 202.174 226.385 201.525 225.806L203.861 222.137C204.121 221.707 204.446 221.375 204.835 221.139C205.246 220.881 205.765 220.753 206.393 220.753C206.977 220.753 207.496 220.881 207.95 221.139C208.426 221.396 208.935 221.675 209.476 221.976C210.017 222.276 210.644 222.555 211.358 222.812C212.093 223.07 213.013 223.199 214.116 223.199C214.895 223.199 215.555 223.124 216.096 222.973C216.637 222.802 217.069 222.576 217.394 222.297C217.719 222.018 217.957 221.707 218.108 221.364C218.259 221.021 218.335 220.667 218.335 220.302C218.335 219.637 218.108 219.09 217.654 218.66C217.199 218.231 216.604 217.866 215.869 217.566C215.133 217.244 214.289 216.954 213.337 216.697C212.407 216.418 211.455 216.107 210.482 215.764C209.508 215.42 208.545 215.013 207.593 214.541C206.663 214.047 205.83 213.435 205.095 212.706C204.359 211.955 203.764 211.043 203.31 209.97C202.855 208.897 202.628 207.599 202.628 206.075C202.628 204.659 202.899 203.318 203.44 202.052C204.002 200.765 204.835 199.638 205.938 198.673C207.042 197.707 208.426 196.945 210.092 196.387C211.758 195.808 213.705 195.518 215.934 195.518C217.145 195.518 218.313 195.626 219.438 195.84C220.585 196.055 221.656 196.355 222.651 196.741C223.646 197.128 224.555 197.589 225.377 198.125C226.199 198.64 226.924 199.209 227.552 199.831L225.28 203.34Z" fill="white"/>
	<path d="M253.534 203.34C253.274 203.747 252.993 204.037 252.69 204.209C252.409 204.38 252.041 204.466 251.586 204.466C251.111 204.466 250.635 204.37 250.159 204.176C249.683 203.962 249.163 203.737 248.601 203.501C248.06 203.265 247.443 203.05 246.751 202.857C246.059 202.642 245.269 202.535 244.382 202.535C243.106 202.535 242.121 202.782 241.429 203.275C240.758 203.747 240.423 204.413 240.423 205.271C240.423 205.893 240.639 206.408 241.072 206.816C241.526 207.223 242.121 207.588 242.857 207.91C243.592 208.211 244.425 208.5 245.356 208.779C246.286 209.058 247.238 209.369 248.211 209.713C249.185 210.056 250.137 210.464 251.067 210.936C251.998 211.386 252.831 211.955 253.566 212.642C254.302 213.307 254.886 214.122 255.318 215.088C255.773 216.053 256 217.212 256 218.564C256 220.216 255.697 221.74 255.091 223.134C254.486 224.529 253.577 225.731 252.365 226.739C251.175 227.748 249.693 228.531 247.919 229.089C246.167 229.647 244.144 229.926 241.851 229.926C240.704 229.926 239.558 229.818 238.411 229.604C237.264 229.389 236.15 229.1 235.068 228.735C234.008 228.37 233.024 227.941 232.115 227.447C231.206 226.932 230.428 226.385 229.779 225.806L232.115 222.137C232.375 221.707 232.699 221.375 233.089 221.139C233.5 220.881 234.019 220.753 234.646 220.753C235.231 220.753 235.75 220.881 236.204 221.139C236.68 221.396 237.189 221.675 237.729 221.976C238.27 222.276 238.898 222.555 239.612 222.812C240.347 223.07 241.267 223.199 242.37 223.199C243.149 223.199 243.809 223.124 244.35 222.973C244.891 222.802 245.323 222.576 245.648 222.297C245.972 222.018 246.21 221.707 246.362 221.364C246.513 221.021 246.589 220.667 246.589 220.302C246.589 219.637 246.362 219.09 245.907 218.66C245.453 218.231 244.858 217.866 244.122 217.566C243.387 217.244 242.543 216.954 241.591 216.697C240.661 216.418 239.709 216.107 238.735 215.764C237.762 215.42 236.799 215.013 235.847 214.541C234.917 214.047 234.084 213.435 233.348 212.706C232.613 211.955 232.018 211.043 231.563 209.97C231.109 208.897 230.882 207.599 230.882 206.075C230.882 204.659 231.152 203.318 231.693 202.052C232.256 200.765 233.089 199.638 234.192 198.673C235.295 197.707 236.68 196.945 238.346 196.387C240.012 195.808 241.959 195.518 244.187 195.518C245.399 195.518 246.567 195.626 247.692 195.84C248.839 196.055 249.91 196.355 250.905 196.741C251.9 197.128 252.809 197.589 253.631 198.125C254.453 198.64 255.178 199.209 255.805 199.831L253.534 203.34Z" fill="white"/>
	<g opacity="0.5">
		<path d="M72.644 267.39C72.644 268.45 72.4674 269.433 72.114 270.34C71.7674 271.24 71.274 272.02 70.634 272.68C69.994 273.34 69.224 273.857 68.324 274.23C67.424 274.597 66.424 274.78 65.324 274.78C64.2307 274.78 63.234 274.597 62.334 274.23C61.434 273.857 60.6607 273.34 60.014 272.68C59.374 272.02 58.8774 271.24 58.524 270.34C58.1707 269.433 57.994 268.45 57.994 267.39C57.994 266.33 58.1707 265.35 58.524 264.45C58.8774 263.543 59.374 262.76 60.014 262.1C60.6607 261.44 61.434 260.927 62.334 260.56C63.234 260.187 64.2307 260 65.324 260C66.0574 260 66.7474 260.087 67.394 260.26C68.0407 260.427 68.634 260.667 69.174 260.98C69.714 261.287 70.1974 261.663 70.624 262.11C71.0574 262.55 71.424 263.043 71.724 263.59C72.024 264.137 72.2507 264.73 72.404 265.37C72.564 266.01 72.644 266.683 72.644 267.39ZM69.894 267.39C69.894 266.597 69.7874 265.887 69.574 265.26C69.3607 264.627 69.0574 264.09 68.664 263.65C68.2707 263.21 67.7907 262.873 67.224 262.64C66.664 262.407 66.0307 262.29 65.324 262.29C64.6174 262.29 63.9807 262.407 63.414 262.64C62.854 262.873 62.374 263.21 61.974 263.65C61.5807 264.09 61.2774 264.627 61.064 265.26C60.8507 265.887 60.744 266.597 60.744 267.39C60.744 268.183 60.8507 268.897 61.064 269.53C61.2774 270.157 61.5807 270.69 61.974 271.13C62.374 271.563 62.854 271.897 63.414 272.13C63.9807 272.363 64.6174 272.48 65.324 272.48C66.0307 272.48 66.664 272.363 67.224 272.13C67.7907 271.897 68.2707 271.563 68.664 271.13C69.0574 270.69 69.3607 270.157 69.574 269.53C69.7874 268.897 69.894 268.183 69.894 267.39Z" fill="white"/>
		<path d="M89.2464 260.16V274.62H87.8664C87.653 274.62 87.473 274.587 87.3264 274.52C87.1864 274.447 87.0497 274.327 86.9164 274.16L79.3664 264.52C79.4064 264.96 79.4264 265.367 79.4264 265.74V274.62H77.0564V260.16H78.4664C78.5797 260.16 78.6764 260.167 78.7564 260.18C78.843 260.187 78.9164 260.207 78.9764 260.24C79.043 260.267 79.1064 260.31 79.1664 260.37C79.2264 260.423 79.293 260.497 79.3664 260.59L86.9464 270.27C86.9264 270.037 86.9097 269.807 86.8964 269.58C86.883 269.353 86.8764 269.143 86.8764 268.95V260.16H89.2464Z" fill="white"/>
		<path d="M94.0465 267.55H99.2265V269.61H94.0465V267.55Z" fill="white"/>
		<path d="M108.727 267.43C109.221 267.43 109.651 267.37 110.017 267.25C110.384 267.123 110.687 266.947 110.927 266.72C111.174 266.487 111.357 266.207 111.477 265.88C111.597 265.547 111.657 265.177 111.657 264.77C111.657 264.383 111.597 264.033 111.477 263.72C111.357 263.407 111.177 263.14 110.937 262.92C110.697 262.7 110.394 262.533 110.027 262.42C109.661 262.3 109.227 262.24 108.727 262.24H106.717V267.43H108.727ZM108.727 260.16C109.694 260.16 110.531 260.273 111.237 260.5C111.944 260.727 112.527 261.043 112.987 261.45C113.447 261.857 113.787 262.343 114.007 262.91C114.234 263.477 114.347 264.097 114.347 264.77C114.347 265.47 114.231 266.113 113.997 266.7C113.764 267.28 113.414 267.78 112.947 268.2C112.481 268.62 111.894 268.947 111.187 269.18C110.487 269.413 109.667 269.53 108.727 269.53H106.717V274.62H104.027V260.16H108.727Z" fill="white"/>
		<path d="M122.83 267.04C123.337 267.04 123.777 266.977 124.15 266.85C124.53 266.723 124.84 266.55 125.08 266.33C125.327 266.103 125.51 265.837 125.63 265.53C125.75 265.223 125.81 264.887 125.81 264.52C125.81 263.787 125.567 263.223 125.08 262.83C124.6 262.437 123.864 262.24 122.87 262.24H121.15V267.04H122.83ZM129.75 274.62H127.32C126.86 274.62 126.527 274.44 126.32 274.08L123.28 269.45C123.167 269.277 123.04 269.153 122.9 269.08C122.767 269.007 122.567 268.97 122.3 268.97H121.15V274.62H118.46V260.16H122.87C123.85 260.16 124.69 260.263 125.39 260.47C126.097 260.67 126.674 260.953 127.12 261.32C127.574 261.687 127.907 262.127 128.12 262.64C128.334 263.147 128.44 263.707 128.44 264.32C128.44 264.807 128.367 265.267 128.22 265.7C128.08 266.133 127.874 266.527 127.6 266.88C127.334 267.233 127 267.543 126.6 267.81C126.207 268.077 125.757 268.287 125.25 268.44C125.424 268.54 125.584 268.66 125.73 268.8C125.877 268.933 126.01 269.093 126.13 269.28L129.75 274.62Z" fill="white"/>
		<path d="M136.062 262.3V266.31H141.122V268.38H136.062V272.47H142.482V274.62H133.362V260.16H142.482V262.3H136.062Z" fill="white"/>
		<path d="M162.596 260.16V274.62H160.226V265.28C160.226 264.907 160.246 264.503 160.286 264.07L155.916 272.28C155.709 272.673 155.392 272.87 154.966 272.87H154.586C154.159 272.87 153.842 272.673 153.636 272.28L149.216 264.04C149.236 264.26 149.252 264.477 149.266 264.69C149.279 264.903 149.286 265.1 149.286 265.28V274.62H146.916V260.16H148.946C149.066 260.16 149.169 260.163 149.256 260.17C149.342 260.177 149.419 260.193 149.486 260.22C149.559 260.247 149.622 260.29 149.676 260.35C149.736 260.41 149.792 260.49 149.846 260.59L154.176 268.62C154.289 268.833 154.392 269.053 154.486 269.28C154.586 269.507 154.682 269.74 154.776 269.98C154.869 269.733 154.966 269.497 155.066 269.27C155.166 269.037 155.272 268.813 155.386 268.6L159.656 260.59C159.709 260.49 159.766 260.41 159.826 260.35C159.886 260.29 159.949 260.247 160.016 260.22C160.089 260.193 160.169 260.177 160.256 260.17C160.342 260.163 160.446 260.16 160.566 260.16H162.596Z" fill="white"/>
		<path d="M170.572 274.62H167.872V260.16H170.572V274.62Z" fill="white"/>
		<path d="M183.559 262.79C183.479 262.93 183.393 263.033 183.299 263.1C183.213 263.16 183.103 263.19 182.969 263.19C182.829 263.19 182.676 263.14 182.509 263.04C182.349 262.933 182.156 262.817 181.929 262.69C181.703 262.563 181.436 262.45 181.129 262.35C180.829 262.243 180.473 262.19 180.059 262.19C179.686 262.19 179.359 262.237 179.079 262.33C178.799 262.417 178.563 262.54 178.369 262.7C178.183 262.86 178.043 263.053 177.949 263.28C177.856 263.5 177.809 263.743 177.809 264.01C177.809 264.35 177.903 264.633 178.089 264.86C178.283 265.087 178.536 265.28 178.849 265.44C179.163 265.6 179.519 265.743 179.919 265.87C180.319 265.997 180.729 266.133 181.149 266.28C181.569 266.42 181.979 266.587 182.379 266.78C182.779 266.967 183.136 267.207 183.449 267.5C183.763 267.787 184.013 268.14 184.199 268.56C184.393 268.98 184.489 269.49 184.489 270.09C184.489 270.743 184.376 271.357 184.149 271.93C183.929 272.497 183.603 272.993 183.169 273.42C182.743 273.84 182.219 274.173 181.599 274.42C180.979 274.66 180.269 274.78 179.469 274.78C179.009 274.78 178.556 274.733 178.109 274.64C177.663 274.553 177.233 274.427 176.819 274.26C176.413 274.093 176.029 273.893 175.669 273.66C175.309 273.427 174.989 273.167 174.709 272.88L175.499 271.59C175.566 271.497 175.653 271.42 175.759 271.36C175.866 271.293 175.979 271.26 176.099 271.26C176.266 271.26 176.446 271.33 176.639 271.47C176.833 271.603 177.063 271.753 177.329 271.92C177.596 272.087 177.906 272.24 178.259 272.38C178.619 272.513 179.049 272.58 179.549 272.58C180.316 272.58 180.909 272.4 181.329 272.04C181.749 271.673 181.959 271.15 181.959 270.47C181.959 270.09 181.863 269.78 181.669 269.54C181.483 269.3 181.233 269.1 180.919 268.94C180.606 268.773 180.249 268.633 179.849 268.52C179.449 268.407 179.043 268.283 178.629 268.15C178.216 268.017 177.809 267.857 177.409 267.67C177.009 267.483 176.653 267.24 176.339 266.94C176.026 266.64 175.773 266.267 175.579 265.82C175.393 265.367 175.299 264.81 175.299 264.15C175.299 263.623 175.403 263.11 175.609 262.61C175.823 262.11 176.129 261.667 176.529 261.28C176.929 260.893 177.423 260.583 178.009 260.35C178.596 260.117 179.269 260 180.029 260C180.883 260 181.669 260.133 182.389 260.4C183.109 260.667 183.723 261.04 184.229 261.52L183.559 262.79Z" fill="white"/>
		<path d="M191.586 262.3V266.31H196.646V268.38H191.586V272.47H198.006V274.62H188.886V260.16H198.006V262.3H191.586Z" fill="white"/>
	</g>
	<defs>
		<linearGradient id="paint0_linear_26_13956" x1="128.374" y1="23.7943" x2="128.374" y2="119.622" gradientUnits="userSpaceOnUse">
			<stop stop-color="#FD5A09"/>
			<stop offset="1" stop-color="#F33202"/>
		</linearGradient>
	</defs>
</svg>
