<svg width="2175" height="710" viewBox="0 0 2175 710" fill="none" xmlns="http://www.w3.org/2000/svg">
	<g opacity="0.03">
		<g opacity="0.8">
			<path d="M2103.68 293.744C2099.58 293.496 2095.64 294.072 2091.99 295.315C2090.85 295.706 2089.59 295.261 2088.87 294.274C2081.85 284.779 2070.73 278.642 2058.2 278.642C2039.09 278.642 2023.25 292.912 2020.29 311.6C2020.12 311.597 2019.95 311.588 2019.78 311.588C2007.33 311.588 1997.26 322.02 1997.47 334.806C1997.68 347.323 2007.91 357.245 2020.15 357.245H2101.81C2119.42 357.245 2133.61 342.253 2132.84 324.065C2132.16 307.895 2119.47 294.699 2103.68 293.744Z" fill="#F8F8F8"/>
			<path d="M2005.75 334.806C2005.54 322.019 2015.61 311.587 2028.06 311.587C2028.23 311.587 2028.4 311.597 2028.56 311.6C2031.31 294.273 2045.13 280.752 2062.36 278.874C2060.99 278.723 2059.6 278.642 2058.2 278.642C2039.09 278.642 2023.25 292.912 2020.29 311.601C2020.12 311.597 2019.95 311.588 2019.78 311.588C2007.33 311.588 1997.26 322.02 1997.47 334.806C1997.68 347.323 2007.91 357.245 2020.15 357.245H2028.43C2016.19 357.244 2005.95 347.323 2005.75 334.806Z" fill="#F8F8F8"/>
		</g>
		<g opacity="0.8">
			<path d="M1618.08 80.0373C1613.98 79.7888 1610.04 80.3646 1606.39 81.6079C1605.25 81.9993 1604 81.5536 1603.27 80.5665C1596.25 71.0715 1585.13 64.9346 1572.6 64.9346C1553.49 64.9346 1537.65 79.2049 1534.69 97.8934C1534.52 97.8895 1534.35 97.8805 1534.18 97.8805C1521.73 97.8805 1511.66 108.313 1511.87 121.099C1512.08 133.616 1522.31 143.538 1534.55 143.538H1616.21C1633.82 143.538 1648.01 128.546 1647.24 110.357C1646.57 94.1884 1633.87 80.9923 1618.08 80.0373Z" fill="#F8F8F8"/>
			<path d="M1520.15 121.1C1519.94 108.313 1530.01 97.8808 1542.46 97.8808C1542.63 97.8808 1542.8 97.8902 1542.97 97.8941C1545.71 80.5669 1559.53 67.0462 1576.76 65.1673C1575.39 65.0165 1574 64.9353 1572.6 64.9353C1553.49 64.9353 1537.65 79.2056 1534.69 97.8945C1534.52 97.8906 1534.35 97.8812 1534.18 97.8812C1521.73 97.8812 1511.66 108.314 1511.87 121.1C1512.08 133.617 1522.31 143.539 1534.55 143.539H1542.83C1530.59 143.538 1520.35 133.617 1520.15 121.1Z" fill="#F8F8F8"/>
		</g>
		<g opacity="0.8">
			<path d="M1715.24 286.839C1711.13 286.591 1707.19 287.166 1703.55 288.41C1702.4 288.801 1701.15 288.355 1700.42 287.368C1693.41 277.873 1682.28 271.736 1669.75 271.736C1650.65 271.736 1634.81 286.007 1631.84 304.695C1631.67 304.691 1631.51 304.682 1631.34 304.682C1618.89 304.682 1608.82 315.115 1609.03 327.901C1609.23 340.418 1619.47 350.34 1631.71 350.34H1713.37C1730.98 350.34 1745.16 335.348 1744.4 317.159C1743.72 300.99 1731.03 287.794 1715.24 286.839Z" fill="#F8F8F8"/>
			<path d="M1617.3 327.902C1617.1 315.115 1627.16 304.683 1639.61 304.683C1639.78 304.683 1639.95 304.692 1640.12 304.696C1642.87 287.369 1656.69 273.848 1673.91 271.969C1672.55 271.819 1671.16 271.737 1669.75 271.737C1650.65 271.737 1634.81 286.008 1631.84 304.697C1631.67 304.693 1631.51 304.683 1631.34 304.683C1618.89 304.683 1608.82 315.116 1609.03 327.902C1609.23 340.419 1619.47 350.341 1631.7 350.341H1639.98C1627.75 350.34 1617.51 340.419 1617.3 327.902Z" fill="#F8F8F8"/>
		</g>
		<g opacity="0.8">
			<path d="M1198.39 219.476C1195.99 219.331 1193.69 219.668 1191.57 220.398C1190.9 220.627 1190.17 220.366 1189.74 219.787C1185.65 214.217 1179.16 210.616 1171.86 210.616C1160.71 210.616 1151.47 218.988 1149.74 229.952C1149.64 229.95 1149.55 229.944 1149.45 229.944C1142.18 229.944 1136.31 236.065 1136.43 243.566C1136.55 250.909 1142.52 256.73 1149.66 256.73H1197.3C1207.57 256.73 1215.84 247.935 1215.4 237.264C1215 227.778 1207.6 220.037 1198.39 219.476Z" fill="#F8F8F8"/>
			<path d="M1141.26 243.567C1141.14 236.065 1147.01 229.945 1154.27 229.945C1154.37 229.945 1154.47 229.951 1154.57 229.953C1156.17 219.788 1164.23 211.856 1174.28 210.753C1173.49 210.665 1172.68 210.617 1171.86 210.617C1160.71 210.617 1151.47 218.989 1149.74 229.953C1149.64 229.951 1149.55 229.945 1149.45 229.945C1142.18 229.945 1136.31 236.066 1136.43 243.567C1136.55 250.91 1142.52 256.731 1149.66 256.731H1154.49C1147.35 256.73 1141.38 250.91 1141.26 243.567Z" fill="#F8F8F8"/>
		</g>
		<g opacity="0.8">
			<path d="M1912.05 30.8274C1907.94 30.6017 1904 31.1249 1900.36 32.2546C1899.21 32.6102 1897.96 32.2052 1897.23 31.3083C1890.22 22.6809 1879.09 17.1047 1866.57 17.1047C1847.46 17.1047 1831.62 30.0711 1828.65 47.052C1828.49 47.0485 1828.32 47.0403 1828.15 47.0403C1815.7 47.0403 1805.63 56.5196 1805.84 68.1377C1806.04 79.5108 1816.28 88.5259 1828.52 88.5259H1910.18C1927.79 88.5259 1941.98 74.9039 1941.21 58.3773C1940.53 43.6856 1927.84 31.6952 1912.05 30.8274Z" fill="#F8F8F8"/>
			<path d="M1814.12 68.1373C1813.91 56.5189 1823.98 47.04 1836.43 47.04C1836.6 47.04 1836.76 47.0485 1836.93 47.052C1839.68 31.308 1853.5 19.0227 1870.73 17.3155C1869.36 17.1785 1867.97 17.1047 1866.57 17.1047C1847.46 17.1047 1831.62 30.0711 1828.65 47.0524C1828.49 47.0488 1828.32 47.0403 1828.15 47.0403C1815.7 47.0403 1805.63 56.5196 1805.84 68.1377C1806.04 79.5108 1816.28 88.5259 1828.52 88.5259H1836.79C1824.56 88.5255 1814.32 79.5105 1814.12 68.1373Z" fill="#F8F8F8"/>
		</g>
		<g opacity="0.8">
			<path d="M1482.8 185.821C1478.7 185.596 1474.76 186.119 1471.11 187.249C1469.96 187.604 1468.71 187.199 1467.98 186.302C1460.97 177.675 1449.85 172.099 1437.32 172.099C1418.21 172.099 1402.37 185.065 1399.41 202.046C1399.24 202.042 1399.07 202.034 1398.9 202.034C1386.45 202.034 1376.38 211.514 1376.59 223.132C1376.79 234.505 1387.03 243.52 1399.27 243.52H1480.93C1498.54 243.52 1512.73 229.898 1511.96 213.371C1511.28 198.68 1498.59 186.689 1482.8 185.821Z" fill="#F8F8F8"/>
			<path d="M1384.87 223.131C1384.66 211.513 1394.73 202.034 1407.18 202.034C1407.35 202.034 1407.51 202.042 1407.68 202.046C1410.43 186.302 1424.25 174.017 1441.48 172.309C1440.11 172.172 1438.72 172.099 1437.32 172.099C1418.21 172.099 1402.37 185.065 1399.41 202.046C1399.24 202.043 1399.07 202.034 1398.9 202.034C1386.45 202.034 1376.38 211.514 1376.59 223.132C1376.79 234.505 1387.03 243.52 1399.27 243.52H1407.55C1395.31 243.519 1385.07 234.504 1384.87 223.131Z" fill="#F8F8F8"/>
		</g>
		<g opacity="0.8">
			<path d="M1766.8 173.619C1764.4 173.487 1762.1 173.793 1759.98 174.456C1759.31 174.665 1758.58 174.427 1758.16 173.901C1754.06 168.84 1747.57 165.568 1740.27 165.568C1729.12 165.568 1719.88 173.175 1718.15 183.137C1718.05 183.135 1717.96 183.13 1717.86 183.13C1710.59 183.13 1704.72 188.692 1704.84 195.507C1704.96 202.18 1710.93 207.468 1718.07 207.468H1765.71C1775.98 207.468 1784.25 199.477 1783.81 189.781C1783.41 181.162 1776.01 174.128 1766.8 173.619Z" fill="#F8F8F8"/>
			<path d="M1709.67 195.507C1709.55 188.691 1715.42 183.13 1722.69 183.13C1722.78 183.13 1722.88 183.135 1722.98 183.137C1724.58 173.901 1732.64 166.694 1742.69 165.692C1741.9 165.612 1741.09 165.568 1740.27 165.568C1729.12 165.568 1719.88 173.175 1718.15 183.138C1718.05 183.135 1717.96 183.13 1717.86 183.13C1710.59 183.13 1704.72 188.692 1704.84 195.507C1704.96 202.18 1710.93 207.468 1718.07 207.468H1722.9C1715.76 207.468 1709.79 202.179 1709.67 195.507Z" fill="#F8F8F8"/>
		</g>
		<g opacity="0.8">
			<path d="M2075.78 115.187C2073.82 115.078 2071.94 115.329 2070.21 115.872C2069.66 116.042 2069.06 115.848 2068.71 115.417C2065.37 111.276 2060.06 108.6 2054.08 108.6C2044.96 108.6 2037.4 114.824 2035.98 122.974C2035.9 122.973 2035.82 122.969 2035.74 122.969C2029.8 122.969 2024.99 127.519 2025.09 133.096C2025.19 138.555 2030.08 142.882 2035.92 142.882H2074.89C2083.3 142.882 2090.07 136.343 2089.7 128.411C2089.38 121.358 2083.32 115.603 2075.78 115.187Z" fill="#F8F8F8"/>
			<path d="M2029.04 133.096C2028.94 127.519 2033.75 122.97 2039.69 122.97C2039.77 122.97 2039.85 122.974 2039.93 122.975C2041.24 115.418 2047.84 109.521 2056.06 108.702C2055.41 108.636 2054.75 108.601 2054.08 108.601C2044.96 108.601 2037.4 114.824 2035.98 122.976C2035.9 122.974 2035.82 122.97 2035.74 122.97C2029.8 122.97 2024.99 127.52 2025.09 133.097C2025.19 138.556 2030.08 142.883 2035.92 142.883H2039.87C2034.03 142.883 2029.14 138.555 2029.04 133.096Z" fill="#F8F8F8"/>
		</g>
		<g opacity="0.8">
			<path d="M1670.31 6.58695C1668.35 6.4786 1666.47 6.72971 1664.73 7.27198C1664.19 7.44269 1663.59 7.2483 1663.24 6.81779C1659.9 2.67659 1654.58 0 1648.6 0C1639.49 0 1631.93 6.2239 1630.51 14.3748C1630.43 14.3731 1630.35 14.3692 1630.27 14.3692C1624.33 14.3692 1619.52 18.9192 1619.62 24.4959C1619.72 29.9551 1624.61 34.2823 1630.45 34.2823H1669.42C1677.83 34.2823 1684.6 27.7438 1684.23 19.8109C1683.91 12.7589 1677.85 7.00349 1670.31 6.58695Z" fill="#F8F8F8"/>
			<path d="M1623.57 24.4967C1623.47 18.9199 1628.28 14.37 1634.22 14.37C1634.3 14.37 1634.38 14.3741 1634.46 14.3758C1635.77 6.8186 1642.37 0.921622 1650.59 0.102172C1649.94 0.0364112 1649.28 0.000976562 1648.6 0.000976562C1639.49 0.000976562 1631.93 6.22488 1630.51 14.3759C1630.43 14.3742 1630.35 14.3701 1630.27 14.3701C1624.33 14.3701 1619.52 18.9202 1619.62 24.4969C1619.72 29.9561 1624.61 34.2833 1630.45 34.2833H1634.4C1628.56 34.2831 1623.67 29.9559 1623.57 24.4967Z" fill="#F8F8F8"/>
		</g>
		<path opacity="0.8" d="M1943.04 229.147C1940.04 228.982 1937.16 229.365 1934.49 230.194C1933.66 230.455 1932.74 230.158 1932.21 229.5C1927.08 223.173 1918.95 219.084 1909.79 219.084C1895.82 219.084 1884.25 228.593 1882.08 241.045C1881.96 241.043 1881.83 241.037 1881.71 241.037C1872.61 241.037 1865.25 247.988 1865.4 256.508C1865.55 264.849 1873.03 271.46 1881.98 271.46H1941.67C1954.54 271.46 1964.91 261.47 1964.36 249.351C1963.86 238.577 1954.58 229.784 1943.04 229.147Z" fill="#F8F8F8"/>
		<path opacity="0.8" d="M1393.17 82.4101C1390.17 82.2446 1387.29 82.6282 1384.63 83.4567C1383.79 83.7175 1382.88 83.4205 1382.34 82.7628C1377.22 76.436 1369.08 72.3467 1359.93 72.3467C1345.96 72.3467 1334.38 81.8555 1332.21 94.3082C1332.09 94.3056 1331.97 94.2996 1331.84 94.2996C1322.74 94.2996 1315.38 101.251 1315.54 109.771C1315.68 118.111 1323.17 124.722 1332.11 124.722H1391.81C1404.68 124.722 1415.05 114.733 1414.49 102.613C1413.99 91.8395 1404.72 83.0465 1393.17 82.4101Z" fill="#F8F8F8"/>
		<g opacity="0.8">
			<path d="M1327.51 281.923C1324.51 281.757 1321.63 282.141 1318.97 282.969C1318.13 283.23 1317.21 282.933 1316.68 282.275C1311.55 275.949 1303.42 271.859 1294.26 271.859C1280.3 271.859 1268.72 281.368 1266.55 293.821C1266.43 293.818 1266.3 293.812 1266.18 293.812C1257.08 293.812 1249.72 300.764 1249.87 309.284C1250.02 317.624 1257.5 324.235 1266.45 324.235H1326.14C1339.01 324.235 1349.38 314.246 1348.83 302.126C1348.33 291.352 1339.05 282.559 1327.51 281.923Z" fill="#F8F8F8"/>
			<path d="M1255.92 309.283C1255.77 300.763 1263.13 293.812 1272.23 293.812C1272.35 293.812 1272.48 293.818 1272.6 293.821C1274.61 282.275 1284.71 273.266 1297.3 272.014C1296.3 271.914 1295.29 271.859 1294.26 271.859C1280.3 271.859 1268.72 281.368 1266.55 293.821C1266.43 293.819 1266.3 293.812 1266.18 293.812C1257.08 293.812 1249.72 300.764 1249.87 309.284C1250.02 317.624 1257.5 324.235 1266.45 324.235H1272.5C1263.55 324.235 1256.07 317.624 1255.92 309.283Z" fill="#F8F8F8"/>
		</g>
		<g opacity="0.8">
			<path d="M1191.18 51.4853C1188.18 51.3031 1185.3 51.7253 1182.64 52.6371C1181.8 52.9241 1180.88 52.5973 1180.35 51.8734C1175.23 44.9103 1167.09 40.4099 1157.93 40.4099C1143.97 40.4099 1132.39 50.8748 1130.22 64.5798C1130.1 64.577 1129.98 64.5704 1129.85 64.5704C1120.75 64.5704 1113.39 72.2209 1113.54 81.5976C1113.69 90.7766 1121.18 98.0525 1130.12 98.0525H1189.81C1202.69 98.0525 1213.06 87.0585 1212.5 73.7202C1212 61.8628 1202.73 52.1856 1191.18 51.4853Z" fill="#F8F8F8"/>
			<path d="M1119.59 81.5981C1119.44 72.2211 1126.8 64.5709 1135.9 64.5709C1136.03 64.5709 1136.15 64.5777 1136.27 64.5806C1138.28 51.8739 1148.38 41.9587 1160.98 40.5809C1159.98 40.4703 1158.96 40.4107 1157.93 40.4107C1143.97 40.4107 1132.39 50.8756 1130.22 64.5809C1130.1 64.578 1129.98 64.5712 1129.85 64.5712C1120.75 64.5712 1113.39 72.2217 1113.54 81.5984C1113.69 90.7774 1121.18 98.0533 1130.12 98.0533H1136.17C1127.23 98.053 1119.74 90.7771 1119.59 81.5981Z" fill="#F8F8F8"/>
		</g>
		<g opacity="0.8">
			<path d="M1106.48 552.456C1110.58 552.208 1114.52 552.784 1118.17 554.027C1119.31 554.418 1120.56 553.973 1121.29 552.985C1128.31 543.49 1139.43 537.354 1151.96 537.354C1171.07 537.354 1186.91 551.624 1189.87 570.312C1190.04 570.308 1190.21 570.299 1190.38 570.299C1202.83 570.299 1212.9 580.732 1212.69 593.518C1212.48 606.035 1202.25 615.957 1190.01 615.957H1108.35C1090.74 615.957 1076.55 600.965 1077.32 582.776C1078 566.607 1090.69 553.411 1106.48 552.456Z" fill="#F8F8F8"/>
			<path d="M1204.41 593.519C1204.62 580.732 1194.55 570.3 1182.1 570.3C1181.93 570.3 1181.76 570.309 1181.6 570.313C1178.85 552.986 1165.03 539.465 1147.8 537.586C1149.17 537.436 1150.56 537.354 1151.96 537.354C1171.07 537.354 1186.91 551.625 1189.87 570.314C1190.04 570.31 1190.21 570.3 1190.38 570.3C1202.83 570.3 1212.9 580.733 1212.69 593.519C1212.48 606.036 1202.25 615.958 1190.01 615.958H1181.73C1193.97 615.957 1204.21 606.036 1204.41 593.519Z" fill="#F8F8F8"/>
		</g>
		<g opacity="0.8">
			<path d="M1614.3 473.742C1617.59 473.542 1620.75 474.004 1623.68 475.001C1624.6 475.315 1625.6 474.957 1626.18 474.166C1631.81 466.553 1640.73 461.632 1650.77 461.632C1666.09 461.632 1678.79 473.074 1681.17 488.059C1681.31 488.056 1681.44 488.049 1681.58 488.049C1691.56 488.049 1699.63 496.414 1699.47 506.666C1699.3 516.703 1691.09 524.658 1681.28 524.658H1615.8C1601.68 524.658 1590.31 512.637 1590.92 498.053C1591.47 485.088 1601.64 474.507 1614.3 473.742Z" fill="#F8F8F8"/>
			<path d="M1692.83 506.666C1693 496.413 1684.92 488.049 1674.94 488.049C1674.8 488.049 1674.67 488.056 1674.53 488.059C1672.33 474.166 1661.25 463.324 1647.44 461.818C1648.53 461.697 1649.65 461.632 1650.77 461.632C1666.09 461.632 1678.79 473.074 1681.17 488.059C1681.31 488.056 1681.44 488.049 1681.58 488.049C1691.56 488.049 1699.63 496.414 1699.47 506.666C1699.3 516.703 1691.09 524.658 1681.28 524.658H1674.65C1684.46 524.658 1692.67 516.702 1692.83 506.666Z" fill="#F8F8F8"/>
		</g>
		<g opacity="0.8">
			<path d="M1994.64 552.492C1997.04 552.346 1999.34 552.684 2001.46 553.413C2002.13 553.643 2002.86 553.382 2003.29 552.803C2007.38 547.232 2013.87 543.632 2021.18 543.632C2032.32 543.632 2041.56 552.004 2043.29 562.968C2043.39 562.965 2043.49 562.96 2043.58 562.96C2050.85 562.96 2056.72 569.08 2056.6 576.582C2056.48 583.925 2050.51 589.745 2043.37 589.745H1995.73C1985.46 589.745 1977.19 580.95 1977.63 570.28C1978.03 560.794 1985.43 553.052 1994.64 552.492Z" fill="#F8F8F8"/>
			<path d="M2051.77 576.582C2051.89 569.081 2046.02 562.96 2038.76 562.96C2038.66 562.96 2038.56 562.966 2038.46 562.968C2036.86 552.803 2028.8 544.871 2018.75 543.769C2019.55 543.68 2020.36 543.633 2021.18 543.633C2032.32 543.633 2041.56 552.004 2043.29 562.968C2043.39 562.966 2043.49 562.961 2043.58 562.961C2050.85 562.961 2056.72 569.081 2056.6 576.582C2056.48 583.925 2050.51 589.746 2043.37 589.746H2038.54C2045.68 589.746 2051.65 583.925 2051.77 576.582Z" fill="#F8F8F8"/>
		</g>
		<g opacity="0.8">
			<path d="M1340.64 377.399C1344.75 377.173 1348.69 377.696 1352.33 378.826C1353.48 379.181 1354.73 378.776 1355.46 377.879C1362.47 369.252 1373.6 363.676 1386.13 363.676C1405.23 363.676 1421.07 376.642 1424.04 393.623C1424.2 393.62 1424.37 393.611 1424.54 393.611C1436.99 393.611 1447.06 403.091 1446.85 414.709C1446.65 426.082 1436.41 435.097 1424.17 435.097H1342.51C1324.9 435.097 1310.72 421.475 1311.48 404.948C1312.16 390.257 1324.85 378.266 1340.64 377.399Z" fill="#F8F8F8"/>
			<path d="M1438.57 414.709C1438.78 403.091 1428.71 393.612 1416.26 393.612C1416.09 393.612 1415.93 393.621 1415.76 393.624C1413.01 377.88 1399.19 365.595 1381.97 363.888C1383.33 363.751 1384.72 363.677 1386.13 363.677C1405.23 363.677 1421.07 376.643 1424.04 393.624C1424.2 393.621 1424.37 393.612 1424.54 393.612C1436.99 393.612 1447.06 403.092 1446.85 414.71C1446.65 426.083 1436.41 435.098 1424.17 435.098H1415.9C1428.13 435.098 1438.37 426.083 1438.57 414.709Z" fill="#F8F8F8"/>
		</g>
		<g opacity="0.8">
			<path d="M1766.83 578.933C1770.94 578.707 1774.88 579.23 1778.52 580.36C1779.67 580.715 1780.92 580.31 1781.65 579.414C1788.66 570.786 1799.79 565.21 1812.32 565.21C1831.42 565.21 1847.26 578.176 1850.23 595.157C1850.4 595.154 1850.56 595.146 1850.73 595.146C1863.18 595.146 1873.25 604.625 1873.04 616.243C1872.84 627.616 1862.6 636.631 1850.37 636.631H1768.7C1751.09 636.631 1736.91 623.009 1737.67 606.483C1738.35 591.791 1751.04 579.8 1766.83 578.933Z" fill="#F8F8F8"/>
			<path d="M1864.77 616.244C1864.98 604.625 1854.91 595.146 1842.46 595.146C1842.29 595.146 1842.12 595.155 1841.95 595.158C1839.2 579.414 1825.38 567.129 1808.16 565.422C1809.52 565.285 1810.91 565.211 1812.32 565.211C1831.42 565.211 1847.26 578.177 1850.23 595.159C1850.4 595.155 1850.56 595.147 1850.73 595.147C1863.18 595.147 1873.25 604.626 1873.04 616.244C1872.84 627.617 1862.6 636.632 1850.37 636.632H1842.09C1854.33 636.632 1864.56 627.617 1864.77 616.244Z" fill="#F8F8F8"/>
		</g>
		<g opacity="0.8">
			<path d="M1254.09 652.301C1258.19 652.075 1262.13 652.598 1265.78 653.728C1266.92 654.084 1268.17 653.679 1268.9 652.782C1275.92 644.154 1287.04 638.578 1299.57 638.578C1318.68 638.578 1334.52 651.545 1337.48 668.525C1337.65 668.522 1337.82 668.514 1337.99 668.514C1350.44 668.514 1360.51 677.993 1360.3 689.611C1360.09 700.984 1349.86 709.999 1337.62 709.999H1255.96C1238.35 709.999 1224.16 696.377 1224.93 679.851C1225.6 665.159 1238.3 653.169 1254.09 652.301Z" fill="#F8F8F8"/>
			<path d="M1352.02 689.611C1352.23 677.992 1342.16 668.513 1329.71 668.513C1329.54 668.513 1329.37 668.522 1329.2 668.525C1326.46 652.781 1312.64 640.496 1295.41 638.789C1296.78 638.652 1298.16 638.578 1299.57 638.578C1318.68 638.578 1334.52 651.545 1337.48 668.526C1337.65 668.522 1337.82 668.514 1337.99 668.514C1350.44 668.514 1360.51 677.993 1360.3 689.611C1360.09 700.984 1349.86 709.999 1337.62 709.999H1329.34C1341.58 709.999 1351.82 700.984 1352.02 689.611Z" fill="#F8F8F8"/>
		</g>
		<g opacity="0.8">
			<path d="M1474.98 594.264C1477.99 594.098 1480.87 594.482 1483.53 595.31C1484.37 595.571 1485.28 595.274 1485.82 594.616C1490.94 588.289 1499.07 584.2 1508.23 584.2C1522.2 584.2 1533.78 593.709 1535.95 606.162C1536.07 606.159 1536.19 606.153 1536.31 606.153C1545.42 606.153 1552.78 613.105 1552.62 621.625C1552.47 629.965 1544.99 636.576 1536.05 636.576H1476.35C1463.48 636.576 1453.11 626.586 1453.67 614.467C1454.16 603.693 1463.44 594.9 1474.98 594.264Z" fill="#F8F8F8"/>
			<path d="M1546.57 621.625C1546.73 613.105 1539.37 606.154 1530.26 606.154C1530.14 606.154 1530.02 606.16 1529.89 606.163C1527.89 594.617 1517.78 585.608 1505.19 584.356C1506.19 584.255 1507.21 584.201 1508.23 584.201C1522.2 584.201 1533.78 593.71 1535.95 606.163C1536.07 606.16 1536.19 606.154 1536.31 606.154C1545.42 606.154 1552.78 613.106 1552.62 621.626C1552.47 629.966 1544.99 636.577 1536.05 636.577H1530C1538.94 636.577 1546.42 629.966 1546.57 621.625Z" fill="#F8F8F8"/>
		</g>
		<g opacity="0.8">
			<path d="M1157.69 444.05C1159.65 443.942 1161.53 444.193 1163.27 444.735C1163.81 444.906 1164.41 444.711 1164.76 444.281C1168.1 440.14 1173.42 437.463 1179.4 437.463C1188.51 437.463 1196.07 443.687 1197.49 451.838C1197.57 451.836 1197.65 451.832 1197.73 451.832C1203.67 451.832 1208.48 456.382 1208.38 461.959C1208.28 467.418 1203.39 471.745 1197.55 471.745H1158.58C1150.17 471.745 1143.4 465.207 1143.77 457.274C1144.09 450.222 1150.15 444.467 1157.69 444.05Z" fill="#F8F8F8"/>
			<path d="M1204.43 461.96C1204.53 456.383 1199.72 451.833 1193.78 451.833C1193.7 451.833 1193.62 451.837 1193.54 451.839C1192.23 444.282 1185.63 438.385 1177.41 437.565C1178.06 437.499 1178.72 437.464 1179.4 437.464C1188.51 437.464 1196.07 443.688 1197.49 451.839C1197.57 451.837 1197.65 451.833 1197.73 451.833C1203.67 451.833 1208.48 456.383 1208.38 461.96C1208.28 467.419 1203.39 471.746 1197.55 471.746H1193.6C1199.44 471.746 1204.33 467.419 1204.43 461.96Z" fill="#F8F8F8"/>
		</g>
		<g opacity="0.8">
			<path d="M1558.22 406.071C1560.18 405.963 1562.06 406.214 1563.79 406.756C1564.34 406.927 1564.94 406.733 1565.29 406.302C1568.63 402.161 1573.94 399.484 1579.92 399.484C1589.04 399.484 1596.6 405.708 1598.02 413.859C1598.1 413.857 1598.18 413.854 1598.26 413.854C1604.2 413.854 1609.01 418.404 1608.91 423.98C1608.81 429.439 1603.92 433.767 1598.08 433.767H1559.11C1550.7 433.767 1543.93 427.228 1544.3 419.295C1544.62 412.243 1550.68 406.488 1558.22 406.071Z" fill="#F8F8F8"/>
			<path d="M1604.96 423.98C1605.06 418.403 1600.25 413.853 1594.31 413.853C1594.23 413.853 1594.15 413.857 1594.07 413.859C1592.76 406.302 1586.16 400.405 1577.94 399.586C1578.59 399.52 1579.25 399.484 1579.92 399.484C1589.04 399.484 1596.6 405.708 1598.02 413.859C1598.1 413.858 1598.18 413.854 1598.26 413.854C1604.2 413.854 1609.01 418.404 1608.91 423.98C1608.81 429.439 1603.92 433.767 1598.08 433.767H1594.13C1599.97 433.767 1604.86 429.439 1604.96 423.98Z" fill="#F8F8F8"/>
		</g>
		<path opacity="0.8" d="M1328.92 503.286C1331.93 503.121 1334.81 503.504 1337.47 504.333C1338.31 504.594 1339.22 504.297 1339.76 503.639C1344.88 497.312 1353.02 493.223 1362.17 493.223C1376.14 493.223 1387.72 502.732 1389.89 515.184C1390.01 515.182 1390.13 515.176 1390.25 515.176C1399.36 515.176 1406.72 522.127 1406.56 530.647C1406.41 538.988 1398.93 545.599 1389.99 545.599H1330.29C1317.42 545.599 1307.05 535.609 1307.61 523.49C1308.1 512.716 1317.38 503.923 1328.92 503.286Z" fill="#F8F8F8"/>
		<path opacity="0.8" d="M1827.17 438.894C1830.18 438.729 1833.06 439.113 1835.72 439.941C1836.56 440.202 1837.47 439.905 1838.01 439.247C1843.13 432.92 1851.26 428.831 1860.42 428.831C1874.39 428.831 1885.97 438.34 1888.14 450.793C1888.26 450.79 1888.38 450.784 1888.5 450.784C1897.61 450.784 1904.97 457.735 1904.81 466.255C1904.66 474.596 1897.18 481.207 1888.24 481.207H1828.54C1815.67 481.207 1805.3 471.217 1805.86 459.098C1806.35 448.324 1815.63 439.531 1827.17 438.894Z" fill="#F8F8F8"/>
		<g opacity="0.8">
			<path d="M1941.12 646.916C1944.12 646.75 1947 647.134 1949.66 647.962C1950.5 648.223 1951.42 647.926 1951.95 647.268C1957.08 640.942 1965.21 636.852 1974.37 636.852C1988.33 636.852 1999.91 646.361 2002.08 658.814C2002.2 658.811 2002.32 658.805 2002.45 658.805C2011.55 658.805 2018.91 665.757 2018.76 674.277C2018.61 682.617 2011.12 689.228 2002.18 689.228H1942.49C1929.61 689.228 1919.24 679.239 1919.8 667.119C1920.3 656.345 1929.58 647.552 1941.12 646.916Z" fill="#F8F8F8"/>
			<path d="M2012.71 674.277C2012.86 665.757 2005.5 658.806 1996.4 658.806C1996.27 658.806 1996.15 658.812 1996.03 658.815C1994.02 647.269 1983.92 638.26 1971.33 637.008C1972.32 636.907 1973.34 636.853 1974.37 636.853C1988.33 636.853 1999.91 646.362 2002.08 658.815C2002.2 658.812 2002.32 658.806 2002.45 658.806C2011.55 658.806 2018.91 665.758 2018.76 674.277C2018.61 682.618 2011.12 689.229 2002.18 689.229H1996.13C2005.07 689.229 2012.56 682.618 2012.71 674.277Z" fill="#F8F8F8"/>
		</g>
		<g opacity="0.8">
			<path d="M2097.36 445.086C2100.36 444.904 2103.24 445.326 2105.9 446.238C2106.74 446.525 2107.66 446.198 2108.19 445.474C2113.32 438.511 2121.45 434.011 2130.61 434.011C2144.57 434.011 2156.15 444.476 2158.32 458.181C2158.44 458.178 2158.57 458.171 2158.69 458.171C2167.79 458.171 2175.15 465.822 2175 475.198C2174.85 484.377 2167.37 491.653 2158.42 491.653H2098.73C2085.85 491.653 2075.48 480.659 2076.04 467.321C2076.54 455.464 2085.82 445.786 2097.36 445.086Z" fill="#F8F8F8"/>
			<path d="M2168.95 475.199C2169.1 465.822 2161.74 458.172 2152.64 458.172C2152.51 458.172 2152.39 458.179 2152.27 458.181C2150.26 445.475 2140.16 435.56 2127.57 434.182C2128.57 434.071 2129.58 434.012 2130.61 434.012C2144.57 434.012 2156.15 444.476 2158.32 458.182C2158.44 458.179 2158.57 458.172 2158.69 458.172C2167.79 458.172 2175.15 465.823 2175 475.199C2174.85 484.378 2167.37 491.654 2158.42 491.654H2152.37C2161.32 491.654 2168.8 484.378 2168.95 475.199Z" fill="#F8F8F8"/>
		</g>
		<g opacity="0.8">
			<path d="M1026.4 293.744C1022.29 293.496 1018.35 294.072 1014.71 295.315C1013.56 295.706 1012.31 295.261 1011.58 294.274C1004.57 284.779 993.44 278.642 980.912 278.642C961.807 278.642 945.967 292.912 943.001 311.6C942.833 311.597 942.666 311.588 942.497 311.588C930.046 311.588 919.977 322.02 920.186 334.806C920.39 347.323 930.627 357.245 942.864 357.245H1024.53C1042.13 357.245 1056.32 342.253 1055.56 324.065C1054.88 307.895 1042.19 294.699 1026.4 293.744Z" fill="#F8F8F8"/>
			<path d="M928.463 334.806C928.254 322.019 938.323 311.587 950.774 311.587C950.943 311.587 951.11 311.597 951.278 311.6C954.028 294.273 967.847 280.752 985.072 278.874C983.705 278.723 982.318 278.642 980.912 278.642C961.807 278.642 945.967 292.912 943.001 311.601C942.833 311.597 942.666 311.588 942.497 311.588C930.046 311.588 919.977 322.02 920.186 334.806C920.39 347.323 930.627 357.245 942.863 357.245H951.141C938.904 357.244 928.667 347.323 928.463 334.806Z" fill="#F8F8F8"/>
		</g>
		<g opacity="0.8">
			<path d="M540.797 80.0373C536.692 79.7888 532.751 80.3646 529.108 81.6079C527.961 81.9993 526.709 81.5536 525.98 80.5665C518.968 71.0715 507.841 64.9346 495.312 64.9346C476.208 64.9346 460.367 79.2049 457.402 97.8934C457.234 97.8895 457.066 97.8805 456.897 97.8805C444.447 97.8805 434.378 108.313 434.586 121.099C434.791 133.616 445.028 143.538 457.264 143.538H538.926C556.535 143.538 570.722 128.546 569.958 110.357C569.279 94.1884 556.587 80.9923 540.797 80.0373Z" fill="#F8F8F8"/>
			<path d="M442.863 121.1C442.654 108.313 452.723 97.8808 465.174 97.8808C465.344 97.8808 465.51 97.8902 465.679 97.8941C468.428 80.5669 482.248 67.0462 499.473 65.1673C498.106 65.0165 496.718 64.9353 495.312 64.9353C476.207 64.9353 460.367 79.2056 457.402 97.8945C457.233 97.8906 457.066 97.8812 456.897 97.8812C444.446 97.8812 434.378 108.314 434.586 121.1C434.79 133.617 445.027 143.539 457.264 143.539H465.541C453.305 143.538 443.068 133.617 442.863 121.1Z" fill="#F8F8F8"/>
		</g>
		<g opacity="0.8">
			<path d="M637.951 286.839C633.846 286.591 629.905 287.166 626.262 288.41C625.115 288.801 623.864 288.355 623.134 287.368C616.122 277.873 604.995 271.736 592.467 271.736C573.362 271.736 557.522 286.007 554.556 304.695C554.388 304.691 554.221 304.682 554.051 304.682C541.601 304.682 531.532 315.115 531.741 327.901C531.945 340.418 542.182 350.34 554.419 350.34H636.08C653.69 350.34 667.876 335.348 667.112 317.159C666.433 300.99 653.742 287.794 637.951 286.839Z" fill="#F8F8F8"/>
			<path d="M540.018 327.902C539.809 315.115 549.878 304.683 562.328 304.683C562.498 304.683 562.665 304.692 562.833 304.696C565.582 287.369 579.402 273.848 596.627 271.969C595.26 271.819 593.873 271.737 592.466 271.737C573.362 271.737 557.521 286.008 554.556 304.697C554.388 304.693 554.22 304.683 554.051 304.683C541.601 304.683 531.532 315.116 531.74 327.902C531.945 340.419 542.182 350.341 554.418 350.341H562.695C550.459 350.34 540.222 340.419 540.018 327.902Z" fill="#F8F8F8"/>
		</g>
		<g opacity="0.8">
			<path d="M121.101 219.476C118.707 219.331 116.408 219.668 114.283 220.398C113.614 220.627 112.884 220.366 112.458 219.787C108.368 214.217 101.877 210.616 94.5689 210.616C83.4245 210.616 74.1843 218.988 72.4544 229.952C72.3562 229.95 72.2587 229.944 72.16 229.944C64.8971 229.944 59.0238 236.065 59.1454 243.566C59.2646 250.909 65.2363 256.73 72.3742 256.73H120.01C130.282 256.73 138.558 247.935 138.112 237.264C137.716 227.778 130.313 220.037 121.101 219.476Z" fill="#F8F8F8"/>
			<path d="M63.9737 243.567C63.8519 236.065 69.7255 229.945 76.9883 229.945C77.0872 229.945 77.1845 229.951 77.2828 229.953C78.8866 219.788 86.9479 211.856 96.9958 210.753C96.1985 210.665 95.3892 210.617 94.5689 210.617C83.4245 210.617 74.1843 218.989 72.4544 229.953C72.3562 229.951 72.2587 229.945 72.16 229.945C64.8971 229.945 59.0238 236.066 59.1454 243.567C59.2646 250.91 65.2361 256.731 72.374 256.731H77.2024C70.0644 256.73 64.0929 250.91 63.9737 243.567Z" fill="#F8F8F8"/>
		</g>
		<g opacity="0.8">
			<path d="M834.763 30.8272C830.658 30.6015 826.717 31.1247 823.075 32.2544C821.927 32.61 820.676 32.2051 819.947 31.3082C812.934 22.6807 801.807 17.1045 789.279 17.1045C770.174 17.1045 754.334 30.0709 751.368 47.0518C751.2 47.0483 751.033 47.0401 750.864 47.0401C738.413 47.0401 728.345 56.5194 728.553 68.1375C728.757 79.5106 738.995 88.5257 751.231 88.5257H832.892C850.502 88.5257 864.689 74.9037 863.925 58.3771C863.245 43.6854 850.554 31.695 834.763 30.8272Z" fill="#F8F8F8"/>
			<path d="M736.83 68.1371C736.621 56.5187 746.69 47.0398 759.141 47.0398C759.31 47.0398 759.477 47.0483 759.646 47.0518C762.395 31.3078 776.214 19.0225 793.439 17.3153C792.073 17.1783 790.685 17.1045 789.279 17.1045C770.174 17.1045 754.334 30.0709 751.368 47.0522C751.2 47.0487 751.033 47.0401 750.864 47.0401C738.413 47.0401 728.345 56.5194 728.553 68.1375C728.757 79.5106 738.994 88.5257 751.231 88.5257H759.508C747.271 88.5253 737.034 79.5103 736.83 68.1371Z" fill="#F8F8F8"/>
		</g>
		<g opacity="0.8">
			<path d="M405.514 185.821C401.409 185.596 397.468 186.119 393.826 187.249C392.678 187.604 391.427 187.199 390.698 186.302C383.685 177.675 372.558 172.099 360.03 172.099C340.925 172.099 325.085 185.065 322.119 202.046C321.951 202.042 321.784 202.034 321.615 202.034C309.164 202.034 299.095 211.514 299.304 223.132C299.508 234.505 309.746 243.52 321.982 243.52H403.643C421.253 243.52 435.44 229.898 434.676 213.371C433.996 198.68 421.305 186.689 405.514 185.821Z" fill="#F8F8F8"/>
			<path d="M307.581 223.131C307.372 211.513 317.441 202.034 329.892 202.034C330.061 202.034 330.228 202.042 330.397 202.046C333.146 186.302 346.965 174.017 364.19 172.309C362.824 172.172 361.436 172.099 360.03 172.099C340.925 172.099 325.085 185.065 322.119 202.046C321.951 202.043 321.784 202.034 321.615 202.034C309.164 202.034 299.095 211.514 299.304 223.132C299.508 234.505 309.745 243.52 321.982 243.52H330.259C318.022 243.519 307.785 234.504 307.581 223.131Z" fill="#F8F8F8"/>
		</g>
		<g opacity="0.8">
			<path d="M689.512 173.619C687.117 173.487 684.818 173.793 682.693 174.456C682.024 174.665 681.294 174.427 680.868 173.901C676.778 168.84 670.287 165.568 662.979 165.568C651.835 165.568 642.594 173.175 640.865 183.137C640.766 183.135 640.669 183.13 640.57 183.13C633.307 183.13 627.434 188.692 627.556 195.507C627.675 202.18 633.646 207.468 640.784 207.468H688.42C698.692 207.468 706.968 199.477 706.522 189.781C706.126 181.162 698.723 174.128 689.512 173.619Z" fill="#F8F8F8"/>
			<path d="M632.384 195.507C632.262 188.691 638.136 183.13 645.398 183.13C645.497 183.13 645.595 183.135 645.693 183.137C647.297 173.901 655.358 166.694 665.406 165.692C664.609 165.612 663.799 165.568 662.979 165.568C651.835 165.568 642.594 173.175 640.865 183.138C640.766 183.135 640.669 183.13 640.57 183.13C633.307 183.13 627.434 188.692 627.556 195.507C627.675 202.18 633.646 207.468 640.784 207.468H645.613C638.475 207.468 632.503 202.179 632.384 195.507Z" fill="#F8F8F8"/>
		</g>
		<g opacity="0.8">
			<path d="M998.497 115.187C996.538 115.078 994.657 115.329 992.919 115.872C992.371 116.042 991.774 115.848 991.426 115.417C988.079 111.276 982.769 108.6 976.789 108.6C967.671 108.6 960.111 114.824 958.695 122.974C958.615 122.973 958.535 122.969 958.455 122.969C952.512 122.969 947.707 127.519 947.806 133.096C947.904 138.555 952.79 142.882 958.63 142.882H997.605C1006.01 142.882 1012.78 136.343 1012.42 128.411C1012.09 121.358 1006.03 115.603 998.497 115.187Z" fill="#F8F8F8"/>
			<path d="M951.757 133.096C951.657 127.519 956.463 122.97 962.405 122.97C962.486 122.97 962.565 122.974 962.646 122.975C963.958 115.418 970.554 109.521 978.775 108.702C978.122 108.636 977.46 108.601 976.789 108.601C967.671 108.601 960.111 114.824 958.695 122.976C958.615 122.974 958.535 122.97 958.455 122.97C952.512 122.97 947.707 127.52 947.806 133.097C947.904 138.556 952.79 142.883 958.63 142.883H962.58C956.74 142.883 951.854 138.555 951.757 133.096Z" fill="#F8F8F8"/>
		</g>
		<g opacity="0.8">
			<path d="M593.027 6.58695C591.067 6.4786 589.187 6.72971 587.448 7.27198C586.901 7.44269 586.303 7.2483 585.955 6.81779C582.608 2.67659 577.298 0 571.318 0C562.2 0 554.64 6.2239 553.225 14.3748C553.144 14.3731 553.065 14.3692 552.984 14.3692C547.041 14.3692 542.236 18.9192 542.336 24.4959C542.433 29.9551 547.319 34.2823 553.159 34.2823H592.134C600.538 34.2823 607.309 27.7438 606.945 19.8109C606.621 12.7589 600.563 7.00349 593.027 6.58695Z" fill="#F8F8F8"/>
			<path d="M546.286 24.4967C546.186 18.9199 550.992 14.37 556.934 14.37C557.015 14.37 557.095 14.3741 557.175 14.3758C558.487 6.8186 565.083 0.921622 573.304 0.102172C572.652 0.0364112 571.989 0.000976562 571.318 0.000976562C562.2 0.000976562 554.64 6.22488 553.225 14.3759C553.144 14.3742 553.065 14.3701 552.984 14.3701C547.041 14.3701 542.236 18.9202 542.336 24.4969C542.433 29.9561 547.319 34.2833 553.159 34.2833H557.109C551.269 34.2831 546.383 29.9559 546.286 24.4967Z" fill="#F8F8F8"/>
		</g>
		<path opacity="0.8" d="M865.752 229.147C862.751 228.982 859.871 229.365 857.208 230.194C856.369 230.455 855.455 230.158 854.921 229.5C849.796 223.173 841.662 219.084 832.504 219.084C818.538 219.084 806.959 228.593 804.792 241.045C804.668 241.043 804.546 241.037 804.423 241.037C795.321 241.037 787.961 247.988 788.114 256.508C788.263 264.849 795.746 271.46 804.691 271.46H864.385C877.257 271.46 887.628 261.47 887.069 249.351C886.573 238.577 877.295 229.784 865.752 229.147Z" fill="#F8F8F8"/>
		<path opacity="0.8" d="M315.887 82.4101C312.886 82.2446 310.006 82.6282 307.343 83.4567C306.504 83.7175 305.589 83.4205 305.056 82.7628C299.93 76.436 291.797 72.3467 282.638 72.3467C268.673 72.3467 257.094 81.8555 254.926 94.3082C254.803 94.3056 254.681 94.2996 254.557 94.2996C245.456 94.2996 238.096 101.251 238.248 109.771C238.398 118.111 245.881 124.722 254.826 124.722H314.52C327.392 124.722 337.762 114.733 337.204 102.613C336.707 91.8395 327.43 83.0465 315.887 82.4101Z" fill="#F8F8F8"/>
		<g opacity="0.8">
			<path d="M250.223 281.923C247.222 281.757 244.342 282.141 241.679 282.969C240.84 283.23 239.925 282.933 239.392 282.275C234.266 275.949 226.133 271.859 216.974 271.859C203.009 271.859 191.43 281.368 189.262 293.821C189.139 293.818 189.017 293.812 188.893 293.812C179.792 293.812 172.432 300.764 172.584 309.284C172.734 317.624 180.217 324.235 189.162 324.235H248.855C261.728 324.235 272.098 314.246 271.54 302.126C271.043 291.352 261.766 282.559 250.223 281.923Z" fill="#F8F8F8"/>
			<path d="M178.635 309.283C178.482 300.763 185.842 293.812 194.944 293.812C195.068 293.812 195.19 293.818 195.313 293.821C197.323 282.275 207.424 273.266 220.016 272.014C219.017 271.914 218.002 271.859 216.974 271.859C203.009 271.859 191.43 281.368 189.262 293.821C189.139 293.819 189.017 293.812 188.893 293.812C179.792 293.812 172.432 300.764 172.584 309.284C172.734 317.624 180.217 324.235 189.161 324.235H195.212C186.267 324.235 178.784 317.624 178.635 309.283Z" fill="#F8F8F8"/>
		</g>
		<g opacity="0.8">
			<path d="M113.896 51.4853C110.895 51.3031 108.015 51.7253 105.352 52.6371C104.513 52.9241 103.598 52.5973 103.065 51.8734C97.9392 44.9103 89.8055 40.4099 80.6473 40.4099C66.6819 40.4099 55.1028 50.8748 52.9351 64.5798C52.812 64.577 52.6898 64.5704 52.5661 64.5704C43.4648 64.5704 36.1048 72.2209 36.2572 81.5976C36.4065 90.7766 43.8899 98.0525 52.8346 98.0525H112.528C125.401 98.0525 135.771 87.0585 135.213 73.7202C134.716 61.8628 125.439 52.1856 113.896 51.4853Z" fill="#F8F8F8"/>
			<path d="M42.3077 81.5981C42.155 72.2211 49.5153 64.5709 58.6166 64.5709C58.7405 64.5709 58.8625 64.5777 58.9856 64.5806C60.9954 51.8739 71.0972 41.9587 83.6886 40.5809C82.6894 40.4703 81.6752 40.4107 80.6473 40.4107C66.6819 40.4107 55.1028 50.8756 52.9351 64.5809C52.812 64.578 52.6898 64.5712 52.5661 64.5712C43.4648 64.5712 36.1048 72.2217 36.2572 81.5984C36.4065 90.7774 43.8896 98.0533 52.8343 98.0533H58.8848C49.9401 98.053 42.457 90.7771 42.3077 81.5981Z" fill="#F8F8F8"/>
		</g>
		<g opacity="0.8">
			<path d="M29.1909 552.456C33.296 552.208 37.2366 552.784 40.8794 554.027C42.0267 554.418 43.2783 553.973 44.0075 552.985C51.0197 543.49 62.1467 537.354 74.6752 537.354C93.7799 537.354 109.62 551.624 112.586 570.312C112.754 570.308 112.921 570.299 113.09 570.299C125.541 570.299 135.61 580.732 135.401 593.518C135.197 606.035 124.96 615.957 112.723 615.957H31.0617C13.4521 615.957 -0.734558 600.965 0.0294342 582.776C0.708664 566.607 13.4002 553.411 29.1909 552.456Z" fill="#F8F8F8"/>
			<path d="M127.124 593.519C127.333 580.732 117.264 570.3 104.813 570.3C104.644 570.3 104.477 570.309 104.309 570.313C101.559 552.986 87.7397 539.465 70.5147 537.586C71.8815 537.436 73.269 537.354 74.6752 537.354C93.7799 537.354 109.62 551.625 112.586 570.314C112.754 570.31 112.921 570.3 113.09 570.3C125.541 570.3 135.61 580.733 135.401 593.519C135.197 606.036 124.96 615.958 112.723 615.958H104.446C116.683 615.957 126.92 606.036 127.124 593.519Z" fill="#F8F8F8"/>
		</g>
		<g opacity="0.8">
			<path d="M537.017 473.742C540.308 473.542 543.468 474.004 546.389 475.001C547.309 475.315 548.312 474.957 548.897 474.166C554.52 466.553 563.442 461.632 573.487 461.632C588.806 461.632 601.507 473.074 603.885 488.059C604.02 488.056 604.154 488.049 604.29 488.049C614.273 488.049 622.346 496.414 622.179 506.666C622.015 516.703 613.807 524.658 603.995 524.658H538.517C524.397 524.658 513.022 512.637 513.634 498.053C514.179 485.088 524.355 474.507 537.017 473.742Z" fill="#F8F8F8"/>
			<path d="M615.542 506.666C615.71 496.413 607.636 488.049 597.653 488.049C597.517 488.049 597.383 488.056 597.248 488.059C595.044 474.166 583.963 463.324 570.151 461.818C571.247 461.697 572.36 461.632 573.487 461.632C588.806 461.632 601.507 473.074 603.885 488.059C604.02 488.056 604.154 488.049 604.29 488.049C614.273 488.049 622.346 496.414 622.179 506.666C622.015 516.703 613.807 524.658 603.996 524.658H597.359C607.17 524.658 615.378 516.702 615.542 506.666Z" fill="#F8F8F8"/>
		</g>
		<g opacity="0.8">
			<path d="M917.357 552.492C919.751 552.346 922.05 552.684 924.175 553.413C924.844 553.643 925.574 553.382 926 552.803C930.09 547.232 936.581 543.632 943.889 543.632C955.034 543.632 964.274 552.004 966.004 562.968C966.102 562.965 966.199 562.96 966.298 562.96C973.561 562.96 979.434 569.08 979.313 576.582C979.193 583.925 973.222 589.745 966.084 589.745H918.448C908.176 589.745 899.9 580.95 900.346 570.28C900.742 560.794 908.145 553.052 917.357 552.492Z" fill="#F8F8F8"/>
			<path d="M974.484 576.582C974.606 569.081 968.733 562.96 961.47 562.96C961.371 562.96 961.273 562.966 961.175 562.968C959.571 552.803 951.51 544.871 941.462 543.769C942.259 543.68 943.069 543.633 943.889 543.633C955.034 543.633 964.274 552.004 966.004 562.968C966.102 562.966 966.199 562.961 966.298 562.961C973.561 562.961 979.434 569.081 979.313 576.582C979.193 583.925 973.222 589.746 966.084 589.746H961.256C968.394 589.746 974.365 583.925 974.484 576.582Z" fill="#F8F8F8"/>
		</g>
		<g opacity="0.8">
			<path d="M263.355 377.399C267.46 377.173 271.401 377.696 275.043 378.826C276.191 379.181 277.442 378.776 278.172 377.879C285.184 369.252 296.311 363.676 308.839 363.676C327.944 363.676 343.784 376.642 346.75 393.623C346.918 393.62 347.085 393.611 347.254 393.611C359.705 393.611 369.774 403.091 369.565 414.709C369.361 426.082 359.124 435.097 346.887 435.097H265.226C247.616 435.097 233.43 421.475 234.193 404.948C234.873 390.257 247.564 378.266 263.355 377.399Z" fill="#F8F8F8"/>
			<path d="M361.288 414.709C361.497 403.091 351.428 393.612 338.977 393.612C338.808 393.612 338.641 393.621 338.473 393.624C335.723 377.88 321.904 365.595 304.679 363.888C306.046 363.751 307.433 363.677 308.839 363.677C327.944 363.677 343.784 376.643 346.75 393.624C346.918 393.621 347.085 393.612 347.254 393.612C359.705 393.612 369.774 403.092 369.565 414.71C369.361 426.083 359.124 435.098 346.888 435.098H338.61C350.847 435.098 361.084 426.083 361.288 414.709Z" fill="#F8F8F8"/>
		</g>
		<g opacity="0.8">
			<path d="M689.547 578.933C693.652 578.707 697.593 579.23 701.236 580.36C702.383 580.715 703.635 580.311 704.364 579.414C711.376 570.786 722.503 565.21 735.032 565.21C754.136 565.21 769.977 578.176 772.942 595.157C773.11 595.154 773.278 595.146 773.447 595.146C785.897 595.146 795.966 604.625 795.758 616.243C795.553 627.616 785.316 636.631 773.08 636.631H691.418C673.809 636.631 659.622 623.009 660.386 606.483C661.065 591.791 673.757 579.801 689.547 578.933Z" fill="#F8F8F8"/>
			<path d="M787.48 616.244C787.689 604.625 777.62 595.146 765.17 595.146C765 595.146 764.833 595.155 764.665 595.158C761.916 579.414 748.096 567.129 730.871 565.422C732.238 565.285 733.625 565.211 735.032 565.211C754.136 565.211 769.977 578.177 772.942 595.159C773.11 595.155 773.278 595.147 773.447 595.147C785.897 595.147 795.966 604.626 795.758 616.244C795.553 627.617 785.316 636.632 773.08 636.632H764.803C777.039 636.632 787.276 627.617 787.48 616.244Z" fill="#F8F8F8"/>
		</g>
		<g opacity="0.8">
			<path d="M176.8 652.301C180.905 652.075 184.846 652.598 188.489 653.728C189.636 654.084 190.888 653.679 191.617 652.782C198.629 644.154 209.756 638.578 222.285 638.578C241.389 638.578 257.23 651.545 260.195 668.525C260.363 668.522 260.531 668.514 260.7 668.514C273.15 668.514 283.219 677.993 283.01 689.611C282.806 700.984 272.569 709.999 260.332 709.999H178.671C161.062 709.999 146.875 696.377 147.639 679.851C148.318 665.159 161.01 653.169 176.8 652.301Z" fill="#F8F8F8"/>
			<path d="M274.733 689.611C274.942 677.992 264.873 668.513 252.423 668.513C252.253 668.513 252.086 668.522 251.918 668.525C249.169 652.781 235.349 640.496 218.124 638.789C219.491 638.652 220.878 638.578 222.285 638.578C241.389 638.578 257.23 651.545 260.195 668.526C260.363 668.522 260.531 668.514 260.7 668.514C273.15 668.514 283.219 677.993 283.01 689.611C282.806 700.984 272.569 709.999 260.333 709.999H252.056C264.292 709.999 274.529 700.984 274.733 689.611Z" fill="#F8F8F8"/>
		</g>
		<g opacity="0.8">
			<path d="M397.698 594.264C400.699 594.098 403.579 594.482 406.242 595.31C407.081 595.571 407.996 595.274 408.529 594.616C413.655 588.289 421.788 584.2 430.946 584.2C444.912 584.2 456.491 593.709 458.659 606.162C458.782 606.159 458.904 606.153 459.028 606.153C468.129 606.153 475.489 613.105 475.337 621.625C475.187 629.965 467.704 636.576 458.759 636.576H399.065C386.193 636.576 375.823 626.586 376.381 614.467C376.878 603.693 386.155 594.9 397.698 594.264Z" fill="#F8F8F8"/>
			<path d="M469.286 621.625C469.439 613.105 462.078 606.154 452.977 606.154C452.853 606.154 452.731 606.16 452.608 606.163C450.598 594.617 440.497 585.608 427.905 584.356C428.904 584.255 429.919 584.201 430.946 584.201C444.912 584.201 456.491 593.71 458.659 606.163C458.782 606.16 458.904 606.154 459.028 606.154C468.129 606.154 475.489 613.106 475.337 621.626C475.187 629.966 467.704 636.577 458.759 636.577H452.709C461.654 636.577 469.137 629.966 469.286 621.625Z" fill="#F8F8F8"/>
		</g>
		<g opacity="0.8">
			<path d="M80.3998 444.05C82.359 443.942 84.2398 444.193 85.9784 444.735C86.526 444.906 87.1233 444.711 87.4713 444.281C90.8181 440.14 96.1287 437.463 102.108 437.463C111.226 437.463 118.786 443.687 120.202 451.838C120.282 451.836 120.362 451.832 120.443 451.832C126.385 451.832 131.191 456.382 131.091 461.959C130.994 467.418 126.108 471.745 120.267 471.745H81.2927C72.8881 471.745 66.1172 465.207 66.4818 457.274C66.806 450.222 72.8633 444.467 80.3998 444.05Z" fill="#F8F8F8"/>
			<path d="M127.141 461.96C127.24 456.383 122.435 451.833 116.492 451.833C116.411 451.833 116.332 451.837 116.251 451.839C114.939 444.282 108.344 438.385 100.122 437.565C100.775 437.499 101.437 437.464 102.108 437.464C111.226 437.464 118.786 443.688 120.202 451.839C120.282 451.837 120.362 451.833 120.443 451.833C126.385 451.833 131.191 456.383 131.091 461.96C130.994 467.419 126.108 471.746 120.268 471.746H116.317C122.157 471.746 127.043 467.419 127.141 461.96Z" fill="#F8F8F8"/>
		</g>
		<g opacity="0.8">
			<path d="M480.929 406.071C482.889 405.963 484.769 406.214 486.508 406.756C487.056 406.927 487.653 406.733 488.001 406.302C491.348 402.161 496.658 399.484 502.638 399.484C511.756 399.484 519.316 405.708 520.731 413.859C520.812 413.857 520.892 413.854 520.972 413.854C526.915 413.854 531.72 418.404 531.621 423.98C531.523 429.439 526.637 433.767 520.797 433.767H481.822C473.418 433.767 466.647 427.228 467.011 419.295C467.336 412.243 473.393 406.488 480.929 406.071Z" fill="#F8F8F8"/>
			<path d="M527.67 423.98C527.77 418.403 522.964 413.853 517.022 413.853C516.941 413.853 516.861 413.857 516.781 413.859C515.469 406.302 508.873 400.405 500.652 399.586C501.304 399.52 501.967 399.484 502.638 399.484C511.756 399.484 519.316 405.708 520.731 413.859C520.812 413.858 520.892 413.854 520.972 413.854C526.915 413.854 531.72 418.404 531.621 423.98C531.523 429.439 526.637 433.767 520.797 433.767H516.847C522.687 433.767 527.573 429.439 527.67 423.98Z" fill="#F8F8F8"/>
		</g>
		<path opacity="0.8" d="M251.638 503.286C254.639 503.121 257.52 503.504 260.183 504.333C261.021 504.594 261.936 504.297 262.469 503.639C267.595 497.312 275.729 493.223 284.887 493.223C298.852 493.223 310.431 502.732 312.599 515.184C312.722 515.182 312.844 515.176 312.968 515.176C322.069 515.176 329.429 522.127 329.277 530.647C329.128 538.988 321.644 545.599 312.7 545.599H253.006C240.133 545.599 229.763 535.609 230.322 523.49C230.818 512.716 240.095 503.923 251.638 503.286Z" fill="#F8F8F8"/>
		<path opacity="0.8" d="M749.888 438.894C752.889 438.729 755.77 439.113 758.433 439.941C759.271 440.202 760.186 439.905 760.719 439.247C765.845 432.92 773.979 428.831 783.137 428.831C797.102 428.831 808.681 438.34 810.849 450.793C810.972 450.79 811.094 450.784 811.218 450.784C820.319 450.784 827.679 457.735 827.527 466.255C827.378 474.596 819.894 481.207 810.95 481.207H751.256C738.383 481.207 728.013 471.217 728.572 459.098C729.068 448.324 738.345 439.531 749.888 438.894Z" fill="#F8F8F8"/>
		<g opacity="0.8">
			<path d="M863.832 646.916C866.833 646.75 869.713 647.134 872.376 647.962C873.215 648.223 874.13 647.926 874.663 647.268C879.789 640.942 887.922 636.852 897.081 636.852C911.046 636.852 922.625 646.361 924.793 658.814C924.916 658.811 925.038 658.805 925.162 658.805C934.263 658.805 941.623 665.757 941.471 674.277C941.321 682.617 933.838 689.228 924.893 689.228H865.199C852.327 689.228 841.957 679.239 842.515 667.119C843.012 656.345 852.289 647.552 863.832 646.916Z" fill="#F8F8F8"/>
			<path d="M935.42 674.277C935.573 665.757 928.212 658.806 919.111 658.806C918.987 658.806 918.865 658.812 918.742 658.815C916.732 647.269 906.631 638.26 894.039 637.008C895.038 636.907 896.053 636.853 897.081 636.853C911.046 636.853 922.625 646.362 924.793 658.815C924.916 658.812 925.038 658.806 925.162 658.806C934.263 658.806 941.623 665.758 941.471 674.277C941.321 682.618 933.838 689.229 924.893 689.229H918.843C927.788 689.229 935.271 682.618 935.42 674.277Z" fill="#F8F8F8"/>
		</g>
		<g opacity="0.8">
			<path d="M1020.07 445.086C1023.07 444.904 1025.95 445.326 1028.62 446.238C1029.46 446.525 1030.37 446.198 1030.9 445.474C1036.03 438.511 1044.16 434.011 1053.32 434.011C1067.29 434.011 1078.87 444.476 1081.03 458.181C1081.16 458.178 1081.28 458.171 1081.4 458.171C1090.5 458.171 1097.86 465.822 1097.71 475.198C1097.56 484.377 1090.08 491.653 1081.13 491.653H1021.44C1008.57 491.653 998.198 480.659 998.756 467.321C999.253 455.464 1008.53 445.786 1020.07 445.086Z" fill="#F8F8F8"/>
			<path d="M1091.66 475.199C1091.81 465.822 1084.45 458.172 1075.35 458.172C1075.23 458.172 1075.11 458.179 1074.98 458.181C1072.97 445.475 1062.87 435.56 1050.28 434.182C1051.28 434.071 1052.29 434.012 1053.32 434.012C1067.29 434.012 1078.87 444.476 1081.03 458.182C1081.16 458.179 1081.28 458.172 1081.4 458.172C1090.5 458.172 1097.86 465.823 1097.71 475.199C1097.56 484.378 1090.08 491.654 1081.13 491.654H1075.08C1084.03 491.654 1091.51 484.378 1091.66 475.199Z" fill="#F8F8F8"/>
		</g>
	</g>
</svg>
