<svg width="214" height="229" viewBox="0 0 214 229" fill="none" xmlns="http://www.w3.org/2000/svg">
	<path d="M31.6243 176.728C31.8322 176.728 32.0401 176.771 32.248 176.857C32.4559 176.927 32.6552 177.056 32.8457 177.246L36.328 180.897C34.8034 182.882 32.889 184.384 30.5848 185.403C28.298 186.404 25.5867 186.905 22.4509 186.905C19.575 186.905 16.9936 186.421 14.7067 185.455C12.4372 184.471 10.5054 183.124 8.91157 181.415C7.33502 179.689 6.12228 177.652 5.27337 175.304C4.42446 172.939 4 170.375 4 167.613C4 164.799 4.45911 162.218 5.37732 159.87C6.29553 157.505 7.58623 155.468 9.2494 153.759C10.9126 152.05 12.9049 150.721 15.2264 149.771C17.548 148.822 20.1034 148.347 22.8927 148.347C24.3133 148.347 25.6473 148.477 26.8947 148.736C28.1594 148.977 29.3375 149.323 30.4289 149.771C31.5204 150.203 32.5252 150.73 33.4434 151.351C34.3616 151.973 35.1759 152.646 35.8862 153.371L32.9237 157.333C32.7331 157.574 32.5079 157.799 32.248 158.006C31.9882 158.196 31.6243 158.291 31.1566 158.291C30.8447 158.291 30.5502 158.222 30.273 158.084C29.9958 157.946 29.7013 157.782 29.3894 157.592C29.0776 157.385 28.7311 157.169 28.35 156.944C27.9861 156.703 27.5444 156.487 27.0246 156.297C26.5222 156.09 25.9245 155.917 25.2315 155.779C24.5558 155.641 23.7589 155.572 22.8407 155.572C21.3854 155.572 20.0514 155.84 18.8387 156.375C17.6433 156.91 16.6038 157.695 15.7202 158.731C14.854 159.75 14.1783 161.01 13.6932 162.512C13.2254 163.996 12.9916 165.697 12.9916 167.613C12.9916 169.547 13.2514 171.264 13.7712 172.766C14.3082 174.268 15.0272 175.537 15.9281 176.573C16.8463 177.591 17.9118 178.368 19.1245 178.903C20.3372 179.438 21.6366 179.706 23.0226 179.706C23.8195 179.706 24.5472 179.671 25.2055 179.602C25.8638 179.516 26.4789 179.387 27.0506 179.214C27.6223 179.024 28.1594 178.782 28.6618 178.489C29.1642 178.178 29.6753 177.79 30.195 177.324C30.4029 177.151 30.6282 177.013 30.8707 176.909C31.1133 176.788 31.3645 176.728 31.6243 176.728Z" fill="white"/>
	<path d="M50.5706 159.223C52.6149 159.223 54.4773 159.542 56.1578 160.181C57.8383 160.82 59.2763 161.735 60.4717 162.926C61.6844 164.117 62.62 165.567 63.2783 167.276C63.954 168.968 64.2918 170.876 64.2918 172.999C64.2918 175.14 63.954 177.073 63.2783 178.8C62.62 180.509 61.6844 181.967 60.4717 183.176C59.2763 184.367 57.8383 185.291 56.1578 185.947C54.4773 186.585 52.6149 186.905 50.5706 186.905C48.5089 186.905 46.6292 186.585 44.9314 185.947C43.2509 185.291 41.7956 184.367 40.5655 183.176C39.3528 181.967 38.4086 180.509 37.7329 178.8C37.0746 177.073 36.7454 175.14 36.7454 172.999C36.7454 170.876 37.0746 168.968 37.7329 167.276C38.4086 165.567 39.3528 164.117 40.5655 162.926C41.7956 161.735 43.2509 160.82 44.9314 160.181C46.6292 159.542 48.5089 159.223 50.5706 159.223ZM50.5706 180.949C52.4243 180.949 53.7843 180.301 54.6506 179.007C55.5341 177.695 55.9759 175.709 55.9759 173.051C55.9759 170.392 55.5341 168.416 54.6506 167.121C53.7843 165.826 52.4243 165.179 50.5706 165.179C48.6649 165.179 47.2702 165.826 46.3867 167.121C45.5031 168.416 45.0613 170.392 45.0613 173.051C45.0613 175.709 45.5031 177.695 46.3867 179.007C47.2702 180.301 48.6649 180.949 50.5706 180.949Z" fill="white"/>
	<path d="M67.8289 186.49V159.637H72.8184C73.8233 159.637 74.4816 160.086 74.7934 160.984L75.2352 162.434C75.6857 161.968 76.1534 161.545 76.6385 161.165C77.1236 160.768 77.6434 160.432 78.1978 160.155C78.7695 159.862 79.3758 159.637 80.0169 159.482C80.6752 159.309 81.3942 159.223 82.1738 159.223C83.8023 159.223 85.145 159.646 86.2018 160.492C87.2759 161.321 88.0902 162.434 88.6446 163.832C89.095 163.004 89.6408 162.296 90.2818 161.709C90.9401 161.122 91.6418 160.647 92.3867 160.285C93.149 159.922 93.946 159.655 94.7776 159.482C95.6265 159.309 96.4667 159.223 97.2983 159.223C98.8402 159.223 100.209 159.456 101.404 159.922C102.6 160.371 103.596 161.036 104.393 161.916C105.207 162.779 105.822 163.85 106.238 165.127C106.654 166.387 106.862 167.82 106.862 169.426V186.49H98.8056V169.426C98.8056 166.646 97.6102 165.257 95.2193 165.257C94.1279 165.257 93.2183 165.619 92.4907 166.344C91.7804 167.052 91.4252 168.079 91.4252 169.426V186.49H83.3692V169.426C83.3692 167.889 83.066 166.81 82.4596 166.189C81.8533 165.567 80.9611 165.257 79.783 165.257C79.0553 165.257 78.3624 165.421 77.704 165.749C77.063 166.077 76.4566 166.517 75.8849 167.069V186.49H67.8289Z" fill="white"/>
	<path d="M119.574 179.188C120.18 179.844 120.838 180.31 121.549 180.586C122.259 180.863 123.004 181.001 123.784 181.001C124.529 181.001 125.213 180.854 125.837 180.56C126.46 180.267 126.997 179.801 127.448 179.162C127.916 178.506 128.279 177.66 128.539 176.624C128.799 175.589 128.929 174.328 128.929 172.844C128.929 171.428 128.825 170.237 128.617 169.27C128.409 168.304 128.115 167.527 127.734 166.94C127.37 166.336 126.928 165.904 126.408 165.645C125.889 165.386 125.308 165.257 124.667 165.257C123.489 165.257 122.519 165.472 121.757 165.904C120.994 166.336 120.267 166.966 119.574 167.794V179.188ZM119.08 162.952C120.137 161.83 121.332 160.915 122.666 160.207C124.018 159.482 125.62 159.12 127.474 159.12C128.877 159.12 130.177 159.43 131.372 160.052C132.567 160.673 133.598 161.571 134.464 162.745C135.331 163.919 136.006 165.36 136.491 167.069C136.994 168.761 137.245 170.686 137.245 172.844C137.245 174.864 136.959 176.728 136.387 178.437C135.833 180.146 135.045 181.631 134.023 182.891C133.018 184.151 131.805 185.135 130.384 185.843C128.981 186.551 127.422 186.905 125.707 186.905C124.303 186.905 123.125 186.706 122.172 186.309C121.22 185.912 120.353 185.377 119.574 184.704V195.01H111.518V159.637H116.507C117.512 159.637 118.17 160.086 118.482 160.984L119.08 162.952Z" fill="white"/>
	<path d="M154.796 175.563C153.185 175.632 151.86 175.77 150.82 175.977C149.781 176.184 148.958 176.443 148.352 176.754C147.745 177.065 147.321 177.419 147.078 177.816C146.853 178.213 146.74 178.644 146.74 179.11C146.74 180.025 146.992 180.673 147.494 181.052C147.997 181.415 148.733 181.596 149.703 181.596C150.743 181.596 151.652 181.415 152.432 181.052C153.211 180.69 154 180.103 154.796 179.292V175.563ZM140.296 163.366C141.924 161.933 143.726 160.872 145.701 160.181C147.693 159.473 149.824 159.12 152.094 159.12C153.722 159.12 155.186 159.387 156.486 159.922C157.802 160.44 158.911 161.174 159.812 162.123C160.73 163.056 161.432 164.169 161.917 165.464C162.402 166.758 162.645 168.174 162.645 169.711V186.49H158.954C158.192 186.49 157.612 186.387 157.213 186.18C156.832 185.972 156.512 185.541 156.252 184.885L155.68 183.409C155.004 183.979 154.355 184.479 153.731 184.911C153.107 185.342 152.458 185.714 151.782 186.024C151.124 186.318 150.413 186.534 149.651 186.672C148.906 186.827 148.074 186.905 147.156 186.905C145.926 186.905 144.809 186.749 143.804 186.439C142.799 186.111 141.942 185.636 141.231 185.014C140.538 184.393 140.001 183.625 139.62 182.71C139.239 181.777 139.048 180.707 139.048 179.499C139.048 178.532 139.291 177.557 139.776 176.573C140.261 175.571 141.101 174.665 142.297 173.854C143.492 173.025 145.103 172.335 147.13 171.782C149.157 171.23 151.713 170.919 154.796 170.85V169.711C154.796 168.14 154.467 167.009 153.809 166.318C153.168 165.611 152.25 165.257 151.054 165.257C150.101 165.257 149.322 165.36 148.715 165.567C148.109 165.774 147.563 166.008 147.078 166.267C146.611 166.525 146.151 166.759 145.701 166.966C145.251 167.173 144.713 167.276 144.09 167.276C143.535 167.276 143.068 167.138 142.686 166.862C142.305 166.586 141.993 166.258 141.751 165.878L140.296 163.366Z" fill="white"/>
	<path d="M184.4 165.516C184.192 165.844 183.967 166.077 183.724 166.215C183.499 166.353 183.204 166.422 182.841 166.422C182.46 166.422 182.078 166.344 181.697 166.189C181.316 166.016 180.9 165.835 180.45 165.645C180.017 165.455 179.523 165.283 178.969 165.127C178.414 164.954 177.782 164.868 177.072 164.868C176.049 164.868 175.261 165.067 174.707 165.464C174.17 165.844 173.901 166.379 173.901 167.069C173.901 167.57 174.074 167.984 174.421 168.312C174.785 168.64 175.261 168.934 175.85 169.193C176.439 169.434 177.106 169.667 177.851 169.892C178.596 170.116 179.358 170.367 180.138 170.643C180.918 170.919 181.68 171.247 182.425 171.627C183.17 171.989 183.837 172.447 184.426 172.999C185.015 173.534 185.483 174.19 185.829 174.967C186.193 175.744 186.375 176.676 186.375 177.764C186.375 179.093 186.132 180.319 185.647 181.441C185.162 182.563 184.435 183.53 183.464 184.341C182.512 185.152 181.325 185.783 179.904 186.231C178.501 186.68 176.881 186.905 175.045 186.905C174.126 186.905 173.208 186.818 172.29 186.646C171.372 186.473 170.479 186.24 169.613 185.947C168.764 185.653 167.976 185.308 167.248 184.911C166.521 184.496 165.897 184.056 165.377 183.59L167.248 180.638C167.456 180.293 167.716 180.025 168.028 179.835C168.357 179.628 168.773 179.525 169.275 179.525C169.743 179.525 170.159 179.628 170.523 179.835C170.904 180.043 171.311 180.267 171.744 180.509C172.177 180.75 172.68 180.975 173.251 181.182C173.84 181.389 174.577 181.493 175.46 181.493C176.084 181.493 176.612 181.432 177.046 181.311C177.479 181.173 177.825 180.992 178.085 180.768C178.345 180.543 178.535 180.293 178.657 180.017C178.778 179.74 178.839 179.456 178.839 179.162C178.839 178.627 178.657 178.187 178.293 177.841C177.929 177.496 177.453 177.203 176.864 176.961C176.275 176.702 175.599 176.469 174.837 176.262C174.092 176.037 173.329 175.787 172.55 175.511C171.77 175.235 170.999 174.907 170.237 174.527C169.492 174.13 168.825 173.638 168.236 173.051C167.647 172.447 167.17 171.713 166.807 170.85C166.443 169.987 166.261 168.942 166.261 167.717C166.261 166.577 166.477 165.498 166.911 164.48C167.361 163.444 168.028 162.538 168.912 161.761C169.795 160.984 170.904 160.371 172.238 159.922C173.572 159.456 175.131 159.223 176.916 159.223C177.886 159.223 178.821 159.309 179.722 159.482C180.64 159.655 181.498 159.896 182.295 160.207C183.092 160.518 183.82 160.889 184.478 161.321C185.136 161.735 185.717 162.192 186.219 162.693L184.4 165.516Z" fill="white"/>
	<path d="M207.025 165.516C206.817 165.844 206.592 166.077 206.349 166.215C206.124 166.353 205.83 166.422 205.466 166.422C205.085 166.422 204.703 166.344 204.322 166.189C203.941 166.016 203.525 165.835 203.075 165.645C202.642 165.455 202.148 165.283 201.594 165.127C201.039 164.954 200.407 164.868 199.697 164.868C198.674 164.868 197.886 165.067 197.332 165.464C196.795 165.844 196.526 166.379 196.526 167.069C196.526 167.57 196.699 167.984 197.046 168.312C197.41 168.64 197.886 168.934 198.475 169.193C199.064 169.434 199.731 169.667 200.476 169.892C201.221 170.116 201.983 170.367 202.763 170.643C203.543 170.919 204.305 171.247 205.05 171.627C205.795 171.989 206.462 172.447 207.051 172.999C207.64 173.534 208.108 174.19 208.454 174.967C208.818 175.744 209 176.676 209 177.764C209 179.093 208.757 180.319 208.272 181.441C207.787 182.563 207.06 183.53 206.089 184.341C205.137 185.152 203.95 185.783 202.529 186.231C201.126 186.68 199.506 186.905 197.67 186.905C196.751 186.905 195.833 186.818 194.915 186.646C193.997 186.473 193.105 186.24 192.238 185.947C191.389 185.653 190.601 185.308 189.873 184.911C189.146 184.496 188.522 184.056 188.002 183.59L189.873 180.638C190.081 180.293 190.341 180.025 190.653 179.835C190.982 179.628 191.398 179.525 191.9 179.525C192.368 179.525 192.784 179.628 193.148 179.835C193.529 180.043 193.936 180.267 194.369 180.509C194.802 180.75 195.305 180.975 195.877 181.182C196.466 181.389 197.202 181.493 198.085 181.493C198.709 181.493 199.238 181.432 199.671 181.311C200.104 181.173 200.45 180.992 200.71 180.768C200.97 180.543 201.161 180.293 201.282 180.017C201.403 179.74 201.464 179.456 201.464 179.162C201.464 178.627 201.282 178.187 200.918 177.841C200.554 177.496 200.078 177.203 199.489 176.961C198.9 176.702 198.224 176.469 197.462 176.262C196.717 176.037 195.954 175.787 195.175 175.511C194.395 175.235 193.624 174.907 192.862 174.527C192.117 174.13 191.45 173.638 190.861 173.051C190.272 172.447 189.795 171.713 189.432 170.85C189.068 169.987 188.886 168.942 188.886 167.717C188.886 166.577 189.103 165.498 189.536 164.48C189.986 163.444 190.653 162.538 191.537 161.761C192.42 160.984 193.529 160.371 194.863 159.922C196.197 159.456 197.756 159.223 199.541 159.223C200.511 159.223 201.446 159.309 202.347 159.482C203.266 159.655 204.123 159.896 204.92 160.207C205.717 160.518 206.445 160.889 207.103 161.321C207.761 161.735 208.342 162.192 208.844 162.693L207.025 165.516Z" fill="white"/>
	<path d="M49.6387 28.6423C49.6387 15.585 60.246 5 73.3309 5H139.669C152.754 5 163.361 15.585 163.361 28.6423V94.8408C163.361 107.898 152.754 118.483 139.669 118.483H73.3309C60.246 118.483 49.6387 107.898 49.6387 94.8408V28.6423Z" fill="white"/>
	<path fill-rule="evenodd" clip-rule="evenodd" d="M103.024 26.6947L79.118 95.2787C77.8216 98.9982 82.1359 102.144 85.293 99.7812L104.401 85.4803C105.823 84.4164 107.777 84.4164 109.199 85.4803L128.307 99.7812C131.464 102.144 135.778 98.9982 134.482 95.2788L110.576 26.6947C109.331 23.1227 104.269 23.1227 103.024 26.6947Z" fill="url(#paint0_linear_13_1434)"/>
	<g opacity="0.5">
		<path d="M62.3356 218.116C62.3356 218.964 62.1943 219.751 61.9116 220.476C61.6343 221.196 61.2396 221.82 60.7276 222.348C60.2156 222.876 59.5996 223.289 58.8796 223.588C58.1596 223.881 57.3596 224.028 56.4796 224.028C55.6049 224.028 54.8076 223.881 54.0876 223.588C53.3676 223.289 52.7489 222.876 52.2316 222.348C51.7196 221.82 51.3223 221.196 51.0396 220.476C50.7569 219.751 50.6156 218.964 50.6156 218.116C50.6156 217.268 50.7569 216.484 51.0396 215.764C51.3223 215.039 51.7196 214.412 52.2316 213.884C52.7489 213.356 53.3676 212.945 54.0876 212.652C54.8076 212.353 55.6049 212.204 56.4796 212.204C57.0663 212.204 57.6183 212.273 58.1356 212.412C58.6529 212.545 59.1276 212.737 59.5596 212.988C59.9916 213.233 60.3783 213.535 60.7196 213.892C61.0663 214.244 61.3596 214.639 61.5996 215.076C61.8396 215.513 62.0209 215.988 62.1436 216.5C62.2716 217.012 62.3356 217.551 62.3356 218.116ZM60.1356 218.116C60.1356 217.481 60.0503 216.913 59.8796 216.412C59.7089 215.905 59.4663 215.476 59.1516 215.124C58.8369 214.772 58.4529 214.503 57.9996 214.316C57.5516 214.129 57.0449 214.036 56.4796 214.036C55.9143 214.036 55.4049 214.129 54.9516 214.316C54.5036 214.503 54.1196 214.772 53.7996 215.124C53.4849 215.476 53.2423 215.905 53.0716 216.412C52.9009 216.913 52.8156 217.481 52.8156 218.116C52.8156 218.751 52.9009 219.321 53.0716 219.828C53.2423 220.329 53.4849 220.756 53.7996 221.108C54.1196 221.455 54.5036 221.721 54.9516 221.908C55.4049 222.095 55.9143 222.188 56.4796 222.188C57.0449 222.188 57.5516 222.095 57.9996 221.908C58.4529 221.721 58.8369 221.455 59.1516 221.108C59.4663 220.756 59.7089 220.329 59.8796 219.828C60.0503 219.321 60.1356 218.751 60.1356 218.116Z" fill="white"/>
		<path d="M75.6775 212.332V223.9H74.5735C74.4028 223.9 74.2588 223.873 74.1415 223.82C74.0295 223.761 73.9201 223.665 73.8135 223.532L67.7735 215.82C67.8055 216.172 67.8215 216.497 67.8215 216.796V223.9H65.9255V212.332H67.0535C67.1441 212.332 67.2215 212.337 67.2855 212.348C67.3548 212.353 67.4135 212.369 67.4615 212.396C67.5148 212.417 67.5655 212.452 67.6135 212.5C67.6615 212.543 67.7148 212.601 67.7735 212.676L73.8375 220.42C73.8215 220.233 73.8081 220.049 73.7975 219.868C73.7868 219.687 73.7815 219.519 73.7815 219.364V212.332H75.6775Z" fill="white"/>
		<path d="M79.5776 218.244H83.7216V219.892H79.5776V218.244Z" fill="white"/>
		<path d="M91.3824 218.148C91.777 218.148 92.121 218.1 92.4143 218.004C92.7077 217.903 92.9503 217.761 93.1423 217.58C93.3397 217.393 93.4863 217.169 93.5823 216.908C93.6783 216.641 93.7263 216.345 93.7263 216.02C93.7263 215.711 93.6783 215.431 93.5823 215.18C93.4863 214.929 93.3424 214.716 93.1503 214.54C92.9583 214.364 92.7157 214.231 92.4223 214.14C92.129 214.044 91.7824 213.996 91.3824 213.996H89.7743V218.148H91.3824ZM91.3824 212.332C92.1557 212.332 92.825 212.423 93.3904 212.604C93.9557 212.785 94.4223 213.039 94.7903 213.364C95.1583 213.689 95.4304 214.079 95.6063 214.532C95.7877 214.985 95.8783 215.481 95.8783 216.02C95.8783 216.58 95.785 217.095 95.5984 217.564C95.4117 218.028 95.1317 218.428 94.7584 218.764C94.385 219.1 93.9157 219.361 93.3503 219.548C92.7903 219.735 92.1343 219.828 91.3824 219.828H89.7743V223.9H87.6223V212.332H91.3824Z" fill="white"/>
		<path d="M102.725 217.836C103.13 217.836 103.482 217.785 103.781 217.684C104.085 217.583 104.333 217.444 104.525 217.268C104.722 217.087 104.869 216.873 104.965 216.628C105.061 216.383 105.109 216.113 105.109 215.82C105.109 215.233 104.914 214.783 104.525 214.468C104.141 214.153 103.551 213.996 102.757 213.996H101.381V217.836H102.725ZM108.261 223.9H106.317C105.949 223.9 105.682 223.756 105.517 223.468L103.085 219.764C102.994 219.625 102.893 219.527 102.781 219.468C102.674 219.409 102.514 219.38 102.301 219.38H101.381V223.9H99.2286V212.332H102.757C103.541 212.332 104.213 212.415 104.773 212.58C105.338 212.74 105.799 212.967 106.157 213.26C106.519 213.553 106.786 213.905 106.957 214.316C107.127 214.721 107.213 215.169 107.213 215.66C107.213 216.049 107.154 216.417 107.037 216.764C106.925 217.111 106.759 217.425 106.541 217.708C106.327 217.991 106.061 218.239 105.741 218.452C105.426 218.665 105.066 218.833 104.661 218.956C104.799 219.036 104.927 219.132 105.045 219.244C105.162 219.351 105.269 219.479 105.365 219.628L108.261 223.9Z" fill="white"/>
		<path d="M113.37 214.044V217.252H117.418V218.908H113.37V222.18H118.506V223.9H111.21V212.332H118.506V214.044H113.37Z" fill="white"/>
		<path d="M134.657 212.332V223.9H132.761V216.428C132.761 216.129 132.777 215.807 132.809 215.46L129.313 222.028C129.148 222.343 128.894 222.5 128.553 222.5H128.249C127.908 222.5 127.654 222.343 127.489 222.028L123.953 215.436C123.969 215.612 123.982 215.785 123.993 215.956C124.004 216.127 124.009 216.284 124.009 216.428V223.9H122.113V212.332H123.737C123.833 212.332 123.916 212.335 123.985 212.34C124.054 212.345 124.116 212.359 124.169 212.38C124.228 212.401 124.278 212.436 124.321 212.484C124.369 212.532 124.414 212.596 124.457 212.676L127.921 219.1C128.012 219.271 128.094 219.447 128.169 219.628C128.249 219.809 128.326 219.996 128.401 220.188C128.476 219.991 128.553 219.801 128.633 219.62C128.713 219.433 128.798 219.255 128.889 219.084L132.305 212.676C132.348 212.596 132.393 212.532 132.441 212.484C132.489 212.436 132.54 212.401 132.593 212.38C132.652 212.359 132.716 212.345 132.785 212.34C132.854 212.335 132.937 212.332 133.033 212.332H134.657Z" fill="white"/>
		<path d="M141.098 223.9H138.938V212.332H141.098V223.9Z" fill="white"/>
		<path d="M151.548 214.436C151.484 214.548 151.415 214.631 151.34 214.684C151.271 214.732 151.183 214.756 151.076 214.756C150.964 214.756 150.841 214.716 150.708 214.636C150.58 214.551 150.425 214.457 150.244 214.356C150.063 214.255 149.849 214.164 149.604 214.084C149.364 213.999 149.079 213.956 148.748 213.956C148.449 213.956 148.188 213.993 147.964 214.068C147.74 214.137 147.551 214.236 147.396 214.364C147.247 214.492 147.135 214.647 147.06 214.828C146.985 215.004 146.948 215.199 146.948 215.412C146.948 215.684 147.023 215.911 147.172 216.092C147.327 216.273 147.529 216.428 147.78 216.556C148.031 216.684 148.316 216.799 148.636 216.9C148.956 217.001 149.284 217.111 149.62 217.228C149.956 217.34 150.284 217.473 150.604 217.628C150.924 217.777 151.209 217.969 151.46 218.204C151.711 218.433 151.911 218.716 152.06 219.052C152.215 219.388 152.292 219.796 152.292 220.276C152.292 220.799 152.201 221.289 152.02 221.748C151.844 222.201 151.583 222.599 151.236 222.94C150.895 223.276 150.476 223.543 149.98 223.74C149.484 223.932 148.916 224.028 148.276 224.028C147.908 224.028 147.545 223.991 147.188 223.916C146.831 223.847 146.487 223.745 146.156 223.612C145.831 223.479 145.524 223.319 145.236 223.132C144.948 222.945 144.692 222.737 144.468 222.508L145.1 221.476C145.153 221.401 145.223 221.34 145.308 221.292C145.393 221.239 145.484 221.212 145.58 221.212C145.713 221.212 145.857 221.268 146.012 221.38C146.167 221.487 146.351 221.607 146.564 221.74C146.777 221.873 147.025 221.996 147.308 222.108C147.596 222.215 147.94 222.268 148.34 222.268C148.953 222.268 149.428 222.124 149.764 221.836C150.1 221.543 150.268 221.124 150.268 220.58C150.268 220.276 150.191 220.028 150.036 219.836C149.887 219.644 149.687 219.484 149.436 219.356C149.185 219.223 148.9 219.111 148.58 219.02C148.26 218.929 147.935 218.831 147.604 218.724C147.273 218.617 146.948 218.489 146.628 218.34C146.308 218.191 146.023 217.996 145.772 217.756C145.521 217.516 145.319 217.217 145.164 216.86C145.015 216.497 144.94 216.052 144.94 215.524C144.94 215.103 145.023 214.692 145.188 214.292C145.359 213.892 145.604 213.537 145.924 213.228C146.244 212.919 146.639 212.671 147.108 212.484C147.577 212.297 148.116 212.204 148.724 212.204C149.407 212.204 150.036 212.311 150.612 212.524C151.188 212.737 151.679 213.036 152.084 213.42L151.548 214.436Z" fill="white"/>
		<path d="M158.029 214.044V217.252H162.077V218.908H158.029V222.18H163.165V223.9H155.869V212.332H163.165V214.044H158.029Z" fill="white"/>
	</g>
	<defs>
		<linearGradient id="paint0_linear_13_1434" x1="106.5" y1="5" x2="106.5" y2="195.01" gradientUnits="userSpaceOnUse">
			<stop stop-color="#FD5A09"/>
			<stop offset="1" stop-color="#F33202"/>
		</linearGradient>
	</defs>
</svg>
