<svg width="24" height="24" viewBox="0 0 24 24" fill="none" xmlns="http://www.w3.org/2000/svg">
    <path d="M18.1853 8.70163C17.6945 7.79476 17.0065 7.0022 16.1653 6.38604C14.9424 5.49031 13.4618 5.01574 11.946 5.03369C10.4303 5.05164 8.96132 5.56113 7.75998 6.48557C6.55864 7.41001 5.68984 8.69943 5.2842 10.16C5.17335 10.5591 4.75996 10.7928 4.36085 10.6819C3.96174 10.5711 3.72806 10.1577 3.8389 9.7586C4.33147 7.98505 5.38644 6.41932 6.84521 5.29679C8.30398 4.17426 10.0877 3.55559 11.9283 3.5338C13.7688 3.512 15.5667 4.08826 17.0516 5.17593C18.0808 5.92977 18.9211 6.90103 19.5179 8.01262L20.0517 6.38154C20.1805 5.98787 20.6041 5.77318 20.9978 5.90202C21.3914 6.03085 21.6061 6.45442 21.4773 6.84809L20.3776 10.2083C20.2488 10.6019 19.8252 10.8166 19.4316 10.6878L16.0714 9.58811C15.6777 9.45928 15.463 9.0357 15.5919 8.64204C15.7207 8.24837 16.1443 8.03368 16.5379 8.16251L18.1853 8.70163Z" fill="white" fill-opacity="0.85"/>
    <path d="M4.51535 16.0613L3.98156 17.6923C3.85272 18.086 3.42915 18.3007 3.03548 18.1719C2.64181 18.043 2.42712 17.6195 2.55596 17.2258L3.65563 13.8656C3.78446 13.472 4.20804 13.2573 4.6017 13.3861L7.96187 14.4858C8.35554 14.6146 8.57023 15.0382 8.44139 15.4318C8.31256 15.8255 7.88899 16.0402 7.49532 15.9114L5.848 15.3723C6.33877 16.2791 7.02677 17.0717 7.86799 17.6878C9.09088 18.5836 10.5715 19.0581 12.0872 19.0402C13.603 19.0222 15.0719 18.5127 16.2733 17.5883C17.4746 16.6639 18.3434 15.3745 18.7491 13.9139C18.8599 13.5148 19.2733 13.2811 19.6724 13.3919C20.0715 13.5028 20.3052 13.9162 20.1944 14.3153C19.7018 16.0888 18.6468 17.6546 17.1881 18.7771C15.7293 19.8996 13.9455 20.5183 12.105 20.5401C10.2645 20.5619 8.46656 19.9856 6.98162 18.898C5.95245 18.1441 5.11215 17.1729 4.51535 16.0613Z" fill="white" fill-opacity="0.85"/>
</svg>
