<svg width="100" height="101" viewBox="0 0 100 101" fill="none" xmlns="http://www.w3.org/2000/svg">
    <path d="M7.5242 14.735C8.76653 14.3289 9.44631 12.9866 9.04251 11.7371C8.63872 10.4875 7.30428 9.80379 6.06194 10.2099C4.81961 10.6161 4.13984 11.9583 4.54363 13.2078C4.94742 14.4574 6.28187 15.1411 7.5242 14.735Z" fill="#0A0A0B"/>
    <path d="M12.688 6.97542C13.5328 6.69924 13.9951 5.78654 13.7205 4.93684C13.4459 4.08714 12.5385 3.6222 11.6937 3.89838C10.8489 4.17455 10.3867 5.08726 10.6612 5.93696C10.9358 6.78666 11.8432 7.2516 12.688 6.97542Z" fill="#0A0A0B"/>
    <path d="M90.2314 15.1417C91.6972 13.7944 91.7996 11.507 90.4601 10.0327C89.1206 8.55833 86.8464 8.45536 85.3806 9.80267C83.9148 11.15 83.8125 13.4374 85.152 14.9117C86.4915 16.386 88.7656 16.489 90.2314 15.1417Z" fill="#0A0A0B"/>
    <path d="M97.7146 8.54897C98.3318 7.98168 98.3749 7.01857 97.8109 6.3978C97.2469 5.77703 96.2894 5.73367 95.6722 6.30096C95.055 6.86825 95.0119 7.83136 95.5759 8.45213C96.1399 9.0729 97.0975 9.11626 97.7146 8.54897Z" fill="#0A0A0B"/>
    <path d="M11.6834 93.0802C12.3006 92.5129 12.3437 91.5498 11.7797 90.929C11.2157 90.3083 10.2581 90.2649 9.64094 90.8322C9.02376 91.3995 8.98065 92.3626 9.54466 92.9834C10.1087 93.6041 11.0662 93.6475 11.6834 93.0802Z" fill="#0A0A0B"/>
    <path d="M49.8551 98.109C75.8252 98.109 96.8781 76.9335 96.8781 50.8123C96.8781 24.6911 75.8252 3.51562 49.8551 3.51562C23.885 3.51562 2.83203 24.6911 2.83203 50.8123C2.83203 76.9335 23.885 98.109 49.8551 98.109Z" fill="#181818"/>
    <path d="M48.7384 8.46906C43.9252 5.69021 37.7925 7.3016 35.0405 12.0682L15.1087 46.5911C12.3567 51.3577 14.0276 57.4745 18.8407 60.2533L62.4153 85.4111C67.2284 88.19 73.3611 86.5786 76.1131 81.812L96.0449 47.2891C98.7969 42.5225 97.126 36.4057 92.3129 33.6268L48.7384 8.46906Z" fill="#222222"/>
    <path d="M28.3528 12.7851C22.2079 11.5317 16.2203 15.4489 14.979 21.5343L5.98892 65.6092C4.74764 71.6947 8.72276 77.644 14.8676 78.8974L70.4987 90.2447C76.6435 91.498 82.6311 87.5809 83.8724 81.4954L92.8625 37.4205C94.1038 31.3351 90.1287 25.3857 83.9838 24.1324L28.3528 12.7851Z" fill="#272727"/>
    <path d="M25.8783 23.5625C20.5133 23.5625 16.1641 28.0397 16.1641 33.5625V73.5625C16.1641 79.0853 20.5133 83.5625 25.8783 83.5625H74.4498C79.8148 83.5625 84.1641 79.0853 84.1641 73.5625V33.5625C84.1641 28.0397 79.8148 23.5625 74.4498 23.5625H25.8783Z" fill="#313131"/>
    <path d="M33.3 40.6719C30.9252 40.6719 29 42.5374 29 44.8385V61.5052C29 63.8064 30.9252 65.6719 33.3 65.6719H54.8C57.1748 65.6719 59.1 63.8064 59.1 61.5052V44.8385C59.1 42.5374 57.1748 40.6719 54.8 40.6719H33.3Z" fill="url(#paint0_linear_4215_8134)"/>
    <path d="M62.0171 48.7975C61.5308 49.1933 61.25 49.7772 61.25 50.3927V55.9511C61.25 56.5665 61.5308 57.1504 62.0171 57.5463L69.1737 63.3714C70.2927 64.2822 72 63.5114 72 62.0952V44.2485C72 42.8324 70.2927 42.0615 69.1737 42.9723L62.0171 48.7975Z" fill="url(#paint1_linear_4215_8134)"/>
    <path d="M97.6641 82.8398C97.6641 83.6731 97.5807 84.423 97.4974 85.2563C96.6641 90.7558 92.9145 95.2555 87.8316 97.172C86.0817 97.8386 84.2485 98.1719 82.332 98.1719C76.9992 98.1719 72.2496 95.4221 69.4998 91.2558C67.9166 88.8393 67 85.9229 67 82.8398C67 74.3406 73.8328 67.5078 82.332 67.5078C90.748 67.5078 97.6641 74.4239 97.6641 82.8398Z" fill="url(#paint2_linear_4215_8134)"/>
    <ellipse cx="82.3318" cy="82.8427" rx="4.99193" ry="4.99113" fill="url(#paint3_linear_4215_8134)"/>
    <defs>
        <linearGradient id="paint0_linear_4215_8134" x1="51" y1="65.6719" x2="51" y2="40.6719" gradientUnits="userSpaceOnUse">
            <stop stop-color="#BBC2CA" stop-opacity="0.4"/>
            <stop offset="1" stop-color="#BBC2CA"/>
        </linearGradient>
        <linearGradient id="paint1_linear_4215_8134" x1="51" y1="65.6719" x2="51" y2="40.6719" gradientUnits="userSpaceOnUse">
            <stop stop-color="#BBC2CA" stop-opacity="0.4"/>
            <stop offset="1" stop-color="#BBC2CA"/>
        </linearGradient>
        <linearGradient id="paint2_linear_4215_8134" x1="82.3057" y1="65.4572" x2="82.3057" y2="99.1329" gradientUnits="userSpaceOnUse">
            <stop stop-color="#DA6964"/>
            <stop offset="1" stop-color="#DC2E26"/>
        </linearGradient>
        <linearGradient id="paint3_linear_4215_8134" x1="84.8553" y1="86.037" x2="78.3513" y2="78.9891" gradientUnits="userSpaceOnUse">
            <stop offset="0.0113208" stop-color="#FFCFC9"/>
            <stop offset="1" stop-color="white"/>
        </linearGradient>
    </defs>
</svg>
