<svg width="18" height="18" viewBox="0 0 18 18" fill="none" xmlns="http://www.w3.org/2000/svg">
    <rect width="18" height="18" rx="5" fill="#006BE0"/>
    <path fill-rule="evenodd" clip-rule="evenodd" d="M13.8375 5.37935C14.0653 5.15154 14.4347 5.15154 14.6625 5.37935C14.8903 5.60716 14.8903 5.9765 14.6625 6.20431L14.25 5.79183L13.8375 5.37935ZM7.83334 11.3835L13.8375 5.37935C13.8376 5.37932 13.8375 5.37935 14.25 5.79183C14.6625 6.20431 14.6625 6.20428 14.6625 6.20431L14.6621 6.20473L8.24582 12.621C8.01802 12.8488 7.64867 12.8488 7.42086 12.621L4.5042 9.70431C4.27639 9.4765 4.27639 9.10716 4.5042 8.87935C4.732 8.65154 5.10135 8.65154 5.32916 8.87935L7.83334 11.3835Z" fill="white"/>
</svg>
