<svg width="20" height="20" viewBox="0 0 20 20"  xmlns="http://www.w3.org/2000/svg">
    <path d="M10.0003 11.666C9.65157 11.666 9.36544 11.3899 9.35299 11.0414L9.19671 6.66548C9.18046 6.21043 9.54496 5.83268 10.0003 5.83268C10.4556 5.83268 10.8201 6.21043 10.8039 6.66549L10.6476 11.0414C10.6352 11.3899 10.349 11.666 10.0003 11.666Z" />
    <path d="M10.0003 14.166C10.4606 14.166 10.8337 13.7929 10.8337 13.3327C10.8337 12.8724 10.4606 12.4993 10.0003 12.4993C9.54009 12.4993 9.16699 12.8724 9.16699 13.3327C9.16699 13.7929 9.54009 14.166 10.0003 14.166Z" />
    <path fill-rule="evenodd" clip-rule="evenodd" d="M10.0003 18.3327C14.6027 18.3327 18.3337 14.6017 18.3337 9.99935C18.3337 5.39698 14.6027 1.66602 10.0003 1.66602C5.39795 1.66602 1.66699 5.39698 1.66699 9.99935C1.66699 14.6017 5.39795 18.3327 10.0003 18.3327ZM10.0003 17.0827C13.9123 17.0827 17.0837 13.9114 17.0837 9.99935C17.0837 6.08733 13.9123 2.91602 10.0003 2.91602C6.08831 2.91602 2.91699 6.08733 2.91699 9.99935C2.91699 13.9114 6.08831 17.0827 10.0003 17.0827Z" />
</svg>
