<svg width="24" height="24" viewBox="0 0 24 24" xmlns="http://www.w3.org/2000/svg">
    <g clip-path="url(#clip0_402_24862)">
        <path fill-rule="evenodd" clip-rule="evenodd" d="M16.8062 4.19391C17.1479 4.53562 17.1479 5.08964 16.8062 5.43135L11.7374 10.5001L16.8062 15.5689C17.1479 15.9106 17.1479 16.4646 16.8062 16.8064C16.4645 17.1481 15.9105 17.1481 15.5688 16.8064L10.5 11.7376L5.43122 16.8064C5.08951 17.1481 4.53549 17.1481 4.19378 16.8064C3.85207 16.4646 3.85207 15.9106 4.19378 15.5689L9.26256 10.5001L4.19378 5.43135C3.85207 5.08964 3.85207 4.53562 4.19378 4.19391C4.53549 3.8522 5.08951 3.8522 5.43122 4.19391L10.5 9.26269L15.5688 4.19391C15.9105 3.8522 16.4645 3.8522 16.8062 4.19391Z"/>
    </g>
    <defs>
        <clipPath id="clip0_402_24862">
            <rect width="24" height="24"/>
        </clipPath>
    </defs>
</svg>
