<svg width="18" height="18" viewBox="0 0 18 18" fill="none" xmlns="http://www.w3.org/2000/svg">
    <path fill-rule="evenodd" clip-rule="evenodd" d="M7.22495 8.54961C7.22495 8.16301 7.53835 7.84961 7.92495 7.84961H9.94995C10.3366 7.84961 10.65 8.16301 10.65 8.54961V14.6996C10.65 15.0862 10.3366 15.3996 9.94995 15.3996H7.92495C7.53835 15.3996 7.22495 15.0862 7.22495 14.6996V8.54961ZM8.02495 8.64961V14.5996H9.84995V8.64961H8.02495Z" fill="white"/>
    <path fill-rule="evenodd" clip-rule="evenodd" d="M12.85 4.04961C12.85 3.66301 13.1634 3.34961 13.55 3.34961H15.575C15.9616 3.34961 16.275 3.66301 16.275 4.04961V14.6996C16.275 15.0862 15.9616 15.3996 15.575 15.3996H13.55C13.1634 15.3996 12.85 15.0862 12.85 14.6996V4.04961ZM13.65 4.14961V14.5996H15.475V4.14961H13.65Z" fill="white"/>
    <path d="M4.32495 11.6996H2.29995C1.96858 11.6996 1.69995 11.9682 1.69995 12.2996V14.6996C1.69995 15.031 1.96858 15.2996 2.29995 15.2996H4.32495C4.65632 15.2996 4.92495 15.031 4.92495 14.6996V12.2996C4.92495 11.9682 4.65632 11.6996 4.32495 11.6996Z" fill="white"/>
</svg>
