<svg width="18" height="18" viewBox="0 0 18 18" fill="none" xmlns="http://www.w3.org/2000/svg">
    <path fill-rule="evenodd" clip-rule="evenodd" d="M7.92495 7.9502H9.94995C10.2813 7.9502 10.55 8.21882 10.55 8.5502V14.7002C10.55 15.0316 10.2813 15.3002 9.94995 15.3002H7.92495C7.59358 15.3002 7.32495 15.0316 7.32495 14.7002V8.5502C7.32495 8.21883 7.59358 7.9502 7.92495 7.9502Z" fill="white"/>
    <path fill-rule="evenodd" clip-rule="evenodd" d="M13.55 3.4502H15.575C15.9063 3.4502 16.175 3.71882 16.175 4.0502V14.7002C16.175 15.0316 15.9063 15.3002 15.575 15.3002H13.55C13.2186 15.3002 12.95 15.0316 12.95 14.7002V4.0502C12.95 3.71883 13.2186 3.4502 13.55 3.4502Z" fill="white"/>
    <path d="M4.32495 11.7002H2.29995C1.96858 11.7002 1.69995 11.9688 1.69995 12.3002V14.7002C1.69995 15.0316 1.96858 15.3002 2.29995 15.3002H4.32495C4.65632 15.3002 4.92495 15.0316 4.92495 14.7002V12.3002C4.92495 11.9688 4.65632 11.7002 4.32495 11.7002Z" fill="white"/>
</svg>
