<svg width="21" height="21" viewBox="0 0 21 21" xmlns="http://www.w3.org/2000/svg">
    <path fill-rule="evenodd" clip-rule="evenodd" d="M3.5 12.25C4.4665 12.25 5.25 11.4665 5.25 10.5C5.25 9.5335 4.4665 8.75 3.5 8.75C2.5335 8.75 1.75 9.5335 1.75 10.5C1.75 11.4665 2.5335 12.25 3.5 12.25ZM10.5 12.25C11.4665 12.25 12.25 11.4665 12.25 10.5C12.25 9.5335 11.4665 8.75 10.5 8.75C9.5335 8.75 8.75 9.5335 8.75 10.5C8.75 11.4665 9.5335 12.25 10.5 12.25ZM19.2501 10.5C19.2501 11.4665 18.4666 12.25 17.5001 12.25C16.5336 12.25 15.7501 11.4665 15.7501 10.5C15.7501 9.5335 16.5336 8.75 17.5001 8.75C18.4666 8.75 19.2501 9.5335 19.2501 10.5Z"/>
</svg>
