<svg width="24" height="24" viewBox="0 0 24 24" xmlns="http://www.w3.org/2000/svg">
    <path fill-rule="evenodd" clip-rule="evenodd" d="M5 2.75C3.75736 2.75 2.75 3.75736 2.75 5V7.90909C2.75 8.3233 2.41421 8.65909 2 8.65909C1.58579 8.65909 1.25 8.3233 1.25 7.90909V5C1.25 2.92893 2.92893 1.25 5 1.25H7.90909C8.3233 1.25 8.65909 1.58579 8.65909 2C8.65909 2.41421 8.3233 2.75 7.90909 2.75H5ZM15.3409 2C15.3409 1.58579 15.6767 1.25 16.0909 1.25H19C21.0711 1.25 22.75 2.92893 22.75 5V7.90909C22.75 8.3233 22.4142 8.65909 22 8.65909C21.5858 8.65909 21.25 8.3233 21.25 7.90909V5C21.25 3.75736 20.2426 2.75 19 2.75H16.0909C15.6767 2.75 15.3409 2.41421 15.3409 2ZM2 15.3409C2.41421 15.3409 2.75 15.6767 2.75 16.0909V19C2.75 20.2426 3.75736 21.25 5 21.25H7.90909C8.3233 21.25 8.65909 21.5858 8.65909 22C8.65909 22.4142 8.3233 22.75 7.90909 22.75H5C2.92893 22.75 1.25 21.0711 1.25 19V16.0909C1.25 15.6767 1.58579 15.3409 2 15.3409ZM22 15.3409C22.4142 15.3409 22.75 15.6767 22.75 16.0909V19C22.75 21.0711 21.0711 22.75 19 22.75H16.0909C15.6767 22.75 15.3409 22.4142 15.3409 22C15.3409 21.5858 15.6767 21.25 16.0909 21.25H19C20.2426 21.25 21.25 20.2426 21.25 19V16.0909C21.25 15.6767 21.5858 15.3409 22 15.3409Z"/>
</svg>
