<svg width="37" height="32" viewBox="0 0 37 32" fill="none" xmlns="http://www.w3.org/2000/svg">
    <path fill-rule="evenodd" clip-rule="evenodd" d="M25.5076 1.60308H20.0915C19.9742 1.61125 19.8646 1.66392 19.7854 1.75018C19.7061 1.83644 19.6632 1.94969 19.6656 2.06652C19.6632 2.18335 19.7061 2.2966 19.7854 2.38286C19.8646 2.46912 19.9742 2.52179 20.0915 2.52996H25.5478C25.6736 2.52996 25.7942 2.48029 25.8831 2.39188C25.972 2.30347 26.0219 2.18356 26.0219 2.05853C26.0212 1.99409 26.0069 1.93052 25.98 1.87188C25.9531 1.81323 25.9143 1.76081 25.8659 1.71795C25.8175 1.67509 25.7606 1.64273 25.6989 1.62295C25.6373 1.60317 25.5721 1.5964 25.5076 1.60308ZM2.08285 8.51493C2.20934 8.51494 2.33078 8.46553 2.42097 8.37734C2.51116 8.28916 2.56289 8.16925 2.565 8.04349V6.58924C2.56497 6.0612 2.67022 5.5384 2.87464 5.05106C3.07907 4.56372 3.37863 4.1215 3.756 3.74999C4.13336 3.37847 4.58105 3.08503 5.07318 2.88661C5.5653 2.6882 6.0921 2.58876 6.62312 2.59404H9.17049C9.23413 2.59408 9.29712 2.58137 9.35572 2.55669C9.41431 2.532 9.46731 2.49584 9.51156 2.45036C9.5558 2.40488 9.59038 2.351 9.61324 2.29195C9.6361 2.23289 9.64676 2.16987 9.64461 2.10663C9.65047 2.04042 9.64195 1.97374 9.61962 1.9111C9.59728 1.84846 9.56166 1.79133 9.51517 1.74358C9.46867 1.69584 9.41239 1.65859 9.35015 1.63437C9.28791 1.61016 9.22115 1.59954 9.15442 1.60323H6.62312C5.96402 1.60112 5.31102 1.72865 4.70169 1.97847C4.09235 2.22829 3.53873 2.59548 3.07268 3.05889C2.60662 3.52231 2.23735 4.0728 1.9861 4.67868C1.73486 5.28457 1.60661 5.93388 1.60873 6.58924V8.04349C1.60873 8.16852 1.65868 8.28843 1.7476 8.37685C1.83651 8.46526 1.9571 8.51493 2.08285 8.51493ZM10.0548 6.72043C8.2352 6.72043 6.75261 8.2013 6.75261 10.0004C6.75261 11.7996 8.2352 13.2804 10.0548 13.2804C11.8744 13.2804 13.357 11.7996 13.357 10.0004C13.357 8.2013 11.8744 6.72043 10.0548 6.72043ZM10.0548 12.4804C8.68912 12.4804 7.56569 11.3692 7.56569 10.0004C7.56569 8.63165 8.68912 7.52043 10.0548 7.52043C11.4205 7.52043 12.544 8.63165 12.544 10.0004C12.544 11.3692 11.4205 12.4804 10.0548 12.4804ZM30.5759 14.2063L30.5744 14.2043C30.5724 14.2016 30.569 14.1971 30.5643 14.1914C30.5548 14.1798 30.5411 14.1646 30.5246 14.1499C30.487 14.1162 30.4571 14.1044 30.4397 14.1043C30.4224 14.1043 30.3927 14.116 30.3552 14.1496C30.3388 14.1644 30.3251 14.1796 30.3156 14.1911L30.3085 14.2L30.3055 14.204L30.3041 14.206L30.2967 14.2169L18.1516 27.0181C18.0503 27.1251 17.9321 27.1711 17.822 27.1711C17.7119 27.1711 17.5937 27.1252 17.4924 27.0181C17.2933 26.8077 17.2933 26.4988 17.4924 26.2884L20.5526 23.0532L16.1823 18.4332L16.1761 18.4243L16.1693 18.4162C16.1622 18.4083 16.1511 18.3971 16.1366 18.3857C16.107 18.3627 16.0691 18.3435 16.0236 18.3417C15.986 18.3403 15.9536 18.3556 15.9256 18.3785C15.9118 18.3897 15.901 18.4013 15.894 18.4097C15.8906 18.4139 15.8867 18.4192 15.8867 18.4192L15.8794 18.4307L12.3445 22.1676C12.2554 22.2618 12.1412 22.3206 12.0149 22.3206C11.8887 22.3206 11.7744 22.2618 11.6853 22.1676C11.4863 21.9572 11.4863 21.6483 11.6853 21.4378L15.1983 17.7241C15.6422 17.2548 16.4172 17.2548 16.8611 17.7241L21.0193 22.1199L21.227 22.3395L29.6084 13.5178C29.8439 13.2688 30.1382 13.1374 30.4399 13.1374C30.7415 13.1374 31.0358 13.2688 31.2713 13.5178L34.7977 17.2243C34.8266 17.2189 34.8561 17.2162 34.8858 17.2162C35.0115 17.2162 35.1321 17.2659 35.221 17.3543C35.31 17.4427 35.3599 17.5626 35.3599 17.6876V22.378C35.361 22.4402 35.3495 22.502 35.326 22.5597C35.3026 22.6174 35.2677 22.6698 35.2235 22.7138C35.1792 22.7578 35.1265 22.7925 35.0685 22.8158C35.0105 22.8391 34.9484 22.8505 34.8858 22.8494C34.8229 22.8505 34.7603 22.8391 34.7019 22.8159C34.6434 22.7927 34.5902 22.7581 34.5453 22.7142C34.5005 22.6703 34.4648 22.618 34.4405 22.5603C34.4162 22.5026 34.4036 22.4406 34.4036 22.378V18.2558L30.5831 14.2169L30.5759 14.2063ZM9.84334 24.6959C9.77022 24.757 9.68251 24.8048 9.58644 24.8111C9.48655 24.8177 9.39001 24.7785 9.30578 24.6895C9.13596 24.51 9.13596 24.2497 9.30578 24.0702L10.0227 23.3123C10.0999 23.2307 10.1944 23.184 10.2949 23.184C10.3954 23.184 10.4899 23.2307 10.5671 23.3123C10.7369 23.4918 10.7369 23.7521 10.5671 23.9316L9.84334 24.6959ZM28.376 1.603L30.3448 1.64295C31.6691 1.63016 32.9443 2.14048 33.8905 3.06184C34.8367 3.9832 35.3765 5.24028 35.3913 6.55704V7.97934C35.3762 8.09482 35.3194 8.20089 35.2314 8.27775C35.1434 8.35461 35.0303 8.397 34.9132 8.397C34.7961 8.397 34.6829 8.35461 34.595 8.27775C34.507 8.20089 34.4501 8.09482 34.435 7.97934V6.54106C34.4351 6.01303 34.3298 5.49023 34.1254 5.00288C33.921 4.51554 33.6214 4.07333 33.244 3.70181C32.8667 3.3303 32.419 3.03685 31.9269 2.83844C31.4347 2.64002 30.9079 2.54058 30.3769 2.54586H28.2876C28.1618 2.54586 28.0413 2.4962 27.9523 2.40778C27.8634 2.31937 27.8135 2.19946 27.8135 2.07443C27.8135 1.9494 27.8634 1.82949 27.9523 1.74108C28.0413 1.65267 28.1618 1.603 28.2876 1.603H28.376ZM9.25076 29.4574H6.62303C6.09201 29.4627 5.56521 29.3632 5.07309 29.1648C4.58096 28.9664 4.13327 28.673 3.7559 28.3015C3.37854 27.9299 3.07898 27.4877 2.87455 27.0004C2.67012 26.513 2.56488 25.9902 2.56491 25.4622V24.5913C2.56074 24.469 2.50895 24.3532 2.42049 24.2682C2.33202 24.1832 2.2138 24.1357 2.09079 24.1358C1.96838 24.1377 1.85127 24.1858 1.76322 24.2704C1.67517 24.355 1.62278 24.4697 1.61667 24.5913V25.3903C1.61667 26.7105 2.14413 27.9767 3.083 28.9103C4.02187 29.8438 5.29526 30.3683 6.62303 30.3683H9.25076C9.3765 30.3683 9.4971 30.3186 9.58601 30.2302C9.67492 30.1418 9.72488 30.0219 9.72488 29.8969C9.72488 29.7718 9.67492 29.6519 9.58601 29.5635C9.4971 29.4751 9.3765 29.4254 9.25076 29.4254V29.4574ZM2.43179 15.5258C2.34137 15.6157 2.21873 15.6663 2.09086 15.6663C1.96298 15.6663 1.84034 15.6157 1.74992 15.5258C1.6595 15.4359 1.6087 15.314 1.6087 15.1868H1.64888V10.5204C1.6443 10.4779 1.6443 10.4351 1.64888 10.3926C1.67911 10.3322 1.71691 10.2758 1.76139 10.2248C1.8013 10.1837 1.85108 10.1535 1.90603 10.1369C1.96434 10.1248 2.02451 10.1248 2.08282 10.1369C2.14383 10.1248 2.20663 10.1248 2.26765 10.1369L2.33193 10.1768L2.41229 10.2248C2.47271 10.2395 2.52814 10.2698 2.57301 10.3127C2.57669 10.3312 2.57669 10.3502 2.57301 10.3686C2.5765 10.4032 2.5765 10.438 2.57301 10.4725C2.56825 10.4908 2.56825 10.5101 2.57301 10.5284V15.1868C2.57301 15.314 2.52221 15.4359 2.43179 15.5258ZM2.57301 15.3626C2.5772 15.3041 2.5772 15.2453 2.57301 15.1868V15.3626ZM2.08282 22.7615C2.2035 22.7601 2.31942 22.7145 2.40839 22.6334C2.49736 22.5523 2.55311 22.4415 2.56497 22.322V17.6077C2.56287 17.4841 2.51198 17.3662 2.4233 17.2795C2.33461 17.1928 2.21522 17.1442 2.09086 17.1443C1.96965 17.1438 1.85273 17.1888 1.76338 17.2703C1.67403 17.3517 1.6188 17.4636 1.6087 17.5837V22.2981C1.61281 22.4211 1.66433 22.5378 1.75258 22.624C1.84084 22.7103 1.95908 22.7595 2.08282 22.7615ZM11.6059 29.4576H17.4962C17.622 29.4576 17.7426 29.5073 17.8315 29.5957C17.9204 29.6841 17.9703 29.8041 17.9704 29.9291C17.9703 30.0541 17.9204 30.174 17.8315 30.2624C17.7426 30.3508 17.622 30.4005 17.4962 30.4005H17.3998H11.7024H11.6059C11.5434 30.4016 11.4812 30.3901 11.4232 30.3668C11.3652 30.3435 11.3125 30.3088 11.2683 30.2648C11.224 30.2209 11.1891 30.1685 11.1657 30.1108C11.1422 30.0531 11.1307 29.9913 11.1318 29.9291C11.1318 29.8041 11.1818 29.6841 11.2707 29.5957C11.3596 29.5073 11.4802 29.4576 11.6059 29.4576ZM25.6202 29.4576H19.8022C19.6764 29.4576 19.5559 29.5073 19.4669 29.5957C19.378 29.6841 19.3281 29.8041 19.3281 29.9291C19.3281 30.0541 19.378 30.174 19.4669 30.2624C19.5559 30.3508 19.6764 30.4005 19.8022 30.4005H25.6202C25.7459 30.4005 25.8665 30.3508 25.9554 30.2624C26.0443 30.174 26.0943 30.0541 26.0943 29.9291C26.0943 29.8041 26.0443 29.6841 25.9554 29.5957C25.8665 29.5073 25.7459 29.4576 25.6202 29.4576ZM34.5711 24.3641C34.6596 24.2791 34.7778 24.2316 34.9008 24.2317C35.0237 24.2359 35.1402 24.2874 35.2257 24.3753C35.3112 24.4633 35.3589 24.5808 35.3588 24.7031V25.4383C35.3441 26.746 34.8123 27.9955 33.8785 28.9165C32.9447 29.8376 31.6838 30.3562 30.3686 30.3603H28.239H28.1506C28.0881 30.3614 28.0259 30.35 27.9679 30.3267C27.9099 30.3034 27.8572 30.2687 27.813 30.2247C27.7687 30.1807 27.7338 30.1283 27.7104 30.0706C27.687 30.0129 27.6754 29.9511 27.6765 29.8889C27.6764 29.7679 27.723 29.6515 27.8068 29.5638C27.8905 29.476 28.005 29.4236 28.1265 29.4175H30.3686C30.8996 29.4228 31.4264 29.3233 31.9185 29.1249C32.4106 28.9265 32.8583 28.6331 33.2357 28.2615C33.613 27.89 33.9126 27.4478 34.117 26.9605C34.3215 26.4731 34.4267 25.9503 34.4267 25.4223V24.6872C34.4308 24.5649 34.4826 24.4491 34.5711 24.3641ZM34.7008 9.82686C34.7593 9.80364 34.8218 9.79223 34.8848 9.79329C35.0057 9.79106 35.1228 9.83566 35.2112 9.91766C35.2997 9.99967 35.3526 10.1127 35.3589 10.2328V15.027C35.3469 15.1457 35.2908 15.2556 35.2017 15.3354C35.1125 15.4152 34.9967 15.4591 34.8767 15.4585C34.7576 15.4589 34.6428 15.4148 34.5549 15.3348C34.4671 15.2549 34.4127 15.145 34.4026 15.027C34.3977 15.0141 34.3977 14.9999 34.4026 14.9871V10.2647C34.4026 10.2021 34.4151 10.1402 34.4394 10.0825C34.4638 10.0247 34.4994 9.9724 34.5443 9.92852C34.5892 9.88463 34.6424 9.85008 34.7008 9.82686ZM17.3354 2.54609H11.7103C11.588 2.54001 11.4726 2.48792 11.3875 2.40037C11.3025 2.31282 11.2541 2.19637 11.2522 2.07465C11.251 2.01105 11.263 1.94789 11.2874 1.8891C11.3119 1.83031 11.3482 1.77714 11.3942 1.73292C11.4402 1.68869 11.4948 1.65436 11.5547 1.63204C11.6146 1.60973 11.6785 1.59992 11.7424 1.60322H11.8388H17.2148H17.3113C17.3751 1.59992 17.439 1.60973 17.4989 1.63204C17.5589 1.65436 17.6135 1.68869 17.6595 1.73292C17.7055 1.77714 17.7418 1.83031 17.7662 1.8891C17.7906 1.94789 17.8026 2.01105 17.8015 2.07465C17.8025 2.13618 17.7913 2.19731 17.7683 2.25446C17.7454 2.31161 17.7112 2.36365 17.6678 2.40753C17.6244 2.45142 17.5727 2.48627 17.5156 2.51006C17.4585 2.53385 17.3973 2.54609 17.3354 2.54609Z" fill="white"/>
</svg>