<svg width="24" height="24" viewBox="0 0 24 24" xmlns="http://www.w3.org/2000/svg">
    <path fill-rule="evenodd" clip-rule="evenodd" d="M8.67792 5.94478C8.67792 7.45425 7.45425 8.67791 5.94479 8.67791H2.41104C1.90789 8.67791 1.5 9.0858 1.5 9.58896C1.5 10.0921 1.90789 10.5 2.41104 10.5L5.94479 10.5C8.46056 10.5 10.5 8.46056 10.5 5.94478L10.5 2.41104C10.5 1.90789 10.0921 1.5 9.58896 1.5C9.0858 1.5 8.67792 1.90789 8.67792 2.41104L8.67792 5.94478ZM18.0552 8.67791C16.5458 8.67791 15.3221 7.45425 15.3221 5.94479V2.41104C15.3221 1.90789 14.9142 1.5 14.411 1.5C13.9079 1.5 13.5 1.90789 13.5 2.41104V5.94479C13.5 8.46056 15.5394 10.5 18.0552 10.5H21.589C22.0921 10.5 22.5 10.0921 22.5 9.58896C22.5 9.0858 22.0921 8.67791 21.589 8.67791L18.0552 8.67791ZM5.94479 15.3221C7.45425 15.3221 8.67792 16.5458 8.67792 18.0552L8.67792 21.589C8.67792 22.0921 9.0858 22.5 9.58896 22.5C10.0921 22.5 10.5 22.0921 10.5 21.589L10.5 18.0552C10.5 15.5394 8.46056 13.5 5.94479 13.5L2.41104 13.5C1.90789 13.5 1.5 13.9079 1.5 14.411C1.5 14.9142 1.90789 15.3221 2.41104 15.3221H5.94479ZM18.0552 15.3221C16.5458 15.3221 15.3221 16.5458 15.3221 18.0552V21.589C15.3221 22.0921 14.9142 22.5 14.411 22.5C13.9079 22.5 13.5 22.0921 13.5 21.589V18.0552C13.5 15.5394 15.5394 13.5 18.0552 13.5H21.589C22.0921 13.5 22.5 13.9079 22.5 14.411C22.5 14.9142 22.0921 15.3221 21.589 15.3221H18.0552Z"/>
</svg>
