<svg width="18" height="18" viewBox="0 0 18 18" xmlns="http://www.w3.org/2000/svg">
    <g>
        <path fill-rule="evenodd" clip-rule="evenodd" d="M4.28744 6.33736C4.51524 6.56516 4.51524 6.93451 4.28744 7.16232L2.65825 8.7915H6.49996C6.82213 8.7915 7.08329 9.05267 7.08329 9.37484C7.08329 9.697 6.82213 9.95817 6.49996 9.95817H2.65825L4.28744 11.5874C4.51524 11.8152 4.51524 12.1845 4.28744 12.4123C4.05963 12.6401 3.69029 12.6401 3.46248 12.4123L0.83748 9.78732C0.609675 9.55951 0.609675 9.19016 0.83748 8.96236L3.46248 6.33736C3.69029 6.10955 4.05963 6.10955 4.28744 6.33736ZM13.6292 6.33736C13.857 6.10955 14.2263 6.10955 14.4541 6.33736L17.0791 8.96236C17.3069 9.19016 17.3069 9.55951 17.0791 9.78732L14.4541 12.4123C14.2263 12.6401 13.857 12.6401 13.6292 12.4123C13.4014 12.1845 13.4014 11.8152 13.6292 11.5874L15.2584 9.95817H11.4166C11.0945 9.95817 10.8333 9.697 10.8333 9.37484C10.8333 9.05267 11.0945 8.7915 11.4166 8.7915H15.2584L13.6292 7.16232C13.4014 6.93451 13.4014 6.56516 13.6292 6.33736Z"/>
    </g>
</svg>
