<svg width="18" height="18" viewBox="0 0 18 18" fill="none" xmlns="http://www.w3.org/2000/svg">
    <g opacity="0.3">
        <path d="M7.84038 3.68081C8.1353 2.46512 9.86469 2.46512 10.1596 3.68081C10.2039 3.86344 10.2906 4.03304 10.4128 4.17581C10.535 4.31858 10.6891 4.43048 10.8628 4.50241C11.0364 4.57433 11.2245 4.60425 11.4118 4.58972C11.5992 4.5752 11.7805 4.51664 11.9409 4.41881C13.0091 3.76804 14.2325 4.99066 13.5817 6.05958C13.484 6.21996 13.4255 6.40112 13.411 6.58835C13.3966 6.77557 13.4264 6.96358 13.4983 7.13707C13.5701 7.31057 13.6819 7.46467 13.8245 7.58685C13.9671 7.70902 14.1365 7.79582 14.319 7.8402C15.5347 8.13512 15.5347 9.8645 14.319 10.1594C14.1364 10.2037 13.9668 10.2904 13.824 10.4126C13.6812 10.5348 13.5693 10.689 13.4974 10.8626C13.4255 11.0362 13.3956 11.2243 13.4101 11.4117C13.4246 11.599 13.4832 11.7803 13.581 11.9407C14.2318 13.009 13.0091 14.2323 11.9402 13.5815C11.7798 13.4838 11.5987 13.4254 11.4115 13.4109C11.2242 13.3964 11.0362 13.4263 10.8627 13.4981C10.6892 13.5699 10.5351 13.6817 10.413 13.8243C10.2908 13.9669 10.204 14.1363 10.1596 14.3188C9.86469 15.5345 8.1353 15.5345 7.84038 14.3188C7.79613 14.1362 7.70938 13.9666 7.5872 13.8238C7.46501 13.681 7.31084 13.5691 7.13724 13.4972C6.96363 13.4253 6.7755 13.3954 6.58814 13.4099C6.40079 13.4244 6.21952 13.483 6.05907 13.5808C4.99084 14.2316 3.76753 13.009 4.4183 11.94C4.51599 11.7797 4.57445 11.5985 4.58895 11.4113C4.60344 11.2241 4.57355 11.036 4.50171 10.8625C4.42986 10.689 4.3181 10.535 4.17549 10.4128C4.03289 10.2906 3.86346 10.2038 3.681 10.1594C2.4653 9.8645 2.4653 8.13512 3.681 7.8402C3.86363 7.79595 4.03323 7.7092 4.17599 7.58701C4.31876 7.46483 4.43066 7.31066 4.50259 7.13705C4.57451 6.96345 4.60443 6.77531 4.5899 6.58796C4.57538 6.40061 4.51682 6.21933 4.419 6.05889C3.76823 4.99066 4.99084 3.76735 6.05976 4.41812C6.75207 4.83904 7.6493 4.46658 7.84038 3.68081Z" stroke="white" stroke-linecap="round" stroke-linejoin="round"/>
        <path d="M6.92307 8.99977C6.92307 9.55061 7.14188 10.0789 7.53138 10.4684C7.92088 10.8579 8.44915 11.0767 8.99999 11.0767C9.55082 11.0767 10.0791 10.8579 10.4686 10.4684C10.8581 10.0789 11.0769 9.55061 11.0769 8.99977C11.0769 8.44894 10.8581 7.92067 10.4686 7.53117C10.0791 7.14167 9.55082 6.92285 8.99999 6.92285C8.44915 6.92285 7.92088 7.14167 7.53138 7.53117C7.14188 7.92067 6.92307 8.44894 6.92307 8.99977Z" stroke="white" stroke-linecap="round" stroke-linejoin="round"/>
    </g>
</svg>
