<svg width="32" height="28" viewBox="0 0 32 28" xmlns="http://www.w3.org/2000/svg">
    <path fill-rule="evenodd" clip-rule="evenodd" d="M6.84173 1.96429C7.47537 0.89706 8.63727 0.25 9.88451 0.25L22.1156 0.250001C23.3629 0.250001 24.5243 0.897166 25.1583 1.96405L31.2741 12.2705C31.9083 13.3404 31.9085 14.6604 31.2742 15.7302L25.1586 26.0356C24.5245 27.1025 23.3629 27.75 22.1156 27.75L9.88445 27.75C8.63729 27.75 7.4754 27.103 6.84169 26.0358L0.725733 15.7305C0.0915402 14.6607 0.0913765 13.3407 0.725517 12.2708L6.84173 1.96429ZM8.13153 2.73008L2.01589 13.0356C1.66123 13.634 1.66126 14.3671 2.01586 14.9653L8.13144 25.2699C8.48829 25.8708 9.15359 26.25 9.88445 26.25L22.1156 26.25C22.8462 26.25 23.5113 25.8711 23.8686 25.2701M23.8686 25.2701L29.9839 14.9652C30.3384 14.3671 30.3385 13.6339 29.9839 13.0357L23.8688 2.73033C23.5115 2.12907 22.8463 1.75 22.1156 1.75L9.88451 1.75C9.15355 1.75 8.48829 2.12918 8.13153 2.73008"/>
    <g clip-path="url(#clip0_5141_60)">
        <path fill-rule="evenodd" clip-rule="evenodd" d="M21.4053 8.59478C21.6982 8.88768 21.6982 9.36255 21.4053 9.65544L17.0607 14.0001L21.4053 18.3448C21.6982 18.6377 21.6982 19.1126 21.4053 19.4054C21.1124 19.6983 20.6376 19.6983 20.3447 19.4054L16 15.0608L11.6553 19.4054C11.3624 19.6983 10.8876 19.6983 10.5947 19.4054C10.3018 19.1126 10.3018 18.6377 10.5947 18.3448L14.9393 14.0001L10.5947 9.65544C10.3018 9.36255 10.3018 8.88768 10.5947 8.59478C10.8876 8.30189 11.3624 8.30189 11.6553 8.59478L16 12.9395L20.3447 8.59478C20.6376 8.30189 21.1124 8.30189 21.4053 8.59478Z" fill="white"/>
    </g>
    <defs>
        <clipPath id="clip0_5141_60">
            <rect width="18" height="18" fill="white" transform="translate(7 5)"/>
        </clipPath>
    </defs>
</svg>
