<svg width="36" height="36" viewBox="0 0 36 36" fill="none" xmlns="http://www.w3.org/2000/svg">
    <g clip-path="url(#clip0_10127_8204)">
        <path fill-rule="evenodd" clip-rule="evenodd" d="M27.4975 8.49747C27.9494 8.94939 27.9494 9.68211 27.4975 10.134L19.6366 17.9949L27.4975 25.8558C27.9494 26.3078 27.9494 27.0405 27.4975 27.4924C27.0455 27.9443 26.3128 27.9443 25.8609 27.4924L18 19.6315L10.1391 27.4924C9.68716 27.9443 8.95445 27.9443 8.50253 27.4924C8.0506 27.0405 8.0506 26.3078 8.50253 25.8558L16.3634 17.9949L8.50253 10.134C8.05061 9.68211 8.05061 8.94939 8.50253 8.49747C8.95446 8.04554 9.68717 8.04554 10.1391 8.49747L18 16.3584L25.8609 8.49747C26.3128 8.04554 27.0455 8.04554 27.4975 8.49747Z" fill="white" fill-opacity="0.85"/>
        <path d="M27.6742 10.3108C28.2238 9.76125 28.2238 8.87025 27.6742 8.32069C27.1247 7.77114 26.2337 7.77114 25.6841 8.32069L18 16.0048L10.3159 8.32069C9.76632 7.77114 8.87531 7.77114 8.32576 8.32069C7.7762 8.87025 7.7762 9.76125 8.32576 10.3108L16.0099 17.9949L8.32575 25.6791C7.77619 26.2286 7.77619 27.1196 8.32575 27.6692C8.8753 28.2187 9.76631 28.2187 10.3159 27.6692L18 19.9851L25.6841 27.6692C26.2337 28.2187 27.1247 28.2187 27.6743 27.6692C28.2238 27.1196 28.2238 26.2286 27.6743 25.6791L19.9901 17.9949L27.6742 10.3108Z" stroke="white" stroke-opacity="0.85" stroke-width="0.5" stroke-linecap="round"/>
    </g>
    <defs>
        <clipPath id="clip0_10127_8204">
            <rect width="36" height="36" fill="white"/>
        </clipPath>
    </defs>
</svg>
