<svg width="24" height="24" viewBox="0 0 24 24" xmlns="http://www.w3.org/2000/svg">
    <path fill-rule="evenodd" clip-rule="evenodd" d="M5.01303 4.95198C5.29076 4.81047 5.64414 4.7209 6.22308 4.6736C6.81078 4.62558 7.56253 4.625 8.625 4.625H15.375C16.4375 4.625 17.1892 4.62558 17.7769 4.6736C18.3559 4.7209 18.7092 4.81047 18.987 4.95198C19.5515 5.2396 20.0104 5.69854 20.298 6.26303C20.4395 6.54076 20.5291 6.89414 20.5764 7.47308C20.6244 8.06078 20.625 8.81253 20.625 9.875V11.625C20.625 12.6875 20.6244 13.4392 20.5764 14.0269C20.5291 14.6059 20.4395 14.9592 20.298 15.237C20.0104 15.8015 19.5515 16.2604 18.987 16.548C18.7092 16.6895 18.3559 16.7791 17.7769 16.8264C17.1892 16.8744 16.4375 16.875 15.375 16.875H11.809C11.3592 16.875 10.9226 17.0266 10.5697 17.3052L7.77991 19.5077C7.61597 19.6371 7.375 19.5203 7.375 19.3115V17.625C7.375 17.2035 7.04142 16.8695 6.63481 16.8516C5.80413 16.8149 5.35498 16.7222 5.01303 16.548C4.44854 16.2604 3.9896 15.8015 3.70198 15.237C3.56047 14.9592 3.4709 14.6059 3.4236 14.0269C3.37558 13.4392 3.375 12.6875 3.375 11.625V9.875C3.375 8.81253 3.37558 8.06078 3.4236 7.47308C3.4709 6.89414 3.56047 6.54076 3.70198 6.26303C3.9896 5.69854 4.44854 5.2396 5.01303 4.95198ZM15.4078 3.125H8.59218C7.5699 3.12499 6.75688 3.12499 6.10093 3.17858C5.42923 3.23346 4.85648 3.34826 4.33204 3.61547C3.48531 4.0469 2.7969 4.73531 2.36547 5.58204C2.09826 6.10648 1.98346 6.67923 1.92858 7.35093C1.87499 8.00687 1.87499 8.8199 1.875 9.84218V9.84218V11.6578C1.87499 12.6801 1.87499 13.4931 1.92858 14.1491C1.98346 14.8208 2.09826 15.3935 2.36547 15.918C2.7969 16.7647 3.48531 17.4531 4.33204 17.8845C4.79407 18.1199 5.29687 18.2382 5.875 18.3003V19.3115C5.875 20.7736 7.56177 21.591 8.70938 20.685L11.4991 18.4826C11.5874 18.4129 11.6965 18.375 11.809 18.375H15.4078H15.4079H15.4079H15.4079C16.4302 18.375 17.2431 18.375 17.8991 18.3214C18.5708 18.2665 19.1435 18.1517 19.668 17.8845C20.5147 17.4531 21.2031 16.7647 21.6345 15.918C21.9017 15.3935 22.0165 14.8208 22.0714 14.1491C22.125 13.4931 22.125 12.6801 22.125 11.6579V11.6578V9.84216V9.8421C22.125 8.81985 22.125 8.00686 22.0714 7.35093C22.0165 6.67923 21.9017 6.10648 21.6345 5.58204C21.2031 4.73531 20.5147 4.0469 19.668 3.61547C19.1435 3.34826 18.5708 3.23346 17.8991 3.17858C17.2431 3.12499 16.4301 3.12499 15.4078 3.125ZM7.625 8.125C7.21079 8.125 6.875 8.46079 6.875 8.875C6.875 9.28921 7.21079 9.625 7.625 9.625H16.375C16.7892 9.625 17.125 9.28921 17.125 8.875C17.125 8.46079 16.7892 8.125 16.375 8.125H7.625ZM6.875 12.625C6.875 12.2108 7.21079 11.875 7.625 11.875H11.875C12.2892 11.875 12.625 12.2108 12.625 12.625C12.625 13.0392 12.2892 13.375 11.875 13.375H7.625C7.21079 13.375 6.875 13.0392 6.875 12.625ZM14.3008 11.875C13.8866 11.875 13.5508 12.2108 13.5508 12.625C13.5508 13.0392 13.8866 13.375 14.3008 13.375H14.3009C14.7151 13.375 15.0509 13.0392 15.0509 12.625C15.0509 12.2108 14.7151 11.875 14.3009 11.875H14.3008Z"/>
</svg>
