<svg width="36" height="36" viewBox="0 0 36 36" fill="none" xmlns="http://www.w3.org/2000/svg">
    <path d="M12.375 18V8.25H12.3873C12.5803 5.31824 15.0194 3 18 3C20.9806 3 23.4197 5.31824 23.6127 8.25H23.625V18C23.625 21.1066 21.1066 23.625 18 23.625C14.8934 23.625 12.375 21.1066 12.375 18Z" fill="white" fill-opacity="0.85"/>
    <path d="M9.375 12.6376C9.99632 12.6376 10.5 13.1413 10.5 13.7626V18C10.5 18.9849 10.694 19.9602 11.0709 20.8701C11.4478 21.7801 12.0003 22.6069 12.6967 23.3033C13.3931 23.9997 14.2199 24.5522 15.1299 24.9291C16.0398 25.306 17.0151 25.5 18 25.5C18.9849 25.5 19.9602 25.306 20.8701 24.9291C21.7801 24.5522 22.6069 23.9997 23.3033 23.3033C23.9997 22.6069 24.5522 21.7801 24.9291 20.8701C25.306 19.9602 25.5 18.9849 25.5 18V13.7626C25.5 13.1413 26.0037 12.6376 26.625 12.6376C27.2463 12.6376 27.75 13.1413 27.75 13.7626V18C27.75 19.2804 27.4978 20.5482 27.0078 21.7312C26.5178 22.9141 25.7997 23.9889 24.8943 24.8943C23.9889 25.7997 22.9141 26.5178 21.7312 27.0078C20.8963 27.3537 20.0191 27.581 19.125 27.6849V30.75H22.5C23.1213 30.75 23.625 31.2537 23.625 31.875C23.625 32.4963 23.1213 33 22.5 33H13.5C12.8787 33 12.375 32.4963 12.375 31.875C12.375 31.2537 12.8787 30.75 13.5 30.75H16.875V27.6849C15.9809 27.581 15.1037 27.3537 14.2688 27.0078C13.0859 26.5178 12.0111 25.7997 11.1057 24.8943C10.2003 23.9889 9.48216 22.9141 8.99217 21.7312C8.50219 20.5482 8.25 19.2804 8.25 18V13.7626C8.25 13.1413 8.75368 12.6376 9.375 12.6376Z" fill="white" fill-opacity="0.85"/>
</svg>
