<svg width="24" height="24" viewBox="0 0 24 24" xmlns="http://www.w3.org/2000/svg">
    <g>
        <path fill-rule="evenodd" clip-rule="evenodd" d="M8.09961 5.5001C8.09961 3.34619 9.8457 1.6001 11.9996 1.6001C14.1535 1.6001 15.8996 3.34619 15.8996 5.5001V11.5001C15.8996 13.654 14.1535 15.4001 11.9996 15.4001C9.8457 15.4001 8.09961 13.654 8.09961 11.5001V5.5001ZM11.9996 2.4001C10.2875 2.4001 8.89961 3.78802 8.89961 5.5001V11.5001C8.89961 13.2122 10.2875 14.6001 11.9996 14.6001C13.7117 14.6001 15.0996 13.2122 15.0996 11.5001V5.5001C15.0996 3.78802 13.7117 2.4001 11.9996 2.4001Z"/>
        <path fill-rule="evenodd" clip-rule="evenodd" d="M5.4 9.6001C5.62091 9.6001 5.8 9.77918 5.8 10.0001V11.5001C5.8 13.1444 6.45321 14.7214 7.61594 15.8842C8.77866 17.0469 10.3557 17.7001 12 17.7001C13.6443 17.7001 15.2213 17.0469 16.3841 15.8842C17.5468 14.7214 18.2 13.1444 18.2 11.5001V10.0001C18.2 9.77918 18.3791 9.6001 18.6 9.6001C18.8209 9.6001 19 9.77918 19 10.0001V11.5001C19 13.3566 18.2625 15.1371 16.9497 16.4498C15.637 17.7626 13.8565 18.5001 12 18.5001C10.1435 18.5001 8.36301 17.7626 7.05025 16.4498C5.7375 15.1371 5 13.3566 5 11.5001V10.0001C5 9.77918 5.17909 9.6001 5.4 9.6001Z"/>
        <path fill-rule="evenodd" clip-rule="evenodd" d="M11.9996 18.6001C12.2205 18.6001 12.3996 18.7792 12.3996 19.0001V21.0001C12.3996 21.221 12.2205 21.4001 11.9996 21.4001C11.7787 21.4001 11.5996 21.221 11.5996 21.0001V19.0001C11.5996 18.7792 11.7787 18.6001 11.9996 18.6001Z"/>
    </g>
</svg>
