<svg width="36" height="36" viewBox="0 0 36 36" fill="none" xmlns="http://www.w3.org/2000/svg">
<circle cx="18" cy="18" r="18" fill="url(#paint0_linear_3198_11421)"/>
<path d="M14.623 17.189V11.3535C14.623 9.21045 15.9961 7.7168 18 7.7168C19.9946 7.7168 21.3677 9.21045 21.3677 11.3535V17.189C21.3677 19.3228 19.9946 20.8257 18 20.8257C15.9961 20.8257 14.623 19.3228 14.623 17.189ZM16.0239 17.189C16.0239 18.562 16.8125 19.4434 18 19.4434C19.1875 19.4434 19.9668 18.562 19.9668 17.189V11.3535C19.9668 9.98047 19.1875 9.09912 18 9.09912C16.8125 9.09912 16.0239 9.98047 16.0239 11.3535V17.189ZM11.3574 17.5229V15.6396C11.3574 15.25 11.6636 14.9438 12.0532 14.9438C12.4521 14.9438 12.7583 15.25 12.7583 15.6396V17.4673C12.7583 20.6309 14.8179 22.7275 18 22.7275C21.1729 22.7275 23.2324 20.6309 23.2324 17.4673V15.6396C23.2324 15.25 23.5479 14.9438 23.9375 14.9438C24.3271 14.9438 24.6333 15.25 24.6333 15.6396V17.5229C24.6333 21.1597 22.2397 23.7109 18.6958 24.0078V26.1694H22.1377C22.5273 26.1694 22.8428 26.4849 22.8428 26.8745C22.8428 27.2642 22.5273 27.5703 22.1377 27.5703H13.853C13.4634 27.5703 13.1479 27.2642 13.1479 26.8745C13.1479 26.4849 13.4634 26.1694 13.853 26.1694H17.2949V24.0078C13.7603 23.7109 11.3574 21.1597 11.3574 17.5229Z" fill="white"/>
<defs>
<linearGradient id="paint0_linear_3198_11421" x1="0.405211" y1="0.810423" x2="0.405211" y2="36" gradientUnits="userSpaceOnUse">
<stop stop-color="#6584ED"/>
<stop offset="1" stop-color="#3A43B8"/>
</linearGradient>
</defs>
</svg>
