<svg width="36" height="36" viewBox="0 0 36 36" fill="none" xmlns="http://www.w3.org/2000/svg">
    <path fill-rule="evenodd" clip-rule="evenodd" d="M25.4197 24.3268C26.0805 23.5516 26.6168 22.6765 27.0078 21.7325C27.4978 20.5496 27.75 19.2817 27.75 18.0013V13.7639C27.75 13.1426 27.2463 12.6389 26.625 12.6389C26.0037 12.6389 25.5 13.1426 25.5 13.7639V18.0013C25.5 18.9862 25.306 19.9615 24.9291 20.8715C24.7263 21.361 24.4728 21.8264 24.1733 22.2605L25.4197 24.3268ZM23.0722 20.435C23.4264 19.6984 23.6249 18.8729 23.625 18.0009V18.0003V8.64732L23.6251 8.62561L23.625 8.6039V8.25095H23.6128C23.42 5.31903 20.9808 3.00061 18.0001 3.00061C16.2953 3.00061 14.7677 3.75896 13.7362 4.95671L23.0722 20.435ZM18 25.5013C18.6304 25.5013 19.2568 25.4219 19.8646 25.2659L21.0655 27.2569C20.4347 27.4658 19.7844 27.6096 19.125 27.6862V30.7509H22.5C23.1213 30.7509 23.625 31.2546 23.625 31.8759C23.625 32.4973 23.1213 33.0009 22.5 33.0009H13.5C12.8787 33.0009 12.375 32.4973 12.375 31.8759C12.375 31.2546 12.8787 30.7509 13.5 30.7509H16.875V27.6862C15.9809 27.5823 15.1037 27.355 14.2688 27.0092C13.0859 26.5192 12.0111 25.801 11.1057 24.8956C10.2003 23.9903 9.48216 22.9154 8.99217 21.7325C8.50219 20.5496 8.25 19.2817 8.25 18.0013V13.7639C8.25 13.1426 8.75368 12.6389 9.375 12.6389C9.99632 12.6389 10.5 13.1426 10.5 13.7639V18.0013C10.5 18.9862 10.694 19.9615 11.0709 20.8715C11.4478 21.7814 12.0003 22.6082 12.6967 23.3046C13.3931 24.0011 14.2199 24.5535 15.1299 24.9304C16.0398 25.3073 17.0151 25.5013 18 25.5013ZM18 23.6253C18.2847 23.6253 18.5644 23.6041 18.8377 23.5633L12.375 12.8489V18.0003V18.0009C12.3754 21.1072 14.8936 23.6253 18 23.6253ZM25.8465 32.2933C26.1674 32.8253 26.8588 32.9965 27.3909 32.6755C27.9229 32.3546 28.0941 31.6632 27.7731 31.1312L11.2731 3.77588C10.9522 3.24385 10.2608 3.0727 9.72876 3.39361C9.19673 3.71451 9.02558 4.40596 9.34649 4.93799L25.8465 32.2933Z" fill="white" fill-opacity="0.85"/>
</svg>
