<svg width="24" height="24" viewBox="0 0 24 24" xmlns="http://www.w3.org/2000/svg">
    <g>
        <path fill-rule="evenodd" clip-rule="evenodd" d="M11.9992 1.6001C9.84531 1.6001 8.09922 3.34619 8.09922 5.5001V11.5001C8.09922 12.5604 8.52236 13.5219 9.209 14.2249L7.58278 15.8511C6.44056 14.6917 5.79961 13.1289 5.79961 11.5001V10.0001C5.79961 9.77918 5.62052 9.6001 5.39961 9.6001C5.1787 9.6001 4.99961 9.77918 4.99961 10.0001V11.5001C4.99961 13.3411 5.72484 15.1073 7.01708 16.4168L3.46677 19.9672C3.31056 20.1234 3.31056 20.3766 3.46677 20.5328C3.55555 20.6216 3.67568 20.6599 3.79153 20.6478L19.9697 4.46967C20.0604 4.37891 20.1687 4.31628 20.2835 4.28177L20.5325 4.03284C20.6887 3.87663 20.6887 3.62337 20.5325 3.46716C20.3762 3.31095 20.123 3.31095 19.9668 3.46716L15.8992 7.5347V5.5001C15.8992 3.34619 14.1531 1.6001 11.9992 1.6001ZM15.0992 8.33471V5.5001C15.0992 3.78802 13.7113 2.4001 11.9992 2.4001C10.2871 2.4001 8.89922 3.78802 8.89922 5.5001V11.5001C8.89922 12.3395 9.23285 13.101 9.77473 13.6592L15.0992 8.33471Z"/>
        <path d="M15.8992 10.6614L15.0992 11.4614V11.5001C15.0992 13.2122 13.7113 14.6001 11.9992 14.6001C11.9864 14.6001 11.9736 14.6 11.9608 14.5999L11.2353 15.3253C11.4824 15.3744 11.7378 15.4001 11.9992 15.4001C14.1531 15.4001 15.8992 13.654 15.8992 11.5001V10.6614Z"/>
        <path d="M9.42184 17.1388L8.82289 17.7378C9.79789 18.2343 10.885 18.5001 11.9996 18.5001C13.8561 18.5001 15.6366 17.7626 16.9494 16.4498C18.2621 15.1371 18.9996 13.3566 18.9996 11.5001V10.0001C18.9996 9.77918 18.8205 9.6001 18.5996 9.6001C18.3787 9.6001 18.1996 9.77918 18.1996 10.0001V11.5001C18.1996 13.1444 17.5464 14.7214 16.3837 15.8842C15.2209 17.0469 13.644 17.7001 11.9996 17.7001C11.1014 17.7001 10.2233 17.5052 9.42184 17.1388Z"/>
        <path d="M11.9992 18.6001C12.2201 18.6001 12.3992 18.7792 12.3992 19.0001V21.0001C12.3992 21.221 12.2201 21.4001 11.9992 21.4001C11.7783 21.4001 11.5992 21.221 11.5992 21.0001V19.0001C11.5992 18.7792 11.7783 18.6001 11.9992 18.6001Z"/>
    </g>
</svg>
