<svg width="18" height="18" viewBox="0 0 18 18" xmlns="http://www.w3.org/2000/svg">
    <path d="M11.5781 9.00001V4.53126H11.5725C11.484 3.18753 10.3661 2.125 8.99998 2.125C7.63388 2.125 6.51594 3.18753 6.4275 4.53126H6.42186V9C6.42186 10.4239 7.57613 11.5781 8.99998 11.5781C10.4238 11.5781 11.5781 10.4239 11.5781 9.00001Z"/>
    <path d="M5.04688 6.54225C5.33165 6.54225 5.5625 6.7731 5.5625 7.05787V9.00001C5.5625 9.45143 5.65141 9.89842 5.82416 10.3155C5.99691 10.7325 6.25012 11.1115 6.56932 11.4307C6.88852 11.7499 7.26747 12.0031 7.68453 12.1758C8.10158 12.3486 8.54858 12.4375 9 12.4375C9.45142 12.4375 9.89842 12.3486 10.3155 12.1758C10.7325 12.0031 11.1115 11.7499 11.4307 11.4307C11.7499 11.1115 12.0031 10.7325 12.1758 10.3155C12.3486 9.89842 12.4375 9.45143 12.4375 9.00001V7.05787C12.4375 6.7731 12.6684 6.54225 12.9531 6.54225C13.2379 6.54225 13.4688 6.7731 13.4688 7.05787V9.00001C13.4688 9.58685 13.3532 10.1679 13.1286 10.7101C12.904 11.2523 12.5748 11.7449 12.1599 12.1599C11.7449 12.5749 11.2523 12.904 10.7101 13.1286C10.3274 13.2871 9.92539 13.3913 9.51561 13.4389V14.8438H11.0625C11.3473 14.8438 11.5781 15.0746 11.5781 15.3594C11.5781 15.6442 11.3473 15.875 11.0625 15.875H6.93748C6.65271 15.875 6.42186 15.6442 6.42186 15.3594C6.42186 15.0746 6.65271 14.8438 6.93748 14.8438H8.48436V13.4389C8.07459 13.3913 7.67254 13.2871 7.28988 13.1286C6.74771 12.904 6.25508 12.5749 5.84012 12.1599C5.42515 11.7449 5.09599 11.2523 4.87141 10.7101C4.64684 10.1679 4.53125 9.58685 4.53125 9.00001V7.05787C4.53125 6.7731 4.7621 6.54225 5.04688 6.54225Z"/>
</svg>
