<svg width="24" height="24" viewBox="0 0 24 24" xmlns="http://www.w3.org/2000/svg">
    <path fill-rule="evenodd" clip-rule="evenodd" d="M13.0979 3.79519C12.8186 2.64379 11.1804 2.64379 10.9011 3.79519C10.4801 5.52668 8.50119 6.34787 6.97679 5.42103C5.96379 4.80431 4.80505 5.96359 5.42148 6.97544C5.63701 7.32903 5.76603 7.7285 5.79804 8.14135C5.83006 8.5543 5.76412 8.96898 5.60558 9.35163C5.44705 9.73428 5.2004 10.0741 4.88572 10.3434C4.57104 10.6127 4.19722 10.8039 3.79468 10.9015C2.64349 11.1809 2.64356 12.8189 3.79488 13.0982C4.19706 13.196 4.5709 13.3875 4.88523 13.6568C5.19955 13.926 5.4459 14.2657 5.60425 14.6481C5.7626 15.0305 5.82848 15.4449 5.79654 15.8576C5.76459 16.2703 5.63573 16.6696 5.42042 17.0231C4.80393 18.0359 5.96314 19.1941 6.9749 18.578C7.32854 18.3624 7.7281 18.2333 8.14105 18.2013C8.554 18.1693 8.96868 18.2352 9.35133 18.3938C9.73398 18.5523 10.0738 18.7989 10.3431 19.1136C10.6124 19.4283 10.8036 19.8021 10.9012 20.2047C11.1806 21.3559 12.8186 21.3558 13.0979 20.2045C13.1957 19.8023 13.3872 19.4284 13.6564 19.1141C13.9257 18.7998 14.2654 18.5534 14.6478 18.3951C15.0302 18.2367 15.4446 18.1709 15.8573 18.2028C16.2699 18.2347 16.6692 18.3636 17.0226 18.5788C18.0355 19.1955 19.1938 18.0362 18.5777 17.0244C18.3621 16.6708 18.233 16.2712 18.201 15.8583C18.169 15.4453 18.2349 15.0307 18.3935 14.648C18.552 14.2654 18.7986 13.9256 19.1133 13.6562C19.4279 13.387 19.8017 13.1958 20.2042 13.0982C21.3556 12.8189 21.3556 11.1807 20.2042 10.9014C19.802 10.8036 19.4281 10.6122 19.1138 10.3429C18.7995 10.0736 18.5531 9.73395 18.3948 9.35153C18.2364 8.96912 18.1706 8.55473 18.2025 8.14206C18.2344 7.72944 18.3633 7.33018 18.5785 6.97672C19.1952 5.9638 18.0359 4.80554 17.0241 5.42164C16.6705 5.63726 16.2709 5.76633 15.858 5.79834C15.445 5.83036 15.0304 5.76442 14.6477 5.60589C14.2651 5.44735 13.9252 5.20071 13.6559 4.88603C13.3867 4.5714 13.1955 4.19765 13.0979 3.79519ZM9.44348 3.44115C10.0939 0.761671 13.9056 0.761803 14.5556 3.44155C14.5976 3.61457 14.6798 3.77545 14.7956 3.91071C14.9113 4.04596 15.0574 4.15197 15.2218 4.22011C15.3863 4.28825 15.5645 4.31659 15.742 4.30283C15.9195 4.28907 16.0913 4.23359 16.2433 4.14092C18.5979 2.70644 21.294 5.40101 19.8598 7.75674C19.7672 7.90868 19.7118 8.08045 19.698 8.25782C19.6843 8.43519 19.7126 8.6133 19.7807 8.77767C19.8487 8.94204 19.9546 9.08803 20.0897 9.20377C20.2247 9.31943 20.3851 9.40162 20.5578 9.44369C23.2377 10.0938 23.2377 13.9058 20.5578 14.556C20.3848 14.5979 20.2239 14.6801 20.0886 14.7959C19.9534 14.9116 19.8474 15.0577 19.7792 15.2221C19.7111 15.3866 19.6827 15.5648 19.6965 15.7423C19.7103 15.9198 19.7657 16.0916 19.8584 16.2436C21.2929 18.5983 18.5983 21.2943 16.2426 19.8601C16.0907 19.7675 15.9189 19.7121 15.7415 19.6983C15.5641 19.6846 15.386 19.7129 15.2217 19.781C15.0573 19.849 14.9113 19.9549 14.7956 20.09C14.6799 20.225 14.5977 20.3854 14.5556 20.5581C13.9055 23.238 10.0935 23.238 9.44339 20.5581C9.40146 20.3851 9.31923 20.2242 9.20348 20.0889C9.08772 19.9537 8.94166 19.8477 8.7772 19.7795C8.61273 19.7114 8.43449 19.6831 8.257 19.6968C8.07951 19.7106 7.90777 19.7661 7.75577 19.8587C5.40108 21.2932 2.70508 18.5986 4.13926 16.2429C4.23181 16.091 4.28728 15.9192 4.30101 15.7418C4.31474 15.5645 4.28642 15.3863 4.21836 15.222C4.1503 15.0576 4.04442 14.9116 3.90931 14.7959C3.77432 14.6802 3.61396 14.598 3.44124 14.556M9.44348 3.44115C9.26215 4.18576 8.41336 4.53898 7.75606 4.13934C5.40042 2.70567 2.70606 5.40127 4.14047 7.75584C4.23314 7.90784 4.28877 8.07981 4.30253 8.25731C4.31629 8.4348 4.28795 8.61303 4.21981 8.7775C4.15167 8.94197 4.04566 9.08803 3.9104 9.20378C3.77515 9.31954 3.61447 9.40172 3.44145 9.44364C0.761707 10.0937 0.761769 13.9055 3.44124 14.556M9.15431 9.15559C9.90872 8.40118 10.9319 7.97736 11.9988 7.97736C13.0657 7.97736 14.0889 8.40118 14.8433 9.15559C15.5977 9.91 16.0215 10.9332 16.0215 12.0001C16.0215 13.067 15.5977 14.0902 14.8433 14.8446C14.0889 15.599 13.0657 16.0228 11.9988 16.0228C10.9319 16.0228 9.90872 15.599 9.15431 14.8446C8.3999 14.0902 7.97608 13.067 7.97608 12.0001C7.97608 10.9332 8.3999 9.91 9.15431 9.15559ZM11.9988 9.47736C11.3297 9.47736 10.6881 9.74315 10.215 10.2163C9.74187 10.6894 9.47608 11.331 9.47608 12.0001C9.47608 12.6692 9.74187 13.3108 10.215 13.7839C10.6881 14.257 11.3297 14.5228 11.9988 14.5228C12.6679 14.5228 13.3095 14.257 13.7826 13.7839C14.2557 13.3108 14.5215 12.6692 14.5215 12.0001C14.5215 11.331 14.2557 10.6894 13.7826 10.2163C13.3095 9.74315 12.6679 9.47736 11.9988 9.47736Z"/>
</svg>
