<svg width="24" height="22" viewBox="0 0 24 22" xmlns="http://www.w3.org/2000/svg">
    <path fill-rule="evenodd" clip-rule="evenodd" d="M4.35892 1.5H19.6411C21.22 1.5 22.5 2.77998 22.5 4.35892V17.6411C22.5 19.22 21.22 20.5 19.6411 20.5H4.35892C2.77998 20.5 1.5 19.22 1.5 17.6411V4.35892C1.5 2.77998 2.77998 1.5 4.35892 1.5ZM0 4.35892C0 1.95155 1.95155 0 4.35892 0H19.6411C22.0484 0 24 1.95155 24 4.35892V17.6411C24 20.0484 22.0484 22 19.6411 22H4.35892C1.95155 22 0 20.0484 0 17.6411V4.35892ZM17.5888 5.9502C17.5888 5.81212 17.4768 5.7002 17.3388 5.7002H16.5163C16.3863 5.7002 16.2838 5.7127 16.2088 5.7377C16.1388 5.7627 16.0737 5.8327 16.0138 5.94769L12.3687 12.5552C12.3038 12.6752 12.2438 12.8027 12.1888 12.9377C12.1684 12.9859 12.1483 13.0345 12.1286 13.0834C12.0939 13.1694 11.9678 13.1697 11.9314 13.0844C11.9104 13.0351 11.8887 12.9862 11.8663 12.9377C11.8113 12.8077 11.7538 12.6827 11.6938 12.5627L7.98125 5.94769C7.91625 5.8327 7.84875 5.7627 7.77875 5.7377C7.70875 5.7127 7.60875 5.7002 7.47875 5.7002H6.65625C6.51818 5.7002 6.40625 5.81212 6.40625 5.9502V16.1977C6.40625 16.3358 6.51818 16.4477 6.65625 16.4477H7.43125C7.56932 16.4477 7.68125 16.3358 7.68125 16.1977V8.5502C7.68125 8.4731 7.67949 8.39365 7.67597 8.31186C7.67127 8.20272 7.8258 8.15502 7.87901 8.25042L11.4013 14.5652C11.5163 14.7902 11.6912 14.9027 11.9263 14.9027H12.1362C12.3713 14.9027 12.5463 14.7902 12.6613 14.5652L16.1738 8.1684C16.2148 8.09373 16.3283 8.1278 16.3213 8.2127C16.3162 8.3327 16.3138 8.4452 16.3138 8.5502V16.1977C16.3138 16.3358 16.4257 16.4477 16.5638 16.4477H17.3388C17.4768 16.4477 17.5888 16.3358 17.5888 16.1977V5.9502Z"/>
</svg>
