<svg width="22" height="22" viewBox="0 0 22 22" xmlns="http://www.w3.org/2000/svg">
    <path
        d="M5.16504 18.7578C3.32812 18.7578 2.40527 17.8525 2.40527 16.0332V5.30176C2.40527 3.48242 3.32812 2.57715 5.16504 2.57715H15.8262C17.6719 2.57715 18.5859 3.49121 18.5859 5.30176V16.0332C18.5859 17.8438 17.6719 18.7578 15.8262 18.7578H5.16504ZM5.18262 17.3428H15.8086C16.6787 17.3428 17.1709 16.877 17.1709 15.9629V5.37207C17.1709 4.45801 16.6787 3.99219 15.8086 3.99219H5.18262C4.30371 3.99219 3.82031 4.45801 3.82031 5.37207V15.9629C3.82031 16.877 4.30371 17.3428 5.18262 17.3428ZM14.2969 10.6455C13.9541 10.6455 13.6816 10.373 13.6816 10.0303V9.59961L13.7695 8.21094L11.8711 10.2061C11.6074 10.4873 11.1943 10.4785 10.9307 10.2148C10.6758 9.95996 10.6846 9.5293 10.9395 9.2832L12.9258 7.39355L11.5811 7.48145H11.1504C10.8076 7.48145 10.5264 7.20898 10.5264 6.86621C10.5264 6.52344 10.8076 6.24219 11.1504 6.24219H14.1914C14.6484 6.24219 14.9209 6.44434 14.9209 6.97168V10.0303C14.9209 10.373 14.6396 10.6455 14.2969 10.6455ZM9.8584 15.084H6.80859C6.35156 15.084 6.08789 14.8818 6.08789 14.3545V11.2959C6.08789 10.9531 6.36035 10.6807 6.70312 10.6807C7.0459 10.6807 7.32715 10.9531 7.32715 11.2959V11.7266L7.23926 13.1152L9.1377 11.1201C9.39258 10.8389 9.81445 10.8477 10.0693 11.1113C10.3242 11.3662 10.3154 11.7969 10.0605 12.043L8.08301 13.9326L9.42773 13.8447H9.8584C10.2012 13.8447 10.4736 14.1172 10.4736 14.46C10.4736 14.8027 10.2012 15.084 9.8584 15.084Z"/>
</svg>
