<svg width="18" height="18" viewBox="0 0 18 18" xmlns="http://www.w3.org/2000/svg">
    <g>
        <path fill-rule="evenodd" clip-rule="evenodd" d="M9 15.375C9.10419 15.375 9.20779 15.3725 9.31075 15.3676C9.59643 15.3538 9.85459 15.1973 10.0071 14.9554C10.6297 13.9673 11.0777 12.8735 11.351 11.7334C9.81579 11.5914 8.21892 11.589 6.694 11.7256C6.96739 12.8695 7.41648 13.9668 8.04126 14.9577C8.19516 15.2018 8.45653 15.3586 8.74486 15.37C8.82949 15.3733 8.91455 15.375 9 15.375ZM6.48552 10.6151C6.33818 9.54605 6.33816 8.454 6.4855 7.3849C8.14685 7.54098 9.88887 7.53837 11.5602 7.37678C11.7091 8.45115 11.7091 9.54884 11.5602 10.6232C9.88886 10.4616 8.14685 10.459 6.48552 10.6151ZM12.4758 11.8642C12.2308 12.9371 11.8454 13.9754 11.3199 14.9397C12.6514 14.4193 13.765 13.4641 14.4863 12.2486C13.8455 12.0903 13.1708 11.9622 12.4758 11.8642ZM14.9803 11.2134C14.2496 11.023 13.4761 10.8708 12.6775 10.7566C12.8367 9.59351 12.8367 8.40649 12.6775 7.24335C13.4761 7.12921 14.2496 6.97698 14.9803 6.78663C15.2356 7.4761 15.375 8.22177 15.375 9C15.375 9.77823 15.2356 10.5239 14.9803 11.2134ZM5.36793 10.746C4.54929 10.8615 3.76014 11.0177 3.02012 11.2144C2.76459 10.5247 2.625 9.77864 2.625 9C2.625 8.22136 2.76459 7.47533 3.02012 6.78556C3.76016 6.98235 4.54931 7.13851 5.36794 7.25402C5.2107 8.41017 5.21068 9.58979 5.36793 10.746ZM3.51372 12.2487C4.1642 12.0848 4.85419 11.9531 5.56868 11.8538C5.81553 12.9388 6.20579 13.9887 6.73949 14.9626C5.38175 14.4476 4.24568 13.4821 3.51372 12.2487ZM6.69397 6.27436C8.21888 6.41097 9.81576 6.4086 11.351 6.26663C11.0777 5.12647 10.6297 4.03271 10.0071 3.04462C9.85458 2.80265 9.59642 2.64615 9.31075 2.63244C9.20779 2.6275 9.10418 2.625 9 2.625C8.91455 2.625 8.82949 2.62668 8.74486 2.63001C8.45653 2.64136 8.19516 2.79824 8.04126 3.04233C7.41642 4.03329 6.96734 5.13057 6.69397 6.27436ZM12.4758 6.1358C13.1708 6.03781 13.8455 5.90968 14.4863 5.75135C13.765 4.53591 12.6514 3.58068 11.3199 3.06025C11.8454 4.02456 12.2308 5.06292 12.4758 6.1358ZM6.7395 3.03739C6.20584 4.01124 5.81557 5.06115 5.56871 6.14625C4.8542 6.0469 4.1642 5.91522 3.51372 5.7513C4.24568 4.51786 5.38176 3.5524 6.7395 3.03739ZM9 16.5C13.1421 16.5 16.5 13.1421 16.5 9C16.5 4.85786 13.1421 1.5 9 1.5C4.85786 1.5 1.5 4.85786 1.5 9C1.5 13.1421 4.85786 16.5 9 16.5Z"/>
    </g>
</svg>
