<svg width="36" height="36" viewBox="0 0 36 36" fill="none" xmlns="http://www.w3.org/2000/svg">
    <circle cx="18" cy="18" r="18" fill="url(#paint0_linear_319_20216)"/>
    <path fill-rule="evenodd" clip-rule="evenodd" d="M10.8001 17.325C10.3824 17.325 9.98177 17.4909 9.6864 17.7863C9.39103 18.0817 9.2251 18.4823 9.2251 18.9V24.3C9.2251 24.7177 9.39103 25.1183 9.6864 25.4137C9.98178 25.7091 10.3824 25.875 10.8001 25.875H14.4001L16.2001 25.875H19.8001L21.6001 25.875H23.4001H25.2001C25.6178 25.875 26.0184 25.7091 26.3138 25.4137C26.6092 25.1183 26.7751 24.7177 26.7751 24.3V11.7C26.7751 11.2823 26.6092 10.8817 26.3138 10.5863C26.0184 10.2909 25.6178 10.125 25.2001 10.125H21.6001C21.1824 10.125 20.7818 10.2909 20.4864 10.5863C20.191 10.8817 20.0251 11.2823 20.0251 11.7V13.7411L20.0251 15.3V24.3C20.0251 24.3597 20.0014 24.4169 19.9592 24.4591C19.917 24.5013 19.8598 24.525 19.8001 24.525H16.2001C16.1404 24.525 16.0832 24.5013 16.041 24.4591C15.9988 24.4169 15.9751 24.3597 15.9751 24.3V18.9V15.3C15.9751 15.2403 15.9988 15.1831 16.041 15.1409C16.0832 15.0987 16.1404 15.075 16.2001 15.075H19.8001C19.8598 15.075 19.917 15.0987 19.9592 15.1409C20.0014 15.1831 20.0251 15.2403 20.0251 15.3L20.0251 13.7411C19.951 13.7305 19.8758 13.725 19.8001 13.725H16.2001C15.7824 13.725 15.3818 13.8909 15.0864 14.1863C14.791 14.4817 14.6251 14.8823 14.6251 15.3V17.3411C14.551 17.3305 14.4758 17.325 14.4001 17.325H10.8001ZM10.8001 18.675C10.7404 18.675 10.6832 18.6987 10.641 18.7409C10.5988 18.7831 10.5751 18.8403 10.5751 18.9V24.3C10.5751 24.3597 10.5988 24.4169 10.641 24.4591C10.6832 24.5013 10.7404 24.525 10.8001 24.525H14.4001C14.4598 24.525 14.517 24.5013 14.5592 24.4591C14.6014 24.4169 14.6251 24.3597 14.6251 24.3V18.9C14.6251 18.8403 14.6014 18.7831 14.5592 18.7409C14.517 18.6987 14.4598 18.675 14.4001 18.675H10.8001ZM21.3751 15.3V24.3C21.3751 24.3597 21.3988 24.4169 21.441 24.4591C21.4832 24.5013 21.5404 24.525 21.6001 24.525H25.2001C25.2598 24.525 25.317 24.5013 25.3592 24.4591C25.4014 24.4169 25.4251 24.3597 25.4251 24.3V11.7C25.4251 11.6403 25.4014 11.5831 25.3592 11.5409C25.317 11.4987 25.2598 11.475 25.2001 11.475H21.6001C21.5404 11.475 21.4832 11.4987 21.441 11.5409C21.3988 11.5831 21.3751 11.6403 21.3751 11.7V15.3Z" fill="white"/>
    <defs>
        <linearGradient id="paint0_linear_319_20216" x1="0" y1="0" x2="0" y2="36" gradientUnits="userSpaceOnUse">
            <stop stop-color="#B983C8"/>
            <stop offset="1" stop-color="#834C97"/>
        </linearGradient>
    </defs>
</svg>
