<svg width="20" height="20" viewBox="0 0 20 20"  xmlns="http://www.w3.org/2000/svg">
    <path fill-rule="evenodd" clip-rule="evenodd" d="M10.0003 17.0833C13.9123 17.0833 17.0837 13.912 17.0837 10C17.0837 6.08798 13.9123 2.91667 10.0003 2.91667C6.08831 2.91667 2.91699 6.08798 2.91699 10C2.91699 13.912 6.08831 17.0833 10.0003 17.0833ZM10.0003 18.3333C14.6027 18.3333 18.3337 14.6024 18.3337 10C18.3337 5.39763 14.6027 1.66667 10.0003 1.66667C5.39795 1.66667 1.66699 5.39763 1.66699 10C1.66699 14.6024 5.39795 18.3333 10.0003 18.3333Z"/>
    <path fill-rule="evenodd" clip-rule="evenodd" d="M8.33366 7.91667C8.33366 7.36752 8.54211 6.99618 8.82917 6.75261C9.12981 6.49751 9.55295 6.35417 10.0003 6.35417C10.4477 6.35417 10.8708 6.49751 11.1715 6.75261C11.4585 6.99618 11.667 7.36752 11.667 7.91667C11.667 8.29403 11.5601 8.5186 11.4176 8.69277C11.2526 8.89447 11.0224 9.05355 10.6953 9.27164L10.6674 9.29025C10.3731 9.48627 9.99321 9.7393 9.69889 10.099C9.37265 10.4978 9.16699 11.0024 9.16699 11.6667C9.16699 12.0118 9.44681 12.2917 9.79199 12.2917C10.1372 12.2917 10.417 12.0118 10.417 11.6667C10.417 11.2893 10.5238 11.0647 10.6663 10.8906C10.8314 10.6889 11.0615 10.5298 11.3887 10.3117L11.4166 10.2931C11.7109 10.0971 12.0908 9.84404 12.3851 9.48432C12.7113 9.08557 12.917 8.58097 12.917 7.91667C12.917 7.00748 12.5525 6.28507 11.9802 5.79947C11.4215 5.3254 10.6988 5.10417 10.0003 5.10417C9.30187 5.10417 8.57917 5.3254 8.02044 5.79947C7.44813 6.28507 7.08366 7.00748 7.08366 7.91667C7.08366 8.26185 7.36348 8.54167 7.70866 8.54167C8.05384 8.54167 8.33366 8.26185 8.33366 7.91667ZM9.79199 15C10.2522 15 10.6253 14.6269 10.6253 14.1667C10.6253 13.7064 10.2522 13.3333 9.79199 13.3333C9.33176 13.3333 8.95866 13.7064 8.95866 14.1667C8.95866 14.6269 9.33176 15 9.79199 15Z"/>
</svg>
