<svg width="24" height="24" viewBox="0 0 24 24" xmlns="http://www.w3.org/2000/svg">
    <path fill-rule="evenodd" clip-rule="evenodd" d="M12.5002 2.75C12.4017 2.75 12.3042 2.7694 12.2132 2.80709C12.1222 2.84478 12.0395 2.90003 11.9699 2.96967C11.9002 3.03931 11.845 3.12199 11.8073 3.21299C11.7696 3.30398 11.7502 3.40151 11.7502 3.5V12C11.7502 12.4142 11.4144 12.75 11.0002 12.75C10.586 12.75 10.2502 12.4142 10.2502 12V5.5C10.2502 5.30109 10.1712 5.11032 10.0305 4.96967C9.88986 4.82902 9.6991 4.75 9.50018 4.75C9.30127 4.75 9.11051 4.82902 8.96985 4.96967C8.8292 5.11032 8.75018 5.30109 8.75018 5.5V13C8.75018 13.3033 8.56745 13.5768 8.2872 13.6929C8.00694 13.809 7.68435 13.7448 7.46985 13.5303L6.00016 12.0606C5.82399 11.8847 5.59407 11.7726 5.34693 11.7423C5.09978 11.7119 4.84958 11.765 4.63607 11.8931C4.46854 11.9936 4.34658 12.1555 4.29653 12.3443C4.24648 12.5331 4.27206 12.734 4.36784 12.9043C6.25506 16.2589 7.33375 18.1379 7.62863 18.5907C7.69293 18.6896 7.75796 18.7892 7.82277 18.8878C8.30096 19.6138 8.95193 20.2097 9.71727 20.622C10.4822 21.0341 11.3374 21.2499 12.2063 21.25H12.2081H14.0002C15.3926 21.25 16.7279 20.6969 17.7125 19.7123C18.6971 18.7277 19.2502 17.3924 19.2502 16V7.5C19.2502 7.30109 19.1712 7.11032 19.0305 6.96967C18.8899 6.82902 18.6991 6.75 18.5002 6.75C18.3013 6.75 18.1105 6.82902 17.9699 6.96967C17.8295 7.11004 17.7505 7.30032 17.7502 7.4988L17.7502 7.5L17.7502 12C17.7502 12.4142 17.4144 12.75 17.0002 12.75C16.586 12.75 16.2502 12.4142 16.2502 12V7.50121L16.2502 7.5L16.2502 7.49793V5.5C16.2502 5.30109 16.1712 5.11032 16.0305 4.96967C15.8899 4.82902 15.6991 4.75 15.5002 4.75C15.3013 4.75 15.1105 4.82902 14.9699 4.96967C14.8292 5.11032 14.7502 5.30109 14.7502 5.5V12C14.7502 12.4142 14.4144 12.75 14.0002 12.75C13.586 12.75 13.2502 12.4142 13.2502 12V3.5C13.2502 3.40151 13.2308 3.30398 13.1931 3.21299C13.1554 3.12199 13.1002 3.03931 13.0305 2.96967C12.9609 2.90003 12.8782 2.84478 12.7872 2.80709C12.6962 2.7694 12.5987 2.75 12.5002 2.75ZM14.747 3.37982C14.7334 3.12542 14.6766 2.87487 14.5789 2.63896C14.4658 2.36598 14.3001 2.11794 14.0912 1.90901C13.8822 1.70008 13.6342 1.53434 13.3612 1.42127C13.0882 1.3082 12.7957 1.25 12.5002 1.25C12.2047 1.25 11.9121 1.3082 11.6391 1.42127C11.3662 1.53434 11.1181 1.70008 10.9092 1.90901C10.7003 2.11794 10.5345 2.36598 10.4215 2.63896C10.3237 2.87487 10.267 3.12542 10.2534 3.37982C10.0138 3.2947 9.7593 3.25 9.50018 3.25C8.90345 3.25 8.33115 3.48705 7.90919 3.90901C7.48724 4.33097 7.25018 4.90326 7.25018 5.5V11.1893L7.06052 10.9997C6.64777 10.5874 6.10879 10.3245 5.52976 10.2534C4.95082 10.1823 4.36472 10.3067 3.86453 10.6067M14.747 3.37982C14.9866 3.2947 15.2411 3.25 15.5002 3.25C16.0969 3.25 16.6692 3.48705 17.0912 3.90901C17.4847 4.30255 17.7174 4.82687 17.747 5.37982C17.9866 5.2947 18.2411 5.25 18.5002 5.25C19.0969 5.25 19.6692 5.48705 20.0912 5.90901C20.5131 6.33097 20.7502 6.90326 20.7502 7.5V16C20.7502 17.7902 20.039 19.5071 18.7732 20.773C17.5073 22.0388 15.7904 22.75 14.0002 22.75H12.2083H12.0002C11.9648 22.75 11.9301 22.7476 11.896 22.7428C10.8862 22.6962 9.89822 22.4233 9.00587 21.9426C8.02171 21.4124 7.18464 20.6461 6.56981 19.7125C6.50352 19.6116 6.43704 19.5098 6.37126 19.4086C6.04153 18.9022 4.93038 16.9635 3.06053 13.6397C2.77321 13.129 2.69646 12.5264 2.84661 11.96C2.99673 11.3936 3.36207 10.9081 3.86453 10.6067"/>
</svg>
