<svg width="36" height="36" viewBox="0 0 36 36" fill="none" xmlns="http://www.w3.org/2000/svg">
    <path d="M18 0C8.05748 0 0 8.05748 0 18C0 23.3646 2.34567 28.1835 6.07323 31.4858C9.25512 34.2921 13.4291 36 18 36C22.578 36 26.752 34.2921 29.9268 31.4787C33.6543 28.1835 36 23.3646 36 18C36 8.05748 27.9425 0 18 0Z" fill="url(#paint0_linear_6975_2883)"/>
    <path d="M11.5614 24C9.90785 24 9 23.1517 9 21.5938V14.4062C9 12.8483 9.92406 12 11.5614 12H20.1212C21.7585 12 22.6502 12.8483 22.6502 14.4062V21.5938C22.6502 23.1517 21.7423 24 20.1049 24H11.5614ZM23.4932 20.1594V15.8406L26.3626 13.635C26.6382 13.4344 26.8976 13.2802 27.1894 13.2802C27.6596 13.2802 28 13.6195 28 14.1594V21.8406C28 22.3959 27.6596 22.7198 27.1894 22.7198C26.8976 22.7198 26.6382 22.581 26.3626 22.365L23.4932 20.1594Z" fill="white"/>
    <defs>
        <linearGradient id="paint0_linear_6975_2883" x1="0.998184" y1="1.99637" x2="0.998184" y2="36" gradientUnits="userSpaceOnUse">
            <stop stop-color="#EB5F62"/>
            <stop offset="1" stop-color="#C9356F"/>
        </linearGradient>
    </defs>
</svg>
