<svg width="14" height="14" viewBox="0 0 14 14" xmlns="http://www.w3.org/2000/svg">
    <path fill-rule="evenodd" clip-rule="evenodd" d="M7.92628 7.5668C8.24844 7.5668 8.50961 7.82797 8.50961 8.15014V10.1623L11.8081 6.64763L8.50961 3.13293V4.51104C8.50961 4.818 8.27172 5.07244 7.96545 5.09305L7.65964 5.11364C4.70619 5.3124 2.63564 7.63529 2.17423 10.4624C3.99185 8.24406 5.91131 7.5668 7.59907 7.5668H7.92628ZM6.68853 8.56569C5.30268 8.81309 3.72751 9.69217 2.19916 11.9615C1.8817 12.4329 1.1714 12.3051 1.16678 11.7351C1.13644 7.99214 3.62931 4.46366 7.59907 4.1965V2.36402C7.59907 1.81007 8.26937 1.54044 8.64677 1.94258L12.6668 6.22619C12.8886 6.46254 12.8886 6.83272 12.6668 7.06907L8.64677 11.3527C8.26937 11.7548 7.59907 11.4852 7.59907 10.9312V8.48598C7.30712 8.48598 7.00269 8.5096 6.68853 8.56569Z"/>
</svg>
