<svg width="28" height="22" viewBox="0 0 28 22" xmlns="http://www.w3.org/2000/svg">
    <g filter="url(#filter0_b_8873_5845)">
        <path fill-rule="evenodd" clip-rule="evenodd" d="M4.35892 0C1.95155 0 0 1.95155 0 4.35892V17.6411C0 20.0484 1.95156 22 4.35892 22H23.6411C26.0484 22 28 20.0484 28 17.6411V4.35892C28 1.95155 26.0484 0 23.6411 0H4.35892ZM14.7504 7.81065L14.7505 7.81069V16C14.7505 16.2802 14.5968 16.5245 14.3691 16.6533C14.5968 16.5245 14.7504 16.2802 14.7504 16V7.81065ZM18.2119 10.2426C18.1167 10.3378 18.0023 10.4021 17.8811 10.4354C18.0022 10.4021 18.1167 10.3378 18.2119 10.2426C18.5048 9.94973 18.5048 9.47486 18.2119 9.18197L14.5307 5.46966C14.4191 5.35805 14.2811 5.28896 14.1368 5.26241C14.2811 5.28896 14.4192 5.35804 14.5308 5.46966L18.2119 9.18197C18.5048 9.47486 18.5048 9.94973 18.2119 10.2426ZM13.2504 7.81065V7.81068L10.8174 10.2426L13.2504 7.81065ZM10.8174 10.2426C10.8091 10.251 10.8006 10.2591 10.792 10.267C10.8006 10.2591 10.8091 10.251 10.8174 10.2426H10.8174ZM18.389 9.0055C18.7792 9.39605 18.7791 10.029 18.3887 10.4194C17.9982 10.8099 17.365 10.8099 16.9745 10.4194L16.9734 10.4183L15.0005 8.41975V16C15.0005 16.5523 14.5527 17 14.0005 17C13.4482 17 13.0005 16.5523 13.0005 16V8.41402L10.9942 10.4194C10.6037 10.8099 9.97051 10.8099 9.58 10.4194C9.18948 10.0289 9.18948 9.39571 9.58 9.00519L13.2934 5.29288C13.6839 4.90238 14.317 4.90237 14.7076 5.29288L14.7083 5.29363L18.389 9.0055Z"/>
    </g>
    <defs>
        <filter id="filter0_b_8873_5845" x="-10.8973" y="-10.8973" width="49.7946" height="43.7946" filterUnits="userSpaceOnUse" color-interpolation-filters="sRGB">
            <feFlood flood-opacity="0" result="BackgroundImageFix"/>
            <feGaussianBlur in="BackgroundImageFix" stdDeviation="5.44865"/>
            <feComposite in2="SourceAlpha" operator="in" result="effect1_backgroundBlur_8873_5845"/>
            <feBlend mode="normal" in="SourceGraphic" in2="effect1_backgroundBlur_8873_5845" result="shape"/>
        </filter>
    </defs>
</svg>
