<svg width="32" height="35" viewBox="0 0 32 35" xmlns="http://www.w3.org/2000/svg">
    <path d="M17.3828 34.5674L29.8679 27.4322C30.8784 26.8544 31.5 25.7886 31.5 24.6347V10.365C31.5 9.21119 30.8784 8.14564 29.8679 7.56739L17.3828 0.432652C16.3724 -0.144217 15.1289 -0.144217 14.1183 0.432652L1.63217 7.56739C0.621664 8.14564 0 9.21119 0 10.365V24.6346C0 25.7886 0.621664 26.8544 1.63217 27.4322L14.1183 34.5674C15.1289 35.1442 16.3724 35.1442 17.3828 34.5674Z" fill="var(--send-message-button-primary-color)"/>
    <path fill-rule="evenodd" clip-rule="evenodd" d="M14.8894 8.48726L9.43818 24.1594C9.14255 25.0094 10.1264 25.7282 10.8463 25.1883L15.2034 21.9204C15.5276 21.6773 15.9733 21.6773 16.2974 21.9204L20.6546 25.1883C21.3745 25.7282 22.3583 25.0094 22.0627 24.1594L16.6115 8.48726C16.3276 7.67104 15.1733 7.67103 14.8894 8.48726Z" fill="var(--send-message-button-secondary-color)"/>
</svg>
