<svg width="24" height="24" viewBox="0 0 24 24" xmlns="http://www.w3.org/2000/svg">
    <path fill-rule="evenodd" clip-rule="evenodd" d="M6 3.5H4C3.72386 3.5 3.5 3.72386 3.5 4V6C3.5 6.27614 3.72386 6.5 4 6.5H6C6.27614 6.5 6.5 6.27614 6.5 6V4C6.5 3.72386 6.27614 3.5 6 3.5ZM4 2C2.89543 2 2 2.89543 2 4V6C2 7.10457 2.89543 8 4 8H6C7.10457 8 8 7.10457 8 6V4C8 2.89543 7.10457 2 6 2H4Z"/>
    <path fill-rule="evenodd" clip-rule="evenodd" d="M13 3.5H11C10.7239 3.5 10.5 3.72386 10.5 4V6C10.5 6.27614 10.7239 6.5 11 6.5H13C13.2761 6.5 13.5 6.27614 13.5 6V4C13.5 3.72386 13.2761 3.5 13 3.5ZM11 2C9.89543 2 9 2.89543 9 4V6C9 7.10457 9.89543 8 11 8H13C14.1046 8 15 7.10457 15 6V4C15 2.89543 14.1046 2 13 2H11Z"/>
    <path fill-rule="evenodd" clip-rule="evenodd" d="M19 11.5H5C4.17157 11.5 3.5 12.1716 3.5 13V19C3.5 19.8284 4.17157 20.5 5 20.5H19C19.8284 20.5 20.5 19.8284 20.5 19V13C20.5 12.1716 19.8284 11.5 19 11.5ZM5 10C3.34315 10 2 11.3431 2 13V19C2 20.6569 3.34315 22 5 22H19C20.6569 22 22 20.6569 22 19V13C22 11.3431 20.6569 10 19 10H5Z"/>
    <path fill-rule="evenodd" clip-rule="evenodd" d="M20 3.5H18C17.7239 3.5 17.5 3.72386 17.5 4V6C17.5 6.27614 17.7239 6.5 18 6.5H20C20.2761 6.5 20.5 6.27614 20.5 6V4C20.5 3.72386 20.2761 3.5 20 3.5ZM18 2C16.8954 2 16 2.89543 16 4V6C16 7.10457 16.8954 8 18 8H20C21.1046 8 22 7.10457 22 6V4C22 2.89543 21.1046 2 20 2H18Z"/>
</svg>
