<svg width="24" height="24" viewBox="0 0 24 24" xmlns="http://www.w3.org/2000/svg">
    <path fill-rule="evenodd" clip-rule="evenodd" d="M7.27607 3.7825H7.44634C8.11439 3.78248 8.67146 3.78246 9.11371 3.84192C9.58049 3.90468 10.0019 4.04273 10.3406 4.38139C10.6793 4.72005 10.8173 5.14149 10.8801 5.60827C10.9395 6.05052 10.9395 6.6076 10.9395 7.27565V7.4459C10.9395 8.11396 10.9395 8.67104 10.8801 9.11328C10.8173 9.58007 10.6793 10.0015 10.3406 10.3402C10.0019 10.6788 9.5805 10.8169 9.11371 10.8796C8.67146 10.9391 8.11438 10.9391 7.44633 10.9391H7.27608C6.60802 10.9391 6.05094 10.9391 5.6087 10.8796C5.14191 10.8169 4.72047 10.6788 4.38181 10.3402C4.04315 10.0015 3.9051 9.58007 3.84234 9.11328C3.78288 8.67104 3.7829 8.11397 3.78292 7.44591V7.27565C3.7829 6.60759 3.78288 6.05052 3.84234 5.60827C3.9051 5.14149 4.04315 4.72005 4.38181 4.38139C4.72047 4.04273 5.14191 3.90468 5.6087 3.84192C6.05094 3.78246 6.60801 3.78248 7.27607 3.7825ZM5.75731 4.94728C5.4142 4.99341 5.26735 5.07313 5.17045 5.17003C5.07356 5.26693 4.99383 5.41377 4.9477 5.75689C4.89942 6.11604 4.89823 6.59753 4.89823 7.31431V7.40725C4.89823 8.12403 4.89942 8.60551 4.9477 8.96467C4.99383 9.30779 5.07356 9.45463 5.17045 9.55153C5.26735 9.64842 5.4142 9.72815 5.75731 9.77428C6.11647 9.82256 6.59795 9.82375 7.31473 9.82375H7.40767C8.12445 9.82375 8.60594 9.82256 8.96509 9.77428C9.30821 9.72815 9.45506 9.64842 9.55195 9.55153C9.64885 9.45463 9.72857 9.30779 9.7747 8.96467C9.82299 8.60551 9.82417 8.12403 9.82417 7.40725V7.31431C9.82417 6.59753 9.82299 6.11604 9.7747 5.75689C9.72857 5.41377 9.64885 5.26693 9.55195 5.17003C9.45506 5.07313 9.30821 4.99341 8.96509 4.94728C8.60594 4.89899 8.12445 4.89781 7.40767 4.89781H7.31473C6.59795 4.89781 6.11647 4.89899 5.75731 4.94728Z"/>
    <path fill-rule="evenodd" clip-rule="evenodd" d="M7.27586 13.0457H7.44613C8.11418 13.0457 8.67126 13.0457 9.1135 13.1051C9.58029 13.1679 10.0017 13.3059 10.3404 13.6446C10.679 13.9833 10.8171 14.4047 10.8799 14.8715C10.9393 15.3137 10.9393 15.8708 10.9393 16.5389V16.7091C10.9393 17.3772 10.9393 17.9342 10.8799 18.3765C10.8171 18.8433 10.679 19.2647 10.3404 19.6034C10.0017 19.942 9.58029 20.0801 9.1135 20.1428C8.67125 20.2023 8.11418 20.2023 7.44612 20.2023H7.27587C6.60781 20.2023 6.05073 20.2023 5.60849 20.1428C5.1417 20.0801 4.72026 19.942 4.3816 19.6034C4.04294 19.2647 3.90489 18.8433 3.84213 18.3765C3.78268 17.9342 3.78269 17.3772 3.78272 16.7091V16.5389C3.78269 15.8708 3.78268 15.3137 3.84213 14.8715C3.90489 14.4047 4.04294 13.9833 4.3816 13.6446C4.72026 13.3059 5.1417 13.1679 5.60849 13.1051C6.05073 13.0457 6.60781 13.0457 7.27586 13.0457ZM5.7571 14.2105C5.41399 14.2566 5.26714 14.3363 5.17025 14.4332C5.07335 14.5301 4.99363 14.677 4.9475 15.0201C4.89921 15.3792 4.89802 15.8607 4.89802 16.5775V16.6705C4.89802 17.3872 4.89921 17.8687 4.9475 18.2279C4.99363 18.571 5.07335 18.7178 5.17025 18.8147C5.26714 18.9116 5.41399 18.9914 5.7571 19.0375C6.11626 19.0858 6.59774 19.087 7.31452 19.087H7.40746C8.12424 19.087 8.60573 19.0858 8.96489 19.0375C9.308 18.9914 9.45485 18.9116 9.55174 18.8147C9.64864 18.7178 9.72836 18.571 9.77449 18.2279C9.82278 17.8687 9.82396 17.3872 9.82396 16.6705V16.5775C9.82396 15.8607 9.82278 15.3792 9.77449 15.0201C9.72836 14.677 9.64864 14.5301 9.55174 14.4332C9.45485 14.3363 9.308 14.2566 8.96489 14.2105C8.60573 14.1622 8.12424 14.161 7.40746 14.161H7.31452C6.59774 14.161 6.11626 14.1622 5.7571 14.2105Z"/>
    <path fill-rule="evenodd" clip-rule="evenodd" d="M16.5394 13.0457H16.7097C17.3778 13.0457 17.9348 13.0456 18.3771 13.1051C18.8439 13.1679 19.2653 13.3059 19.604 13.6446C19.9426 13.9832 20.0807 14.4047 20.1434 14.8715C20.2029 15.3137 20.2029 15.8708 20.2028 16.5388V16.7091C20.2029 17.3771 20.2029 17.9342 20.1434 18.3765C20.0807 18.8433 19.9426 19.2647 19.604 19.6034C19.2653 19.942 18.8439 20.0801 18.3771 20.1428C17.9348 20.2023 17.3777 20.2023 16.7097 20.2022H16.5394C15.8714 20.2023 15.3143 20.2023 14.8721 20.1428C14.4053 20.0801 13.9838 19.942 13.6452 19.6034C13.3065 19.2647 13.1685 18.8433 13.1057 18.3765C13.0462 17.9342 13.0463 17.3772 13.0463 16.7091V16.5388C13.0463 15.8708 13.0462 15.3137 13.1057 14.8715C13.1685 14.4047 13.3065 13.9832 13.6452 13.6446C13.9838 13.3059 14.4053 13.1679 14.8721 13.1051C15.3143 13.0456 15.8714 13.0457 16.5394 13.0457ZM15.0207 14.2105C14.6776 14.2566 14.5307 14.3363 14.4338 14.4332C14.3369 14.5301 14.2572 14.677 14.2111 15.0201C14.1628 15.3792 14.1616 15.8607 14.1616 16.5775V16.6704C14.1616 17.3872 14.1628 17.8687 14.2111 18.2279C14.2572 18.571 14.3369 18.7178 14.4338 18.8147C14.5307 18.9116 14.6776 18.9913 15.0207 19.0375C15.3798 19.0858 15.8613 19.0869 16.5781 19.0869H16.671C17.3878 19.0869 17.8693 19.0858 18.2285 19.0375C18.5716 18.9913 18.7184 18.9116 18.8153 18.8147C18.9122 18.7178 18.9919 18.571 19.0381 18.2279C19.0864 17.8687 19.0875 17.3872 19.0875 16.6704V16.5775C19.0875 15.8607 19.0864 15.3792 19.0381 15.0201C18.9919 14.677 18.9122 14.5301 18.8153 14.4332C18.7184 14.3363 18.5716 14.2566 18.2285 14.2105C17.8693 14.1622 17.3878 14.161 16.671 14.161H16.5781C15.8613 14.161 15.3798 14.1622 15.0207 14.2105Z"/>
    <path fill-rule="evenodd" clip-rule="evenodd" d="M16.5394 3.78247H16.7097C17.3778 3.78245 17.9348 3.78243 18.3771 3.84189C18.8439 3.90465 19.2653 4.0427 19.604 4.38136C19.9426 4.72002 20.0807 5.14146 20.1434 5.60825C20.2029 6.05049 20.2029 6.60757 20.2028 7.27563V7.44587C20.2029 8.11393 20.2029 8.67101 20.1434 9.11325C20.0807 9.58004 19.9426 10.0015 19.604 10.3401C19.2653 10.6788 18.8439 10.8169 18.3771 10.8796C17.9348 10.9391 17.3777 10.9391 16.7097 10.939H16.5394C15.8714 10.9391 15.3143 10.9391 14.8721 10.8796C14.4053 10.8169 13.9838 10.6788 13.6452 10.3401C13.3065 10.0015 13.1685 9.58004 13.1057 9.11325C13.0462 8.67101 13.0463 8.11394 13.0463 7.44588V7.27562C13.0463 6.60756 13.0462 6.05049 13.1057 5.60825C13.1685 5.14146 13.3065 4.72002 13.6452 4.38136C13.9838 4.0427 14.4053 3.90465 14.8721 3.84189C15.3143 3.78243 15.8714 3.78245 16.5394 3.78247ZM15.0207 4.94725C14.6776 4.99338 14.5307 5.07311 14.4338 5.17C14.3369 5.2669 14.2572 5.41374 14.2111 5.75686C14.1628 6.11601 14.1616 6.5975 14.1616 7.31428V7.40722C14.1616 8.124 14.1628 8.60549 14.2111 8.96464C14.2572 9.30776 14.3369 9.4546 14.4338 9.5515C14.5307 9.64839 14.6776 9.72812 15.0207 9.77425C15.3798 9.82254 15.8613 9.82372 16.5781 9.82372H16.671C17.3878 9.82372 17.8693 9.82254 18.2285 9.77425C18.5716 9.72812 18.7184 9.64839 18.8153 9.5515C18.9122 9.4546 18.9919 9.30776 19.0381 8.96464C19.0864 8.60549 19.0875 8.124 19.0875 7.40722V7.31428C19.0875 6.5975 19.0864 6.11601 19.0381 5.75686C18.9919 5.41374 18.9122 5.2669 18.8153 5.17C18.7184 5.07311 18.5716 4.99338 18.2285 4.94725C17.8693 4.89896 17.3878 4.89778 16.671 4.89778H16.5781C15.8613 4.89778 15.3798 4.89896 15.0207 4.94725Z"/>
</svg>
