<svg width="24" height="24" viewBox="0 0 24 24" xmlns="http://www.w3.org/2000/svg">
    <path fill-rule="evenodd" clip-rule="evenodd" d="M5.79509 1.25H5.70491H5.70488C4.92144 1.24998 4.26791 1.24996 3.74361 1.31193C3.19272 1.37705 2.68778 1.51939 2.25542 1.87422C2.11618 1.9885 1.9885 2.11618 1.87422 2.25542C1.51939 2.68778 1.37705 3.19272 1.31193 3.74361C1.24996 4.26791 1.24998 4.92144 1.25 5.70488V5.70491V5.79509V5.79512C1.24998 6.57856 1.24996 7.2321 1.31193 7.7564C1.37705 8.30729 1.51939 8.81222 1.87422 9.24458C1.9885 9.38383 2.11618 9.51151 2.25542 9.62578C2.68778 9.98061 3.19272 10.123 3.74361 10.1881C4.26791 10.25 4.92146 10.25 5.70491 10.25H5.79509C6.57855 10.25 7.23209 10.25 7.7564 10.1881C8.30729 10.123 8.81222 9.98061 9.24458 9.62578C9.38383 9.51151 9.51151 9.38383 9.62578 9.24458C9.98061 8.81222 10.123 8.30729 10.1881 7.7564C10.25 7.23209 10.25 6.57855 10.25 5.79509V5.70491C10.25 4.92146 10.25 4.26791 10.1881 3.74361C10.123 3.19272 9.98061 2.68778 9.62578 2.25542C9.51151 2.11618 9.38383 1.9885 9.24458 1.87422C8.81222 1.51939 8.30729 1.37705 7.7564 1.31193C7.2321 1.24996 6.57856 1.24998 5.79512 1.25H5.79509ZM3.20701 3.03374C3.32783 2.93459 3.51041 2.84994 3.91969 2.80156C4.34552 2.75123 4.90976 2.75 5.75 2.75C6.59024 2.75 7.15449 2.75123 7.58032 2.80156C7.98959 2.84994 8.17218 2.93459 8.29299 3.03374C8.35629 3.08568 8.41432 3.14372 8.46627 3.20701C8.56542 3.32783 8.65006 3.51041 8.69844 3.91969C8.74877 4.34552 8.75 4.90976 8.75 5.75C8.75 6.59024 8.74877 7.15449 8.69844 7.58032C8.65006 7.98959 8.56542 8.17218 8.46627 8.29299C8.41432 8.35629 8.35629 8.41432 8.29299 8.46627C8.17218 8.56542 7.98959 8.65006 7.58032 8.69844C7.15449 8.74877 6.59024 8.75 5.75 8.75C4.90976 8.75 4.34552 8.74877 3.91969 8.69844C3.51041 8.65006 3.32783 8.56542 3.20701 8.46627C3.14372 8.41432 3.08568 8.35629 3.03374 8.29299C2.93459 8.17218 2.84994 7.98959 2.80156 7.58032C2.75123 7.15449 2.75 6.59024 2.75 5.75C2.75 4.90976 2.75123 4.34552 2.80156 3.91969C2.84994 3.51041 2.93459 3.32783 3.03374 3.20701C3.08568 3.14372 3.14372 3.08568 3.20701 3.03374ZM7.7564 12.8119C7.23209 12.75 6.57855 12.75 5.79509 12.75H5.70491C4.92146 12.75 4.26791 12.75 3.74361 12.8119C3.19272 12.8771 2.68778 13.0194 2.25542 13.3742C2.11618 13.4885 1.9885 13.6162 1.87422 13.7554C1.51939 14.1878 1.37705 14.6927 1.31193 15.2436C1.24996 15.7679 1.24998 16.4214 1.25 17.2049V17.2049V17.2951V17.2951C1.24998 18.0786 1.24996 18.7321 1.31193 19.2564C1.37705 19.8073 1.51939 20.3122 1.87422 20.7446C1.9885 20.8838 2.11618 21.0115 2.25542 21.1258C2.68778 21.4806 3.19272 21.623 3.74361 21.6881C4.26791 21.75 4.92146 21.75 5.70491 21.75H5.79509C6.57855 21.75 7.23209 21.75 7.7564 21.6881C8.30729 21.623 8.81222 21.4806 9.24458 21.1258C9.38383 21.0115 9.51151 20.8838 9.62578 20.7446C9.98061 20.3122 10.123 19.8073 10.1881 19.2564C10.25 18.7321 10.25 18.0785 10.25 17.2951V17.2049C10.25 16.4215 10.25 15.7679 10.1881 15.2436C10.123 14.6927 9.98061 14.1878 9.62578 13.7554C9.51151 13.6162 9.38383 13.4885 9.24458 13.3742C8.81222 13.0194 8.30729 12.8771 7.7564 12.8119ZM3.20701 14.5337C3.32783 14.4346 3.51041 14.3499 3.91969 14.3016C4.34552 14.2512 4.90976 14.25 5.75 14.25C6.59024 14.25 7.15449 14.2512 7.58032 14.3016C7.98959 14.3499 8.17218 14.4346 8.29299 14.5337C8.35629 14.5857 8.41432 14.6437 8.46627 14.707C8.56542 14.8278 8.65006 15.0104 8.69844 15.4197C8.74877 15.8455 8.75 16.4098 8.75 17.25C8.75 18.0902 8.74877 18.6545 8.69844 19.0803C8.65006 19.4896 8.56542 19.6722 8.46627 19.793C8.41432 19.8563 8.35629 19.9143 8.29299 19.9663C8.17218 20.0654 7.98959 20.1501 7.58032 20.1984C7.15449 20.2488 6.59024 20.25 5.75 20.25C4.90976 20.25 4.34552 20.2488 3.91969 20.1984C3.51041 20.1501 3.32783 20.0654 3.20701 19.9663C3.14372 19.9143 3.08568 19.8563 3.03374 19.793C2.93459 19.6722 2.84994 19.4896 2.80156 19.0803C2.75123 18.6545 2.75 18.0902 2.75 17.25C2.75 16.4098 2.75123 15.8455 2.80156 15.4197C2.84994 15.0104 2.93459 14.8278 3.03374 14.707C3.08568 14.6437 3.14372 14.5857 3.20701 14.5337ZM15.2436 12.8119C15.7679 12.75 16.4215 12.75 17.2049 12.75H17.2951C18.0785 12.75 18.7321 12.75 19.2564 12.8119C19.8073 12.8771 20.3122 13.0194 20.7446 13.3742C20.8838 13.4885 21.0115 13.6162 21.1258 13.7554C21.4806 14.1878 21.623 14.6927 21.6881 15.2436C21.75 15.7679 21.75 16.4215 21.75 17.2049V17.2951C21.75 18.0785 21.75 18.7321 21.6881 19.2564C21.623 19.8073 21.4806 20.3122 21.1258 20.7446C21.0115 20.8838 20.8838 21.0115 20.7446 21.1258C20.3122 21.4806 19.8073 21.623 19.2564 21.6881C18.7321 21.75 18.0785 21.75 17.2951 21.75H17.2049C16.4215 21.75 15.7679 21.75 15.2436 21.6881C14.6927 21.623 14.1878 21.4806 13.7554 21.1258C13.6162 21.0115 13.4885 20.8838 13.3742 20.7446C13.0194 20.3122 12.8771 19.8073 12.8119 19.2564C12.75 18.7321 12.75 18.0785 12.75 17.2951V17.2049C12.75 16.4215 12.75 15.7679 12.8119 15.2436C12.8771 14.6927 13.0194 14.1878 13.3742 13.7554C13.4885 13.6162 13.6162 13.4885 13.7554 13.3742C14.1878 13.0194 14.6927 12.8771 15.2436 12.8119ZM15.4197 14.3016C15.0104 14.3499 14.8278 14.4346 14.707 14.5337C14.6437 14.5857 14.5857 14.6437 14.5337 14.707C14.4346 14.8278 14.3499 15.0104 14.3016 15.4197C14.2512 15.8455 14.25 16.4098 14.25 17.25C14.25 18.0902 14.2512 18.6545 14.3016 19.0803C14.3499 19.4896 14.4346 19.6722 14.5337 19.793C14.5857 19.8563 14.6437 19.9143 14.707 19.9663C14.8278 20.0654 15.0104 20.1501 15.4197 20.1984C15.8455 20.2488 16.4098 20.25 17.25 20.25C18.0902 20.25 18.6545 20.2488 19.0803 20.1984C19.4896 20.1501 19.6722 20.0654 19.793 19.9663C19.8563 19.9143 19.9143 19.8563 19.9663 19.793C20.0654 19.6722 20.1501 19.4896 20.1984 19.0803C20.2488 18.6545 20.25 18.0902 20.25 17.25C20.25 16.4098 20.2488 15.8455 20.1984 15.4197C20.1501 15.0104 20.0654 14.8278 19.9663 14.707C19.9143 14.6437 19.8563 14.5857 19.793 14.5337C19.6722 14.4346 19.4896 14.3499 19.0803 14.3016C18.6545 14.2512 18.0902 14.25 17.25 14.25C16.4098 14.25 15.8455 14.2512 15.4197 14.3016ZM17.2951 1.25H17.2049H17.2049C16.4214 1.24998 15.7679 1.24996 15.2436 1.31193C14.6927 1.37705 14.1878 1.51939 13.7554 1.87422C13.6162 1.9885 13.4885 2.11618 13.3742 2.25542C13.0194 2.68778 12.8771 3.19272 12.8119 3.74361C12.75 4.26791 12.75 4.92146 12.75 5.70491V5.79509C12.75 6.57855 12.75 7.23209 12.8119 7.7564C12.8771 8.30729 13.0194 8.81222 13.3742 9.24458C13.4885 9.38383 13.6162 9.51151 13.7554 9.62578C14.1878 9.98061 14.6927 10.123 15.2436 10.1881C15.7679 10.25 16.4215 10.25 17.2049 10.25H17.2951C18.0785 10.25 18.7321 10.25 19.2564 10.1881C19.8073 10.123 20.3122 9.98061 20.7446 9.62578C20.8838 9.51151 21.0115 9.38383 21.1258 9.24458C21.4806 8.81222 21.623 8.30729 21.6881 7.7564C21.75 7.23209 21.75 6.57855 21.75 5.79509V5.70491C21.75 4.92146 21.75 4.26791 21.6881 3.74361C21.623 3.19272 21.4806 2.68778 21.1258 2.25542C21.0115 2.11618 20.8838 1.9885 20.7446 1.87422C20.3122 1.51939 19.8073 1.37705 19.2564 1.31193C18.7321 1.24996 18.0786 1.24998 17.2951 1.25H17.2951ZM14.707 3.03374C14.8278 2.93459 15.0104 2.84994 15.4197 2.80156C15.8455 2.75123 16.4098 2.75 17.25 2.75C18.0902 2.75 18.6545 2.75123 19.0803 2.80156C19.4896 2.84994 19.6722 2.93459 19.793 3.03374C19.8563 3.08568 19.9143 3.14372 19.9663 3.20701C20.0654 3.32783 20.1501 3.51041 20.1984 3.91969C20.2488 4.34552 20.25 4.90976 20.25 5.75C20.25 6.59024 20.2488 7.15449 20.1984 7.58032C20.1501 7.98959 20.0654 8.17218 19.9663 8.29299C19.9143 8.35629 19.8563 8.41432 19.793 8.46627C19.6722 8.56542 19.4896 8.65006 19.0803 8.69844C18.6545 8.74877 18.0902 8.75 17.25 8.75C16.4098 8.75 15.8455 8.74877 15.4197 8.69844C15.0104 8.65006 14.8278 8.56542 14.707 8.46627C14.6437 8.41432 14.5857 8.35629 14.5337 8.29299C14.4346 8.17218 14.3499 7.98959 14.3016 7.58032C14.2512 7.15449 14.25 6.59024 14.25 5.75C14.25 4.90976 14.2512 4.34552 14.3016 3.91969C14.3499 3.51041 14.4346 3.32783 14.5337 3.20701C14.5857 3.14372 14.6437 3.08568 14.707 3.03374Z"/>
</svg>
