<svg width="22" height="22" viewBox="0 0 22 22" fill="none" xmlns="http://www.w3.org/2000/svg">
    <g opacity="0.3">
        <path fill-rule="evenodd" clip-rule="evenodd" d="M15.1254 6.41658C15.1254 8.94789 13.2786 10.9999 11.0004 10.9999C8.72224 10.9999 6.87541 8.94789 6.87541 6.41658C6.87541 3.88528 8.72224 1.83325 11.0004 1.83325C13.2786 1.83325 15.1254 3.88528 15.1254 6.41658ZM13.7504 6.41658C13.7504 8.32835 12.3865 9.62492 11.0004 9.62492C9.61432 9.62492 8.25041 8.32835 8.25041 6.41658C8.25041 4.50482 9.61432 3.20825 11.0004 3.20825C12.3865 3.20825 13.7504 4.50482 13.7504 6.41658Z" fill="white"/>
        <path fill-rule="evenodd" clip-rule="evenodd" d="M18.3338 20.1666H3.66708C3.16082 20.1666 2.74593 19.7551 2.78811 19.2506C3.13476 15.1043 5.87219 11.9166 11.0004 11.9166C16.1286 11.9166 18.8661 15.1043 19.2127 19.2506C19.2549 19.7551 18.84 20.1666 18.3338 20.1666ZM15.947 15.0202C16.9139 15.9493 17.544 17.2417 17.7759 18.7916H4.22489C4.4568 17.2417 5.08696 15.9493 6.05387 15.0202C7.12732 13.9887 8.7332 13.2916 11.0004 13.2916C13.2676 13.2916 14.8735 13.9887 15.947 15.0202Z" fill="white"/>
    </g>
</svg>
