<svg width="24" height="24" viewBox="0 0 24 24" xmlns="http://www.w3.org/2000/svg">
    <path fill-rule="evenodd" clip-rule="evenodd" d="M14.082 5.16667C14.082 3.83198 15.164 2.75 16.4987 2.75C17.8334 2.75 18.9154 3.83198 18.9154 5.16667C18.9154 6.50136 17.8334 7.58333 16.4987 7.58333C15.164 7.58333 14.082 6.50136 14.082 5.16667ZM16.4987 1.25C14.3356 1.25 12.582 3.00355 12.582 5.16667C12.582 7.32978 14.3356 9.08333 16.4987 9.08333C18.6618 9.08333 20.4154 7.32978 20.4154 5.16667C20.4154 3.00355 18.6618 1.25 16.4987 1.25ZM5.08203 10.2497C5.08203 8.91499 6.16401 7.83301 7.4987 7.83301C8.83339 7.83301 9.91537 8.91499 9.91537 10.2497C9.91537 11.5844 8.83339 12.6663 7.4987 12.6663C6.16401 12.6663 5.08203 11.5844 5.08203 10.2497ZM7.4987 6.33301C5.33558 6.33301 3.58203 8.08656 3.58203 10.2497C3.58203 12.4128 5.33558 14.1663 7.4987 14.1663C9.66181 14.1663 11.4154 12.4128 11.4154 10.2497C11.4154 8.08656 9.66181 6.33301 7.4987 6.33301ZM3.44053 16.2712C4.61622 15.4415 6.04299 15 7.5 15C8.95701 15 10.3838 15.4415 11.5595 16.2712C12.6785 17.0609 13.5229 18.1703 13.9477 19.4609C14.0774 19.855 13.9565 20.278 13.6896 20.5217C10.07 23.8261 4.93003 23.8261 1.31038 20.5217C1.04351 20.278 0.922629 19.855 1.05232 19.4609C1.47712 18.1703 2.32151 17.0609 3.44053 16.2712ZM7.5 16.3586C6.24708 16.3586 5.03963 16.7395 4.06539 17.4271C3.23106 18.0158 2.61773 18.7932 2.27027 19.6527C5.36845 22.3043 9.63155 22.3043 12.7297 19.6526C12.3823 18.7932 11.7689 18.0159 10.9346 17.4271C9.96037 16.7395 8.75293 16.3586 7.5 16.3586ZM16.5009 9.91699C15.2396 9.91699 14.0009 10.2478 12.9282 10.875C12.643 11.0417 12.5597 11.4069 12.7168 11.6975C12.9027 12.0414 13.3468 12.1428 13.6928 11.9608C14.5371 11.5164 15.5046 11.2756 16.5009 11.2756C17.7538 11.2756 18.9612 11.6565 19.9355 12.344C20.5557 12.7817 21.0538 13.3236 21.4113 13.9259C21.6306 14.2954 21.5138 14.7629 21.1657 15.0148C19.8083 15.997 18.2695 16.5104 16.7225 16.5552C16.3318 16.5665 16.0009 16.8732 16.0009 17.2641C16.0009 17.6225 16.2808 17.9216 16.6392 17.9159C18.7828 17.8818 20.9188 17.0561 22.6905 15.4386C22.9574 15.195 23.0782 14.772 22.9486 14.3779C22.5238 13.0873 21.6794 11.9778 20.5604 11.1881C19.3847 10.3585 17.9579 9.91699 16.5009 9.91699Z"/>
</svg>
