<svg width="24" height="24" viewBox="0 0 24 24" xmlns="http://www.w3.org/2000/svg">
    <g>
        <path fill-rule="evenodd" clip-rule="evenodd" d="M21.5005 6.98923C21.5005 6.80695 21.3527 6.65919 21.1705 6.65919C20.9882 6.65919 20.8404 6.80695 20.8404 6.98923V17.1152C20.8404 17.5424 20.3467 17.7804 20.0126 17.5141L16 14.2243L15.5886 14.7405L19.6175 18.0433C20.3774 18.6488 21.5005 18.1077 21.5005 17.136V6.98923Z"/>
        <path fill-rule="evenodd" clip-rule="evenodd" d="M15.6104 16.5348C15.6104 17.5444 14.792 18.3629 13.7824 18.3629H9.13415C8.95188 18.3629 8.80411 18.5106 8.80411 18.6929C8.80411 18.8752 8.95188 19.023 9.13415 19.023H13.7824C15.1565 19.023 16.2705 17.909 16.2705 16.5348V12.8826C16.2705 12.7004 16.1228 12.5526 15.9405 12.5526C15.7582 12.5526 15.6104 12.7004 15.6104 12.8826V16.5348Z"/>
        <path fill-rule="evenodd" clip-rule="evenodd" d="M19.9025 3.59667C19.7736 3.46778 19.5647 3.46778 19.4358 3.59667L16.2325 6.79999L15.9002 6.2631C15.4609 5.55325 14.6765 5.08215 13.7826 5.08215H3.98814C2.61398 5.08215 1.5 6.19613 1.5 7.57029V16.5347C1.5 17.6128 2.1859 18.5319 3.14671 18.8771L3.88872 19.1437L3.00184 20.0306C2.87295 20.1595 2.87295 20.3685 3.00184 20.4973C3.13072 20.6262 3.33969 20.6262 3.46858 20.4973L19.9025 4.06341C20.0314 3.93452 20.0314 3.72556 19.9025 3.59667ZM2.16008 7.57029C2.16008 6.56068 2.97853 5.74223 3.98814 5.74223H13.7826C14.6423 5.74223 15.3622 6.33516 15.5581 7.13374L15.6252 7.40726L4.66966 18.3628H3.98814C2.97853 18.3628 2.16008 17.5443 2.16008 16.5347V7.57029Z"/>
    </g>
</svg>
