<svg width="36" height="36" viewBox="0 0 36 36" fill="none" xmlns="http://www.w3.org/2000/svg">
    <path fill-rule="evenodd" clip-rule="evenodd" d="M7.11111 9.00171C5.39289 9.00171 4 10.467 4 12.2744V23.729C4 25.5365 5.39289 27.0017 7.11111 27.0017H21.8889C23.6071 27.0017 25 25.5365 25 23.729V12.2744C25 10.467 23.6071 9.00171 21.8889 9.00171H7.11111ZM27.1424 14.8019C26.7385 15.137 26.5001 15.6683 26.5001 16.2333V19.7704C26.5001 20.3353 26.7385 20.8666 27.1424 21.2018L31.9876 25.222C32.8216 25.914 34.0001 25.2434 34.0001 24.0769V11.9268C34.0001 10.7602 32.8216 10.0896 31.9876 10.7817L27.1424 14.8019Z" fill="white" fill-opacity="0.85"/>
</svg>
