<svg width="24" height="24" viewBox="0 0 24 24" xmlns="http://www.w3.org/2000/svg">
    <g>
        <path fill-rule="evenodd" clip-rule="evenodd" d="M3.98814 5.08203C2.61398 5.08203 1.5 6.19601 1.5 7.57017V16.5346C1.5 17.6127 2.1859 18.5318 3.14671 18.877C3.40886 18.9712 3.69193 19.0227 3.98814 19.0227H9.11655L9.12375 19.0229L9.13375 19.0231H13.782C15.1561 19.0231 16.2701 17.9091 16.2701 16.5349V15.3759L19.6173 18.0432C20.3773 18.6488 21.5004 18.1077 21.5004 17.136V6.8225C21.5004 5.8508 20.3773 5.30968 19.6173 5.91525L16.2793 8.57523L16.2707 7.54861C16.2667 7.07641 16.1316 6.63687 15.9002 6.26298C15.4609 5.55313 14.6765 5.08203 13.7826 5.08203H3.98814ZM2.16008 7.57017C2.16008 6.56056 2.97853 5.74211 3.98814 5.74211H13.7826C14.6423 5.74211 15.3622 6.33504 15.5581 7.13362C15.5925 7.27401 15.6107 7.42032 15.6107 7.57017V12.8597L15.6103 12.8694L15.61 12.8828V16.5349C15.61 17.5446 14.7916 18.363 13.782 18.363L3.98814 18.3627C2.97854 18.3626 2.16008 17.5442 2.16008 16.5346V7.57017ZM20.0287 6.43147C20.3562 6.17047 20.8403 6.40369 20.8403 6.8225V17.136C20.8403 17.5548 20.3562 17.788 20.0287 17.527L16.2701 14.5319L16.2708 9.42607L20.0287 6.43147Z"/>
    </g>
</svg>
