<svg width="36" height="36" viewBox="0 0 36 36" fill="none" xmlns="http://www.w3.org/2000/svg">
    <path fill-rule="evenodd" clip-rule="evenodd" d="M21.5869 30.6514C21.877 31.13 22.5439 31.2586 23.0765 30.9387C23.6091 30.6189 23.8058 29.9716 23.5157 29.493L8.60237 4.88581C8.31232 4.40723 7.64541 4.27858 7.11279 4.59846C6.58017 4.91835 6.38352 5.56563 6.67357 6.04422L21.5869 30.6514ZM6.67499 9.03331L17.3972 27.0014H7.11111C5.39289 27.0014 4 25.5362 4 23.7287V12.2741C4 10.6224 5.16325 9.25639 6.67499 9.03331ZM21.8889 9.0014H13.0534L23.6874 26.3995C23.7594 26.3457 23.8291 26.2888 23.8964 26.229C24.5714 25.6286 25 24.7313 25 23.7287V12.2741C25 10.4667 23.6071 9.0014 21.8889 9.0014ZM26.5001 16.2331C26.5001 15.6681 26.7385 15.1368 27.1424 14.8017L31.9876 10.7815C32.8217 10.0895 34.0001 10.76 34.0001 11.9266V24.0767C34.0001 25.2432 32.8217 25.9138 31.9876 25.2218L27.1424 21.2016C26.7385 20.8664 26.5001 20.3351 26.5001 19.7702V16.2331Z" fill="white" fill-opacity="0.85"/>
</svg>
