<svg width="120" height="120" viewBox="0 0 120 120" fill="none" xmlns="http://www.w3.org/2000/svg">
    <g clip-path="url(#clip0_14242_27857)">
        <path d="M58.4862 9.35672C52.7105 6.02209 45.3512 7.95577 42.0488 13.6757L18.1307 55.1031C14.8283 60.8231 16.8333 68.1632 22.609 71.4978L74.8985 101.687C80.6742 105.022 88.0335 103.088 91.3359 97.3682L115.254 55.9408C118.556 50.2209 116.551 42.8807 110.776 39.5461L58.4862 9.35672Z" fill="#222222"/>
        <path d="M34.0233 14.5334C26.6495 13.0293 19.4644 17.73 17.9748 25.0325L7.1867 77.9223C5.69717 85.2249 10.4673 92.3641 17.8411 93.8682L84.5984 107.485C91.9722 108.989 99.1574 104.288 100.647 96.9858L111.435 44.096C112.925 36.7934 108.154 29.6542 100.781 28.1501L34.0233 14.5334Z" fill="#272727"/>
        <path d="M31.0536 27.4663C24.6156 27.4663 19.3965 32.8389 19.3965 39.4663V87.4663C19.3965 94.0937 24.6156 99.4663 31.0536 99.4663H89.3393C95.7774 99.4663 100.996 94.0937 100.996 87.4663V39.4663C100.996 32.8389 95.7774 27.4663 89.3393 27.4663H31.0536Z" fill="#313131"/>
        <path fill-rule="evenodd" clip-rule="evenodd" d="M42.3426 53.8259L41.2946 58.0179H35.917C34.8987 58.0179 34.0732 58.8434 34.0732 59.8617C34.0732 60.8799 34.8987 61.7054 35.917 61.7054H85.0837C86.1019 61.7054 86.9274 60.8799 86.9274 59.8617C86.9274 58.8434 86.1019 58.0179 85.0837 58.0179H79.7061L78.6581 53.8259C77.3166 48.4602 76.6459 45.7773 74.6453 44.2153C72.6447 42.6533 69.8794 42.6533 64.3484 42.6533H56.6523C51.1213 42.6533 48.3559 42.6533 46.3553 44.2153C44.3548 45.7773 43.684 48.4602 42.3426 53.8259ZM46.9795 84.445C50.9698 84.445 54.3256 81.7288 55.2989 78.0442L58.0268 76.6803C59.5839 75.9018 61.4168 75.9018 62.9739 76.6803L65.7017 78.0442C66.6749 81.7288 70.0308 84.445 74.0212 84.445C78.7731 84.445 82.6253 80.5928 82.6253 75.8408C82.6253 71.0889 78.7731 67.2367 74.0212 67.2367C69.9401 67.2367 66.5227 70.078 65.639 73.8901L64.6232 73.3822C62.0277 72.0845 58.973 72.0845 56.3775 73.3822L55.3616 73.8901C54.478 70.078 51.0605 67.2367 46.9795 67.2367C42.2275 67.2367 38.3753 71.0889 38.3753 75.8408C38.3753 80.5928 42.2275 84.445 46.9795 84.445Z" fill="url(#paint0_linear_14242_27857)"/>
    </g>
    <defs>
        <linearGradient id="paint0_linear_14242_27857" x1="61.1149" y1="84.445" x2="61.1149" y2="42.6533" gradientUnits="userSpaceOnUse">
            <stop stop-color="#BBC2CA" stop-opacity="0.4"/>
            <stop offset="1" stop-color="#BBC2CA"/>
        </linearGradient>
        <clipPath id="clip0_14242_27857">
            <rect width="120" height="120" fill="white"/>
        </clipPath>
    </defs>
</svg>
