<svg width="100" height="100" viewBox="0 0 100 100" fill="none" xmlns="http://www.w3.org/2000/svg">
    <path d="M7.5242 14.0631C8.76653 13.657 9.44631 12.3148 9.04251 11.0652C8.63872 9.81564 7.30428 9.13191 6.06194 9.53806C4.81961 9.9442 4.13984 11.2864 4.54363 12.536C4.94742 13.7855 6.28187 14.4693 7.5242 14.0631Z" fill="#0A0A0B"/>
    <path d="M12.688 6.30355C13.5328 6.02737 13.9951 5.11467 13.7205 4.26496C13.4459 3.41526 12.5385 2.95033 11.6937 3.2265C10.8489 3.50268 10.3867 4.41538 10.6612 5.26508C10.9358 6.11479 11.8432 6.57972 12.688 6.30355Z" fill="#0A0A0B"/>
    <path d="M90.2314 14.4679C91.6972 13.1206 91.7996 10.8332 90.4601 9.35883C89.1206 7.8845 86.8464 7.78153 85.3806 9.12884C83.9148 10.4761 83.8125 12.7635 85.152 14.2379C86.4915 15.7122 88.7656 15.8152 90.2314 14.4679Z" fill="#0A0A0B"/>
    <path d="M97.7146 7.87514C98.3318 7.30785 98.3749 6.34474 97.8109 5.72397C97.2469 5.1032 96.2894 5.05984 95.6722 5.62713C95.055 6.19442 95.0119 7.15753 95.5759 7.7783C96.1399 8.39907 97.0975 8.44243 97.7146 7.87514Z" fill="#0A0A0B"/>
    <path d="M11.6834 92.4083C12.3006 91.8411 12.3437 90.8779 11.7797 90.2572C11.2157 89.6364 10.2581 89.593 9.64094 90.1603C9.02376 90.7276 8.98065 91.6907 9.54466 92.3115C10.1087 92.9323 11.0662 92.9756 11.6834 92.4083Z" fill="#0A0A0B"/>
    <path d="M49.8551 97.441C75.8252 97.441 96.8781 76.2656 96.8781 50.1443C96.8781 24.0231 75.8252 2.84766 49.8551 2.84766C23.885 2.84766 2.83203 24.0231 2.83203 50.1443C2.83203 76.2656 23.885 97.441 49.8551 97.441Z" fill="#181818"/>
    <g clip-path="url(#clip0_14174_256516)">
        <path d="M48.7384 7.79718C43.9252 5.01833 37.7925 6.62973 35.0405 11.3963L15.1087 45.9192C12.3567 50.6858 14.0276 56.8026 18.8407 59.5814L62.4153 84.7392C67.2284 87.5181 73.3611 85.9067 76.1131 81.1401L96.0449 46.6172C98.7969 41.8506 97.126 35.7338 92.3129 32.955L48.7384 7.79718Z" fill="#222222"/>
        <path d="M28.3528 12.1113C22.2079 10.8579 16.2203 14.775 14.979 20.8605L5.98892 64.9354C4.74764 71.0208 8.72276 76.9702 14.8676 78.2235L70.4987 89.5708C76.6435 90.8242 82.6311 86.907 83.8724 80.8216L92.8625 36.7467C94.1038 30.6612 90.1287 24.7119 83.9838 23.4585L28.3528 12.1113Z" fill="#272727"/>
        <path d="M25.8783 22.8887C20.5133 22.8887 16.1641 27.3658 16.1641 32.8887V72.8887C16.1641 78.4115 20.5133 82.8887 25.8783 82.8887H74.4498C79.8148 82.8887 84.1641 78.4115 84.1641 72.8887V32.8887C84.1641 27.3658 79.8148 22.8887 74.4498 22.8887H25.8783Z" fill="#313131"/>
        <path fill-rule="evenodd" clip-rule="evenodd" d="M34.6124 44.8018L33.7243 48.3543H29.167C28.3041 48.3543 27.6045 49.0539 27.6045 49.9168C27.6045 50.7797 28.3041 51.4793 29.167 51.4793H70.8337C71.6966 51.4793 72.3962 50.7797 72.3962 49.9168C72.3962 49.0539 71.6966 48.3543 70.8337 48.3543H66.2764L65.3882 44.8018C64.2514 40.2546 63.683 37.9809 61.9876 36.6572C60.2922 35.3335 57.9487 35.3335 53.2614 35.3335H46.7393C42.052 35.3335 39.7084 35.3335 38.013 36.6572C36.3176 37.9809 35.7492 40.2546 34.6124 44.8018ZM38.542 70.7502C41.9236 70.7502 44.7675 68.4483 45.5923 65.3258L47.9041 64.17C49.2237 63.5102 50.777 63.5102 52.0966 64.17L54.4082 65.3258C55.233 68.4483 58.077 70.7502 61.4587 70.7502C65.4857 70.7502 68.7503 67.4856 68.7503 63.4585C68.7503 59.4314 65.4857 56.1668 61.4587 56.1668C58.0001 56.1668 55.1041 58.5747 54.3551 61.8054L53.4943 61.375C51.2947 60.2752 48.7059 60.2752 46.5064 61.375L45.6455 61.8054C44.8966 58.5747 42.0005 56.1668 38.542 56.1668C34.5149 56.1668 31.2503 59.4314 31.2503 63.4585C31.2503 67.4856 34.5149 70.7502 38.542 70.7502Z" fill="url(#paint0_linear_14174_256516)"/>
    </g>
    <defs>
        <linearGradient id="paint0_linear_14174_256516" x1="50.5212" y1="70.7502" x2="50.5212" y2="35.3335" gradientUnits="userSpaceOnUse">
            <stop stop-color="#BBC2CA" stop-opacity="0.4"/>
            <stop offset="1" stop-color="#BBC2CA"/>
        </linearGradient>
        <clipPath id="clip0_14174_256516">
            <rect width="100" height="100" fill="white"/>
        </clipPath>
    </defs>
</svg>
