<svg width="18" height="18" viewBox="0 0 18 18" xmlns="http://www.w3.org/2000/svg">
    <path fill-rule="evenodd" clip-rule="evenodd"
          d="M16.7814 7.54151C16.8798 7.58579 16.9571 7.66732 16.9951 7.76853C17.0295 7.87114 17.0219 7.98373 16.9727 8.08002C16.9242 8.17701 16.8385 8.2501 16.7351 8.28313C14.7813 9.02813 11.8919 9.39782 8.99836 9.39782C6.10481 9.39782 3.21539 9.02813 1.26158 8.28313C1.05214 8.20301 0.946711 7.96827 1.02683 7.75811C1.10695 7.54867 1.3417 7.44324 1.55115 7.52336C2.07335 7.71734 2.60751 7.87618 3.1508 7.99847L3.58585 2.86071C3.65962 1.79943 4.55148 0.982736 5.61487 1.00101H12.3817C13.4549 0.969342 14.3616 1.7896 14.4361 2.86071L14.8711 8.00819C15.4137 7.8859 15.9486 7.72706 16.4701 7.53308C16.5706 7.49442 16.683 7.49724 16.7814 7.54151ZM4.39546 2.93029L3.97588 8.16845L3.95056 8.16843C7.29249 8.72789 10.7041 8.72789 14.046 8.16843V8.16773L13.6011 2.93029C13.5491 2.29704 13.017 1.81138 12.3817 1.8156H5.61487C4.97952 1.81137 4.44747 2.29704 4.39546 2.93029ZM10.6775 12.5963C11.2037 11.788 12.1027 11.3009 13.0663 11.3016C13.8662 11.3023 14.6288 11.6397 15.1664 12.2308C15.7048 12.822 15.9698 13.6126 15.896 14.4083C15.8222 15.2045 15.416 15.9326 14.7785 16.4148C14.1403 16.8969 13.3292 17.0881 12.5435 16.9412C11.757 16.795 11.0689 16.3241 10.6479 15.6452C10.2263 14.9655 10.1103 14.1403 10.3282 13.3707C9.9634 13.0088 9.50164 12.7607 8.99841 12.656C8.4952 12.7607 8.03342 13.0088 7.66866 13.3707C7.93574 14.3048 7.71013 15.3099 7.07055 16.0401C6.4302 16.7704 5.46378 17.126 4.50302 16.984C3.54233 16.8428 2.71931 16.2229 2.31729 15.3387C1.91598 14.4553 1.98977 13.4277 2.51479 12.611C3.03981 11.7936 3.94367 11.2995 4.91427 11.2974C5.88555 11.2953 6.7908 11.7866 7.31933 12.6012C7.79023 12.1858 8.37499 11.9215 8.99839 11.8414C9.62039 11.9215 10.2044 12.1844 10.6775 12.5963ZM3.05025 14.9226C3.36508 15.6838 4.10657 16.18 4.93029 16.18C5.46866 16.1814 5.98665 15.9678 6.36828 15.5875C6.74992 15.2066 6.96429 14.6893 6.96429 14.1509C6.96641 13.3272 6.47162 12.5843 5.71185 12.268C4.95211 11.9511 4.07638 12.1239 3.49373 12.7052C2.91039 13.2871 2.73538 14.1621 3.05025 14.9226ZM11.1834 14.9261C11.4997 15.6866 12.2433 16.1821 13.0663 16.18C14.1859 16.1773 15.0933 15.2698 15.0961 14.1509C15.0975 13.3272 14.6027 12.5836 13.8422 12.2673C13.0818 11.951 12.2053 12.1246 11.6234 12.7073C11.0407 13.2899 10.8671 14.1656 11.1834 14.9261Z"/>
</svg>
