<svg width="18" height="18" viewBox="0 0 18 18" xmlns="http://www.w3.org/2000/svg">
    <path fill-rule="evenodd" clip-rule="evenodd" d="M14.3033 3.69649C14.0836 3.47682 13.7275 3.47682 13.5078 3.69649C13.2881 3.91616 13.2881 4.27232 13.5078 4.49199C14.7034 5.68753 15.375 7.30904 15.375 8.99979C15.375 10.6905 14.7034 12.3121 13.5078 13.5076C13.2881 13.7273 13.2881 14.0834 13.5078 14.3031C13.7275 14.5228 14.0836 14.5228 14.3033 14.3031C15.7098 12.8966 16.5 10.9889 16.5 8.99979C16.5 7.01067 15.7098 5.10301 14.3033 3.69649ZM1.5 7.49979V10.4998C1.5 10.914 1.83579 11.2498 2.25 11.2498H3.59467C3.69413 11.2498 3.78951 11.2893 3.85984 11.3596L6.21967 13.7195C6.69214 14.1919 7.5 13.8573 7.5 13.1891V4.81045C7.5 4.14227 6.69214 3.80764 6.21967 4.28012L3.85983 6.63995C3.78951 6.71028 3.69413 6.74979 3.59467 6.74979H2.25C1.83579 6.74979 1.5 7.08557 1.5 7.49979ZM11.6517 5.55265C11.8713 5.33298 12.2275 5.33298 12.4471 5.55265C12.8998 6.00534 13.2589 6.54276 13.5039 7.13422C13.7489 7.72568 13.875 8.35961 13.875 8.9998C13.875 9.63999 13.7489 10.2739 13.5039 10.8654C13.2589 11.4568 12.8998 11.9943 12.4471 12.4469C12.2275 12.6666 11.8713 12.6666 11.6516 12.4469C11.432 12.2273 11.432 11.8711 11.6516 11.6515C11.9999 11.3032 12.2761 10.8898 12.4645 10.4349C12.653 9.97989 12.75 9.49226 12.75 8.9998C12.75 8.50734 12.653 8.01971 12.4645 7.56474C12.2761 7.10977 11.9999 6.69637 11.6517 6.34815C11.432 6.12848 11.432 5.77232 11.6517 5.55265ZM10.591 7.40879C10.3713 7.18912 10.0152 7.18912 9.7955 7.40879C9.57583 7.62846 9.57583 7.98462 9.7955 8.20429C9.89996 8.30875 9.98283 8.43277 10.0394 8.56927C10.0959 8.70576 10.125 8.85205 10.125 8.99978C10.125 9.14752 10.0959 9.29381 10.0394 9.4303C9.98283 9.56679 9.89996 9.69081 9.7955 9.79528C9.57582 10.0149 9.57582 10.3711 9.79549 10.5908C10.0152 10.8104 10.3713 10.8104 10.591 10.5908C10.7999 10.3818 10.9657 10.1338 11.0787 9.86082C11.1918 9.58784 11.25 9.29526 11.25 8.99978C11.25 8.70431 11.1918 8.41173 11.0787 8.13875C10.9657 7.86576 10.7999 7.61773 10.591 7.40879Z"/>
</svg>
