<svg width="18" height="18" viewBox="0 0 18 18" xmlns="http://www.w3.org/2000/svg">
    <g>
        <path fill-rule="evenodd" clip-rule="evenodd" d="M11.85 5.7C12.0157 5.47909 12.3291 5.43431 12.55 5.6C13.0778 5.99588 13.5062 6.50921 13.8013 7.09934C14.0964 7.68948 14.25 8.34021 14.25 9C14.25 9.65979 14.0964 10.3105 13.8013 10.9007C13.5062 11.4908 13.0778 12.0041 12.55 12.4C12.3291 12.5657 12.0157 12.5209 11.85 12.3C11.6843 12.0791 11.7291 11.7657 11.95 11.6C12.3536 11.2973 12.6812 10.9047 12.9069 10.4534C13.1325 10.0022 13.25 9.50455 13.25 9C13.25 8.49545 13.1325 7.99784 12.9069 7.54656C12.6812 7.09527 12.3536 6.70273 11.95 6.4C11.7291 6.23431 11.6843 5.92091 11.85 5.7Z"/>
        <path fill-rule="evenodd" clip-rule="evenodd" d="M9.51284 7.15117C9.67853 6.93026 9.99193 6.88549 10.2128 7.05117C10.5154 7.27808 10.7609 7.57232 10.9301 7.91057C11.0992 8.24883 11.1873 8.62182 11.1873 9C11.1873 9.37818 11.0992 9.75117 10.9301 10.0894C10.7609 10.4277 10.5154 10.7219 10.2128 10.9488C9.99193 11.1145 9.67853 11.0697 9.51284 10.8488C9.34716 10.6279 9.39193 10.3145 9.61284 10.1488C9.79119 10.0151 9.93595 9.84162 10.0356 9.64221C10.1354 9.44281 10.1873 9.22294 10.1873 9C10.1873 8.77706 10.1354 8.55719 10.0356 8.35779C9.93595 8.15838 9.79119 7.98493 9.61284 7.85117C9.39193 7.68549 9.34716 7.37209 9.51284 7.15117Z"/>
        <path fill-rule="evenodd" clip-rule="evenodd" d="M13.8861 3.43573C14.0597 3.22095 14.3745 3.18754 14.5893 3.36111C15.4303 4.04072 16.1086 4.89982 16.5746 5.87551C17.0405 6.85119 17.2824 7.91875 17.2824 9C17.2824 10.0812 17.0405 11.1488 16.5746 12.1245C16.1086 13.1002 15.4303 13.9593 14.5893 14.6389C14.3745 14.8125 14.0597 14.779 13.8861 14.5643C13.7126 14.3495 13.746 14.0347 13.9608 13.8611C14.6857 13.2752 15.2705 12.5346 15.6722 11.6935C16.0739 10.8524 16.2824 9.93211 16.2824 9C16.2824 8.06789 16.0739 7.14758 15.6722 6.30647C15.2705 5.46536 14.6857 4.72476 13.9608 4.13889C13.746 3.96532 13.7126 3.65051 13.8861 3.43573Z"/>
        <path fill-rule="evenodd" clip-rule="evenodd" d="M6.69008 3.55494C6.66743 3.54739 6.64283 3.54819 6.62073 3.55719C6.59863 3.5662 6.58047 3.58281 6.56954 3.60403C6.55537 3.63155 6.53868 3.6577 6.51968 3.68213L3.89468 7.05713C3.79995 7.17893 3.6543 7.25016 3.5 7.25016H2C1.9337 7.25016 1.87011 7.2765 1.82322 7.32339C1.77634 7.37027 1.75 7.43386 1.75 7.50016V10.5002C1.75 10.5665 1.77634 10.6301 1.82322 10.6769C1.87011 10.7238 1.9337 10.7502 2 10.7502H3.5C3.6543 10.7502 3.79995 10.8214 3.89468 10.9432L6.51968 14.3182C6.53868 14.3426 6.55537 14.3688 6.56954 14.3963C6.58047 14.4175 6.59863 14.4341 6.62073 14.4431C6.64283 14.4521 6.66743 14.4529 6.69008 14.4454C6.71272 14.4378 6.73192 14.4224 6.7442 14.402C6.75648 14.3815 6.76104 14.3573 6.75704 14.3338C6.75236 14.3062 6.75 14.2782 6.75 14.2502V3.75016C6.75 3.72214 6.75236 3.69416 6.75704 3.66653C6.76104 3.643 6.75648 3.61881 6.7442 3.59835C6.73192 3.57788 6.71272 3.56248 6.69008 3.55494ZM6.2435 2.63107C6.48666 2.53203 6.75722 2.52323 7.0063 2.60625C7.25538 2.68928 7.46655 2.85866 7.60165 3.08379C7.72843 3.29505 7.78038 3.54234 7.75 3.78591V14.2144C7.78038 14.458 7.72843 14.7053 7.60165 14.9165C7.46655 15.1417 7.25538 15.311 7.0063 15.3941C6.75722 15.4771 6.48666 15.4683 6.2435 15.3693C6.01689 15.2769 5.82801 15.1119 5.70608 14.901L3.25546 11.7502H2C1.66848 11.7502 1.35054 11.6185 1.11612 11.384C0.881696 11.1496 0.75 10.8317 0.75 10.5002V7.50016C0.75 7.16864 0.881696 6.8507 1.11612 6.61628C1.35054 6.38186 1.66848 6.25016 2 6.25016H3.25546L5.70608 3.09937C5.82801 2.88838 6.01689 2.72338 6.2435 2.63107Z"/>
    </g>
</svg>
