<svg width="18" height="18" viewBox="0 0 18 18" xmlns="http://www.w3.org/2000/svg">
    <g>
        <path fill-rule="evenodd" clip-rule="evenodd" d="M12.4329 7.09107C12.6317 6.82598 13.0078 6.77225 13.2729 6.97107C13.5878 7.2073 13.8435 7.51361 14.0195 7.86575C14.1956 8.2179 14.2873 8.6062 14.2873 8.9999C14.2873 9.39361 14.1956 9.78191 14.0195 10.1341C13.8435 10.4862 13.5878 10.7925 13.2729 11.0287C13.0078 11.2276 12.6317 11.1738 12.4329 10.9087C12.234 10.6436 12.2878 10.2676 12.5529 10.0687C12.7188 9.94428 12.8535 9.78291 12.9462 9.5974C13.039 9.41188 13.0873 9.20732 13.0873 8.9999C13.0873 8.79249 13.039 8.58793 12.9462 8.40241C12.8535 8.21689 12.7188 8.05552 12.5529 7.93107C12.2878 7.73225 12.234 7.35617 12.4329 7.09107Z"/>
        <path fill-rule="evenodd" clip-rule="evenodd" d="M9.20581 2.53836C9.47107 2.43032 9.76623 2.42071 10.038 2.51129C10.3097 2.60186 10.54 2.78664 10.6874 3.03223C10.8246 3.26089 10.8815 3.52821 10.85 3.7919V14.2082C10.8815 14.4719 10.8246 14.7392 10.6874 14.9679C10.54 15.2135 10.3097 15.3983 10.038 15.4888C9.76623 15.5794 9.47107 15.5698 9.20581 15.4618C8.96076 15.362 8.75616 15.1842 8.62304 14.957L6.20657 11.8501H5.00002C4.64198 11.8501 4.2986 11.7078 4.04543 11.4547C3.79226 11.2015 3.65002 10.8581 3.65002 10.5001V7.50006C3.65002 7.14202 3.79226 6.79865 4.04543 6.54547C4.2986 6.2923 4.64198 6.15007 5.00002 6.15007H6.20657L8.62304 3.04317C8.75616 2.81591 8.96076 2.63817 9.20581 2.53836ZM9.59864 3.74343L6.97364 7.11843C6.85996 7.26458 6.68518 7.35006 6.50002 7.35006H5.00002C4.96024 7.35006 4.92209 7.36587 4.89396 7.394C4.86583 7.42213 4.85002 7.46028 4.85002 7.50006V10.5001C4.85002 10.5398 4.86583 10.578 4.89396 10.6061C4.92209 10.6343 4.96024 10.6501 5.00002 10.6501H6.50002C6.68518 10.6501 6.85996 10.7355 6.97364 10.8817L9.59864 14.2567C9.62144 14.286 9.64147 14.3174 9.65848 14.3504C9.65285 14.3173 9.65002 14.2837 9.65002 14.2501V3.75007C9.65002 3.71643 9.65285 3.68286 9.65848 3.64971C9.64147 3.68273 9.62144 3.71411 9.59864 3.74343Z"/>
    </g>
</svg>
