<svg width="60" height="60" viewBox="0 0 60 60" xmlns="http://www.w3.org/2000/svg">
    <path fill-rule="evenodd" clip-rule="evenodd"
          d="M4.8999 29.9994C4.8999 16.2724 16.274 4.89941 29.9744 4.89941C43.702 4.89941 55.0999 16.2741 55.0999 29.9994C55.0999 43.701 43.7258 55.0994 29.9999 55.0994C16.2989 55.0994 4.8999 43.7004 4.8999 29.9994ZM29.9744 7.43275C17.4432 7.43275 7.45873 17.4738 7.45873 29.9994C7.45873 42.5265 17.4701 52.5661 29.9999 52.5661C42.5283 52.5661 52.5666 42.5278 52.5666 29.9994C52.5666 17.4696 42.5015 7.43275 29.9744 7.43275Z"/>
    <path
        d="M29.9753 34.4116C28.7498 34.4116 28.0635 33.7253 28.039 32.4753L27.7204 19.5096C27.6959 18.2596 28.6273 17.3527 29.9508 17.3527C31.2498 17.3527 32.2302 18.2841 32.2057 19.5341L31.838 32.4753C31.8135 33.7498 31.1273 34.4116 29.9753 34.4116ZM29.9753 42.3773C28.5537 42.3773 27.3282 41.2253 27.3282 39.8282C27.3282 38.4312 28.5292 37.2792 29.9753 37.2792C31.3969 37.2792 32.5978 38.4067 32.5978 39.8282C32.5978 41.2498 31.3724 42.3773 29.9753 42.3773Z"/>
</svg>
