<svg width="36" height="36" viewBox="0 0 36 36" fill="none" xmlns="http://www.w3.org/2000/svg">
    <path d="M18 0C8.05748 0 0 8.05748 0 18C0 23.3646 2.34567 28.1835 6.07323 31.4858C9.25512 34.2921 13.4291 36 18 36C22.578 36 26.752 34.2921 29.9268 31.4787C33.6543 28.1835 36 23.3646 36 18C36 8.05748 27.9425 0 18 0Z" fill="url(#paint0_linear_12177_3673)"/>
    <path d="M18 28.0557C12.2886 28.0557 7.54102 23.3081 7.54102 17.5967C7.54102 11.875 12.2783 7.1377 17.9897 7.1377C23.7114 7.1377 28.459 11.875 28.459 17.5967C28.459 23.3081 23.7217 28.0557 18 28.0557ZM18 26.3125C22.8398 26.3125 26.7158 22.4365 26.7158 17.5967C26.7158 12.7568 22.8296 8.88086 17.9897 8.88086C13.1499 8.88086 9.29443 12.7568 9.29443 17.5967C9.29443 22.4365 13.1602 26.3125 18 26.3125ZM17.9897 19.4424C17.4771 19.4424 17.1899 19.1553 17.1797 18.6323L17.0464 13.208C17.0361 12.6851 17.4258 12.3057 17.9795 12.3057C18.5229 12.3057 18.9331 12.6953 18.9229 13.2183L18.769 18.6323C18.7588 19.1655 18.4717 19.4424 17.9897 19.4424ZM17.9897 22.7749C17.395 22.7749 16.8823 22.293 16.8823 21.7085C16.8823 21.124 17.3848 20.6421 17.9897 20.6421C18.5845 20.6421 19.0869 21.1138 19.0869 21.7085C19.0869 22.3032 18.5742 22.7749 17.9897 22.7749Z" fill="white"/>
    <defs>
        <linearGradient id="paint0_linear_12177_3673" x1="0.96873" y1="0" x2="0.96873" y2="34.0625" gradientUnits="userSpaceOnUse">
            <stop stop-color="#F69D59"/>
            <stop offset="0.0001" stop-color="#F69D59"/>
            <stop offset="1" stop-color="#EB5D2C"/>
        </linearGradient>
    </defs>
</svg>
