<svg width="36" height="36" viewBox="0 0 36 36" fill="none" xmlns="http://www.w3.org/2000/svg">
    <circle cx="18" cy="18" r="18" fill="url(#paint0_linear_14522_22980)"/>
    <path fill-rule="evenodd" clip-rule="evenodd"
          d="M18.3924 6.73538C18.1224 6.62356 17.8331 6.56601 17.5409 6.56601C17.1748 6.58831 16.9893 6.63258 16.6462 6.75382C16.3933 6.8649 16.1631 7.02217 15.9676 7.2177C15.761 7.42431 15.5971 7.66959 15.4853 7.93954C15.3735 8.20949 15.3159 8.49882 15.3159 8.79101V8.98413C15.0021 8.82127 14.651 8.73398 14.2909 8.73398C13.7008 8.73398 13.1349 8.9684 12.7176 9.38567C12.3003 9.80293 12.0659 10.3689 12.0659 10.959V17.634L11.4985 17.0666C11.0849 16.6534 10.5448 16.3901 9.96457 16.3188C9.38431 16.2475 8.79687 16.3722 8.29556 16.673C7.79866 16.971 7.43759 17.451 7.28913 18.0111C7.14502 18.5547 7.21227 19.1321 7.47611 19.6273L7.52386 19.7134C9.53807 23.2934 10.7294 25.3714 11.0803 25.9102C11.1514 26.0196 11.223 26.1293 11.2947 26.2383C11.9414 27.2203 12.8219 28.0264 13.857 28.584C14.7988 29.0914 15.8418 29.3787 16.9078 29.4263C16.9379 29.4309 16.9687 29.4333 17.0001 29.4333H17.2255H19.1668C21.0498 29.4333 22.8557 28.6853 24.1872 27.3538C25.5187 26.0223 26.2668 24.2164 26.2668 22.3333V13.125C26.2668 12.5349 26.0323 11.9689 25.6151 11.5517C25.1978 11.1344 24.6319 10.9 24.0418 10.9C23.6813 10.9 23.3299 10.9874 23.0159 11.1506V10.959C23.0159 10.3689 22.7815 9.80293 22.3642 9.38567C21.947 8.9684 21.381 8.73398 20.7909 8.73398C20.4308 8.73398 20.0797 8.82127 19.7659 8.98413V8.79101C19.7659 8.49882 19.7084 8.20949 19.5965 7.93954C19.4847 7.66959 19.3208 7.42431 19.1142 7.2177C18.9076 7.01109 18.6623 6.84719 18.3924 6.73538ZM17.1487 7.84403C17.0243 7.89554 16.9113 7.97105 16.8161 8.06623C16.721 8.16141 16.6455 8.2744 16.5939 8.39876C16.5424 8.52312 16.5159 8.6564 16.5159 8.79101V10.9577V11V18.0006C16.5159 18.332 16.2473 18.6006 15.9159 18.6006C15.5845 18.6006 15.3159 18.332 15.3159 18.0006V10.959C15.3159 10.6871 15.2079 10.4264 15.0157 10.2342C14.8235 10.042 14.5628 9.93398 14.2909 9.93398C14.0191 9.93398 13.7584 10.042 13.5661 10.2342C13.3739 10.4264 13.2659 10.6871 13.2659 10.959V19.0513C13.2746 19.2153 13.2163 19.3823 13.091 19.5076C13.0651 19.5335 13.0374 19.5566 13.0083 19.5768C12.9112 19.6443 12.7932 19.684 12.6659 19.684C12.4874 19.684 12.327 19.606 12.2171 19.4822L10.6502 17.9153C10.4259 17.6912 10.1331 17.5485 9.81831 17.5099C9.50355 17.4712 9.18472 17.5389 8.91279 17.7021C8.68384 17.8394 8.51747 18.0605 8.44907 18.3186C8.38067 18.5766 8.41564 18.8512 8.54653 19.0838C10.5887 22.7138 11.7623 24.7586 12.0866 25.2565C12.1565 25.3641 12.2264 25.471 12.2969 25.5783C12.8343 26.3944 13.5659 27.0642 14.4262 27.5276C15.2684 27.9813 16.2081 28.2233 17.1641 28.233L17.2969 28.2333H19.1668C20.7315 28.2333 22.2322 27.6117 23.3387 26.5053C24.4452 25.3988 25.0668 23.8981 25.0668 22.3333V13.125C25.0668 12.8531 24.9588 12.5924 24.7666 12.4002C24.5743 12.208 24.3136 12.1 24.0418 12.1C23.7699 12.1 23.5092 12.208 23.317 12.4002C23.1248 12.5924 23.0168 12.8531 23.0168 13.125C23.0168 13.1358 23.0165 13.1465 23.0159 13.1572V18.0006C23.0159 18.332 22.7473 18.6006 22.4159 18.6006C22.0845 18.6006 21.8159 18.332 21.8159 18.0006V10.959C21.8159 10.6871 21.7079 10.4264 21.5157 10.2342C21.3235 10.042 21.0628 9.93398 20.7909 9.93398C20.5191 9.93398 20.2584 10.042 20.0661 10.2342C19.8739 10.4264 19.7659 10.6871 19.7659 10.959V17.9993C19.7659 18.3307 19.4973 18.5993 19.1659 18.5993C18.8345 18.5993 18.5659 18.3307 18.5659 17.9993V8.79101C18.5659 8.6564 18.5394 8.52312 18.4879 8.39876C18.4364 8.2744 18.3609 8.16141 18.2657 8.06623C18.1705 7.97105 18.0575 7.89554 17.9332 7.84403C17.8214 7.79775 17.7025 7.77165 17.5818 7.76683H17.5C17.3794 7.77165 17.2604 7.79775 17.1487 7.84403Z"
          fill="white"/>
    <defs>
        <linearGradient id="paint0_linear_14522_22980" x1="0.96873" y1="0" x2="0.96873" y2="34.0625"
                        gradientUnits="userSpaceOnUse">
            <stop stop-color="#F69D59"/>
            <stop offset="0.0001" stop-color="#F69D59"/>
            <stop offset="1" stop-color="#EB5D2C"/>
        </linearGradient>
    </defs>
</svg>
