<svg width="203" height="203" viewBox="0 0 203 203" fill="none" xmlns="http://www.w3.org/2000/svg">
    <circle cx="101.5" cy="101.5" r="101.5" fill="#272727"/>
    <g opacity="0.8">
        <path d="M134.811 62.6087C136.243 61.1773 138.564 61.1773 139.996 62.6087C141.428 64.0406 141.428 66.3623 139.996 67.7943L124.6 83.1907L117.266 90.5237L80.6003 127.191L73.2664 134.524L67.4001 140.391C65.9683 141.823 63.6465 141.823 62.2146 140.391C60.7827 138.959 60.7827 136.637 62.2146 135.205L63.6697 133.75C58.5763 131.92 54.9335 127.048 54.9333 121.325V81.7239C54.9335 74.4339 60.8435 68.5237 68.1335 68.5237H111.4C116.146 68.5238 120.306 71.0284 122.633 74.7874L134.811 62.6087ZM144.033 75.4905C146.058 75.4905 147.7 77.1326 147.7 79.1575V123.981C147.7 130.123 140.6 133.544 135.797 129.716L124.6 120.793V121.325C124.6 128.615 118.69 134.525 111.4 134.525H90.8669C88.8419 134.525 87.2 132.883 87.2 130.858C87.2 128.833 88.8419 127.191 90.8669 127.191H111.4C114.64 127.191 117.266 124.564 117.266 121.325V105.191C117.267 103.166 118.908 101.525 120.933 101.525C122.958 101.525 124.6 103.166 124.6 105.191V111.417L140.367 123.981V79.1575C140.367 77.1327 142.008 75.4908 144.033 75.4905ZM68.1335 75.8577C64.8936 75.8577 62.2665 78.484 62.2664 81.7239V121.325C62.2665 124.564 64.8936 127.191 68.1335 127.191H70.2292L117.098 80.3216C116.47 77.7588 114.157 75.8578 111.4 75.8577H68.1335Z" fill="white"/>
    </g>
</svg>
