<svg width="202" height="202" viewBox="0 0 202 202" fill="none" xmlns="http://www.w3.org/2000/svg">
    <circle cx="101" cy="101" r="101" fill="#1E1E1E"/>
    <g opacity="0.8">
        <path fill-rule="evenodd" clip-rule="evenodd" d="M62.0394 134.425C60.6193 135.845 60.6193 138.147 62.0394 139.567C63.4595 140.987 65.7619 140.987 67.182 139.567L73.0001 133.749L80.2728 126.476L116.637 90.1127L123.909 82.84L139.178 67.5709C140.598 66.1509 140.598 63.8484 139.178 62.4283C137.758 61.0083 135.456 61.0083 134.036 62.4283L121.958 74.5061C119.651 70.7781 115.525 68.2946 110.818 68.2946H67.9093C60.6794 68.2946 54.8184 74.1556 54.8184 81.3855V120.658C54.8184 126.334 58.431 131.167 63.4824 132.982L62.0394 134.425ZM69.9876 126.476L116.469 79.9948C115.846 77.4531 113.552 75.5673 110.818 75.5673H67.9093C64.696 75.5673 62.0911 78.1722 62.0911 81.3855V120.658C62.0911 123.872 64.696 126.476 67.9093 126.476H69.9876ZM143.182 75.2038C145.19 75.2038 146.818 76.8319 146.818 78.8402V123.293C146.818 129.385 139.777 132.777 135.013 128.98L123.909 120.132V120.658C123.909 127.888 118.048 133.749 110.818 133.749H90.4547C88.4464 133.749 86.8184 132.121 86.8184 130.113C86.8184 128.105 88.4464 126.477 90.4547 126.477H110.818C114.032 126.477 116.637 123.872 116.637 120.658V104.658C116.637 102.65 118.265 101.022 120.273 101.022C122.281 101.022 123.909 102.65 123.909 104.658V110.833L139.546 123.293V78.8402C139.546 76.8319 141.174 75.2038 143.182 75.2038Z" fill="white"/>
    </g>
</svg>
