<svg width="27" height="22" viewBox="0 0 27 22" fill="none" xmlns="http://www.w3.org/2000/svg">
    <path d="M11.8658 17.927L11.8619 17.9828L11.8984 17.8467L11.8658 17.927Z" fill="white" fill-opacity="0.2"/>
    <path d="M12.2209 17.888C12.1334 17.5964 12.0808 17.9547 12.0062 17.8612L12.0101 17.8056L12.0192 18.0593C12.0519 17.9792 12.1463 17.7945 12.2209 17.888Z" fill="white" fill-opacity="0.2"/>
    <path d="M12.5055 18.4856C12.4594 18.3671 12.5132 18.3739 12.4517 18.4788C12.4805 18.4543 12.4805 18.4543 12.5055 18.4856C12.4805 18.4543 12.4805 18.4543 12.5055 18.4856Z" fill="white" fill-opacity="0.2"/>
    <path d="M12.4795 18.4541C12.4503 18.4789 12.5 18.5413 12.4795 18.4541V18.4541Z" fill="white" fill-opacity="0.2"/>
    <path d="M12.6201 18.3877L12.5873 18.4679C12.6082 18.5548 12.6371 18.5303 12.6331 18.586C12.6908 18.537 12.6948 18.4813 12.6201 18.3877Z" fill="white" fill-opacity="0.2"/>
    <path d="M12.6357 18.165L12.6315 18.2212C12.6315 18.2212 12.6565 18.2526 12.6357 18.165Z" fill="white" fill-opacity="0.2"/>
    <path d="M12.5994 18.3013L12.6321 18.2209C12.6071 18.1896 12.6148 18.0779 12.6033 18.2454C12.5821 18.1582 12.6033 18.2454 12.5994 18.3013Z" fill="white" fill-opacity="0.2"/>
    <path d="M12.5453 18.2939C12.4955 18.2315 12.4706 18.2003 12.4785 18.0889C12.4208 18.1379 12.4626 18.3117 12.5453 18.2939Z" fill="white" fill-opacity="0.2"/>
    <path d="M12.1867 17.6027L12.1367 17.54L12.129 17.6518C12.1079 17.5645 12.2079 17.69 12.1867 17.6027Z" fill="white" fill-opacity="0.2"/>
    <path d="M12.9677 18.46C12.9717 18.4043 12.9258 18.2861 12.876 18.2236L12.8431 18.3039C12.8929 18.3664 12.9467 18.3731 12.9677 18.46Z" fill="white" fill-opacity="0.2"/>
    <path d="M12.9001 18.2558L12.9366 18.1197C12.8827 18.1129 12.8789 18.1687 12.9001 18.2558Z" fill="white" fill-opacity="0.2"/>
    <path d="M12.5766 17.8487L12.532 18.0957L12.6055 17.8242L12.5766 17.8487Z" fill="white" fill-opacity="0.2"/>
    <path d="M13.1865 18.4326L13.1746 18.5997L13.1904 18.377L13.1865 18.4326Z" fill="white" fill-opacity="0.2"/>
    <path d="M13.3222 18.422C13.3142 18.5334 13.3889 18.627 13.3849 18.6827C13.4138 18.6582 13.4217 18.5468 13.4545 18.4666C13.4257 18.4911 13.3719 18.4844 13.3222 18.422Z" fill="white" fill-opacity="0.2"/>
    <path d="M13.4658 18.2998C13.437 18.3243 13.4332 18.3801 13.4293 18.4359C13.4581 18.4114 13.462 18.3556 13.4658 18.2998Z" fill="white" fill-opacity="0.2"/>
    <path d="M13.0439 18.1338C13.0689 18.165 13.0894 18.2523 13.1144 18.2836L13.0439 18.1338Z" fill="white" fill-opacity="0.2"/>
    <path d="M12.7819 17.9874C12.7898 17.876 12.8515 17.7713 12.752 17.6465C12.744 17.7579 12.7649 17.8448 12.7819 17.9874Z" fill="white" fill-opacity="0.2"/>
    <path d="M12.9484 17.9523L12.8696 17.9141C12.8658 17.97 12.9158 18.0327 12.8869 18.0572L12.9484 17.9523Z" fill="white" fill-opacity="0.2"/>
    <path d="M12.9805 17.8721L12.9478 17.9524L13.0016 17.9592L12.9805 17.8721Z" fill="white" fill-opacity="0.2"/>
    <path d="M13.3127 18.1675C13.3165 18.1117 13.3454 18.0872 13.3742 18.0627C13.3492 18.0313 13.2954 18.0245 13.2665 18.049C13.2915 18.0803 13.2839 18.192 13.3127 18.1675Z" fill="white" fill-opacity="0.2"/>
    <path d="M13.6747 18.0178C13.679 17.9618 13.7039 17.993 13.6747 18.0178V18.0178Z" fill="white" fill-opacity="0.2"/>
    <path d="M13.2701 17.9934C13.2451 17.9621 13.2413 18.0179 13.2375 18.0737C13.2375 18.0737 13.2663 18.0493 13.2701 17.9934Z" fill="white" fill-opacity="0.2"/>
    <path d="M13.5283 18.1957C13.5032 18.1644 13.4782 18.133 13.4531 18.1016C13.474 18.1892 13.5241 18.252 13.5283 18.1957Z" fill="white" fill-opacity="0.2"/>
    <path d="M13.2306 18.1859C13.2594 18.1614 13.2344 18.1301 13.2383 18.0742C13.2094 18.0987 13.2094 18.0987 13.2056 18.1546C13.2056 18.1546 13.2056 18.1546 13.2306 18.1859Z" fill="white" fill-opacity="0.2"/>
    <path d="M13.5083 16.9005C13.5501 17.0743 13.5133 17.2102 13.4426 17.0609C13.4058 17.1969 13.5602 17.6938 13.6767 17.9612C13.6558 17.8743 13.6597 17.8186 13.6926 17.7384C13.6428 17.676 13.5144 17.5757 13.5263 17.4085C13.588 17.3038 13.6049 17.4464 13.6547 17.5088C13.5591 17.3283 13.6745 17.2303 13.5869 16.9384L13.5501 17.0743C13.5541 17.0186 13.5331 16.9317 13.5083 16.9005Z" fill="white" fill-opacity="0.2"/>
    <path d="M13.5428 17.9729C13.5677 18.0041 13.5887 18.091 13.6634 18.1846C13.6962 18.1044 13.7002 18.0487 13.6504 17.9862L13.5428 17.9729Z" fill="white" fill-opacity="0.2"/>
    <path d="M13.4307 18.0147C13.3889 17.8409 13.4506 17.7362 13.3799 17.5869C13.3222 17.6359 13.368 17.754 13.3352 17.8342C13.4466 17.7919 13.3272 17.9456 13.4307 18.0147C13.4019 18.0392 13.4019 18.0392 13.373 18.0637C13.3979 18.0949 13.4228 18.1261 13.4228 18.1261C13.3979 18.0949 13.3979 18.0949 13.3979 18.0949C13.4268 18.0704 13.4556 18.0459 13.4307 18.0147C13.4556 18.0459 13.4556 18.0459 13.4268 18.0704L13.4517 18.1016L13.5422 17.9724C13.5133 17.9969 13.4845 18.0214 13.4307 18.0147Z" fill="white" fill-opacity="0.2"/>
    <path d="M12.696 17.2747C12.721 17.3061 12.721 17.3061 12.696 17.2747C12.7252 17.2499 12.721 17.3061 12.696 17.2747Z" fill="white" fill-opacity="0.2"/>
    <path d="M12.7715 17.3681C12.7715 17.3681 12.7924 17.4551 12.7386 17.4484C12.7137 17.4172 12.7177 17.3614 12.7217 17.3057C12.7177 17.3614 12.6848 17.4417 12.7347 17.5041C12.7845 17.5666 12.8802 17.7472 12.9051 17.7785C12.8632 17.6045 12.8423 17.5175 12.7715 17.3681Z" fill="white" fill-opacity="0.2"/>
    <path d="M13.1028 17.6631L13.1644 17.5584L13.0938 17.4092L13.1147 17.4961C13.0609 17.4894 13.0818 17.5763 13.1028 17.6631Z" fill="white" fill-opacity="0.2"/>
    <path d="M13.725 18.0797L13.738 18.2779L13.7578 17.9995L13.725 18.0797Z" fill="white" fill-opacity="0.2"/>
    <path d="M13.8359 18.0371L13.8533 18.1802L13.861 18.0685L13.8359 18.0371Z" fill="white" fill-opacity="0.2"/>
    <path d="M19.3163 13.9623C19.3205 13.9061 19.2913 13.9309 19.3163 13.9623V13.9623Z" fill="white" fill-opacity="0.2"/>
    <path d="M19.1227 14.022L19.1435 14.1095C19.1477 14.0534 19.1769 14.0285 19.1227 14.022Z" fill="white" fill-opacity="0.2"/>
    <path d="M16.6846 17.1938C16.7843 17.3187 16.9046 17.531 16.8092 17.35L16.7388 17.2002C16.7344 17.2563 16.7095 17.225 16.6846 17.1938Z" fill="white" fill-opacity="0.2"/>
    <path d="M18.1284 15.4961L18.1035 15.4648C18.0995 15.5206 18.1493 15.583 18.1454 15.6387C18.1493 15.583 18.1244 15.5518 18.1284 15.4961Z" fill="white" fill-opacity="0.2"/>
    <path d="M20.118 13.335L20.0762 13.1611C20.0473 13.1857 20.0971 13.2481 20.118 13.335Z" fill="white" fill-opacity="0.2"/>
    <path d="M14.9981 17.681C15.0479 17.7434 15.1021 17.7498 15.1021 17.7498C15.0523 17.6873 14.9819 17.5376 14.9981 17.681Z" fill="white" fill-opacity="0.2"/>
    <path d="M20.0696 15.6315C20.0739 15.5753 20.0739 15.5753 20.0488 15.5439C20.0196 15.5688 20.0446 15.6002 20.0696 15.6315Z" fill="white" fill-opacity="0.2"/>
    <path d="M15.2389 17.7394L15.2139 17.708C15.185 17.7325 15.1812 17.7883 15.1562 17.757C15.2062 17.8197 15.2312 17.851 15.2389 17.7394Z" fill="white" fill-opacity="0.2"/>
    <path d="M14.0179 17.3591C14.0179 17.3591 14.0221 17.3029 13.9971 17.2715C14.0221 17.3029 14.0471 17.3342 14.0179 17.3591Z" fill="white" fill-opacity="0.2"/>
    <path d="M15.1239 16.6296C15.1283 16.5737 15.1531 16.6048 15.1239 16.6296V16.6296Z" fill="white" fill-opacity="0.2"/>
    <path d="M14.298 18.0118C14.273 17.9804 14.273 17.9804 14.298 18.0118C14.2688 18.0366 14.2688 18.0366 14.298 18.0118Z" fill="white" fill-opacity="0.2"/>
    <path d="M21.9286 13.0033C21.9328 12.9471 21.9036 12.9719 21.9286 13.0033V13.0033Z" fill="white" fill-opacity="0.2"/>
    <path d="M16.6533 15.2793L16.6241 15.3041L16.649 15.3353L16.6533 15.2793Z" fill="white" fill-opacity="0.2"/>
    <path d="M16.6895 15.1436C16.7274 15.3732 16.7024 15.342 16.6775 15.3108L16.8898 15.759L16.6895 15.1436Z" fill="white" fill-opacity="0.2"/>
    <path d="M19.6895 13.7017L19.5613 13.6016C19.4987 13.3415 19.602 13.4104 19.453 13.2237C19.6895 13.7017 19.2802 13.3704 19.5167 13.8484L19.4422 13.7551C19.4422 13.7551 19.4173 13.7239 19.471 13.7306C19.2683 13.5372 19.5793 14.1086 19.4721 14.0952C19.4184 14.0886 19.3687 14.0263 19.3479 13.9396L19.336 14.1063C19.3072 14.1308 19.2615 14.013 19.3151 14.0196L19.2287 14.093C19.2496 14.1797 19.2665 14.322 19.2913 14.3531C19.2417 14.2909 19.2953 14.2976 19.2456 14.2353L19.2625 14.3776C19.1632 14.2531 19.1463 14.1108 19.1999 14.1175C18.9098 13.6327 19.2168 14.2597 18.9357 14.0285L18.9685 13.9485C18.7985 13.675 18.8155 13.8173 18.6625 13.6861C18.737 13.7795 19.0142 14.0663 18.9774 14.2019C18.9526 14.1708 18.899 14.1641 18.9447 14.282C18.8493 14.1019 18.8453 14.1575 18.8165 14.1819L18.7251 13.9462C18.6923 14.0263 18.7917 14.1508 18.7838 14.2619C18.7301 14.2553 18.6347 14.0752 18.5354 13.9507C18.3705 13.9862 18.6477 14.2731 18.5613 14.3464C18.458 14.2775 18.4501 14.3887 18.4342 14.611C18.3558 14.5732 18.3637 14.462 18.314 14.3998L18.3518 14.6288L18.3021 14.5665C18.2942 14.6777 18.3935 14.8022 18.3608 14.8822C18.4771 15.1491 18.0588 14.5643 18.1174 14.88C18.0678 14.8177 18.0469 14.731 18.026 14.6443C18.0102 14.8667 18.0141 14.8111 18.048 15.0957L17.895 14.9645C18.0192 15.1201 18.057 15.3491 18.0699 15.547C18.1196 15.6093 18.1693 15.6715 18.1941 15.7027L18.1822 15.8694C18.1574 15.8383 18.1365 15.7516 18.0908 15.6337L18.0868 15.6893C18.0123 15.5959 17.9666 15.4781 17.9497 15.3358C17.9745 15.3669 18.0242 15.4292 18.049 15.4603C18.0073 15.2869 17.9367 15.1379 17.891 15.0201C17.9158 15.0512 17.887 15.0757 17.887 15.0757C17.8622 15.0445 17.8662 14.9889 17.8662 14.9889C17.8413 14.9578 17.8622 15.0445 17.887 15.0757L17.742 14.8333L17.7877 14.9511L17.6059 14.8444C17.6397 15.129 17.7441 15.5626 17.625 15.716C17.5584 15.5114 17.5127 15.3936 17.4212 15.1579C17.5663 15.4002 17.4868 14.9978 17.5652 15.0356C17.5116 15.0289 17.4659 14.9111 17.4698 14.8555L17.45 15.1334C17.3834 14.9289 17.3507 15.0089 17.301 14.9467C17.4918 15.3069 17.3348 15.2313 17.2981 15.3669C17.2524 15.249 17.2067 15.1312 17.2891 15.1134C17.0904 14.8644 17.3895 15.6026 17.2157 15.3847C17.2157 15.3847 17.2693 15.3913 17.2196 15.3291C17.2366 15.4714 17.1044 15.4269 17.0875 15.2846C16.9803 15.2713 16.7826 15.3869 16.8949 15.7093C16.8701 15.6781 16.7617 15.3001 16.7369 15.269L16.9795 16.4207C16.892 16.1295 16.585 15.5025 16.5969 15.3357C16.572 15.3046 16.4936 15.2668 16.4856 15.3779C16.5105 15.4091 16.6764 15.7381 16.6725 15.7937C16.5026 15.5202 16.5483 15.6381 16.3744 15.4202C16.4241 15.4824 16.5573 15.8916 16.5285 15.916C16.5076 15.8293 16.3704 15.4758 16.3456 15.4446L16.4212 15.9027C16.4003 15.8159 16.284 15.5491 16.2383 15.4313C16.288 15.4936 16.1559 15.4491 16.1519 15.5047L16.2264 15.598C16.0943 15.5536 16.3438 16.2295 16.2077 16.2406C16.1868 16.1539 16.0576 15.6892 15.9791 15.6514C16.0169 15.8804 16.2545 16.7231 16.185 16.9387L16.1393 16.8209L16.1274 16.9877C16.0439 16.6408 15.9593 15.9293 15.9255 15.6447C15.851 15.5513 15.855 15.4957 15.7974 15.5447C15.7516 15.4268 15.7556 15.3712 15.7844 15.3468L15.6562 15.2467C15.7477 15.4824 15.6364 15.5246 15.7279 15.7603L15.7765 15.4579C15.8679 15.6936 15.9395 16.2072 15.8323 16.1939C15.7577 16.1005 15.703 15.7292 15.6534 15.6669C15.6742 15.7537 15.6127 15.8581 15.5878 15.827L15.5709 15.6847C15.4676 15.6158 15.572 16.0494 15.4518 15.8381C15.4269 15.807 15.257 15.5335 15.3276 15.6825C15.4687 15.9804 15.7847 16.8609 15.8225 17.0899C15.7977 17.0588 15.595 16.8653 15.5245 16.7164C15.4042 16.5051 15.4032 16.1405 15.3078 15.9604C15.3286 16.0471 15.3495 16.1338 15.3207 16.1583C15.2711 16.096 15.2541 15.9537 15.2253 15.9782C15.288 16.2383 15.0893 15.9893 15.2631 16.2072C15.2304 16.2872 15.1847 16.1694 15.1271 16.2183C15.1976 16.3673 15.2484 16.7942 15.2404 16.9053C15.2196 16.8186 15.1699 16.7564 15.1738 16.7008C15.0378 16.7119 14.9633 16.6185 14.852 16.6607C14.8023 16.5985 14.7527 16.5362 14.7606 16.4251C14.7566 16.4806 14.7775 16.5674 14.7487 16.5918C14.6285 16.3806 14.8063 16.5429 14.69 16.2761C14.7318 16.4495 14.6742 16.4984 14.6663 16.6096C14.7577 16.8453 14.7735 16.6229 14.8063 16.5429C14.9186 16.8653 14.9197 17.2299 14.8542 17.39C14.7926 17.4945 14.7588 17.2099 14.73 17.2344C14.5691 17.2143 14.74 17.8525 14.5374 17.659C14.4172 17.4478 14.4042 17.2499 14.3873 17.1076C14.4488 17.0031 14.5154 17.2077 14.5979 17.1899L14.5233 17.0965C14.5273 17.0409 14.5601 16.9609 14.6097 17.0231C14.5144 16.843 14.3376 17.0454 14.131 16.9075C14.127 16.9631 14.1191 17.0742 14.14 17.161L14.1688 17.1365C14.2393 17.2855 14.1778 17.39 14.2274 17.4522C14.1907 17.5879 14.2037 17.7857 14.1004 17.7168L14.0089 17.4811C14.0298 17.5678 14.1083 17.6056 14.0874 17.5189C14.0795 17.6301 13.8927 17.2143 13.9225 17.5545L13.9931 17.7035C13.9564 17.8391 13.9654 18.0925 13.8869 18.0547C13.9783 18.2904 13.9157 18.0303 14.0071 18.266C13.8948 17.9436 14.172 18.2304 14.0348 17.8769C14.176 18.1748 14.163 17.9769 14.2793 18.2438C14.2584 18.157 14.2087 18.0948 14.2872 18.1326C14.2623 18.1015 14.2911 18.077 14.2911 18.077C14.2663 18.0459 14.2415 18.0147 14.2454 17.9592C14.2325 17.7613 14.3149 17.7435 14.3477 17.6635C14.3725 17.6946 14.3685 17.7502 14.3894 17.8369L14.4013 17.6701C14.4431 17.8436 14.5712 17.9436 14.5097 18.0481L14.5921 18.0303C14.6666 18.1237 14.7202 18.1304 14.753 18.0503C14.7778 18.0815 14.7688 17.828 14.7858 17.9703L14.8761 17.8414L14.901 17.8725C15.037 17.8614 15.0608 17.5279 15.2843 17.808C15.2883 17.7524 15.3459 17.7035 15.3995 17.7102L15.4701 17.8592C15.5028 17.7791 15.6519 17.9659 15.6101 17.7925C15.7721 18.1771 15.8535 17.7947 15.9856 17.8392L15.919 17.6346C15.9726 17.6413 16.0054 17.5613 16.0669 17.4568L16.0252 17.2834C16.0371 17.1166 16.2358 17.3656 16.3222 17.2923C16.343 17.379 16.3182 17.3479 16.2934 17.3167C16.5666 17.6591 16.4532 16.9721 16.6271 17.19C16.631 17.1344 16.6598 17.11 16.7095 17.1722C16.7383 17.1478 16.7671 17.1233 16.7711 17.0677L16.8665 17.2478C16.9161 17.3101 16.8456 17.1611 16.7999 17.0433C16.8038 16.9877 16.8038 16.9877 16.8078 16.9321C16.9489 17.2301 16.8445 16.7965 16.9856 17.0944C16.9439 16.921 17.1048 16.941 16.9925 16.6186C17.0173 16.6498 17.0421 16.6809 17.0133 16.7053C17.067 16.712 17.0918 16.7431 17.1246 16.6631L17.216 16.8988L17.1861 16.5586C17.2855 16.6831 17.3352 16.7454 17.3481 16.9433C17.3431 16.6342 17.3848 16.8076 17.3798 16.4986L17.4504 16.6476C17.4792 16.6231 17.4414 16.3941 17.5119 16.5431C17.7106 16.7921 17.8705 16.4475 18.1556 16.6231C17.9399 16.2318 18.3334 16.7855 18.1962 16.4319C18.242 16.5498 18.2956 16.5564 18.2877 16.6676C18.3244 16.532 18.4983 16.7499 18.4644 16.4653C18.5389 16.5587 18.5062 16.6387 18.531 16.6699C18.5062 16.6387 18.5101 16.5831 18.5598 16.6454C18.6095 16.7077 18.5807 16.7321 18.5767 16.7877C18.6631 16.7143 18.522 16.4164 18.4346 16.1251C18.5339 16.2496 18.5627 16.2252 18.4961 16.0206C18.5706 16.114 18.6203 16.1763 18.5875 16.2563C18.6412 16.263 18.8269 16.3141 18.7355 16.0784C18.7852 16.1407 18.7891 16.0851 18.7931 16.0295C18.8755 16.0117 18.9004 16.0429 18.958 15.994L18.9331 15.9628C18.639 15.5337 18.7881 15.7205 18.8457 15.6716L18.8705 15.7027C19.0771 15.8406 18.8784 15.5915 19.1099 15.7605L19.0145 15.5804C18.8525 15.1958 19.246 15.7494 19.233 15.5515L19.1585 15.4581C19.1416 15.3158 19.5062 15.8939 19.5847 15.9317C19.6095 15.9629 19.5807 15.9873 19.6056 16.0185C19.837 16.1875 19.5141 15.7828 19.5757 15.6783C19.6502 15.7717 19.688 16.0007 19.7705 15.9829C19.845 16.0763 19.7237 15.5004 19.9263 15.6939C19.8518 15.6005 19.8021 15.5382 19.8101 15.4271C19.8428 15.347 20.1409 15.7206 20.0286 15.3982C20.0534 15.4293 20.0534 15.4293 20.0782 15.4604C20.0862 15.3493 20.1726 15.2759 20.106 15.0713C20.4458 15.6183 20.2161 14.6645 20.5023 15.2048L20.6175 15.1069L20.6672 15.1692C20.7745 15.1825 20.7327 15.0091 20.687 14.8913C20.7118 14.9224 20.7367 14.9535 20.7327 15.0091C20.9184 15.0603 20.8936 15.0291 20.8637 14.689L20.9591 14.8691C20.9134 14.7512 21.2979 15.0514 21.2889 14.7979C21.3137 14.8291 21.3137 14.8291 21.3097 14.8846C21.3296 14.6067 21.8839 15.1804 21.6057 14.5289L21.5927 14.331C21.4566 14.3421 21.4516 14.0331 21.3483 13.9642C21.381 13.8841 21.5549 14.102 21.5509 14.1576L21.5261 14.1265C21.6921 14.4555 21.7407 14.1532 21.8321 14.3889C22.0585 14.2488 22.3515 14.3133 22.578 14.1732L22.4041 13.9553L22.4865 13.9375C22.5362 13.9998 22.6356 14.1243 22.5531 14.1421C22.6525 14.2666 22.565 13.9754 22.5153 13.9131C22.6763 13.9331 22.6564 14.211 22.6813 14.2422L22.7101 14.2177L22.6852 14.1866C22.6395 14.0687 22.5938 13.9509 22.6763 13.9331C22.7547 13.9709 22.8004 14.0888 22.8004 14.0888C22.8253 14.1199 22.8253 14.1199 22.8292 14.0643L22.9405 14.0221L22.7914 13.8353C22.7745 13.693 22.9027 13.7931 22.7 13.5996C22.9484 13.9109 23.1122 13.5107 23.2155 13.5796C23.1738 13.4062 23.2314 13.3573 23.3138 13.3395C23.289 13.3084 23.1151 13.0905 23.1975 13.0727C23.4628 13.5263 23.4329 13.1861 23.6813 13.4974C23.4787 13.3039 23.8005 13.344 23.5481 13.0883C23.6018 13.095 23.6435 13.2684 23.7468 13.3373C23.7378 13.0838 24.0766 13.2662 24.1669 13.1372C24.1173 13.075 24.0676 13.0127 24.0219 12.8949L24.2742 13.1506C24.2782 13.095 24.0834 12.7904 24.2613 12.9527C24.2364 12.9216 24.1619 12.8282 24.1619 12.8282C24.6158 12.9127 24.5561 12.2323 25.2087 12.5659C25.0806 12.4658 25.1094 12.4414 25.1382 12.4169C25.0846 12.4102 25.0388 12.2924 24.9643 12.199L25.2246 12.3435C25.0795 12.1012 25.3398 12.2457 25.2195 12.0345L25.2156 12.0901C25.0993 11.8233 24.7645 11.5853 24.5698 11.2807C24.7109 11.5787 24.1605 10.9494 24.3434 11.4208C24.2937 11.3585 24.2977 11.303 24.248 11.2407C24.3185 11.3897 24.3146 11.4453 24.2361 11.4074L24.2113 11.3763C24.0921 11.5297 23.9391 11.3985 23.7206 11.4274L23.8448 11.5831C23.7912 11.5764 23.7663 11.5453 23.7415 11.5141C23.8577 11.781 23.8527 11.4719 23.969 11.7387C23.7206 11.4274 23.7138 11.9032 23.4693 11.5364C23.4117 11.5853 23.5935 11.692 23.5359 11.7409L23.4614 11.6475L23.532 11.7965C23.4783 11.7898 23.4038 11.6964 23.3293 11.6031L23.3333 11.5475C23.2051 11.4474 23.2429 11.6764 23.2181 11.6453L23.2965 11.6831C23.2022 11.8676 22.9589 11.8654 22.9391 12.1433L22.9887 12.2056C22.9729 12.4279 22.8566 12.1611 22.7911 12.3212L22.7663 12.29C22.7872 12.3768 22.7832 12.4323 22.7544 12.4568C22.7335 12.3701 22.6014 12.3256 22.5845 12.1833C22.5686 12.4056 22.6014 12.3256 22.6849 12.6725L22.5856 12.5479C22.6313 12.6658 22.6522 12.7525 22.6194 12.8325C22.6025 12.6902 22.4704 12.6458 22.4286 12.4723C22.1187 12.2655 22.4009 12.8614 22.1028 12.4879C22.2648 12.8725 22.3383 12.6013 22.3303 12.7125C22.4048 12.8058 22.4178 13.0037 22.3642 12.9971C22.3354 13.0215 22.0413 12.5924 21.93 12.6346C21.93 12.6346 21.9052 12.6035 21.934 12.579C21.8307 12.5101 21.9221 12.7458 21.794 12.6457C21.8854 12.8814 21.7115 12.6635 21.8814 12.937L21.943 12.8325C21.9351 12.9437 22.0722 13.2972 21.8904 13.1905C21.8408 13.1282 21.8487 13.017 21.8238 12.9859C21.7742 12.9236 21.7911 13.0659 21.7414 13.0037C21.5715 12.7302 21.8318 12.8747 21.7403 12.6391C21.6658 12.5457 21.7493 12.8925 21.6082 12.5946C21.795 13.0104 21.4721 12.6057 21.5844 12.9281L21.4891 12.748C21.5139 12.7791 21.5348 12.8658 21.506 12.8903L21.4145 12.6546C21.4811 12.8592 21.2328 12.5479 21.2209 12.7146C21.3073 12.6413 21.3699 12.9014 21.4732 12.9703C21.4782 13.2794 21.1503 12.5656 21.056 12.7502C21.06 12.6946 21.1881 12.7947 21.209 12.8814C21.1554 12.8747 21.0769 12.8369 21.0024 12.7435C20.916 12.8169 21.1266 12.8992 21.1435 13.0414C20.9944 12.8547 21.1355 13.1526 21.1276 13.2638L21.0322 13.0837C20.8465 13.0325 21.1942 13.4683 21.0124 13.3616L20.921 13.1259L20.8882 13.206L20.7929 13.0259C20.8346 13.1993 20.781 13.1926 20.7025 13.1548C20.777 13.2482 20.8684 13.4839 20.8148 13.4772C20.7115 13.4083 20.7442 13.3282 20.6866 13.3772C20.6409 13.2593 20.5704 13.1103 20.6946 13.266C20.6449 13.2037 20.6489 13.1481 20.624 13.117C20.6319 13.0058 20.624 13.117 20.5952 13.1415L20.6489 13.1481L20.6827 13.4327C20.633 13.3705 20.637 13.3149 20.5873 13.2526C20.5585 13.2771 20.5794 13.3638 20.5754 13.4194C20.5049 13.2704 20.4343 13.1214 20.4383 13.0659L20.4224 13.2882C20.3727 13.2259 20.2694 13.157 20.2734 13.1014C20.1701 13.0325 20.2745 13.4661 20.1463 13.366C20.1712 13.3971 20.1424 13.4216 20.1672 13.4527C20.0848 13.4705 19.9318 13.3393 19.9696 13.5683L19.7709 13.3193C19.7381 13.3993 19.9944 13.5994 19.9289 13.7595C19.8922 13.8952 19.7799 13.5728 19.7302 13.5105C19.7471 13.6528 19.8346 13.9441 19.6567 13.7817C19.6607 13.7262 19.6855 13.7573 19.6895 13.7017ZM18.9486 14.2264C18.9238 14.1953 18.9069 14.053 18.9814 14.1463C19.048 14.3509 18.9735 14.2575 18.9486 14.2264ZM17.8752 15.2424C17.8543 15.1557 17.8791 15.1868 17.9288 15.2491C17.9288 15.2491 17.9 15.2735 17.8752 15.2424ZM14.5295 17.7702C14.6079 17.808 14.6079 17.808 14.5295 17.7702V17.7702ZM14.451 17.7324C14.4758 17.7635 14.447 17.788 14.4719 17.8191C14.4758 17.7635 14.4758 17.7635 14.5295 17.7702C14.4798 17.7079 14.4549 17.6768 14.451 17.7324ZM22.8084 13.9776L22.7835 13.9465C22.7626 13.8597 22.7835 13.9465 22.8084 13.9776Z" fill="white" fill-opacity="0.2"/>
    <path d="M14.072 18.1529L14.1047 18.0725C14.0759 18.097 14.0509 18.0656 14.0258 18.0343C14.0509 18.0656 14.1009 18.1284 14.072 18.1529Z" fill="white" fill-opacity="0.2"/>
    <path d="M13.331 17.1034L13.3233 17.215C13.3522 17.1905 13.3848 17.1102 13.331 17.1034Z" fill="white" fill-opacity="0.2"/>
    <path d="M13.8715 17.5365C13.8291 17.3621 13.7964 17.4424 13.7676 17.4669C13.835 17.6727 13.8388 17.6169 13.8715 17.5365Z" fill="white" fill-opacity="0.2"/>
    <path d="M13.7666 17.4678C13.7624 17.5239 13.7582 17.5801 13.7666 17.4678V17.4678Z" fill="white" fill-opacity="0.2"/>
    <path d="M14.3642 17.8515C14.3393 17.8203 14.4309 18.0564 14.3811 17.9941C14.423 18.1678 14.4298 17.6911 14.3642 17.8515Z" fill="white" fill-opacity="0.2"/>
    <path d="M13.7143 17.0392L13.785 17.1885L13.7681 17.0459L13.7143 17.0392Z" fill="white" fill-opacity="0.2"/>
    <path d="M14.0373 17.0803L13.9585 17.0421C13.9835 17.0734 13.9546 17.098 13.9546 17.098C14.0085 17.1048 14.0585 17.1675 14.0373 17.0803Z" fill="white" fill-opacity="0.2"/>
    <path d="M13.7754 16.935L13.8005 16.9664L13.8547 16.9729L13.7754 16.935Z" fill="white" fill-opacity="0.2"/>
    <path d="M14.6686 16.9648L14.7013 16.8844C14.6801 16.7972 14.6551 16.7658 14.6513 16.8217C14.6474 16.8775 14.6724 16.9089 14.6686 16.9648Z" fill="white" fill-opacity="0.2"/>
    <path d="M14.3475 16.5021C14.3724 16.5333 14.3973 16.5645 14.4183 16.6514L14.3555 16.3906L14.3475 16.5021Z" fill="white" fill-opacity="0.2"/>
    <path d="M14.4912 16.3797C14.4703 16.2928 14.5319 16.1881 14.4493 16.2059C14.4703 16.2928 14.4125 16.3418 14.4912 16.3797Z" fill="white" fill-opacity="0.2"/>
    <path d="M15.5205 16.3984L15.6541 16.8087L15.5205 16.3984Z" fill="white" fill-opacity="0.2"/>
    <path d="M16.0331 15.2285C15.9296 15.1594 16.0959 15.4893 15.9963 15.3644C16.0172 15.4514 16.0999 15.4335 16.0919 15.545C16.0999 15.4335 16.1248 15.4647 16.0331 15.2285Z" fill="white" fill-opacity="0.2"/>
    <path d="M16.0928 15.5449L16.0884 15.6009C16.0636 15.5697 16.0928 15.5449 16.0928 15.5449Z" fill="white" fill-opacity="0.2"/>
    <path d="M25.4888 12.4472L25.5928 12.516L25.4932 12.3911L25.4888 12.4472Z" fill="white" fill-opacity="0.2"/>
    <path d="M25.4004 12.1547L25.5749 12.3734L25.4546 12.1611C25.4546 12.1611 25.4503 12.2172 25.4004 12.1547Z" fill="white" fill-opacity="0.2"/>
    <path d="M18.5684 13.811L18.5934 13.8424C18.6435 13.9051 18.6435 13.9051 18.6728 13.8803L18.5684 13.811Z" fill="white" fill-opacity="0.2"/>
    <path d="M19.2539 13.7012L19.3742 13.9135L19.2539 13.7012Z" fill="white" fill-opacity="0.2"/>
    <path d="M19.6143 13.1855C19.5854 13.2101 19.6104 13.2414 19.5565 13.2346C19.5854 13.2101 19.7317 13.4541 19.6143 13.1855Z" fill="white" fill-opacity="0.2"/>
    <path d="M13.3028 4.7525L13.2555 4.77937L13.3857 4.7373L13.3028 4.7525Z" fill="white" fill-opacity="0.2"/>
    <path d="M13.5292 5.03744C13.7167 4.80411 13.3978 4.95242 13.4323 4.83742L13.4795 4.81076L13.2792 4.95574C13.3621 4.94075 13.5636 4.92244 13.5292 5.03744Z" fill="white" fill-opacity="0.2"/>
    <path d="M13.1989 5.60948C13.2694 5.50533 13.2936 5.55564 13.1747 5.55917C13.2105 5.57087 13.2105 5.57087 13.1989 5.60948C13.2105 5.57087 13.2105 5.57087 13.1989 5.60948Z" fill="white" fill-opacity="0.2"/>
    <path d="M13.2109 5.57129C13.1747 5.55943 13.1516 5.63632 13.2109 5.57129V5.57129Z" fill="white" fill-opacity="0.2"/>
    <path d="M13.3408 5.65625L13.2576 5.67129C13.1988 5.73651 13.2346 5.74822 13.1873 5.77497C13.2589 5.79839 13.3063 5.77164 13.3408 5.65625Z" fill="white" fill-opacity="0.2"/>
    <path d="M13.5303 5.54688L13.4824 5.57367C13.4824 5.57367 13.4708 5.61232 13.5303 5.54688Z" fill="white" fill-opacity="0.2"/>
    <path d="M13.3996 5.58927L13.4827 5.57405C13.4943 5.53544 13.589 5.4816 13.447 5.56236C13.5059 5.49682 13.447 5.56236 13.3996 5.58927Z" fill="white" fill-opacity="0.2"/>
    <path d="M13.3764 5.53918C13.3995 5.46218 13.411 5.42368 13.5059 5.37012C13.4341 5.34667 13.3162 5.47723 13.3764 5.53918Z" fill="white" fill-opacity="0.2"/>
    <path d="M13.7415 4.85173L13.7646 4.77441L13.6699 4.82831C13.7288 4.76271 13.6825 4.91734 13.7415 4.85173Z" fill="white" fill-opacity="0.2"/>
    <path d="M13.4718 5.99398C13.5194 5.96716 13.5901 5.86324 13.6133 5.78613L13.5297 5.80121C13.5065 5.87832 13.531 5.92861 13.4718 5.99398Z" fill="white" fill-opacity="0.2"/>
    <path d="M13.6015 5.82384L13.7318 5.78174C13.7076 5.73148 13.6603 5.75837 13.6015 5.82384Z" fill="white" fill-opacity="0.2"/>
    <path d="M13.7543 5.32329L13.5298 5.41829L13.79 5.33496L13.7543 5.32329Z" fill="white" fill-opacity="0.2"/>
    <path d="M13.6148 6.16832L13.473 6.24849L13.6621 6.1416L13.6148 6.16832Z" fill="white" fill-opacity="0.2"/>
    <path d="M13.6979 6.2803C13.6033 6.33379 13.5687 6.44913 13.5214 6.47587C13.5572 6.48757 13.6519 6.43409 13.735 6.41905C13.6992 6.40735 13.6749 6.3572 13.6979 6.2803Z" fill="white" fill-opacity="0.2"/>
    <path d="M13.876 6.33691C13.8403 6.32524 13.793 6.35211 13.7457 6.37898C13.7815 6.39065 13.8287 6.36378 13.876 6.33691Z" fill="white" fill-opacity="0.2"/>
    <path d="M13.7793 5.88184C13.7677 5.92041 13.708 5.98566 13.6964 6.02423L13.7793 5.88184Z" fill="white" fill-opacity="0.2"/>
    <path d="M13.7548 5.57596C13.8495 5.52245 13.9686 5.51911 14.0146 5.36523C13.9199 5.41875 13.861 5.48398 13.7548 5.57596Z" fill="white" fill-opacity="0.2"/>
    <path d="M13.8743 5.70028L13.8617 5.61135C13.8143 5.63827 13.7912 5.71551 13.7554 5.70381L13.8743 5.70028Z" fill="white" fill-opacity="0.2"/>
    <path d="M13.957 5.68457L13.8739 5.6998L13.8981 5.75011L13.957 5.68457Z" fill="white" fill-opacity="0.2"/>
    <path d="M13.8991 6.13249C13.9464 6.10558 13.9821 6.11727 14.0179 6.12896C14.0295 6.09036 14.0053 6.04007 13.9695 6.02838C13.9579 6.06698 13.8633 6.1208 13.8991 6.13249Z" fill="white" fill-opacity="0.2"/>
    <path d="M14.2188 6.36266C14.2664 6.33616 14.2549 6.37447 14.2188 6.36266V6.36266Z" fill="white" fill-opacity="0.2"/>
    <path d="M14.0167 6.00132C14.0282 5.96277 13.981 5.98964 13.9337 6.01652C13.9337 6.01652 13.9694 6.0282 14.0167 6.00132Z" fill="white" fill-opacity="0.2"/>
    <path d="M13.9943 6.33313C14.006 6.29435 14.0176 6.25558 14.0293 6.2168C13.9694 6.28246 13.9461 6.36001 13.9943 6.33313Z" fill="white" fill-opacity="0.2"/>
    <path d="M13.8389 6.07044C13.8747 6.08214 13.8863 6.04352 13.9336 6.0166C13.8978 6.00491 13.8978 6.0049 13.8505 6.03183C13.8505 6.03183 13.8505 6.03183 13.8389 6.07044Z" fill="white" fill-opacity="0.2"/>
    <path d="M15.0335 5.61133C14.9157 5.74183 14.785 5.78365 14.867 5.64143C14.7364 5.68325 14.4188 6.08646 14.2664 6.3324C14.3253 6.26716 14.3727 6.24039 14.4559 6.22534C14.4789 6.14837 14.4892 5.98273 14.6314 5.90243C14.7505 5.89909 14.6442 5.99111 14.6211 6.06807C14.7146 5.88738 14.858 5.93424 15.0463 5.70001L14.9157 5.74183C14.963 5.71506 15.022 5.64981 15.0335 5.61133Z" fill="white" fill-opacity="0.2"/>
    <path d="M14.1831 6.22459C14.1715 6.26311 14.1125 6.32841 14.0779 6.44396C14.1612 6.42889 14.2087 6.40211 14.2318 6.32508L14.1831 6.22459Z" fill="white" fill-opacity="0.2"/>
    <path d="M14.0885 6.14996C14.2063 6.01952 14.3253 6.01618 14.4072 5.87402C14.3356 5.8506 14.2652 5.95429 14.182 5.96934C14.278 6.04294 14.0873 6.02285 14.0885 6.14996C14.0527 6.13825 14.0527 6.13825 14.0169 6.12654C14.0053 6.16501 13.9938 6.20347 13.9938 6.20347C14.0053 6.16501 14.0053 6.16501 14.0053 6.16501C14.0412 6.17672 14.077 6.18843 14.0885 6.14996C14.077 6.18843 14.077 6.18843 14.0412 6.17672L14.0297 6.21519L14.1845 6.22356C14.1487 6.21185 14.1128 6.20014 14.0885 6.14996Z" fill="white" fill-opacity="0.2"/>
    <path d="M14.2856 5.11191C14.274 5.1506 14.274 5.1506 14.2856 5.11191C14.3219 5.12378 14.274 5.1506 14.2856 5.11191Z" fill="white" fill-opacity="0.2"/>
    <path d="M14.2513 5.22847C14.2513 5.22847 14.1921 5.29384 14.1677 5.24355C14.1793 5.205 14.2268 5.17818 14.2744 5.15137C14.2268 5.17818 14.1433 5.19326 14.1201 5.27037C14.097 5.34747 14.0031 5.5285 13.9915 5.56705C14.1098 5.43632 14.169 5.37095 14.2513 5.22847Z" fill="white" fill-opacity="0.2"/>
    <path d="M14.1937 5.67474L14.3127 5.6714L14.3945 5.5293L14.3357 5.5945C14.3114 5.54434 14.2525 5.60954 14.1937 5.67474Z" fill="white" fill-opacity="0.2"/>
    <path d="M14.1953 6.44081L14.0419 6.55939L14.2783 6.42578L14.1953 6.44081Z" fill="white" fill-opacity="0.2"/>
    <path d="M14.291 6.51367L14.1846 6.60628L14.2794 6.55235L14.291 6.51367Z" fill="white" fill-opacity="0.2"/>
    <path d="M20.5972 9.01495C20.6452 8.98813 20.6088 8.97626 20.5972 9.01495V9.01495Z" fill="white" fill-opacity="0.2"/>
    <path d="M20.442 8.87985L20.3825 8.94532C20.4304 8.91852 20.4667 8.93039 20.442 8.87985Z" fill="white" fill-opacity="0.2"/>
    <path d="M16.5337 8.50958C16.4873 8.66392 16.3811 8.88352 16.4757 8.7025L16.5587 8.56007C16.5105 8.58675 16.5221 8.54817 16.5337 8.50958Z" fill="white" fill-opacity="0.2"/>
    <path d="M18.7023 8.82758L18.7139 8.78906C18.6664 8.81585 18.6433 8.89288 18.5959 8.91967C18.6433 8.89288 18.6549 8.85437 18.7023 8.82758Z" fill="white" fill-opacity="0.2"/>
    <path d="M21.5451 9.36205L21.6631 9.23145C21.6272 9.21972 21.6041 9.29675 21.5451 9.36205Z" fill="white" fill-opacity="0.2"/>
    <path d="M15.2153 7.32067C15.1922 7.39779 15.2171 7.44824 15.2171 7.44824C15.2402 7.37113 15.3231 7.22878 15.2153 7.32067Z" fill="white" fill-opacity="0.2"/>
    <path d="M19.6543 10.5773C19.7023 10.5504 19.7023 10.5504 19.7139 10.5117C19.6775 10.4998 19.6659 10.5386 19.6543 10.5773Z" fill="white" fill-opacity="0.2"/>
    <path d="M15.3009 7.56109L15.3125 7.52246C15.2767 7.51076 15.2294 7.53769 15.2409 7.49906C15.2178 7.57631 15.2062 7.61494 15.3009 7.56109Z" fill="white" fill-opacity="0.2"/>
    <path d="M14.9404 6.29895C14.9404 6.29895 14.9884 6.27211 15 6.2334C14.9884 6.27211 14.9768 6.31082 14.9404 6.29895Z" fill="white" fill-opacity="0.2"/>
    <path d="M16.1387 6.85484C16.1863 6.82835 16.1748 6.86666 16.1387 6.85484V6.85484Z" fill="white" fill-opacity="0.2"/>
    <path d="M14.5646 6.8981C14.5761 6.85949 14.5761 6.85949 14.5646 6.8981C14.5283 6.88625 14.5283 6.88625 14.5646 6.8981Z" fill="white" fill-opacity="0.2"/>
    <path d="M22.8043 10.7444C22.8522 10.7176 22.8158 10.7058 22.8043 10.7444V10.7444Z" fill="white" fill-opacity="0.2"/>
    <path d="M18.0703 7.43555L18.0341 7.4237L18.0226 7.46211L18.0703 7.43555Z" fill="white" fill-opacity="0.2"/>
    <path d="M18.2002 7.39453C18.0345 7.55202 18.0461 7.51348 18.0576 7.47495L17.811 7.9022L18.2002 7.39453Z" fill="white" fill-opacity="0.2"/>
    <path d="M21.0104 9.20254L21.0206 9.03827C21.1963 8.84413 21.1976 8.97025 21.2663 8.74126C21.0104 9.20255 21.0525 8.67154 20.7966 9.13283L20.831 9.01834C20.831 9.01834 20.8424 8.98017 20.8666 9.02995C20.9112 8.75118 20.6209 9.32696 20.5726 9.2274C20.5484 9.17761 20.5713 9.10128 20.6299 9.03657L20.4886 9.11621C20.453 9.10459 20.523 9.00171 20.5471 9.0515L20.4402 9.01664C20.3817 9.08135 20.276 9.17261 20.2646 9.21077C20.2875 9.13444 20.3117 9.18423 20.3346 9.1079L20.2289 9.19915C20.2748 9.04649 20.3804 8.95524 20.4046 9.00502C20.6363 8.49395 20.299 9.09628 20.3308 8.72955L20.4135 8.71463C20.5409 8.42092 20.4352 8.51218 20.4569 8.30974C20.4225 8.42423 20.3435 8.8175 20.2137 8.85897C20.2252 8.82081 20.201 8.77102 20.131 8.8739C20.2239 8.69469 20.1768 8.72124 20.1412 8.70962L20.2812 8.50387C20.1985 8.5188 20.1526 8.67146 20.0584 8.72455C20.0343 8.67476 20.1272 8.49556 20.173 8.3429C20.0534 8.22009 19.9744 8.61336 19.8675 8.5785C19.8663 8.45239 19.7721 8.50548 19.5837 8.61167C19.571 8.52372 19.6652 8.47062 19.6881 8.39429L19.5239 8.55026L19.5468 8.47393C19.4526 8.52702 19.4068 8.67968 19.324 8.69461C19.1726 8.93853 19.4144 8.26318 19.1917 8.48385C19.2146 8.40752 19.2732 8.34281 19.3317 8.2781C19.1433 8.38429 19.1904 8.35774 18.9791 8.54025L19.0008 8.33781C18.9435 8.52863 18.7793 8.6846 18.6265 8.80241C18.6036 8.87874 18.5807 8.95507 18.5692 8.99323L18.428 9.07287C18.4394 9.03471 18.498 8.96999 18.568 8.86712L18.5209 8.89366C18.5553 8.77917 18.6253 8.67629 18.7309 8.58503C18.7195 8.6232 18.6965 8.69953 18.6851 8.7377C18.8022 8.60827 18.8837 8.46723 18.9537 8.36436C18.9422 8.40252 18.9066 8.3909 18.9066 8.3909C18.9181 8.35274 18.9651 8.32619 18.9651 8.32619C18.9766 8.28803 18.9181 8.35274 18.9066 8.3909L19.0224 8.13537L18.9524 8.23824L18.9384 8.02418C18.7271 8.20669 18.4344 8.53025 18.2447 8.51032C18.3733 8.34273 18.4433 8.23985 18.5833 8.0341C18.4675 8.28964 18.7488 8.00425 18.7615 8.0922C18.7373 8.04241 18.8074 7.93954 18.8545 7.91299L18.619 8.04572C18.7475 7.87813 18.6648 7.89306 18.6877 7.81673C18.5019 8.17514 18.4764 7.99924 18.3466 8.04072C18.4166 7.93784 18.4866 7.83496 18.5464 7.89637C18.6381 7.59105 18.2066 8.24647 18.2868 7.97931C18.2868 7.97931 18.311 8.0291 18.3339 7.95277C18.2282 8.04402 18.1913 7.90629 18.297 7.81503C18.2486 7.71546 18.0463 7.60759 17.8477 7.87805C17.8591 7.83988 18.1048 7.54287 18.1163 7.50471L17.3194 8.33433C17.5066 8.10204 17.8439 7.49971 17.9852 7.42007C17.9967 7.3819 17.9839 7.29395 17.8897 7.34704C17.8783 7.38521 17.7039 7.70546 17.6568 7.732C17.7841 7.4383 17.7141 7.54118 17.7943 7.27402C17.7714 7.35035 17.5142 7.68553 17.4786 7.67391C17.5372 7.6092 17.7472 7.30057 17.7586 7.2624L17.4302 7.57434C17.4888 7.50963 17.6403 7.26571 17.7103 7.16283C17.6874 7.23916 17.6505 7.10143 17.6034 7.12798L17.569 7.24247C17.5321 7.10474 17.1235 7.68383 17.0395 7.57264C17.098 7.50793 17.4023 7.14621 17.3896 7.05826C17.2254 7.21423 16.6754 7.87296 16.4629 7.92936L16.5329 7.82648L16.3916 7.90612C16.6258 7.64728 17.1541 7.19099 17.3654 7.00848C17.3998 6.89398 17.4469 6.86744 17.3756 6.8442C17.4456 6.74132 17.4927 6.71477 17.5283 6.72639L17.5385 6.56212C17.3985 6.76787 17.3031 6.69485 17.163 6.9006L17.4341 6.77949C17.2941 6.98524 16.9186 7.32372 16.8702 7.22415C16.9046 7.10966 17.1745 6.86243 17.1974 6.7861C17.1388 6.85081 17.0205 6.85412 17.0319 6.81596L17.1376 6.7247C17.1363 6.59858 16.8435 6.92214 16.9479 6.70477C16.9594 6.6666 17.0867 6.3729 17.0052 6.51394C16.8423 6.79602 16.3051 7.54271 16.1409 7.69867C16.1524 7.66051 16.1969 7.38173 16.2784 7.24069C16.3828 7.02332 16.6768 6.82588 16.7698 6.64667C16.7112 6.71138 16.6526 6.7761 16.617 6.76448C16.6399 6.68815 16.7456 6.59689 16.7099 6.58527C16.5343 6.7794 16.6259 6.47408 16.5457 6.74124C16.463 6.75616 16.533 6.65329 16.4617 6.63005C16.3803 6.77109 16.0633 7.04486 15.9691 7.09795C16.0277 7.03324 16.0506 6.95691 16.0977 6.93037C16.0137 6.81918 16.0481 6.70468 15.9526 6.63166C15.9755 6.55533 15.9985 6.479 16.0927 6.42591C16.0456 6.45246 15.987 6.51717 15.9514 6.50555C16.0558 6.28817 16.0226 6.52879 16.1741 6.28487C16.057 6.41429 15.9857 6.39105 15.8916 6.44414C15.7515 6.6499 15.9399 6.54371 16.0226 6.52878C15.8241 6.79925 15.53 6.99669 15.3646 7.02654C15.2462 7.02985 15.4575 6.84734 15.4219 6.83572C15.3493 6.68637 14.928 7.17751 14.9726 6.89873C15.0769 6.68136 15.2297 6.56356 15.3353 6.4723C15.4537 6.46899 15.3251 6.63658 15.385 6.69798L15.4193 6.58349C15.4664 6.55694 15.5492 6.54202 15.5262 6.61835C15.6192 6.43914 15.3583 6.39597 15.3557 6.14374C15.3086 6.17029 15.2144 6.22338 15.1559 6.28809L15.1915 6.29971C15.1101 6.44075 14.9917 6.44406 14.9688 6.52039C14.8389 6.56186 14.6862 6.67967 14.6849 6.55355L14.825 6.3478C14.7664 6.41251 14.7791 6.50046 14.8377 6.43575C14.7435 6.48884 14.9764 6.10388 14.718 6.31294L14.6366 6.45398C14.5068 6.49546 14.3069 6.6398 14.2942 6.55186C14.1542 6.75761 14.3298 6.56347 14.1898 6.76923C14.3884 6.49876 14.3094 6.89203 14.5195 6.58341C14.3565 6.86549 14.5093 6.74768 14.3578 6.9916C14.4163 6.92689 14.4393 6.85056 14.452 6.93851C14.4634 6.90035 14.4991 6.91196 14.4991 6.91196C14.5105 6.8738 14.522 6.83563 14.5691 6.80909C14.7218 6.69128 14.7816 6.75269 14.8644 6.73776C14.8529 6.77593 14.8058 6.80247 14.7473 6.86718L14.8886 6.78755C14.7714 6.91697 14.7612 7.08125 14.6429 7.08456L14.7027 7.14596C14.6683 7.26045 14.6925 7.31024 14.7752 7.29531C14.7638 7.33348 14.9636 7.18913 14.858 7.28038L15.012 7.2887L15.0005 7.32686C15.0845 7.43805 15.3671 7.27877 15.2639 7.62226C15.311 7.59571 15.3823 7.61895 15.4065 7.66874L15.325 7.80978C15.4078 7.79485 15.339 8.02384 15.4561 7.89442C15.2346 8.24121 15.5885 8.10517 15.6254 8.24291L15.7539 8.07532C15.7781 8.1251 15.8608 8.11018 15.9792 8.10687L16.0963 7.97745C16.2376 7.89781 16.1459 8.20313 16.2528 8.23799C16.1943 8.3027 16.2057 8.26453 16.2172 8.22637C16.0912 8.64619 16.5838 8.17828 16.5036 8.44544C16.5507 8.41889 16.5863 8.43051 16.5634 8.50684C16.599 8.51846 16.6347 8.53008 16.6817 8.50353L16.5888 8.68274C16.5659 8.75907 16.6474 8.61803 16.7174 8.51515C16.7645 8.48861 16.7645 8.48861 16.8116 8.46206C16.6486 8.74414 16.9414 8.42059 16.7785 8.70267C16.8956 8.57325 16.9681 8.7226 17.1667 8.45214C17.1552 8.4903 17.1438 8.52847 17.1081 8.51685C17.1323 8.56663 17.1208 8.6048 17.2036 8.58987L17.0636 8.79562L17.322 8.58656C17.2761 8.73922 17.2532 8.81555 17.1004 8.93336C17.3474 8.76246 17.2303 8.89188 17.4772 8.72099L17.3957 8.86203C17.4314 8.87365 17.5956 8.71768 17.5141 8.85872C17.4224 9.16404 17.789 9.11596 17.8042 9.45613C18.0016 9.05956 17.7711 9.69674 17.9812 9.38812C17.9112 9.49099 17.9353 9.54077 17.8411 9.59387C17.971 9.55239 17.8908 9.81955 18.1021 9.63704C18.0677 9.75153 17.985 9.76646 17.9735 9.80462C17.985 9.76646 18.032 9.73991 18.0091 9.81624C17.9862 9.89257 17.9506 9.88095 17.9035 9.9075C18.0104 9.94236 18.1733 9.66028 18.3605 9.42798C18.3146 9.58064 18.3503 9.59226 18.4788 9.42467C18.4445 9.53916 18.4215 9.61549 18.3388 9.63042C18.363 9.6802 18.4241 9.86772 18.5641 9.66197C18.5412 9.7383 18.5883 9.71175 18.6354 9.68521C18.6952 9.74661 18.6837 9.78478 18.755 9.80801L18.7664 9.76985C18.951 9.28532 18.8823 9.51431 18.9536 9.53755L18.9421 9.57572C18.9446 9.82795 19.0363 9.52263 19.0274 9.81302L19.1203 9.63381C19.3418 9.28702 19.1114 9.92421 19.2641 9.8064L19.2985 9.69191C19.4041 9.60065 19.1381 10.2262 19.1508 10.3142C19.1393 10.3523 19.1037 10.3407 19.0922 10.3789C19.0833 10.6693 19.2322 10.1731 19.3506 10.1698C19.3162 10.2843 19.152 10.4403 19.2119 10.5017C19.1775 10.6162 19.5759 10.2014 19.5313 10.4801C19.5657 10.3656 19.5886 10.2893 19.6828 10.2362C19.7655 10.2213 19.628 10.6793 19.8266 10.4088C19.8152 10.447 19.8152 10.447 19.8037 10.4851C19.8979 10.4321 20.0048 10.4669 20.1334 10.2993C19.8788 10.8867 20.5229 10.1749 20.2441 10.7125L20.3866 10.759L20.3637 10.8353C20.412 10.9349 20.5292 10.8055 20.5992 10.7026C20.5877 10.7408 20.5763 10.7789 20.5292 10.8055C20.5902 10.993 20.6017 10.9548 20.8601 10.7458L20.7672 10.925C20.8372 10.8221 20.8066 11.3149 21.0064 11.1706C20.995 11.2088 20.995 11.2088 20.9479 11.2353C21.1833 11.1026 21.0254 11.8891 21.3984 11.2984L21.5512 11.1806C21.4672 11.0694 21.7141 10.8985 21.7129 10.7724C21.7956 10.7575 21.7154 11.0246 21.6683 11.0512L21.6797 11.013C21.5053 11.3333 21.7764 11.2122 21.6364 11.4179C21.8744 11.5374 21.9838 11.8245 22.2218 11.944L22.3021 11.6768L22.3619 11.7382C22.339 11.8146 22.2931 11.9672 22.2333 11.9058C22.1875 12.0585 22.3746 11.8262 22.3975 11.7499C22.47 11.8992 22.2346 12.0319 22.2231 12.0701L22.2587 12.0817L22.2702 12.0436C22.3402 11.9407 22.4102 11.8378 22.47 11.8992C22.4828 11.9872 22.4128 12.09 22.4128 12.09C22.4013 12.1282 22.4013 12.1282 22.4484 12.1017L22.5438 12.1747L22.6126 11.9457C22.7182 11.8544 22.7081 12.0187 22.7526 11.7399C22.638 12.1216 23.0517 12.0469 23.053 12.1731C23.1701 12.0436 23.2413 12.0669 23.3012 12.1283C23.3126 12.0901 23.3928 11.823 23.4526 11.8844C23.2324 12.3573 23.4908 12.1482 23.3762 12.5299C23.4208 12.2511 23.5659 12.5498 23.6333 12.1947C23.6575 12.2445 23.5404 12.3739 23.5417 12.5C23.7415 12.3557 23.7809 12.7456 23.9349 12.7539C23.9579 12.6776 23.9808 12.6013 24.0508 12.4984L23.9833 12.8535C24.0304 12.827 24.1692 12.4951 24.136 12.7357C24.1475 12.6975 24.1819 12.583 24.1819 12.583C24.3638 13.0195 24.8806 12.6014 24.9709 13.3431C24.9811 13.1788 25.0168 13.1905 25.0524 13.2021C25.0282 13.1523 25.0982 13.0494 25.1326 12.9349L25.1593 13.2369C25.2752 12.9814 25.3019 13.2834 25.4063 13.066L25.3592 13.0926C25.5106 12.8487 25.5183 12.4322 25.6571 12.1003C25.4942 12.3824 25.6992 11.5693 25.4191 11.9808C25.442 11.9045 25.4891 11.8779 25.512 11.8016C25.4306 11.9426 25.3835 11.9692 25.3707 11.8812L25.3822 11.8431C25.1926 11.8231 25.2142 11.6207 25.0704 11.4481L25.0131 11.6389C24.9889 11.5891 25.0004 11.551 25.0118 11.5128C24.8604 11.7567 25.1073 11.5858 24.9558 11.8297C25.0704 11.4481 24.6822 11.6986 24.8439 11.2904C24.7726 11.2672 24.7866 11.4813 24.7153 11.458L24.7497 11.3435L24.6682 11.4846C24.644 11.4348 24.6784 11.3203 24.7128 11.2058L24.7599 11.1792C24.7701 11.015 24.6059 11.1709 24.6173 11.1328L24.63 11.2207C24.4289 11.2389 24.2966 11.0282 24.0611 11.1609L24.0382 11.2373C23.8498 11.3434 24.0013 11.0995 23.8358 11.1294L23.8473 11.0912C23.7887 11.1559 23.7416 11.1825 23.706 11.1708C23.7646 11.1061 23.7277 10.9684 23.8333 10.8771C23.6449 10.9833 23.7277 10.9684 23.4934 11.2272L23.5393 11.0746C23.4693 11.1775 23.4107 11.2422 23.328 11.2571C23.4336 11.1658 23.3967 11.0281 23.5138 10.8987C23.5101 10.5203 23.1842 11.0845 23.3217 10.6265C23.1002 10.9733 23.3598 10.8904 23.2656 10.9435C23.2313 11.058 23.0785 11.1758 23.0543 11.126C23.0187 11.1144 23.2033 10.6298 23.1079 10.5568C23.1079 10.5568 23.1193 10.5186 23.1549 10.5303C23.1537 10.4042 23.0137 10.6099 23.0239 10.4456C22.8838 10.6514 22.964 10.3842 22.8367 10.6779L22.9551 10.6746C22.8609 10.7277 22.6509 11.0363 22.6369 10.8223C22.6598 10.7459 22.754 10.6928 22.7655 10.6547C22.7884 10.5784 22.6827 10.6696 22.7056 10.5933C22.833 10.2996 22.8597 10.6016 22.9997 10.3958C23.0341 10.2813 22.7998 10.5402 22.9628 10.2581C22.7298 10.6431 22.8788 10.1469 22.6802 10.4174L22.7731 10.2382C22.7617 10.2763 22.7031 10.3411 22.6675 10.3294L22.8075 10.1237C22.6789 10.2913 22.7935 9.90962 22.6523 9.98925C22.7592 10.0241 22.5835 10.2182 22.5848 10.3444C22.3378 10.5153 22.7337 9.84821 22.5326 9.86645C22.5797 9.8399 22.5695 10.0042 22.511 10.0689C22.4868 10.0191 22.4741 9.93116 22.5084 9.81666C22.4015 9.78181 22.4512 10.0075 22.3455 10.0987C22.4143 9.86976 22.2513 10.1518 22.1571 10.2049L22.25 10.0257C22.189 9.83821 22.0285 10.3725 22.0146 10.1585L22.1546 9.9527L22.0719 9.96763L22.1648 9.78842C22.0477 9.91784 22.0235 9.86806 22.0108 9.78011C21.9764 9.8946 21.8364 10.1004 21.8122 10.0506C21.8109 9.92446 21.8937 9.90953 21.8224 9.88629C21.8924 9.78342 21.9739 9.64238 21.9166 9.8332C21.9395 9.75687 21.9866 9.73033 21.9981 9.69216C22.0923 9.63907 21.9981 9.69216 21.9624 9.68054L21.9866 9.73033L21.7753 9.91284C21.7982 9.83651 21.8453 9.80996 21.8682 9.73363C21.8326 9.72201 21.774 9.78673 21.727 9.81327C21.8084 9.67223 21.8899 9.53119 21.937 9.50464L21.7486 9.61083C21.7715 9.5345 21.7703 9.40838 21.8174 9.38183C21.8161 9.25572 21.5233 9.57928 21.5335 9.415C21.5221 9.45316 21.4864 9.44154 21.475 9.47971C21.4152 9.41831 21.4368 9.21586 21.2726 9.37183L21.3643 9.06651C21.2815 9.08143 21.2612 9.40999 21.0957 9.43985C20.9659 9.48132 21.1644 9.21086 21.1874 9.13453C21.0817 9.22578 20.8946 9.45808 20.9277 9.21747C20.9748 9.19093 20.9633 9.22909 21.0104 9.20254ZM20.1781 8.84736C20.1895 8.80919 20.2952 8.71793 20.2608 8.83243C20.1322 9.00002 20.1666 8.88552 20.1781 8.84736ZM18.7653 8.47054C18.8239 8.40583 18.8124 8.44399 18.7895 8.52032C18.7895 8.52032 18.7538 8.5087 18.7653 8.47054ZM14.8784 6.95183C14.8911 7.03978 14.8911 7.03978 14.8784 6.95183V6.95183ZM14.8656 6.86388C14.8542 6.90204 14.8185 6.89042 14.8071 6.92859C14.8542 6.90204 14.8542 6.90204 14.8784 6.95183C14.9013 6.8755 14.9127 6.83733 14.8656 6.86388ZM22.5069 12.0369L22.5184 11.9988C22.577 11.9341 22.5184 11.9988 22.5069 12.0369Z" fill="white" fill-opacity="0.2"/>
    <path d="M14.3271 6.77913L14.4104 6.76388C14.3746 6.75217 14.3862 6.71349 14.3977 6.67481C14.3862 6.71349 14.363 6.79085 14.3271 6.77913Z" fill="white" fill-opacity="0.2"/>
    <path d="M14.7735 5.56615L14.6788 5.61996C14.7146 5.63165 14.7977 5.61643 14.7735 5.56615Z" fill="white" fill-opacity="0.2"/>
    <path d="M14.7165 6.26944C14.8345 6.13821 14.7513 6.15345 14.7154 6.14174C14.5859 6.31164 14.6333 6.28469 14.7165 6.26944Z" fill="white" fill-opacity="0.2"/>
    <path d="M14.7158 6.1416C14.668 6.16837 14.6202 6.19513 14.7158 6.1416V6.1416Z" fill="white" fill-opacity="0.2"/>
    <path d="M14.7293 6.86714C14.7409 6.82869 14.6001 7.036 14.6232 6.95909C14.5055 7.08949 14.8956 6.83707 14.7293 6.86714Z" fill="white" fill-opacity="0.2"/>
    <path d="M15.0344 5.8623L14.9523 6.00463L15.0588 5.91254L15.0344 5.8623Z" fill="white" fill-opacity="0.2"/>
    <path d="M15.178 6.16328L15.1653 6.07423C15.1537 6.1129 15.1179 6.10118 15.1179 6.10118C15.1422 6.15157 15.119 6.22892 15.178 6.16328Z" fill="white" fill-opacity="0.2"/>
    <path d="M15.1521 5.85726L15.1405 5.89598L15.1653 5.94657L15.1521 5.85726Z" fill="white" fill-opacity="0.2"/>
    <path d="M15.6171 6.64482L15.7003 6.62958C15.7593 6.56399 15.7709 6.52534 15.7235 6.55228C15.6761 6.57923 15.6645 6.61788 15.6171 6.64482Z" fill="white" fill-opacity="0.2"/>
    <path d="M15.8162 6.1151C15.8047 6.15362 15.7931 6.19213 15.7341 6.25743L15.9111 6.06152L15.8162 6.1151Z" fill="white" fill-opacity="0.2"/>
    <path d="M15.9949 6.17139C16.0537 6.10617 16.1728 6.10284 16.1126 6.04095C16.0537 6.10617 15.9821 6.08275 15.9949 6.17139Z" fill="white" fill-opacity="0.2"/>
    <path d="M16.542 7.07129L16.2825 7.40973L16.542 7.07129Z" fill="white" fill-opacity="0.2"/>
    <path d="M17.7731 6.87366C17.7718 6.74641 17.5961 7.06954 17.6423 6.9155C17.5833 6.9808 17.6435 7.04276 17.5487 7.09633C17.6435 7.04276 17.632 7.08127 17.7731 6.87366Z" fill="white" fill-opacity="0.2"/>
    <path d="M17.5488 7.09766L17.5011 7.12422C17.5126 7.08581 17.5488 7.09766 17.5488 7.09766Z" fill="white" fill-opacity="0.2"/>
    <path d="M25.2038 13.513L25.2056 13.6406L25.252 13.4863L25.2038 13.513Z" fill="white" fill-opacity="0.2"/>
    <path d="M25.3921 13.2772L25.3106 13.5474L25.4171 13.3277C25.4171 13.3277 25.3688 13.3544 25.3921 13.2772Z" fill="white" fill-opacity="0.2"/>
    <path d="M20.3102 8.28596L20.2986 8.32471C20.2753 8.40222 20.2753 8.40222 20.3118 8.41411L20.3102 8.28596Z" fill="white" fill-opacity="0.2"/>
    <path d="M20.7744 8.81738L20.668 9.03705L20.7744 8.81738Z" fill="white" fill-opacity="0.2"/>
    <path d="M21.3896 8.84668C21.3538 8.83496 21.3422 8.87365 21.3179 8.82325C21.3538 8.83496 21.2368 9.09404 21.3896 8.84668Z" fill="white" fill-opacity="0.2"/>
    <path d="M26.133 12.7013C26.1825 12.7158 26.148 12.5761 26.1442 12.5232C26.0985 12.5616 26.1368 12.7543 26.133 12.7013Z" fill="white" fill-opacity="0.2"/>
    <path d="M25.4903 12.8465L25.4865 12.7936L25.4258 12.957L25.4903 12.8465Z" fill="white" fill-opacity="0.2"/>
    <path d="M24.8728 12.6903C24.9417 12.9697 25.0938 12.7292 25.2234 12.845L25.2273 12.8979L25.2613 12.7006C25.1394 12.6907 24.9796 12.8253 24.8728 12.6903Z" fill="white" fill-opacity="0.2"/>
    <path d="M24.4589 12.0239C24.4894 12.1106 24.3904 12.0816 24.5351 12.0722L24.5084 12.0384C24.5084 12.0384 24.5084 12.0384 24.4589 12.0239Z" fill="white" fill-opacity="0.2"/>
    <path d="M24.5581 12.053C24.6077 12.0676 24.4779 11.9516 24.5581 12.053V12.053Z" fill="white" fill-opacity="0.2"/>
    <path d="M24.2422 12.0371L24.3335 11.9602C24.303 11.8735 24.2306 11.8782 24.2496 11.806C24.1582 11.8829 24.1849 11.9166 24.2422 12.0371Z" fill="white" fill-opacity="0.2"/>
    <path d="M24.209 12.2344L24.2546 12.196C24.2279 12.1623 24.2279 12.1623 24.209 12.2344Z" fill="white" fill-opacity="0.2"/>
    <path d="M24.3226 12.1385L24.2314 12.2153C24.2581 12.249 24.2658 12.3548 24.2542 12.1961C24.2581 12.249 24.277 12.1769 24.3226 12.1385Z" fill="white" fill-opacity="0.2"/>
    <path d="M24.3759 12.2059C24.4293 12.2734 24.5055 12.3217 24.4142 12.3986C24.5817 12.37 24.5434 12.1773 24.3759 12.2059Z" fill="white" fill-opacity="0.2"/>
    <path d="M24.8701 12.9749L24.9502 13.0762L24.992 12.9847C24.9463 13.0232 24.8623 12.8689 24.8701 12.9749Z" fill="white" fill-opacity="0.2"/>
    <path d="M23.6898 11.7694C23.6937 11.8225 23.751 11.9431 23.7549 11.9961L23.8235 11.9384C23.7739 11.9238 23.6976 11.8755 23.6898 11.7694Z" fill="white" fill-opacity="0.2"/>
    <path d="M23.7553 11.9957L23.6641 12.0725C23.7402 12.1207 23.7859 12.0823 23.7553 11.9957Z" fill="white" fill-opacity="0.2"/>
    <path d="M24.2054 12.5179L24.3382 12.35L24.1826 12.5371L24.2054 12.5179Z" fill="white" fill-opacity="0.2"/>
    <path d="M23.3197 11.6857L23.3615 11.5944L23.3008 11.7578L23.3197 11.6857Z" fill="white" fill-opacity="0.2"/>
    <path d="M23.0753 11.665C23.1171 11.5736 22.9875 11.4578 23.0332 11.4193C22.9608 11.424 22.919 11.5155 22.9001 11.5877C22.9457 11.5492 22.9952 11.5637 23.0753 11.665Z" fill="white" fill-opacity="0.2"/>
    <path d="M22.8359 11.6982C22.8587 11.679 22.8549 11.6262 22.9005 11.5878C22.8777 11.607 22.8549 11.6262 22.8359 11.6982Z" fill="white" fill-opacity="0.2"/>
    <path d="M23.5152 12.0285C23.4885 11.9947 23.4807 11.8886 23.4044 11.8403L23.5152 12.0285C23.4656 12.014 23.4923 12.0478 23.5152 12.0285Z" fill="white" fill-opacity="0.2"/>
    <path d="M23.4656 12.0143C23.4161 11.9997 23.3894 11.966 23.3665 11.9852C23.4161 11.9997 23.4161 11.9997 23.4656 12.0143Z" fill="white" fill-opacity="0.2"/>
    <path d="M23.9511 12.3393C23.9093 12.4307 23.818 12.5076 23.9248 12.6426C23.9399 12.5174 23.8865 12.4499 23.9511 12.3393Z" fill="white" fill-opacity="0.2"/>
    <path d="M23.5811 12.2562L23.7068 12.319C23.7029 12.266 23.6762 12.2323 23.6952 12.1601L23.5811 12.2562Z" fill="white" fill-opacity="0.2"/>
    <path d="M23.5576 12.2744L23.5805 12.2552L23.5538 12.2214L23.5576 12.2744Z" fill="white" fill-opacity="0.2"/>
    <path d="M23.0194 11.8818C23.0004 11.954 22.9509 11.9394 22.8786 11.9441C22.9548 11.9924 23.0043 12.0069 23.0538 12.0214C23.0728 11.9492 23.0918 11.8771 23.0194 11.8818Z" fill="white" fill-opacity="0.2"/>
    <path d="M23.0807 12.0561C23.1074 12.0898 23.153 12.0514 23.1759 12.0322C23.1264 12.0177 23.1264 12.0177 23.0807 12.0561Z" fill="white" fill-opacity="0.2"/>
    <path d="M23.2178 11.9404C23.2139 11.8874 23.2139 11.8874 23.2178 11.9404V11.9404Z" fill="white" fill-opacity="0.2"/>
    <path d="M23.2175 11.9409C23.1947 11.9601 23.1986 12.013 23.1758 12.0322C23.1986 12.013 23.2214 11.9938 23.2214 11.9938C23.2175 11.9409 23.2175 11.9409 23.2175 11.9409Z" fill="white" fill-opacity="0.2"/>
    <path d="M22.3907 12.8621C22.3791 12.7031 22.4437 12.5924 22.5772 12.7612C22.6418 12.6505 22.508 12.1447 22.3896 11.8507C22.3935 11.9037 22.424 11.9904 22.3327 12.0673C22.3632 12.1541 22.5919 12.2989 22.5273 12.4096C22.4093 12.4527 22.4015 12.3468 22.3214 12.2455C22.4093 12.4527 22.2189 12.5006 22.2877 12.78L22.3791 12.7031C22.3829 12.7561 22.364 12.8283 22.3907 12.8621Z" fill="white" fill-opacity="0.2"/>
    <path d="M22.5855 11.9084L22.6084 11.8891C22.5588 11.8746 22.5282 11.7878 22.4214 11.6527C22.3528 11.7104 22.3567 11.7635 22.3605 11.8165L22.5855 11.9084Z" fill="white" fill-opacity="0.2"/>
    <path d="M22.7802 11.9147C22.7917 12.0737 22.6737 12.1169 22.7844 12.3049C22.9063 12.3147 22.849 12.1942 22.9175 12.1365C22.7004 12.1507 22.9365 12.0643 22.7802 11.9147C22.8297 11.9293 22.8525 11.91 22.8754 11.8908C22.8487 11.8571 22.7991 11.8425 22.7724 11.8088C22.7991 11.8425 22.7991 11.8425 22.7724 11.8088C22.803 11.8955 22.7802 11.9147 22.7802 11.9147C22.7039 11.8665 22.7763 11.8618 22.7763 11.8618L22.5859 11.9096C22.6354 11.9242 22.7078 11.9195 22.7802 11.9147Z" fill="white" fill-opacity="0.2"/>
    <path d="M23.7958 12.8635C23.8186 12.8442 23.8148 12.7911 23.8644 12.8057C23.9178 12.8733 23.895 12.8925 23.8988 12.9456C23.9217 12.9263 23.9636 12.8348 23.8834 12.7334L23.8605 12.7526C23.7574 12.6705 23.6427 12.4292 23.6427 12.4292C23.6772 12.5691 23.7117 12.709 23.7958 12.8635Z" fill="white" fill-opacity="0.2"/>
    <path d="M23.3039 12.4319L23.1631 12.4943L23.2471 12.6484L23.2165 12.5617C23.3155 12.5908 23.285 12.5041 23.3039 12.4319Z" fill="white" fill-opacity="0.2"/>
    <path d="M22.3299 11.7299L22.3183 11.571L22.2881 11.8213L22.3299 11.7299Z" fill="white" fill-opacity="0.2"/>
    <path d="M22.1357 11.7236L22.1013 11.5838L22.0823 11.6561L22.1357 11.7236Z" fill="white" fill-opacity="0.2"/>
    <path d="M11.4289 12.9558L11.3833 12.9942C11.4328 13.0088 11.4328 13.0088 11.4289 12.9558Z" fill="white" fill-opacity="0.2"/>
    <path d="M11.7451 12.9717L11.7145 12.8849C11.7184 12.9379 11.7451 12.9717 11.7451 12.9717Z" fill="white" fill-opacity="0.2"/>
    <path d="M17.0784 11.1317C16.9714 10.9965 16.8568 10.7553 16.8951 10.9482L16.9563 11.1219C17.0249 11.0641 17.0516 11.0979 17.0784 11.1317Z" fill="white" fill-opacity="0.2"/>
    <path d="M14.0211 12.0141L14.0479 12.0479C14.044 11.9949 14.0401 11.9419 14.0363 11.8889C14.0401 11.9419 14.044 11.9949 14.0211 12.0141Z" fill="white" fill-opacity="0.2"/>
    <path d="M14.1957 12.7132L14.0658 12.5972C14.1422 12.6455 14.169 12.6794 14.1957 12.7132Z" fill="white" fill-opacity="0.2"/>
    <path d="M9.83188 13.2851L9.84348 13.4441C9.91587 13.4394 9.86246 13.3719 9.83188 13.2851Z" fill="white" fill-opacity="0.2"/>
    <path d="M20.034 11.4637C19.9805 11.3961 19.9042 11.3477 19.8546 11.3332C19.9348 11.4346 20.0189 11.589 20.034 11.4637Z" fill="white" fill-opacity="0.2"/>
    <path d="M10.9307 11.1762C10.9079 11.1955 10.9118 11.2485 10.9385 11.2822C10.9613 11.263 10.9574 11.21 10.9307 11.1762Z" fill="white" fill-opacity="0.2"/>
    <path d="M19.6826 11.3079C19.7093 11.3417 19.7093 11.3417 19.7093 11.3417C19.7321 11.3225 19.7778 11.284 19.854 11.3323C19.8006 11.2648 19.7244 11.2165 19.6826 11.3079Z" fill="white" fill-opacity="0.2"/>
    <path d="M21.6166 12.2179C21.5938 12.2371 21.6205 12.2708 21.5977 12.29C21.5938 12.2371 21.6166 12.2179 21.6166 12.2179Z" fill="white" fill-opacity="0.2"/>
    <path d="M21.32 11.5083C21.32 11.5083 21.3467 11.542 21.3695 11.5228C21.3923 11.5036 21.3656 11.4698 21.32 11.5083Z" fill="white" fill-opacity="0.2"/>
    <path d="M21.2249 11.5321C21.2477 11.5128 21.2744 11.5466 21.3012 11.5804L21.2744 11.5466C21.2706 11.4936 21.2477 11.5128 21.2249 11.5321Z" fill="white" fill-opacity="0.2"/>
    <path d="M6.80816 13.0113C6.78921 13.0835 6.78921 13.0835 6.80816 13.0113V13.0113Z" fill="white" fill-opacity="0.2"/>
    <path d="M16.3428 12.9346C16.3273 12.7226 16.4036 12.7709 16.4531 12.7854L16.2735 12.3178L16.3428 12.9346Z" fill="white" fill-opacity="0.2"/>
    <path d="M12.1044 13.0546L12.2416 13.2041C12.215 13.4543 12.1046 13.3915 12.2652 13.5747C12.1044 13.0546 12.5796 13.4984 12.4388 12.959L12.5292 13.041L12.5091 13.0603C12.7167 13.311 12.4855 12.6896 12.6595 12.7478C12.7264 12.796 12.7733 12.8635 12.7767 12.9164L12.8535 12.7867C12.897 12.8012 12.9238 12.8879 12.8803 12.8734L13.0476 12.8256C13.0408 12.7197 13.0541 12.5946 13.0942 12.5562C13.1411 12.6237 13.0976 12.6091 13.1244 12.6958L13.2013 12.566C13.295 12.701 13.2382 12.8116 13.1747 12.8162C13.4191 13.3125 13.208 12.6719 13.4825 12.9709L13.4023 13.0477C13.5496 13.3561 13.6064 13.2455 13.7437 13.395C13.6734 13.2938 13.3955 12.9418 13.4724 12.8121C13.4958 12.8458 13.5393 12.8603 13.576 12.769C13.6297 12.9423 13.6698 12.9039 13.7333 12.8992L13.8138 13.1593C13.874 13.1017 13.8438 12.962 13.837 12.8562C13.924 12.8852 14.0011 13.0923 14.0747 13.2465C14.2253 13.2709 13.8839 12.9236 14.0311 12.8951C14.1649 12.9916 14.2217 12.881 14.3186 12.7321C14.409 12.8141 14.3488 12.8717 14.3957 12.9392L14.4257 12.7419C14.4257 12.7419 14.4726 12.8094 14.4525 12.8286C14.4892 12.7372 14.3721 12.5685 14.4523 12.4917C14.3919 12.2124 14.7536 12.8774 14.7768 12.5742C14.8237 12.6417 14.807 12.7139 14.8573 12.8343C14.9508 12.6323 14.9542 12.6853 15.0009 12.4159L15.1615 12.5991C15.0209 12.3967 15.071 12.1802 15.1244 12.0167C15.0541 11.9155 15.0273 11.8288 15.0038 11.795L15.1242 11.6798C15.1476 11.7135 15.1544 11.8194 15.1611 11.9253C15.1812 11.9061 15.1578 11.8724 15.1778 11.8532C15.2481 11.9544 15.2783 12.094 15.265 12.2191C15.2416 12.1854 15.1947 12.1179 15.1713 12.0842C15.1814 12.243 15.1915 12.4018 15.2217 12.5415C15.2418 12.5223 15.2384 12.4693 15.2384 12.4693C15.2418 12.5223 15.2418 12.5223 15.2451 12.5752C15.2686 12.609 15.2652 12.556 15.2618 12.5031L15.3657 12.7969L15.3589 12.691L15.5832 12.8695C15.6499 12.5809 15.6463 12.1911 15.8302 12.0711C15.8438 12.2829 15.894 12.4034 15.951 12.6297C15.8271 12.3551 15.8306 12.7449 15.7002 12.7013C15.7671 12.7496 15.7939 12.8363 15.7973 12.8892L15.9309 12.6489C15.9645 12.8415 16.0046 12.803 16.095 12.8851C15.9643 12.5046 16.1852 12.6302 16.242 12.5196C16.2721 12.6592 16.3023 12.7989 16.1919 12.7361C16.3593 13.0252 16.205 12.2741 16.3925 12.544C16.3724 12.5632 16.349 12.5295 16.3524 12.5824C16.3657 12.4573 16.543 12.5684 16.5498 12.6743L16.5297 12.6935C16.7037 12.7516 17.0215 12.7282 16.9577 12.396C16.9611 12.449 17.0249 12.7812 17.0517 12.8679L17.0878 11.7658C17.1281 12.0643 17.3828 12.7194 17.2858 12.8684C17.3528 12.9166 17.3762 12.9504 17.4564 12.8735C17.433 12.8398 17.3023 12.4593 17.3224 12.4401C17.5132 12.763 17.4396 12.6088 17.627 12.8787C17.5802 12.8112 17.5097 12.3731 17.5967 12.4022C17.6 12.4551 17.7107 12.8548 17.6906 12.874L17.7271 12.4458C17.7105 12.5179 17.8143 12.8117 17.8646 12.9322C17.8378 12.8455 18.0151 12.9566 18.0117 12.9036L17.9414 12.8024C18.1389 12.8942 17.9679 12.2153 18.1619 12.2542C18.1686 12.3601 18.2391 12.7982 18.3295 12.8802C18.316 12.6684 18.262 11.8213 18.379 11.6531L18.4292 11.7735L18.5261 11.6245C18.5263 11.9614 18.4632 12.6399 18.4165 12.9093C18.4868 13.0105 18.4701 13.0827 18.5537 13.0588C18.604 13.1792 18.5438 13.2368 18.5238 13.256L18.7647 13.3624C18.6842 13.1024 18.8983 13.1221 18.8413 12.8958L18.6441 13.1408C18.5637 12.8807 18.6403 12.4141 18.8143 12.4722C18.8846 12.5734 18.8648 12.9295 18.8916 13.0162C18.8848 12.9103 19.0086 12.848 19.0354 12.9347L19.002 13.079C19.1158 13.1947 19.0654 12.7374 19.2528 13.0073C19.2963 13.0219 19.4236 13.3494 19.4135 13.1906C19.2862 12.863 19.1017 11.9723 19.0882 11.7605C19.1116 11.7942 19.3426 12.0787 19.4364 12.2136C19.5369 12.4545 19.4501 12.7623 19.5472 12.9502C19.5438 12.8973 19.5371 12.7914 19.5571 12.7722C19.604 12.8396 19.5706 12.9839 19.6542 12.9601C19.6173 12.7145 19.8483 12.999 19.6407 12.7483C19.7009 12.6906 19.7512 12.8111 19.8582 12.8209C19.8046 12.6476 19.8211 12.2385 19.9247 12.1954C19.9281 12.2484 19.9784 12.3688 20.0018 12.4025C20.1758 12.4607 20.2896 12.5764 20.4602 12.5816C20.487 12.6683 20.5774 12.7503 20.5841 12.8562C20.5807 12.8032 20.5974 12.7311 20.661 12.7264C20.805 12.9818 20.5573 12.7695 20.6812 13.0441C20.651 12.9044 20.7748 12.8421 20.835 12.7845C20.5571 12.4326 20.4602 12.5816 20.3799 12.6584C20.3162 12.3262 20.3829 12.0376 20.5233 11.9031C20.6471 11.8408 20.6238 12.144 20.6405 12.0718C20.9015 12.159 20.7774 11.5475 21.0284 11.8128C21.149 12.0344 21.119 12.2317 21.1491 12.3713C21.0455 12.4144 20.9484 12.2265 20.8848 12.2312L20.9986 12.3469C20.9819 12.4191 20.8983 12.443 20.8514 12.3755C20.9486 12.5634 21.283 12.4678 21.5307 12.6801C21.5474 12.608 21.6075 12.5504 21.5607 12.4829L21.4971 12.4876C21.4 12.2996 21.5907 12.2856 21.4769 12.1699C21.5337 12.0593 21.6071 11.8766 21.7444 12.0261L21.8014 12.2524C21.798 12.1994 21.6842 12.0837 21.6675 12.1558C21.7043 12.0645 21.9019 12.4932 21.9051 12.2093L21.7879 12.0406C21.8447 11.93 21.9148 11.6943 22.0486 11.7909C21.9682 11.5308 22.0286 11.8101 21.9047 11.5355C22.0119 11.8823 21.6236 11.4675 21.7744 11.8288C21.6471 11.5013 21.6137 11.6456 21.4697 11.3902C21.4965 11.4769 21.5434 11.5444 21.433 11.4816C21.433 11.4816 21.4363 11.5345 21.4163 11.5537C21.4397 11.5875 21.4632 11.6212 21.4665 11.6741C21.4566 11.8522 21.3061 11.8278 21.2894 11.9C21.2224 11.8517 21.3061 11.8278 21.2558 11.7074L21.199 11.8179C21.1654 11.6254 21.0081 11.4951 21.1319 11.4328L21.0248 11.4229C20.9545 11.3217 20.8441 11.2589 20.7839 11.3165C20.717 11.2683 20.6669 11.4847 20.7003 11.3404L20.5565 11.4219L20.5531 11.369C20.3792 11.3109 20.2489 11.6041 19.971 11.2522C19.9309 11.2906 19.8707 11.3483 19.7603 11.2855L19.7067 11.1121C19.6465 11.1697 19.4624 10.9527 19.4491 11.0778C19.295 10.6636 19.0576 10.9471 18.9238 10.8505L18.9573 11.0431C18.8703 11.014 18.7901 11.0909 18.6864 11.134L18.74 11.3073C18.6632 11.4371 18.4757 11.1672 18.3051 11.162C18.3017 11.1091 18.3452 11.1236 18.3687 11.1573C18.0874 10.7525 18.0443 11.4117 17.8133 11.1273C17.7967 11.1994 17.7532 11.1849 17.7063 11.1174C17.6628 11.1029 17.6227 11.1413 17.5826 11.1797L17.5289 11.0064C17.4821 10.9389 17.5123 11.0785 17.5659 11.2519C17.5458 11.2711 17.5492 11.324 17.5291 11.3432C17.4253 11.0494 17.4288 11.4393 17.3015 11.1117C17.3117 11.2706 17.0942 11.1979 17.1379 11.5494C17.1345 11.4964 17.091 11.4819 17.1345 11.4964C17.0676 11.4481 17.0006 11.3999 16.9873 11.525L16.9069 11.2649L16.8636 11.5873C16.7699 11.4523 16.6996 11.3511 16.7295 11.1538C16.6193 11.4279 16.6292 11.2499 16.5625 11.5385L16.5323 11.3989C16.4688 11.4035 16.4388 11.6008 16.3885 11.4804C16.2211 11.1913 15.8098 11.4166 15.4718 11.1223C15.6493 11.5702 15.2877 10.9053 15.3748 11.2713C15.3246 11.1508 15.2577 11.1026 15.2944 11.0112C15.1741 11.1264 15.0267 10.8181 15.0034 11.1213C14.9532 11.0008 14.9933 10.9624 14.9464 10.8949C14.9264 10.9142 14.9097 10.9863 14.9063 10.9334C14.8595 10.8659 14.8996 10.8275 14.9196 10.8083C14.7725 10.8368 14.8563 11.1498 14.92 11.482C14.8029 11.3133 14.7627 11.3518 14.7762 11.5635C14.726 11.4431 14.6557 11.3419 14.7393 11.318C14.6958 11.3035 14.3679 11.168 14.4483 11.4281C14.4015 11.3606 14.3613 11.399 14.3647 11.452C14.2577 11.4421 14.2342 11.4084 14.1306 11.4515L14.154 11.4852C14.1943 11.7837 14.0738 11.562 13.9902 11.5859L13.9667 11.5522C13.699 11.3591 13.9099 11.6628 13.6388 11.4167L13.6924 11.5901C13.8031 11.9898 13.4448 11.3778 13.3679 11.5076L13.4382 11.6088C13.4049 11.7531 13.1067 11.0835 13.0164 11.0015C12.9929 10.9678 13.013 10.9486 13.0331 10.9293C12.8055 10.6978 13.07 11.1749 12.9663 11.218C12.9161 11.0975 12.9026 10.8858 12.8156 10.8567C12.7453 10.7555 12.6954 11.3088 12.5079 11.0389C12.5783 11.1401 12.6051 11.2268 12.5683 11.3182C12.4847 11.3421 12.2035 10.9372 12.2237 11.2549C12.2003 11.2211 12.2003 11.2211 12.1769 11.1874C12.1401 11.2788 11.9963 11.3603 12.0065 11.5191C11.7318 10.8832 11.6655 11.8456 11.5012 11.2726L11.2905 11.3058L11.2871 11.2529C11.1366 11.2285 11.1233 11.3536 11.1334 11.5124C11.0899 11.4979 11.1066 11.4257 11.0831 11.392C10.8422 11.2856 10.8456 11.3386 10.7789 11.6272L10.7018 11.4201C10.6885 11.5452 10.3237 11.1642 10.2101 11.3853C10.2101 11.3853 10.2067 11.3324 10.2033 11.2794C10.0696 11.5198 9.51394 10.8159 9.66488 11.5141L9.59139 11.6968C9.78543 11.7357 9.6752 12.0098 9.78901 12.1256C9.72883 12.1832 9.52128 11.9325 9.6049 11.9086L9.62833 11.9423C9.54115 11.5764 9.36736 11.8552 9.28693 11.5951C8.92904 11.6569 8.51415 11.4924 8.15626 11.5542L8.28019 11.8288L8.15308 11.8381C8.10621 11.7706 8.03252 11.6165 8.11951 11.6455C8.02577 11.5106 8.02259 11.7945 8.0494 11.8812C7.85199 11.7893 7.98565 11.549 7.94216 11.5345L7.90204 11.5729L7.92548 11.6066C7.91217 11.7317 7.96241 11.8521 7.83531 11.8615C7.74832 11.8324 7.73819 11.6736 7.71813 11.6928C7.71813 11.6928 7.69469 11.6591 7.67463 11.6783L7.50403 11.6731L7.64464 11.8755C7.63133 12.0006 7.49747 11.9041 7.66152 12.1403C7.40373 11.7691 7.06272 12.0957 6.97235 12.0137C6.94236 12.2109 6.85875 12.2348 6.7517 12.2249C6.7952 12.2395 6.91912 12.5141 6.81208 12.5042C6.65121 11.9841 6.54435 12.3111 6.33006 11.9545C6.49411 12.1907 6.08259 12.0791 6.33701 12.3973C6.25002 12.3683 6.25995 12.1902 6.14615 12.0745C6.05598 12.3293 5.67446 12.0205 5.49392 12.1934C5.52073 12.2801 5.6111 12.3621 5.59779 12.4872L5.34338 12.169C5.30326 12.2074 5.454 12.5687 5.26989 12.3517C5.31676 12.4192 5.36363 12.4867 5.34357 12.5059C5.03911 12.4042 4.8552 12.5241 4.62779 12.6295C4.42044 12.7157 4.19304 12.8211 3.83833 12.5989C3.95213 12.7147 3.93207 12.7339 3.86851 12.7385C3.91201 12.7531 3.9422 12.8927 3.99244 13.0131L3.70466 12.8393C3.7851 13.0993 3.51737 12.9062 3.59781 13.1663L3.63793 13.1279C3.67824 13.4264 4.03633 13.7014 4.18707 14.0627C4.12332 13.7305 4.6389 14.4728 4.54159 13.948C4.60852 13.9962 4.57177 14.0876 4.61865 14.1551C4.56502 13.9817 4.60514 13.9433 4.73563 13.9869L4.739 14.0398C4.96641 13.9344 5.10027 14.031 5.40136 14.0798L5.30424 13.8919C5.3678 13.8872 5.41467 13.9547 5.4381 13.9884C5.37773 13.7091 5.29093 14.017 5.20712 13.704C5.44148 14.0413 5.60513 13.6037 5.8228 14.0133C5.90642 13.9894 5.72569 13.8254 5.8093 13.8015L5.87961 13.9027L5.84942 13.7631C5.91297 13.7584 6.00672 13.8934 6.05696 14.0138L6.01684 14.0522C6.13064 14.168 6.20075 13.9323 6.24763 13.9998L6.1372 13.937C6.31773 13.7641 6.66232 13.8274 6.81604 13.5678L6.76917 13.5004C6.86272 13.2984 6.94315 13.5585 7.107 13.4578C7.10025 13.3519 7.14037 13.3135 7.20392 13.3088C7.19062 13.4339 7.3646 13.492 7.35129 13.6171C7.46489 13.396 7.38466 13.4728 7.40452 13.1167L7.49826 13.2517C7.48813 13.0928 7.4647 13.0591 7.54494 12.9822C7.51157 13.1266 7.68555 13.1847 7.67562 13.3627C7.99021 13.6233 7.84265 12.9781 8.12725 13.4359C8.08018 13.0315 7.85953 13.2428 7.89627 13.1514C7.80253 13.0165 7.85596 12.853 7.94295 12.882C8.0065 12.8774 8.25098 13.3736 8.39815 13.345C8.37809 13.3642 8.37809 13.3642 8.37809 13.3642C8.46846 13.4462 8.43152 13.2007 8.56875 13.3502C8.53181 13.1047 8.6758 13.3601 8.56856 13.0133L8.4482 13.1286C8.505 13.018 8.46131 12.6666 8.6621 12.8114C8.66548 12.8643 8.67223 12.9702 8.63211 13.0086C8.70242 13.1099 8.69229 12.951 8.75922 12.9993C8.86309 13.2931 8.59537 13.1 8.58881 13.331C8.68256 13.466 8.67898 13.0761 8.74273 13.4083C8.65217 12.9894 8.91334 13.4135 8.91314 13.0766L8.96676 13.25C8.98682 13.2308 8.98007 13.1249 9.02357 13.1394L9.06051 13.3849C9.06706 13.1539 9.30479 13.5443 9.33816 13.4C9.17093 13.4477 9.21761 13.1783 9.1038 13.0626C9.23409 12.7693 9.38841 13.5204 9.63587 13.3958C9.61581 13.415 9.48195 13.3185 9.49526 13.1934C9.56219 13.2416 9.64918 13.2707 9.71948 13.3719C9.86328 13.2904 9.62237 13.184 9.65573 13.0397C9.79635 13.2421 9.71254 12.9291 9.74928 12.8378L9.8029 13.0111C10.0438 13.1175 9.73577 12.626 9.93319 12.7178L9.95007 12.9826L10.0303 12.9058L10.0873 13.1321C10.1407 12.9686 10.1642 13.0023 10.2947 13.0459C10.2444 12.9255 10.1874 12.6991 10.271 12.6753C10.3614 12.7573 10.3046 12.8678 10.4083 12.8247C10.415 12.9306 10.4251 13.0895 10.3314 12.9545C10.3348 13.0075 10.3381 13.0604 10.365 13.1471C10.4788 13.2629 10.5356 13.1523 10.5791 13.1668C10.5791 13.1668 10.5356 13.1523 10.5121 13.1185L10.6023 12.8637C10.6492 12.9311 10.6525 12.9841 10.6559 13.037C10.676 13.0178 10.6692 12.9119 10.7328 12.9073C10.763 13.0469 10.8166 13.2203 10.7799 13.3116L10.8968 13.1434C10.9437 13.2109 11.0575 13.3267 11.0408 13.3988C11.1512 13.4616 11.1711 13.1055 11.325 13.1829C11.3217 13.1299 11.3217 13.1299 11.3417 13.1107C11.4722 13.1543 11.6094 13.3038 11.703 13.1018L11.847 13.3572C11.9272 13.2804 11.6327 13.0006 11.7765 12.9191C11.8768 12.8231 11.897 13.1408 11.9673 13.242C12.0007 13.0977 12.0039 12.8137 12.188 13.0307C12.1914 13.0836 12.1244 13.0354 12.1044 13.0546ZM13.4122 12.8697C13.3921 12.8889 13.3788 13.014 13.332 12.9465C13.295 12.701 13.3453 12.8214 13.4122 12.8697ZM15.3387 12.3733C15.3421 12.4262 15.2986 12.4117 15.2517 12.3442C15.2718 12.325 15.2718 12.325 15.3387 12.3733ZM20.9915 11.5672C20.968 11.5335 20.9446 11.4998 20.9915 11.5672V11.5672ZM21.1454 11.6446C21.1654 11.6254 21.142 11.5916 21.142 11.5916C21.1454 11.6446 21.1019 11.63 21.0784 11.5963C21.0818 11.6492 21.1053 11.683 21.1454 11.6446ZM7.83531 11.8615L7.85874 11.8952C7.84206 11.9674 7.83868 11.9144 7.83531 11.8615Z" fill="white" fill-opacity="0.2"/>
    <path d="M14.2145 12.6405C14.1878 12.6067 14.184 12.5537 14.184 12.5537C14.1611 12.5729 14.1383 12.5922 14.2145 12.6405Z" fill="white" fill-opacity="0.2"/>
    <path d="M19.0844 12.9953C19.0576 12.9615 19.0309 12.9277 19.0041 12.8939C19.0309 12.9277 19.0347 12.9808 19.0844 12.9953Z" fill="white" fill-opacity="0.2"/>
    <path d="M21.7319 11.4998L21.6367 11.5237C21.6862 11.5382 21.7129 11.572 21.7396 11.6058C21.7129 11.572 21.6824 11.4853 21.7319 11.4998Z" fill="white" fill-opacity="0.2"/>
    <path d="M22.7494 12.7858C22.7722 12.7665 22.7722 12.7665 22.7722 12.7665L22.7417 12.6798C22.7188 12.699 22.6732 12.7375 22.7494 12.7858Z" fill="white" fill-opacity="0.2"/>
    <path d="M21.9238 12.1274C21.9583 12.2671 22.0039 12.2286 22.0763 12.2239C22.038 12.0312 21.9923 12.0697 21.9238 12.1274Z" fill="white" fill-opacity="0.2"/>
    <path d="M22.0768 12.2251C22.0997 12.2058 22.1263 12.2396 22.1263 12.2396C22.1453 12.1674 22.0997 12.2058 22.0768 12.2251Z" fill="white" fill-opacity="0.2"/>
    <path d="M21.1836 11.6227C21.2102 11.6565 21.1681 11.4109 21.1987 11.4976C21.1832 11.2857 21.0199 11.7043 21.1836 11.6227Z" fill="white" fill-opacity="0.2"/>
    <path d="M22.0863 12.6673L21.9984 12.4599L22.01 12.619L22.0863 12.6673Z" fill="white" fill-opacity="0.2"/>
    <path d="M21.5107 12.4193L21.6365 12.4821C21.6098 12.4483 21.6326 12.4291 21.6555 12.4098C21.5831 12.4146 21.5069 12.3663 21.5107 12.4193Z" fill="white" fill-opacity="0.2"/>
    <path d="M21.6325 12.4292C21.682 12.4437 21.682 12.4437 21.7048 12.4245C21.7048 12.4245 21.6553 12.41 21.6325 12.4292Z" fill="white" fill-opacity="0.2"/>
    <path d="M21.9194 12.6956L21.8926 12.6618L21.8163 12.6134L21.9194 12.6956Z" fill="white" fill-opacity="0.2"/>
    <path d="M20.3832 12.2406L20.2652 12.2838C20.269 12.3367 20.3224 12.4042 20.3452 12.385C20.3642 12.3128 20.4365 12.3081 20.3832 12.2406Z" fill="white" fill-opacity="0.2"/>
    <path d="M20.8387 12.8157C20.812 12.782 20.8081 12.729 20.7547 12.6614L20.7969 12.9072L20.8387 12.8157Z" fill="white" fill-opacity="0.2"/>
    <path d="M20.5224 12.8003C20.5262 12.8533 20.3893 12.9686 20.534 12.9592C20.5301 12.9063 20.6253 12.8823 20.5224 12.8003Z" fill="white" fill-opacity="0.2"/>
    <path d="M18.7646 12.3057L18.688 11.92L18.7646 12.3057Z" fill="white" fill-opacity="0.2"/>
    <path d="M17.5196 13.1284C17.6721 13.2249 17.4774 12.8826 17.6338 13.0322C17.6261 12.9262 17.5041 12.9164 17.5231 12.8442C17.4813 12.9356 17.4051 12.8873 17.5196 13.1284Z" fill="white" fill-opacity="0.2"/>
    <path d="M17.5225 12.8437C17.5453 12.8245 17.5453 12.8245 17.5414 12.7716C17.5453 12.8245 17.5225 12.8437 17.5225 12.8437Z" fill="white" fill-opacity="0.2"/>
    <path d="M1.02485 12.748L0.898933 12.6852L1.02872 12.8011L1.02485 12.748Z" fill="white" fill-opacity="0.2"/>
    <path d="M1.02619 13.0855L0.888664 12.8635L0.953737 13.0902C0.976598 13.071 0.972729 13.0179 1.02619 13.0855Z" fill="white" fill-opacity="0.2"/>
    <path d="M12.5996 13.3799L12.5957 13.3268C12.5422 13.2592 12.5422 13.2592 12.4926 13.2446L12.5996 13.3799Z" fill="white" fill-opacity="0.2"/>
    <path d="M11.4268 13.2402L11.4496 13.221L11.312 12.9989L11.4268 13.2402Z" fill="white" fill-opacity="0.2"/>
    <path d="M10.6051 13.5922C10.6547 13.6067 10.6736 13.5345 10.7232 13.549C10.628 13.573 10.4867 13.2982 10.6051 13.5922Z" fill="white" fill-opacity="0.2"/>
</svg>
