<svg width="84" height="84" viewBox="0 0 84 84" fill="none" xmlns="http://www.w3.org/2000/svg">
	<path fill-rule="evenodd" clip-rule="evenodd" d="M66.9967 6.58398H16.9967C11.2438 6.58398 6.58008 11.2477 6.58008 17.0006V67.0006C6.58008 72.7536 11.2438 77.4173 16.9967 77.4173H66.9967C72.7497 77.4173 77.4134 72.7536 77.4134 67.0006V17.0007C77.4134 11.2477 72.7497 6.58398 66.9967 6.58398ZM16.9967 0.333984C7.792 0.333984 0.330078 7.7959 0.330078 17.0006V67.0006C0.330078 76.2054 7.792 83.6673 16.9967 83.6673H66.9967C76.2015 83.6673 83.6634 76.2054 83.6634 67.0006V17.0007C83.6634 7.79591 76.2015 0.333984 66.9967 0.333984H16.9967Z" fill="url(#paint0_linear_38_11066)"/>
	<path d="M16.9967 6.58398H66.9967C72.7497 6.58398 77.4134 11.2477 77.4134 17.0007V67.0006C77.4134 72.7536 72.7497 77.4173 66.9967 77.4173H16.9967C11.2438 77.4173 6.58008 72.7536 6.58008 67.0006V17.0006C6.58008 11.2477 11.2438 6.58398 16.9967 6.58398Z" fill="url(#paint1_linear_38_11066)"/>
	<path fill-rule="evenodd" clip-rule="evenodd" d="M52.4141 39.9169C52.4141 38.6054 53.0315 37.3704 54.0807 36.5835L65.7474 27.8335C67.1208 26.8035 69.0807 27.7834 69.0807 29.5002V53.5822C66.8818 51.3697 63.8359 50 60.4701 50C59.5851 50 58.7221 50.0947 57.8909 50.2745L54.0807 47.4169C53.0315 46.63 52.4141 45.395 52.4141 44.0835V39.9169ZM16.9971 31.5837C16.9971 29.2825 18.8626 27.417 21.1637 27.417H46.1637C48.4649 27.417 50.3304 29.2825 50.3304 31.5837V52.417C50.3304 54.7182 48.4649 56.5837 46.1637 56.5837H21.1637C18.8626 56.5837 16.9971 54.7182 16.9971 52.417V31.5837ZM50.3301 62.1379C50.3301 67.7279 54.8779 72.2758 60.468 72.2758C66.058 72.2758 70.6058 67.7279 70.6058 62.1379C70.6058 56.5478 66.058 52 60.468 52C54.8779 52 50.3301 56.5478 50.3301 62.1379ZM64.5847 60.1718L62.6186 62.1379L64.5847 64.104C65.1785 64.6978 65.1785 65.6606 64.5847 66.2545C63.9909 66.8483 63.028 66.8483 62.4342 66.2545L60.4681 64.2884L58.502 66.2545C57.9082 66.8483 56.9454 66.8483 56.3515 66.2545C55.7577 65.6606 55.7577 64.6978 56.3515 64.104L58.3176 62.1379L56.3515 60.1718C55.7577 59.5778 55.7577 58.615 56.3515 58.0211C56.9454 57.4273 57.9082 57.4273 58.502 58.0211L60.4681 59.9872L62.4342 58.0211C63.028 57.4273 63.9909 57.4273 64.5847 58.0211C65.1785 58.6151 65.1785 59.578 64.5847 60.1718Z" fill="url(#paint2_linear_38_11066)"/>
	<defs>
		<linearGradient id="paint0_linear_38_11066" x1="41.9967" y1="83.6673" x2="41.9967" y2="0.333984" gradientUnits="userSpaceOnUse">
			<stop stop-color="#FFC6C6"/>
			<stop offset="1" stop-color="#FFF6F6"/>
		</linearGradient>
		<linearGradient id="paint1_linear_38_11066" x1="41.9967" y1="83.6673" x2="41.9967" y2="0.333984" gradientUnits="userSpaceOnUse">
			<stop stop-color="#FFC6C6"/>
			<stop offset="1" stop-color="#FFF6F6"/>
		</linearGradient>
		<linearGradient id="paint2_linear_38_11066" x1="44.4454" y1="67.2758" x2="44.4454" y2="27.4131" gradientUnits="userSpaceOnUse">
			<stop stop-color="#FF9C9C"/>
			<stop offset="1" stop-color="#FF5151"/>
		</linearGradient>
	</defs>
</svg>
