<svg width="84" height="84" viewBox="0 0 84 84" fill="none" xmlns="http://www.w3.org/2000/svg">
	<path fill-rule="evenodd" clip-rule="evenodd"
		  d="M66.9997 6.58398H16.9997C11.2467 6.58398 6.58301 11.2477 6.58301 17.0006V67.0006C6.58301 72.7536 11.2467 77.4173 16.9997 77.4173H66.9997C72.7526 77.4173 77.4163 72.7536 77.4163 67.0006V17.0007C77.4163 11.2477 72.7526 6.58398 66.9997 6.58398ZM16.9997 0.333984C7.79493 0.333984 0.333008 7.7959 0.333008 17.0006V67.0006C0.333008 76.2054 7.79493 83.6673 16.9997 83.6673H66.9997C76.2044 83.6673 83.6663 76.2054 83.6663 67.0006V17.0007C83.6663 7.79591 76.2044 0.333984 66.9997 0.333984H16.9997Z"
		  fill="url(#paint0_linear_38_11066)"/>
	<path
		d="M16.9997 6.58398H66.9997C72.7526 6.58398 77.4163 11.2477 77.4163 17.0007V67.0006C77.4163 72.7536 72.7526 77.4173 66.9997 77.4173H16.9997C11.2467 77.4173 6.58301 72.7536 6.58301 67.0006V17.0006C6.58301 11.2477 11.2467 6.58398 16.9997 6.58398Z"
		fill="url(#paint1_linear_38_11066)"/>
	<path fill-rule="evenodd" clip-rule="evenodd"
		  d="M52.417 39.9169C52.417 38.6054 53.0345 37.3704 54.0837 36.5835L65.7503 27.8335C67.1237 26.8035 69.0837 27.7834 69.0837 29.5002V54.5002C69.0837 56.217 67.1237 57.1969 65.7503 56.1669L54.0837 47.4169C53.0345 46.63 52.417 45.395 52.417 44.0835V39.9169ZM17 31.5836C17 29.2824 18.8655 27.4169 21.1667 27.4169H46.1667C48.4679 27.4169 50.3333 29.2824 50.3333 31.5836V52.4169C50.3333 54.7181 48.4679 56.5836 46.1667 56.5836H21.1667C18.8655 56.5836 17 54.7181 17 52.4169V31.5836Z"
		  fill="url(#paint2_linear_38_11066)"/>
	<defs>
		<linearGradient id="paint0_linear_38_11066" x1="41.9997" y1="0.333984" x2="41.9997" y2="83.6673"
						gradientUnits="userSpaceOnUse">
			<stop stop-color="#EAF6FF"/>
			<stop offset="1" stop-color="#B0DDFF"/>
		</linearGradient>
		<linearGradient id="paint1_linear_38_11066" x1="41.9997" y1="0.333984" x2="41.9997" y2="83.6673"
						gradientUnits="userSpaceOnUse">
			<stop stop-color="#EAF6FF"/>
			<stop offset="1" stop-color="#B0DDFF"/>
		</linearGradient>
		<linearGradient id="paint2_linear_38_11066" x1="43.0418" y1="27.4131" x2="43.0418" y2="56.5873"
						gradientUnits="userSpaceOnUse">
			<stop stop-color="#545AFF"/>
			<stop offset="1" stop-color="#01BFFF"/>
		</linearGradient>
	</defs>
</svg>
