<svg width="84" height="84" viewBox="0 0 84 84" fill="none" xmlns="http://www.w3.org/2000/svg">
	<path fill-rule="evenodd" clip-rule="evenodd" d="M66.9997 6.58398H16.9997C11.2467 6.58398 6.58301 11.2477 6.58301 17.0006V67.0006C6.58301 72.7536 11.2467 77.4173 16.9997 77.4173H66.9997C72.7526 77.4173 77.4163 72.7536 77.4163 67.0006V17.0007C77.4163 11.2477 72.7526 6.58398 66.9997 6.58398ZM16.9997 0.333984C7.79493 0.333984 0.333008 7.7959 0.333008 17.0006V67.0006C0.333008 76.2054 7.79493 83.6673 16.9997 83.6673H66.9997C76.2044 83.6673 83.6663 76.2054 83.6663 67.0006V17.0007C83.6663 7.79591 76.2044 0.333984 66.9997 0.333984H16.9997Z" fill="url(#paint0_linear_38_11066)"/>
	<path d="M16.9997 6.58398H66.9997C72.7526 6.58398 77.4163 11.2477 77.4163 17.0007V67.0006C77.4163 72.7536 72.7526 77.4173 66.9997 77.4173H16.9997C11.2467 77.4173 6.58301 72.7536 6.58301 67.0006V17.0006C6.58301 11.2477 11.2467 6.58398 16.9997 6.58398Z" fill="url(#paint1_linear_38_11066)"/>
	<path d="M43.1667 27.2219C46.1736 27.2219 48.6111 24.7843 48.6111 21.7775C48.6111 18.7706 46.1736 16.333 43.1667 16.333C40.1598 16.333 37.7222 18.7706 37.7222 21.7775C37.7222 24.7843 40.1598 27.2219 43.1667 27.2219Z" fill="url(#paint2_linear_38_11066)"/>
	<path d="M47.25 31.3052V57.1663H49.9722C50.7239 57.1663 51.3333 57.7757 51.3333 58.5274V63.9718C51.3333 64.7236 50.7239 65.333 49.9722 65.333H36.3611C35.6094 65.333 35 64.7236 35 63.9718V58.5274C35 57.7757 35.6094 57.1663 36.3611 57.1663H39.0833V38.1107C33.6389 38.1107 33.6389 29.9441 39.0833 29.9441H45.8889C46.6406 29.9441 47.25 30.5534 47.25 31.3052Z" fill="url(#paint3_linear_38_11066)"/>
	<defs>
		<linearGradient id="paint0_linear_38_11066" x1="41.9997" y1="83.6673" x2="41.9997" y2="0.333984" gradientUnits="userSpaceOnUse">
			<stop stop-color="#FFC6C6"/>
			<stop offset="1" stop-color="#FFF6F6"/>
		</linearGradient>
		<linearGradient id="paint1_linear_38_11066" x1="41.9997" y1="83.6673" x2="41.9997" y2="0.333984" gradientUnits="userSpaceOnUse">
			<stop stop-color="#FFC6C6"/>
			<stop offset="1" stop-color="#FFF6F6"/>
		</linearGradient>
		<linearGradient id="paint2_linear_38_11066" x1="43.3629" y1="59.8719" x2="43.3629" y2="16.333" gradientUnits="userSpaceOnUse">
			<stop stop-color="#FF9C9C"/>
			<stop offset="1" stop-color="#FF5151"/>
		</linearGradient>
		<linearGradient id="paint3_linear_38_11066" x1="43.3629" y1="59.8719" x2="43.3629" y2="16.333" gradientUnits="userSpaceOnUse">
			<stop stop-color="#FF9C9C"/>
			<stop offset="1" stop-color="#FF5151"/>
		</linearGradient>
	</defs>
</svg>
