<svg width="84" height="84" viewBox="0 0 84 84" fill="none" xmlns="http://www.w3.org/2000/svg">
<path fill-rule="evenodd" clip-rule="evenodd" d="M66.9948 6.58398H16.9948C11.2418 6.58398 6.57812 11.2477 6.57812 17.0006V67.0006C6.57812 72.7536 11.2418 77.4173 16.9948 77.4173H66.9948C72.7478 77.4173 77.4115 72.7536 77.4115 67.0006V17.0007C77.4115 11.2477 72.7478 6.58398 66.9948 6.58398ZM16.9948 0.333984C7.79005 0.333984 0.328125 7.7959 0.328125 17.0006V67.0006C0.328125 76.2054 7.79004 83.6673 16.9948 83.6673H66.9948C76.1995 83.6673 83.6615 76.2054 83.6615 67.0006V17.0007C83.6615 7.79591 76.1995 0.333984 66.9948 0.333984H16.9948Z" fill="url(#paint0_linear_5001_87959)"/>
<path d="M16.9948 6.58398H66.9948C72.7478 6.58398 77.4115 11.2477 77.4115 17.0007V67.0006C77.4115 72.7536 72.7478 77.4173 66.9948 77.4173H16.9948C11.2418 77.4173 6.57812 72.7536 6.57812 67.0006V17.0006C6.57812 11.2477 11.2418 6.58398 16.9948 6.58398Z" fill="url(#paint1_linear_5001_87959)"/>
<path fill-rule="evenodd" clip-rule="evenodd" d="M44.5156 51.0297C45.7206 50.3199 46.5312 48.9932 46.5312 47.4737C46.5312 45.2064 44.7264 43.3684 42.5 43.3684C40.2736 43.3684 38.4688 45.2064 38.4688 47.4737C38.4688 48.9932 39.2794 50.3199 40.4844 51.0297V57.0526C40.4844 58.1863 41.3868 59.1053 42.5 59.1053C43.6132 59.1053 44.5156 58.1863 44.5156 57.0526V51.0297ZM34.4375 30.0373C34.4375 26.9834 35.5032 24.9083 36.9263 23.5785C38.3925 22.2086 40.4087 21.4737 42.5 21.4737C44.5913 21.4737 46.6075 22.2086 48.0737 23.5785C49.4968 24.9083 50.5625 26.9834 50.5625 30.0374V35.1579H34.4375V30.0373ZM29.0625 35.1579V30.0374C29.0625 25.5577 30.6843 21.9825 33.2924 19.5454C35.8575 17.1485 39.2163 16 42.5 16C45.7837 16 49.1425 17.1485 51.7076 19.5454C54.3157 21.9825 55.9375 25.5577 55.9375 30.0374V35.1579H57.8571C61.2497 35.1579 64 37.6085 64 40.6316V62.5263C64 65.5493 61.2497 68 57.8571 68H27.1429C23.7503 68 21 65.5493 21 62.5263V40.6316C21 37.6085 23.7503 35.1579 27.1429 35.1579H29.0625Z" fill="url(#paint2_linear_5001_87959)"/>
<defs>
<linearGradient id="paint0_linear_5001_87959" x1="41.9948" y1="0.333984" x2="41.9948" y2="83.6673" gradientUnits="userSpaceOnUse">
<stop stop-color="#EAF6FF"/>
<stop offset="1" stop-color="#B0DDFF"/>
</linearGradient>
<linearGradient id="paint1_linear_5001_87959" x1="41.9948" y1="0.333984" x2="41.9948" y2="83.6673" gradientUnits="userSpaceOnUse">
<stop stop-color="#EAF6FF"/>
<stop offset="1" stop-color="#B0DDFF"/>
</linearGradient>
<linearGradient id="paint2_linear_5001_87959" x1="42.5" y1="16" x2="42.5" y2="68" gradientUnits="userSpaceOnUse">
<stop stop-color="#545AFF"/>
<stop offset="1" stop-color="#01BFFF"/>
</linearGradient>
</defs>
</svg>
