<svg width="84" height="84" viewBox="0 0 84 84" fill="none" xmlns="http://www.w3.org/2000/svg">
	<path fill-rule="evenodd" clip-rule="evenodd" d="M66.9987 6.58398H16.9987C11.2457 6.58398 6.58203 11.2477 6.58203 17.0006V67.0006C6.58203 72.7536 11.2457 77.4173 16.9987 77.4173H66.9987C72.7517 77.4173 77.4154 72.7536 77.4154 67.0006V17.0007C77.4154 11.2477 72.7517 6.58398 66.9987 6.58398ZM16.9987 0.333984C7.79395 0.333984 0.332031 7.7959 0.332031 17.0006V67.0006C0.332031 76.2054 7.79395 83.6673 16.9987 83.6673H66.9987C76.2034 83.6673 83.6654 76.2054 83.6654 67.0006V17.0007C83.6654 7.79591 76.2034 0.333984 66.9987 0.333984H16.9987Z" fill="url(#paint0_linear_113_20069)"/>
	<path d="M16.9987 6.58398H66.9987C72.7517 6.58398 77.4154 11.2477 77.4154 17.0007V67.0006C77.4154 72.7536 72.7517 77.4173 66.9987 77.4173H16.9987C11.2457 77.4173 6.58203 72.7536 6.58203 67.0006V17.0006C6.58203 11.2477 11.2457 6.58398 16.9987 6.58398Z" fill="url(#paint1_linear_113_20069)"/>
	<path d="M43.1667 27.2229C46.1736 27.2229 48.6111 24.7853 48.6111 21.7784C48.6111 18.7715 46.1736 16.334 43.1667 16.334C40.1598 16.334 37.7222 18.7715 37.7222 21.7784C37.7222 24.7853 40.1598 27.2229 43.1667 27.2229Z" fill="url(#paint2_linear_113_20069)"/>
	<path d="M47.25 31.3061V57.1673H49.9722C50.7239 57.1673 51.3333 57.7766 51.3333 58.5284V63.9728C51.3333 64.7245 50.7239 65.3339 49.9722 65.3339H36.3611C35.6094 65.3339 35 64.7245 35 63.9728V58.5284C35 57.7766 35.6094 57.1673 36.3611 57.1673H39.0833V38.1117C33.6389 38.1117 33.6389 29.945 39.0833 29.945H45.8889C46.6406 29.945 47.25 30.5544 47.25 31.3061Z" fill="url(#paint3_linear_113_20069)"/>
	<defs>
		<linearGradient id="paint0_linear_113_20069" x1="41.9987" y1="83.6673" x2="41.9987" y2="0.333984" gradientUnits="userSpaceOnUse">
			<stop stop-color="#FFC6C6"/>
			<stop offset="1" stop-color="#FFF6F6"/>
		</linearGradient>
		<linearGradient id="paint1_linear_113_20069" x1="41.9987" y1="83.6673" x2="41.9987" y2="0.333984" gradientUnits="userSpaceOnUse">
			<stop stop-color="#FFC6C6"/>
			<stop offset="1" stop-color="#FFF6F6"/>
		</linearGradient>
		<linearGradient id="paint2_linear_113_20069" x1="43.3629" y1="59.8728" x2="43.3629" y2="16.334" gradientUnits="userSpaceOnUse">
			<stop stop-color="#FF9C9C"/>
			<stop offset="1" stop-color="#FF5151"/>
		</linearGradient>
		<linearGradient id="paint3_linear_113_20069" x1="43.3629" y1="59.8728" x2="43.3629" y2="16.334" gradientUnits="userSpaceOnUse">
			<stop stop-color="#FF9C9C"/>
			<stop offset="1" stop-color="#FF5151"/>
		</linearGradient>
	</defs>
</svg>
