<svg width="32" height="32" viewBox="0 0 32 32" fill="none" xmlns="http://www.w3.org/2000/svg">
	<path fill-rule="evenodd" clip-rule="evenodd" d="M6.66667 0C2.98477 0 0 2.98477 0 6.66667V25.3333C0 29.0152 2.98477 32 6.66667 32H25.3333C29.0152 32 32 29.0152 32 25.3333V6.66667C32 2.98477 29.0152 0 25.3333 0H6.66667ZM8.06773 25.6991L14.9179 6.3552C15.2747 5.34774 16.7253 5.34775 17.0821 6.3552L23.9323 25.6991C24.3038 26.7482 23.0675 27.6354 22.1628 26.969L16.6874 22.9355C16.28 22.6354 15.72 22.6354 15.3126 22.9355L9.83718 26.969C8.93253 27.6354 7.69624 26.7482 8.06773 25.6991Z" fill="#333333"/>
</svg>
