<svg width="27" height="27" viewBox="0 0 27 27" fill="none" xmlns="http://www.w3.org/2000/svg">
	<path d="M2.88642 0.529326C2.54463 0.937166 2.37179 1.45913 2.40301 1.98915V25.0141C2.37356 25.5439 2.54619 26.0653 2.88642 26.474L2.96552 26.5526L15.9296 13.6502V13.3443L2.96552 0.450653L2.88642 0.529326Z" fill="url(#paint0_linear_1_13597)"/>
	<path d="M20.2539 17.951L15.9296 13.6503V13.3443L20.2539 9.05225L20.3506 9.1047L25.4747 11.9981C26.9425 12.8198 26.9425 14.1747 25.4747 15.0052L20.3506 17.8986L20.2539 17.951Z" fill="url(#paint1_linear_1_13597)"/>
	<path d="M20.3504 17.8986L15.9558 13.5279L2.88623 26.474C3.18748 26.7203 3.56255 26.86 3.95238 26.8711C4.34222 26.8822 4.72469 26.764 5.03959 26.5352L20.324 17.8986" fill="url(#paint2_linear_1_13597)"/>
	<path d="M20.3504 9.1047L5.03959 0.4594C4.72807 0.221197 4.34305 0.097947 3.95031 0.110702C3.55757 0.123456 3.18147 0.271423 2.88623 0.529332L15.9294 13.5016L20.3504 9.1047Z" fill="url(#paint3_linear_1_13597)"/>
	<path opacity="0.1" d="M20.2537 17.8024L5.03959 26.3865C4.73611 26.6114 4.36775 26.7329 3.98928 26.7329C3.61081 26.7329 3.24245 26.6114 2.93897 26.3865L2.85986 26.4652L2.93897 26.5439C3.24245 26.7688 3.61081 26.8903 3.98928 26.8903C4.36775 26.8903 4.73611 26.7688 5.03959 26.5439L20.324 17.9073L20.2537 17.8024Z" fill="black"/>
	<path opacity="0.07" d="M2.88616 26.3341C2.54536 25.9223 2.3728 25.3981 2.40275 24.8655V25.0141C2.37329 25.5439 2.54593 26.0653 2.88616 26.474L2.96526 26.3953L2.88616 26.3341Z" fill="black"/>
	<path opacity="0.07" d="M25.4747 14.8478L20.2539 17.8024L20.3506 17.8986L25.4747 14.9702C25.7753 14.8388 26.0353 14.6303 26.2284 14.3661C26.4214 14.102 26.5404 13.7916 26.5734 13.4667C26.5134 13.767 26.3825 14.0489 26.1915 14.289C26.0005 14.5291 25.7548 14.7207 25.4747 14.8478Z" fill="black"/>
	<path opacity="0.3" d="M5.04015 0.616785L25.4751 12.1468C25.7524 12.2708 25.9965 12.4581 26.1874 12.6935C26.3783 12.9289 26.5106 13.2058 26.5737 13.5017C26.5426 13.1762 26.4243 12.865 26.231 12.6006C26.0378 12.3361 25.7767 12.1281 25.4751 11.9982L5.04015 0.459438C3.59872 -0.362258 2.40338 0.319575 2.40338 1.98919V2.1378C2.40338 0.476921 3.59872 -0.213653 5.04015 0.616785Z" fill="white"/>
	<defs>
		<linearGradient id="paint0_linear_1_13597" x1="14.787" y1="1.74439" x2="-2.68688" y2="19.3138" gradientUnits="userSpaceOnUse">
			<stop stop-color="#008EFF"/>
			<stop offset="0.01" stop-color="#008FFF"/>
			<stop offset="0.26" stop-color="#00ACFF"/>
			<stop offset="0.51" stop-color="#00C0FF"/>
			<stop offset="0.76" stop-color="#00CDFF"/>
			<stop offset="1" stop-color="#00D1FF"/>
		</linearGradient>
		<linearGradient id="paint1_linear_1_13597" x1="25.6505" y1="13.5016" x2="0.319973" y2="13.5016" gradientUnits="userSpaceOnUse">
			<stop stop-color="#FFD800"/>
			<stop offset="1" stop-color="#FF8A00"/>
		</linearGradient>
		<linearGradient id="paint2_linear_1_13597" x1="17.951" y1="15.8881" x2="-5.73803" y2="39.7065" gradientUnits="userSpaceOnUse">
			<stop stop-color="#FF3A44"/>
			<stop offset="1" stop-color="#B11162"/>
		</linearGradient>
		<linearGradient id="paint3_linear_1_13597" x1="-0.400938" y1="-7.13692" x2="10.1849" y2="3.49792" gradientUnits="userSpaceOnUse">
			<stop stop-color="#328E71"/>
			<stop offset="0.07" stop-color="#2D9571"/>
			<stop offset="0.48" stop-color="#15BD74"/>
			<stop offset="0.8" stop-color="#06D575"/>
			<stop offset="1" stop-color="#00DE76"/>
		</linearGradient>
	</defs>
</svg>
