<svg width="27" height="27" viewBox="0 0 27 27" fill="none" xmlns="http://www.w3.org/2000/svg">
	<path fill-rule="evenodd" clip-rule="evenodd" d="M19.4035 -0.000488281H7.59645C2.03445 -0.000488281 0 2.03399 0 7.59589V19.4033C0 24.965 2.03445 26.9995 7.59629 26.9995H19.3999C24.9619 26.9995 27 24.965 27 19.4033V7.59589C27 2.03399 24.9655 -0.000488281 19.4035 -0.000488281Z" fill="#CF102D"/>
	<path d="M11.7798 15.6589H12.8626L12.3194 14.3957L11.7798 15.6589ZM11.5132 16.2952L11.192 17.0302H10.4608L12.0158 13.5023H12.6478L14.1967 17.0302H13.4457L13.1288 16.2952H11.5132ZM23.2804 17.0279H23.9871V13.5025H23.2804V17.0279ZM20.4674 15.5131H21.77V14.8705H20.4674V14.148H22.3584V13.5045H19.7608V17.0301H22.4266V16.3871H20.4674V15.5131ZM17.6592 15.9297L16.8578 13.5021H16.2732L15.4718 15.9297L14.6919 13.5038H13.9297L15.1601 17.0322H15.753L16.5557 14.7146L17.3581 17.0322H17.9561L19.1834 13.5038H18.4409L17.6592 15.9297ZM9.38164 15.523C9.38164 16.0968 9.09683 16.4035 8.57927 16.4035C8.05906 16.4035 7.77241 16.0881 7.77241 15.4983V13.5043H7.05606V15.523C7.05606 16.5157 7.60788 17.0851 8.56962 17.0851C9.54085 17.0851 10.0977 16.505 10.0977 15.4935V13.5023H9.38164V15.523ZM5.34718 13.5023H6.0632V17.0324H5.34718V15.5988H3.72997V17.0324H3.01361V13.5023H3.72997V14.9264H5.34718V13.5023Z" fill="white"/>
	<path d="M13.5001 9.00755C11.0219 9.00755 9.0058 6.99138 9.0058 4.51321H9.6408C9.6408 6.64118 11.3721 8.37254 13.5001 8.37254C15.6282 8.37254 17.3594 6.64118 17.3594 4.51321H17.9944C17.9944 6.99138 15.9782 9.00755 13.5001 9.00755Z" fill="white"/>
</svg>
