<svg width="27" height="27" viewBox="0 0 27 27" fill="none" xmlns="http://www.w3.org/2000/svg">
	<g clip-path="url(#clip0_1_13622)">
		<mask id="mask0_1_13622" style="mask-type:luminance" maskUnits="userSpaceOnUse" x="0" y="0" width="27" height="27">
			<path d="M27 0H0V27H27V0Z" fill="white"/>
		</mask>
		<g mask="url(#mask0_1_13622)">
			<path fill-rule="evenodd" clip-rule="evenodd" d="M5.46442 0.000579834H21.5884C24.6082 0.000579834 27.0568 2.43973 27.0609 5.45303V21.5416C27.0609 24.5509 24.6164 26.9941 21.5965 26.9941H5.4685H5.46442C2.4445 26.9941 0 24.555 0 21.5457V5.45303V5.44896C0 2.43973 2.44859 0.000579834 5.46442 0.000579834ZM13.957 5.25759L13.4101 6.20231L12.8714 5.24945C12.5327 4.66307 11.7736 4.45948 11.186 4.79745C10.5983 5.13544 10.3943 5.88876 10.733 6.47921L11.9899 8.65367L7.97423 15.6005H4.83597C4.15445 15.6005 3.60351 16.1502 3.60351 16.8304C3.60351 17.5103 4.15445 18.0601 4.83597 18.0601H16.03C16.5688 17.0542 15.8751 15.6047 14.6385 15.6047H10.8187L16.0954 6.48327C16.0974 6.48124 16.0985 6.47921 16.0994 6.47716C16.1005 6.47512 16.1014 6.47309 16.1035 6.47106C16.4381 5.88061 16.2301 5.12729 15.6383 4.79338C15.0466 4.45948 14.2916 4.66715 13.957 5.25759ZM7.48044 21.3747L8.66392 19.3264C8.02729 18.5609 7.21926 18.3248 6.2235 18.6301L5.342 20.1449C5.00329 20.7354 5.20325 21.4887 5.795 21.8267C6.38674 22.1647 7.14172 21.9652 7.48044 21.3747ZM22.0576 15.6128H18.8581C17.2462 12.8234 16.0342 10.7345 15.2221 9.34999C14.4956 9.95265 13.757 11.7362 14.7895 13.5116C15.4316 14.6174 16.2759 16.0772 17.3241 17.8902C17.9281 18.9346 18.5999 20.0961 19.3397 21.3747C19.6826 21.9652 20.4335 22.1647 21.0252 21.8267C21.6169 21.4847 21.8169 20.7354 21.4782 20.1449L20.2783 18.0682H22.0576H22.1026C22.78 18.056 23.3227 17.4981 23.3106 16.8181C23.2983 16.1422 22.7393 15.6005 22.0576 15.6128Z" fill="url(#paint0_linear_1_13622)"/>
		</g>
	</g>
	<defs>
		<linearGradient id="paint0_linear_1_13622" x1="13.5285" y1="0.000579834" x2="13.5285" y2="26.9981" gradientUnits="userSpaceOnUse">
			<stop stop-color="#18BFFB"/>
			<stop offset="1" stop-color="#2072F3"/>
		</linearGradient>
		<clipPath id="clip0_1_13622">
			<rect width="27" height="27" fill="white"/>
		</clipPath>
	</defs>
</svg>
