<svg width="21" height="21" viewBox="0 0 21 21" fill="none" xmlns="http://www.w3.org/2000/svg">
	<g opacity="0.8">
		<path d="M10.5319 12.0571C10.1676 12.0571 9.79425 11.8755 9.43909 11.5122L1.48911 3.70296C1.78051 3.38514 2.32691 3.23077 3.11007 3.23077H17.7169C18.6002 3.23077 19.2104 3.4033 19.5291 3.74837L11.6338 11.5122C11.2695 11.8846 10.9052 12.0571 10.5319 12.0571ZM0.860756 17.2693C0.696839 17.0151 0.605774 16.561 0.605774 15.9163V5.8823C0.605774 5.26482 0.678626 4.82895 0.82433 4.58378L7.33549 10.9583L0.860756 17.2693ZM20.1666 17.2239L13.7374 10.9583L20.1939 4.63826C20.3305 4.87436 20.3942 5.29206 20.3942 5.8823V15.9163C20.3942 16.5429 20.3214 16.9787 20.1666 17.2239ZM3.2922 18.5769C2.4544 18.5769 1.87158 18.4226 1.55285 18.1229L8.10954 11.712L8.76521 12.3567C9.33892 12.9107 9.91263 13.174 10.5319 13.174C11.1511 13.174 11.7339 12.9107 12.3076 12.3567L12.9542 11.712L19.5018 18.1138C19.2104 18.4135 18.6731 18.5769 17.8899 18.5769H3.2922Z" fill="#009FE6"/>
	</g>
</svg>
