<svg width="22" height="22" viewBox="0 0 22 22" fill="none" xmlns="http://www.w3.org/2000/svg">
	<g clip-path="url(#clip0_1_13747)">
		<path d="M11 22C17.0751 22 22 17.0751 22 11C22 4.92487 17.0751 0 11 0C4.92487 0 0 4.92487 0 11C0 17.0751 4.92487 22 11 22Z" fill="url(#paint0_linear_1_13747)"/>
		<path d="M7.44531 11.8041L8.75037 15.4163C8.75037 15.4163 8.91354 15.7543 9.08825 15.7543C9.26297 15.7543 11.8616 13.0508 11.8616 13.0508L14.7514 7.46924L7.49188 10.8716L7.44531 11.8041Z" fill="#C8DAEA"/>
		<path d="M9.17679 12.7305L8.92626 15.393C8.92626 15.393 8.8214 16.2089 9.63705 15.393C10.4527 14.5772 11.2334 13.9481 11.2334 13.9481" fill="#A9C6D8"/>
		<path d="M7.46945 11.933L4.7849 11.0583C4.7849 11.0583 4.46406 10.9282 4.56737 10.633C4.58864 10.5721 4.63154 10.5203 4.75987 10.4313C5.3547 10.0167 15.7696 6.27333 15.7696 6.27333C15.7696 6.27333 16.0637 6.17424 16.2371 6.24015C16.28 6.25343 16.3186 6.27787 16.349 6.31097C16.3793 6.34407 16.4003 6.38464 16.4099 6.42852C16.4286 6.50604 16.4365 6.5858 16.4332 6.66548C16.4323 6.73442 16.424 6.79831 16.4177 6.8985C16.3542 7.92196 14.456 15.5604 14.456 15.5604C14.456 15.5604 14.3424 16.0073 13.9355 16.0226C13.8355 16.0259 13.7359 16.0089 13.6426 15.9728C13.5493 15.9367 13.4642 15.8822 13.3924 15.8125C12.5939 15.1257 9.83399 13.2709 9.22413 12.863C9.21037 12.8536 9.19879 12.8414 9.19015 12.8272C9.18152 12.8129 9.17604 12.797 9.17408 12.7805C9.16555 12.7375 9.2123 12.6842 9.2123 12.6842C9.2123 12.6842 14.018 8.41256 14.1459 7.96412C14.1558 7.92938 14.1184 7.91224 14.0682 7.92746C13.749 8.04488 8.2158 11.5391 7.60511 11.9248C7.56115 11.9381 7.51469 11.9409 7.46945 11.933Z" fill="white"/>
	</g>
	<defs>
		<linearGradient id="paint0_linear_1_13747" x1="11" y1="22" x2="11" y2="0" gradientUnits="userSpaceOnUse">
			<stop stop-color="#1D93D2"/>
			<stop offset="1" stop-color="#38B0E3"/>
		</linearGradient>
		<clipPath id="clip0_1_13747">
			<rect width="22" height="22" fill="white"/>
		</clipPath>
	</defs>
</svg>
