<svg width="22" height="22" viewBox="0 0 22 22" fill="none" xmlns="http://www.w3.org/2000/svg">
	<g clip-path="url(#clip0_1_13737)">
		<path d="M22 0H0V22H22V0Z" fill="url(#paint0_linear_1_13737)"/>
		<path d="M4.66992 17.3376L5.55664 14.1882C4.98643 13.2195 4.68621 12.1173 4.68621 10.9851C4.68621 7.49885 7.52246 4.6626 11.0087 4.6626C14.4949 4.6626 17.3311 7.49885 17.3311 10.9851C17.3311 14.4713 14.4949 17.3076 11.0087 17.3076C9.92241 17.3076 8.85872 17.0295 7.91774 16.5015L4.66992 17.3376ZM8.08378 15.3513L8.27731 15.4695C9.09773 15.9703 10.0422 16.2351 11.0087 16.2351C13.9035 16.2351 16.2586 13.8799 16.2586 10.9851C16.2586 8.09024 13.9035 5.7351 11.0087 5.7351C8.11385 5.7351 5.75871 8.09024 5.75871 10.9851C5.75871 11.9938 6.04539 12.9733 6.58768 13.8177L6.71801 14.0207L6.20737 15.8343L8.08378 15.3513Z" fill="white"/>
		<path d="M9.23301 8.04239L8.82276 8.02003C8.6939 8.013 8.5675 8.05606 8.4701 8.14067C8.27121 8.31338 7.9532 8.64729 7.85552 9.0824C7.70986 9.73119 7.93497 10.5256 8.51757 11.3201C9.10018 12.1145 10.1859 13.3856 12.1058 13.9285C12.7245 14.1035 13.2112 13.9855 13.5867 13.7453C13.8841 13.5551 14.0891 13.2498 14.163 12.9046L14.2285 12.5986C14.2493 12.5014 14.1999 12.4027 14.1096 12.3611L12.7231 11.722C12.633 11.6805 12.5263 11.7067 12.4658 11.7852L11.9215 12.4908C11.8803 12.5441 11.81 12.5653 11.7464 12.5429C11.3736 12.4119 10.125 11.889 9.43989 10.5693C9.41017 10.512 9.41756 10.4425 9.45971 10.3937L9.97991 9.79193C10.0331 9.73047 10.0465 9.64408 10.0145 9.5694L9.41689 8.17113C9.38507 8.09669 9.31377 8.0468 9.23301 8.04239Z" fill="white"/>
	</g>
	<defs>
		<linearGradient id="paint0_linear_1_13737" x1="11" y1="0" x2="11" y2="32.5417" gradientUnits="userSpaceOnUse">
			<stop stop-color="#4CDE6A"/>
			<stop offset="1" stop-color="#29A955"/>
		</linearGradient>
		<clipPath id="clip0_1_13737">
			<rect width="22" height="22" rx="11" fill="white"/>
		</clipPath>
	</defs>
</svg>
